  0
SECTION
  2
HEADER
  9
$ACADVER
  1
AC1014
  9
$ACADMAINTVER
 70
     9
  9
$DWGCODEPAGE
  3
ANSI_1252
  9
$INSBASE
 10
0.0
 20
0.0
 30
0.0
  9
$EXTMIN
 10
1.000000000000000E+20
 20
1.000000000000000E+20
 30
1.000000000000000E+20
  9
$EXTMAX
 10
-1.000000000000000E+20
 20
-1.000000000000000E+20
 30
-1.000000000000000E+20
  9
$LIMMIN
 10
0.0
 20
0.0
  9
$LIMMAX
 10
12.0
 20
9.0
  9
$ORTHOMODE
 70
     0
  9
$REGENMODE
 70
     1
  9
$FILLMODE
 70
     1
  9
$QTEXTMODE
 70
     0
  9
$MIRRTEXT
 70
     1
  9
$DRAGMODE
 70
     2
  9
$LTSCALE
 40
1.0
  9
$OSMODE
 70
    37
  9
$ATTMODE
 70
     1
  9
$TEXTSIZE
 40
0.2
  9
$TRACEWID
 40
0.05
  9
$TEXTSTYLE
  7
STANDARD
  9
$CLAYER
  8
0
  9
$CELTYPE
  6
BYLAYER
  9
$CECOLOR
 62
   256
  9
$CELTSCALE
 40
1.0
  9
$DELOBJ
 70
     1
  9
$DISPSILH
 70
     0
  9
$DIMSCALE
 40
1.0
  9
$DIMASZ
 40
0.18
  9
$DIMEXO
 40
0.0625
  9
$DIMDLI
 40
0.38
  9
$DIMRND
 40
0.0
  9
$DIMDLE
 40
0.0
  9
$DIMEXE
 40
0.18
  9
$DIMTP
 40
0.0
  9
$DIMTM
 40
0.0
  9
$DIMTXT
 40
0.18
  9
$DIMCEN
 40
0.09
  9
$DIMTSZ
 40
0.0
  9
$DIMTOL
 70
     0
  9
$DIMLIM
 70
     0
  9
$DIMTIH
 70
     1
  9
$DIMTOH
 70
     1
  9
$DIMSE1
 70
     0
  9
$DIMSE2
 70
     0
  9
$DIMTAD
 70
     0
  9
$DIMZIN
 70
     0
  9
$DIMBLK
  1

  9
$DIMASO
 70
     1
  9
$DIMSHO
 70
     1
  9
$DIMPOST
  1

  9
$DIMAPOST
  1

  9
$DIMALT
 70
     0
  9
$DIMALTD
 70
     2
  9
$DIMALTF
 40
25.4
  9
$DIMLFAC
 40
1.0
  9
$DIMTOFL
 70
     0
  9
$DIMTVP
 40
0.0
  9
$DIMTIX
 70
     0
  9
$DIMSOXD
 70
     0
  9
$DIMSAH
 70
     0
  9
$DIMBLK1
  1

  9
$DIMBLK2
  1

  9
$DIMSTYLE
  2
STANDARD
  9
$DIMCLRD
 70
     0
  9
$DIMCLRE
 70
     0
  9
$DIMCLRT
 70
     0
  9
$DIMTFAC
 40
1.0
  9
$DIMGAP
 40
0.09
  9
$DIMJUST
 70
     0
  9
$DIMSD1
 70
     0
  9
$DIMSD2
 70
     0
  9
$DIMTOLJ
 70
     1
  9
$DIMTZIN
 70
     0
  9
$DIMALTZ
 70
     0
  9
$DIMALTTZ
 70
     0
  9
$DIMFIT
 70
     3
  9
$DIMUPT
 70
     0
  9
$DIMUNIT
 70
     2
  9
$DIMDEC
 70
     4
  9
$DIMTDEC
 70
     4
  9
$DIMALTU
 70
     2
  9
$DIMALTTD
 70
     2
  9
$DIMTXSTY
  7
STANDARD
  9
$DIMAUNIT
 70
     0
  9
$LUNITS
 70
     2
  9
$LUPREC
 70
     4
  9
$SKETCHINC
 40
0.1
  9
$FILLETRAD
 40
0.5
  9
$AUNITS
 70
     0
  9
$AUPREC
 70
     0
  9
$MENU
  1
.
  9
$ELEVATION
 40
0.0
  9
$PELEVATION
 40
0.0
  9
$THICKNESS
 40
0.0
  9
$LIMCHECK
 70
     0
  9
$CHAMFERA
 40
0.0
  9
$CHAMFERB
 40
0.0
  9
$CHAMFERC
 40
0.0
  9
$CHAMFERD
 40
0.0
  9
$SKPOLY
 70
     0
  9
$TDCREATE
 40
2458201.99284331
  9
$TDUPDATE
 40
2458201.992843542
  9
$TDINDWG
 40
0.0000000116
  9
$TDUSRTIMER
 40
0.0000000116
  9
$USRTIMER
 70
     1
  9
$ANGBASE
 50
0.0
  9
$ANGDIR
 70
     0
  9
$PDMODE
 70
     0
  9
$PDSIZE
 40
0.0
  9
$PLINEWID
 40
0.0
  9
$COORDS
 70
     1
  9
$SPLFRAME
 70
     0
  9
$SPLINETYPE
 70
     6
  9
$SPLINESEGS
 70
     8
  9
$ATTDIA
 70
     0
  9
$ATTREQ
 70
     1
  9
$HANDLING
 70
     1
  9
$HANDSEED
  5
334
  9
$SURFTAB1
 70
     6
  9
$SURFTAB2
 70
     6
  9
$SURFTYPE
 70
     6
  9
$SURFU
 70
     6
  9
$SURFV
 70
     6
  9
$UCSNAME
  2

  9
$UCSORG
 10
0.0
 20
0.0
 30
0.0
  9
$UCSXDIR
 10
1.0
 20
0.0
 30
0.0
  9
$UCSYDIR
 10
0.0
 20
1.0
 30
0.0
  9
$PUCSNAME
  2

  9
$PUCSORG
 10
0.0
 20
0.0
 30
0.0
  9
$PUCSXDIR
 10
1.0
 20
0.0
 30
0.0
  9
$PUCSYDIR
 10
0.0
 20
1.0
 30
0.0
  9
$USERI1
 70
     0
  9
$USERI2
 70
     0
  9
$USERI3
 70
     0
  9
$USERI4
 70
     0
  9
$USERI5
 70
     0
  9
$USERR1
 40
0.0
  9
$USERR2
 40
0.0
  9
$USERR3
 40
0.0
  9
$USERR4
 40
0.0
  9
$USERR5
 40
0.0
  9
$WORLDVIEW
 70
     1
  9
$SHADEDGE
 70
     3
  9
$SHADEDIF
 70
    70
  9
$TILEMODE
 70
     1
  9
$MAXACTVP
 70
    64
  9
$PINSBASE
 10
0.0
 20
0.0
 30
0.0
  9
$PLIMCHECK
 70
     0
  9
$PEXTMIN
 10
1.000000000000000E+20
 20
1.000000000000000E+20
 30
1.000000000000000E+20
  9
$PEXTMAX
 10
-1.000000000000000E+20
 20
-1.000000000000000E+20
 30
-1.000000000000000E+20
  9
$PLIMMIN
 10
0.0
 20
0.0
  9
$PLIMMAX
 10
12.0
 20
9.0
  9
$UNITMODE
 70
     0
  9
$VISRETAIN
 70
     1
  9
$PLINEGEN
 70
     0
  9
$PSLTSCALE
 70
     1
  9
$TREEDEPTH
 70
  3020
  9
$PICKSTYLE
 70
     1
  9
$CMLSTYLE
  2
STANDARD
  9
$CMLJUST
 70
     0
  9
$CMLSCALE
 40
1.0
  9
$PROXYGRAPHICS
 70
     1
  9
$MEASUREMENT
 70
     1
  0
ENDSEC
  0
SECTION
  2
CLASSES
  0
CLASS
  1
ACDBDICTIONARYWDFLT
  2
AcDbDictionaryWithDefault
  3
ObjectDBX Classes
 90
        0
280
     0
281
     0
  0
CLASS
  1
VISUALSTYLE
  2
AcDbVisualStyle
  3
ObjectDBX Classes
 90
     4095
280
     0
281
     0
  0
CLASS
  1
MATERIAL
  2
AcDbMaterial
  3
ObjectDBX Classes
 90
     1153
280
     0
281
     0
  0
CLASS
  1
SCALE
  2
AcDbScale
  3
ObjectDBX Classes
 90
     1153
280
     0
281
     0
  0
CLASS
  1
TABLESTYLE
  2
AcDbTableStyle
  3
ObjectDBX Classes
 90
     4095
280
     0
281
     0
  0
CLASS
  1
MLEADERSTYLE
  2
AcDbMLeaderStyle
  3
ACDB_MLEADERSTYLE_CLASS
 90
     4095
280
     0
281
     0
  0
CLASS
  1
SUN
  2
AcDbSun
  3
SCENEOE
 90
     1153
280
     0
281
     0
  0
CLASS
  1
DICTIONARYVAR
  2
AcDbDictionaryVar
  3
ObjectDBX Classes
 90
        0
280
     0
281
     0
  0
CLASS
  1
XRECORD
  2
AcDbXrecord
  3
ObjectDBX Classes
 90
        0
280
     0
281
     0
  0
CLASS
  1
LWPOLYLINE
  2
AcDbPolyline
  3
ObjectDBX Classes
 90
        0
280
     0
281
     1
  0
CLASS
  1
HATCH
  2
AcDbHatch
  3
ObjectDBX Classes
 90
        0
280
     0
281
     1
  0
CLASS
  1
ACDBPLACEHOLDER
  2
AcDbPlaceHolder
  3
ObjectDBX Classes
 90
        0
280
     0
281
     0
  0
CLASS
  1
LAYOUT
  2
AcDbLayout
  3
ObjectDBX Classes
 90
        0
280
     0
281
     0
  0
ENDSEC
  0
SECTION
  2
TABLES
  0
TABLE
  2
VPORT
  5
8
102
{ACAD_XDICTIONARY
360
329
102
}
330
0
100
AcDbSymbolTable
 70
     1
  0
VPORT
  5
29
330
8
100
AcDbSymbolTableRecord
100
AcDbViewportTableRecord
  2
*ACTIVE
 70
     0
 10
0.0
 20
0.0
 11
1.0
 21
1.0
 12
0.0
 22
0.0
 13
0.0
 23
0.0
 14
0.5
 24
0.5
 15
0.5
 25
0.5
 16
0.0
 26
0.0
 36
1.0
 17
0.0
 27
0.0
 37
-1000.0
 40
150.8868064667853
 41
2.064655172413794
 42
50.0
 43
239.2759055676202
 44
335.827414340888
 50
0.0
 51
0.0
 71
     0
 72
   100
 73
     1
 74
     3
 75
     0
 76
     0
 77
     0
 78
     0
  0
ENDTAB
  0
TABLE
  2
LTYPE
  5
5
330
0
100
AcDbSymbolTable
 70
     1
  0
LTYPE
  5
14
330
5
100
AcDbSymbolTableRecord
100
AcDbLinetypeTableRecord
  2
BYBLOCK
 70
     0
  3

 72
    65
 73
     0
 40
0.0
  0
LTYPE
  5
15
330
5
100
AcDbSymbolTableRecord
100
AcDbLinetypeTableRecord
  2
BYLAYER
 70
     0
  3

 72
    65
 73
     0
 40
0.0
  0
LTYPE
  5
16
330
5
100
AcDbSymbolTableRecord
100
AcDbLinetypeTableRecord
  2
CONTINUOUS
 70
     0
  3
Solid line
 72
    65
 73
     0
 40
0.0
  0
ENDTAB
  0
TABLE
  2
LAYER
  5
2
330
0
100
AcDbSymbolTable
 70
     3
  0
LAYER
  5
10
330
2
100
AcDbSymbolTableRecord
100
AcDbLayerTableRecord
  2
0
 70
     0
 62
     7
  6
CONTINUOUS
  0
LAYER
  5
6E
330
2
100
AcDbSymbolTableRecord
100
AcDbLayerTableRecord
  2
PROFILEEDGES
 70
     0
 62
     7
  6
CONTINUOUS
  0
LAYER
  5
6F
330
2
100
AcDbSymbolTableRecord
100
AcDbLayerTableRecord
  2
SECTIONCUTEDGES
 70
     0
 62
     7
  6
CONTINUOUS
  0
ENDTAB
  0
TABLE
  2
STYLE
  5
3
330
0
100
AcDbSymbolTable
 70
     1
  0
STYLE
  5
11
330
3
100
AcDbSymbolTableRecord
100
AcDbTextStyleTableRecord
  2
STANDARD
 70
     0
 40
0.0
 41
1.0
 50
0.0
 71
     0
 42
0.2
  3
txt
  4

  0
ENDTAB
  0
TABLE
  2
VIEW
  5
6
330
0
100
AcDbSymbolTable
 70
     0
  0
ENDTAB
  0
TABLE
  2
UCS
  5
7
330
0
100
AcDbSymbolTable
 70
     0
  0
ENDTAB
  0
TABLE
  2
APPID
  5
9
330
0
100
AcDbSymbolTable
 70
     2
  0
APPID
  5
12
330
9
100
AcDbSymbolTableRecord
100
AcDbRegAppTableRecord
  2
ACAD
 70
     0
  0
APPID
  5
333
330
9
100
AcDbSymbolTableRecord
100
AcDbRegAppTableRecord
  2
ACAD_MLEADERVER
 70
     0
  0
ENDTAB
  0
TABLE
  2
DIMSTYLE
  5
A
330
0
100
AcDbSymbolTable
 70
     1
  0
DIMSTYLE
105
27
330
A
100
AcDbSymbolTableRecord
100
AcDbDimStyleTableRecord
  2
STANDARD
 70
     0
  3

  4

  5

  6

  7

 40
1.0
 41
0.18
 42
0.0625
 43
0.38
 44
0.18
 45
0.0
 46
0.0
 47
0.0
 48
0.0
140
0.18
141
0.09
142
0.0
143
25.4
144
1.0
145
0.0
146
1.0
147
0.09
 71
     0
 72
     0
 73
     1
 74
     1
 75
     0
 76
     0
 77
     0
 78
     0
170
     0
171
     2
172
     0
173
     0
174
     0
175
     0
176
     0
177
     0
178
     0
270
     2
271
     4
272
     4
273
     2
274
     2
340
11
275
     0
280
     0
281
     0
282
     0
283
     1
284
     0
285
     0
286
     0
287
     3
288
     0
  0
ENDTAB
  0
TABLE
  2
BLOCK_RECORD
  5
1
330
0
100
AcDbSymbolTable
 70
     1
  0
BLOCK_RECORD
  5
1F
330
1
100
AcDbSymbolTableRecord
100
AcDbBlockTableRecord
  2
*MODEL_SPACE
  0
BLOCK_RECORD
  5
1B
330
1
100
AcDbSymbolTableRecord
100
AcDbBlockTableRecord
  2
*PAPER_SPACE
  0
ENDTAB
  0
ENDSEC
  0
SECTION
  2
BLOCKS
  0
BLOCK
  5
20
330
1F
100
AcDbEntity
  8
0
100
AcDbBlockBegin
  2
*MODEL_SPACE
 70
     0
 10
0.0
 20
0.0
 30
0.0
  3
*MODEL_SPACE
  1

  0
ENDBLK
  5
21
330
1F
100
AcDbEntity
  8
0
100
AcDbBlockEnd
  0
BLOCK
  5
1C
330
1B
100
AcDbEntity
 67
     1
  8
0
100
AcDbBlockBegin
  2
*PAPER_SPACE
 70
     0
 10
0.0
 20
0.0
 30
0.0
  3
*PAPER_SPACE
  1

  0
ENDBLK
  5
1D
330
1B
100
AcDbEntity
 67
     1
  8
0
100
AcDbBlockEnd
  0
ENDSEC
  0
SECTION
  2
ENTITIES
  0
LINE
  5
70
330
1F
100
AcDbEntity
  8
0
100
AcDbLine
 10
63.40544015239168
 20
45.29012614095285
 30
0.0
 11
63.46235333848654
 21
45.29259173790016
 31
0.0
  0
LINE
  5
71
330
1F
100
AcDbEntity
  8
0
100
AcDbLine
 10
87.60370711324366
 20
-26.86498885708723
 30
0.0
 11
87.64565634933875
 21
-26.86951130848113
 31
0.0
  0
LINE
  5
72
330
1F
100
AcDbEntity
  8
0
100
AcDbLine
 10
85.91443313103143
 20
29.43661022465652
 30
0.0
 11
85.93735508371093
 21
29.4534689259164
 31
0.0
  0
LINE
  5
73
330
1F
100
AcDbEntity
  8
0
100
AcDbLine
 10
16.88717067396401
 20
0.0238461502402218
 30
0.0
 11
16.7974225661005
 21
0.3970745545145048
 31
0.0
  0
LINE
  5
74
330
1F
100
AcDbEntity
  8
0
100
AcDbLine
 10
-49.05540970365719
 20
-0.880287534628369
 30
0.0
 11
-48.67206661984707
 21
-0.8987414175719755
 31
0.0
  0
LINE
  5
75
330
1F
100
AcDbEntity
  8
0
100
AcDbLine
 10
101.7649923769216
 20
55.45859787670646
 30
0.0
 11
101.7300496657585
 21
55.91351822050794
 31
0.0
  0
LINE
  5
76
330
1F
100
AcDbEntity
  8
0
100
AcDbLine
 10
101.7300496657585
 20
55.91351822050794
 30
0.0
 11
101.6356965059898
 21
56.36062634375064
 31
0.0
  0
LINE
  5
77
330
1F
100
AcDbEntity
  8
0
100
AcDbLine
 10
101.6356965059898
 20
56.36062634375064
 30
0.0
 11
101.4835554851062
 21
56.79227548570093
 31
0.0
  0
LINE
  5
78
330
1F
100
AcDbEntity
  8
0
100
AcDbLine
 10
101.4835554851062
 20
56.79227548570093
 30
0.0
 11
101.2762367738035
 21
57.2010853898149
 31
0.0
  0
LINE
  5
79
330
1F
100
AcDbEntity
  8
0
100
AcDbLine
 10
101.2762367738035
 20
57.2010853898149
 30
0.0
 11
101.0172929889671
 21
57.58006821502848
 31
0.0
  0
LINE
  5
7A
330
1F
100
AcDbEntity
  8
0
100
AcDbLine
 10
101.0172929889671
 20
57.58006821502848
 30
0.0
 11
100.7111580443092
 21
57.92274762184416
 31
0.0
  0
LINE
  5
7B
330
1F
100
AcDbEntity
  8
0
100
AcDbLine
 10
100.7111580443092
 20
57.92274762184416
 30
0.0
 11
100.3630710595993
 21
58.22326902819736
 31
0.0
  0
LINE
  5
7C
330
1F
100
AcDbEntity
  8
0
100
AcDbLine
 10
100.3630710595993
 20
58.22326902819736
 30
0.0
 11
99.97898664569155
 21
58.47649918647399
 31
0.0
  0
LINE
  5
7D
330
1F
100
AcDbEntity
  8
0
100
AcDbLine
 10
99.97898664569155
 20
58.47649918647399
 30
0.0
 11
99.56547310524506
 21
58.67811341849184
 31
0.0
  0
LINE
  5
7E
330
1F
100
AcDbEntity
  8
0
100
AcDbLine
 10
99.56547310524506
 20
58.67811341849184
 30
0.0
 11
99.12960028506039
 21
58.82466905639924
 31
0.0
  0
LINE
  5
7F
330
1F
100
AcDbEntity
  8
0
100
AcDbLine
 10
99.12960028506039
 20
58.82466905639924
 30
0.0
 11
98.67881898268621
 21
58.91366387067148
 31
0.0
  0
LINE
  5
80
330
1F
100
AcDbEntity
  8
0
100
AcDbLine
 10
98.67881898268621
 20
58.91366387067148
 30
0.0
 11
98.22083394523763
 21
58.94357851790984
 31
0.0
  0
LINE
  5
81
330
1F
100
AcDbEntity
  8
0
100
AcDbLine
 10
98.22083394523763
 20
58.94357851790984
 30
0.0
 11
54.97579164482607
 21
58.95484327713207
 31
0.0
  0
LINE
  5
82
330
1F
100
AcDbEntity
  8
0
100
AcDbLine
 10
99.45145900435182
 20
-58.63901007692625
 30
0.0
 11
99.91468820305812
 21
-58.60856677182574
 31
0.0
  0
LINE
  5
83
330
1F
100
AcDbEntity
  8
0
100
AcDbLine
 10
99.91468820305812
 20
-58.60856677182574
 30
0.0
 11
100.3693426050649
 21
-58.51751434427307
 31
0.0
  0
LINE
  5
84
330
1F
100
AcDbEntity
  8
0
100
AcDbLine
 10
100.3693426050649
 20
-58.51751434427307
 30
0.0
 11
100.8076345609369
 21
-58.36741423189444
 31
0.0
  0
LINE
  5
85
330
1F
100
AcDbEntity
  8
0
100
AcDbLine
 10
100.8076345609369
 20
-58.36741423189444
 30
0.0
 11
101.2220575994044
 21
-58.16084026831714
 31
0.0
  0
LINE
  5
86
330
1F
100
AcDbEntity
  8
0
100
AcDbLine
 10
101.2220575994044
 20
-58.16084026831714
 30
0.0
 11
101.6055153544104
 21
-57.90133426346839
 31
0.0
  0
LINE
  5
87
330
1F
100
AcDbEntity
  8
0
100
AcDbLine
 10
101.6055153544104
 20
-57.90133426346839
 30
0.0
 11
101.9514433589831
 21
-57.59334490606478
 31
0.0
  0
LINE
  5
88
330
1F
100
AcDbEntity
  8
0
100
AcDbLine
 10
101.9514433589831
 20
-57.59334490606478
 30
0.0
 11
102.2539215965654
 21
-57.24215106758847
 31
0.0
  0
LINE
  5
89
330
1F
100
AcDbEntity
  8
0
100
AcDbLine
 10
102.2539215965654
 20
-57.24215106758847
 30
0.0
 11
102.5077758682616
 21
-56.85377085949904
 31
0.0
  0
LINE
  5
8A
330
1F
100
AcDbEntity
  8
0
100
AcDbLine
 10
102.5077758682616
 20
-56.85377085949904
 30
0.0
 11
102.7086662365765
 21
-56.4348580420523
 31
0.0
  0
LINE
  5
8B
330
1F
100
AcDbEntity
  8
0
100
AcDbLine
 10
102.7086662365765
 20
-56.4348580420523
 30
0.0
 11
102.85316103844
 21
-55.99258759947627
 31
0.0
  0
LINE
  5
8C
330
1F
100
AcDbEntity
  8
0
100
AcDbLine
 10
102.85316103844
 20
-55.99258759947627
 30
0.0
 11
102.9387952178825
 21
-55.53453247869326
 31
0.0
  0
LINE
  5
8D
330
1F
100
AcDbEntity
  8
0
100
AcDbLine
 10
102.9387952178825
 20
-55.53453247869326
 30
0.0
 11
102.9641120065322
 21
-55.0685336343594
 31
0.0
  0
LINE
  5
8E
330
1F
100
AcDbEntity
  8
0
100
AcDbLine
 10
102.9641120065322
 20
-55.0685336343594
 30
0.0
 11
101.7649923769216
 21
55.45859787670646
 31
0.0
  0
LINE
  5
8F
330
1F
100
AcDbEntity
  8
0
100
AcDbLine
 10
-132.0797429982679
 20
55.51953450929918
 30
0.0
 11
-132.0430546317959
 21
55.97443316079552
 31
0.0
  0
LINE
  5
90
330
1F
100
AcDbEntity
  8
0
100
AcDbLine
 10
-132.0430546317959
 20
55.97443316079552
 30
0.0
 11
-131.9469866522255
 21
56.42148869368297
 31
0.0
  0
LINE
  5
91
330
1F
100
AcDbEntity
  8
0
100
AcDbLine
 10
-131.9469866522255
 20
56.42148869368297
 30
0.0
 11
-131.7931909730852
 21
56.85305525555683
 31
0.0
  0
LINE
  5
92
330
1F
100
AcDbEntity
  8
0
100
AcDbLine
 10
-131.7931909730852
 20
56.85305525555683
 30
0.0
 11
-131.5843060530432
 21
57.26175401008307
 31
0.0
  0
LINE
  5
93
330
1F
100
AcDbEntity
  8
0
100
AcDbLine
 10
-131.5843060530432
 20
57.26175401008307
 30
0.0
 11
-131.3239112764939
 21
57.64059902349534
 31
0.0
  0
LINE
  5
94
330
1F
100
AcDbEntity
  8
0
100
AcDbLine
 10
-131.3239112764939
 20
57.64059902349534
 30
0.0
 11
-131.0164653482914
 21
57.98311631767362
 31
0.0
  0
LINE
  5
95
330
1F
100
AcDbEntity
  8
0
100
AcDbLine
 10
-131.0164653482914
 20
57.98311631767362
 30
0.0
 11
-130.6672297812308
 21
58.28345408537737
 31
0.0
  0
LINE
  5
96
330
1F
100
AcDbEntity
  8
0
100
AcDbLine
 10
-130.6672297812308
 20
58.28345408537737
 30
0.0
 11
-130.2821788005316
 21
58.53648221971516
 31
0.0
  0
LINE
  5
97
330
1F
100
AcDbEntity
  8
0
100
AcDbLine
 10
-130.2821788005316
 20
58.53648221971516
 30
0.0
 11
-129.8678972115512
 21
58.73787949548278
 31
0.0
  0
LINE
  5
98
330
1F
100
AcDbEntity
  8
0
100
AcDbLine
 10
-129.8678972115512
 20
58.73787949548278
 30
0.0
 11
-129.4314679721741
 21
58.88420695123313
 31
0.0
  0
LINE
  5
99
330
1F
100
AcDbEntity
  8
0
100
AcDbLine
 10
-129.4314679721741
 20
58.88420695123313
 30
0.0
 11
-128.9803513771558
 21
58.97296625424832
 31
0.0
  0
LINE
  5
9A
330
1F
100
AcDbEntity
  8
0
100
AcDbLine
 10
-128.9803513771558
 20
58.97296625424832
 30
0.0
 11
-128.5222578960259
 21
59.002642082171
 31
0.0
  0
LINE
  5
9B
330
1F
100
AcDbEntity
  8
0
100
AcDbLine
 10
-132.0797429982679
 20
55.51953450929918
 30
0.0
 11
-133.7030900045669
 21
-55.00611713389497
 31
0.0
  0
LINE
  5
9C
330
1F
100
AcDbEntity
  8
0
100
AcDbLine
 10
-130.204192002387
 20
-58.5784194004891
 30
0.0
 11
-130.6672978122981
 21
-58.54773189845707
 31
0.0
  0
LINE
  5
9D
330
1F
100
AcDbEntity
  8
0
100
AcDbLine
 10
-130.6672978122981
 20
-58.54773189845707
 30
0.0
 11
-131.1215962821441
 21
-58.45644026077667
 31
0.0
  0
LINE
  5
9E
330
1F
100
AcDbEntity
  8
0
100
AcDbLine
 10
-131.1215962821441
 20
-58.45644026077667
 30
0.0
 11
-131.5593058681117
 21
-58.30611002684481
 31
0.0
  0
LINE
  5
9F
330
1F
100
AcDbEntity
  8
0
100
AcDbLine
 10
-131.5593058681117
 20
-58.30611002684481
 30
0.0
 11
-131.9729300879733
 21
-58.09931897525341
 31
0.0
  0
LINE
  5
A0
330
1F
100
AcDbEntity
  8
0
100
AcDbLine
 10
-131.9729300879733
 20
-58.09931897525341
 30
0.0
 11
-132.3553862755456
 21
-57.83961263607568
 31
0.0
  0
LINE
  5
A1
330
1F
100
AcDbEntity
  8
0
100
AcDbLine
 10
-132.3553862755456
 20
-57.83961263607568
 30
0.0
 11
-132.7001271379781
 21
-57.53144312931363
 31
0.0
  0
LINE
  5
A2
330
1F
100
AcDbEntity
  8
0
100
AcDbLine
 10
-132.7001271379781
 20
-57.53144312931363
 30
0.0
 11
-133.0012530107033
 21
-57.18009240992505
 31
0.0
  0
LINE
  5
A3
330
1F
100
AcDbEntity
  8
0
100
AcDbLine
 10
-133.0012530107033
 20
-57.18009240992505
 30
0.0
 11
-133.2536128737501
 21
-56.79158127220371
 31
0.0
  0
LINE
  5
A4
330
1F
100
AcDbEntity
  8
0
100
AcDbLine
 10
-133.2536128737501
 20
-56.79158127220371
 30
0.0
 11
-133.4528923961853
 21
-56.37256571279335
 31
0.0
  0
LINE
  5
A5
330
1F
100
AcDbEntity
  8
0
100
AcDbLine
 10
-133.4528923961853
 20
-56.37256571279335
 30
0.0
 11
-133.5956875084936
 21
-55.93022246786192
 31
0.0
  0
LINE
  5
A6
330
1F
100
AcDbEntity
  8
0
100
AcDbLine
 10
-133.5956875084936
 20
-55.93022246786192
 30
0.0
 11
-133.6795622609716
 21
-55.47212572225746
 31
0.0
  0
LINE
  5
A7
330
1F
100
AcDbEntity
  8
0
100
AcDbLine
 10
-133.6795622609716
 20
-55.47212572225746
 30
0.0
 11
-133.7030900045669
 21
-55.00611713389497
 31
0.0
  0
LINE
  5
A8
330
1F
100
AcDbEntity
  8
0
100
AcDbLine
 10
-130.204192002387
 20
-58.5784194004891
 30
0.0
 11
-86.40411908177012
 21
-58.58997529312499
 31
0.0
  0
LINE
  5
A9
330
1F
100
AcDbEntity
  8
0
100
AcDbLine
 10
-82.81991058299596
 20
-55.01953661054826
 30
0.0
 11
-59.15326529551314
 21
-55.02577824083765
 31
0.0
  0
LINE
  5
AA
330
1F
100
AcDbEntity
  8
0
100
AcDbLine
 10
-55.62562414156968
 20
-58.59809566734598
 30
0.0
 11
24.87223291158476
 21
-58.61933363640623
 31
0.0
  0
LINE
  5
AB
330
1F
100
AcDbEntity
  8
0
100
AcDbLine
 10
-59.15326529551314
 20
-55.02577824083765
 30
0.0
 11
-55.62562414156968
 21
-58.59809566734598
 31
0.0
  0
LINE
  5
AC
330
1F
100
AcDbEntity
  8
0
100
AcDbLine
 10
24.87223291158476
 20
-58.61933363640623
 30
0.0
 11
28.41359944773652
 21
-55.04887234600926
 31
0.0
  0
LINE
  5
AD
330
1F
100
AcDbEntity
  8
0
100
AcDbLine
 10
28.41359944773652
 20
-55.04887234600926
 30
0.0
 11
52.08039456229788
 21
-55.05511401581271
 31
0.0
  0
LINE
  5
AE
330
1F
100
AcDbEntity
  8
0
100
AcDbLine
 10
55.65092277713177
 20
-58.62745406205494
 30
0.0
 11
99.45145900435182
 21
-58.63901007692625
 31
0.0
  0
LINE
  5
AF
330
1F
100
AcDbEntity
  8
0
100
AcDbLine
 10
-85.27766722515729
 20
58.99137744059227
 30
0.0
 11
-128.5222578960259
 21
59.002642082171
 31
0.0
  0
LINE
  5
B0
330
1F
100
AcDbEntity
  8
0
100
AcDbLine
 10
-81.80338752529657
 20
55.50643320173018
 30
0.0
 11
-58.41898712523486
 21
55.5003395575295
 31
0.0
  0
LINE
  5
B1
330
1F
100
AcDbEntity
  8
0
100
AcDbLine
 10
-58.41898712523486
 20
55.5003395575295
 30
0.0
 11
-54.88951280946932
 21
58.98346172992375
 31
0.0
  0
LINE
  5
B2
330
1F
100
AcDbEntity
  8
0
100
AcDbLine
 10
54.97579164482607
 20
58.95484327713207
 30
0.0
 11
51.48811163756528
 21
55.47169932115254
 31
0.0
  0
LINE
  5
B3
330
1F
100
AcDbEntity
  8
0
100
AcDbLine
 10
51.48811163756528
 20
55.47169932115254
 30
0.0
 11
28.10356496275853
 21
55.47779300347037
 31
0.0
  0
LINE
  5
B4
330
1F
100
AcDbEntity
  8
0
100
AcDbLine
 10
24.58744721663971
 20
58.96275903729634
 30
0.0
 11
-54.88951280946932
 21
58.98346172992375
 31
0.0
  0
LINE
  5
B5
330
1F
100
AcDbEntity
  8
0
100
AcDbLine
 10
28.10356496275853
 20
55.47779300347037
 30
0.0
 11
24.58744721663971
 21
58.96275903729634
 31
0.0
  0
LINE
  5
B6
330
1F
100
AcDbEntity
  8
0
100
AcDbLine
 10
-85.23604650702944
 20
58.95955295931761
 30
0.0
 11
-81.80338752529657
 21
55.50643320173018
 31
0.0
  0
LINE
  5
B7
330
1F
100
AcDbEntity
  8
0
100
AcDbLine
 10
-85.27766722515729
 20
58.99137744059227
 30
0.0
 11
-85.23604650702944
 21
58.95955295931761
 31
0.0
  0
LINE
  5
B8
330
1F
100
AcDbEntity
  8
0
100
AcDbLine
 10
-86.36140716659494
 20
-58.5640846903535
 30
0.0
 11
-82.81991058299596
 21
-55.01953661054826
 31
0.0
  0
LINE
  5
B9
330
1F
100
AcDbEntity
  8
0
100
AcDbLine
 10
-86.40411908177012
 20
-58.58997529312499
 30
0.0
 11
-86.36140716659494
 21
-58.5640846903535
 31
0.0
  0
LINE
  5
BA
330
1F
100
AcDbEntity
  8
0
100
AcDbLine
 10
52.08039456229788
 20
-55.05511401581271
 30
0.0
 11
55.62341289540041
 21
-58.60154482782029
 31
0.0
  0
LINE
  5
BB
330
1F
100
AcDbEntity
  8
0
100
AcDbLine
 10
55.65092277713177
 20
-58.62745406205494
 30
0.0
 11
55.62341289540041
 21
-58.60154482782029
 31
0.0
  0
LINE
  5
BC
330
1F
100
AcDbEntity
  8
0
100
AcDbLine
 10
-36.0239605629171
 20
-41.96029191484875
 30
0.0
 11
-35.5654531326138
 21
-42.02106424073686
 31
0.0
  0
LINE
  5
BD
330
1F
100
AcDbEntity
  8
0
100
AcDbLine
 10
-35.5654531326138
 20
-42.02106424073686
 30
0.0
 11
-35.13867905690127
 21
-42.19900263743671
 31
0.0
  0
LINE
  5
BE
330
1F
100
AcDbEntity
  8
0
100
AcDbLine
 10
-35.13867905690127
 20
-42.19900263743671
 30
0.0
 11
-34.77270987105299
 21
-42.48199342328392
 31
0.0
  0
LINE
  5
BF
330
1F
100
AcDbEntity
  8
0
100
AcDbLine
 10
-34.77270987105299
 20
-42.48199342328392
 30
0.0
 11
-34.49248127880856
 21
-42.85076835038096
 31
0.0
  0
LINE
  5
C0
330
1F
100
AcDbEntity
  8
0
100
AcDbLine
 10
-34.49248127880856
 20
-42.85076835038096
 30
0.0
 11
-34.31709502965994
 21
-43.28021312209322
 31
0.0
  0
LINE
  5
C1
330
1F
100
AcDbEntity
  8
0
100
AcDbLine
 10
-34.31709502965994
 20
-43.28021312209322
 30
0.0
 11
-34.25851592641693
 21
-43.74107430832495
 31
0.0
  0
LINE
  5
C2
330
1F
100
AcDbEntity
  8
0
100
AcDbLine
 10
-34.25851592641693
 20
-43.74107430832495
 30
0.0
 11
-34.32075309091039
 21
-44.20194956254196
 31
0.0
  0
LINE
  5
C3
330
1F
100
AcDbEntity
  8
0
100
AcDbLine
 10
-34.32075309091039
 20
-44.20194956254196
 30
0.0
 11
-34.49958218047644
 21
-44.6314264102142
 31
0.0
  0
LINE
  5
C4
330
1F
100
AcDbEntity
  8
0
100
AcDbLine
 10
-34.49958218047644
 20
-44.6314264102142
 30
0.0
 11
-34.78282870937246
 21
-45.00022418436729
 31
0.0
  0
LINE
  5
C5
330
1F
100
AcDbEntity
  8
0
100
AcDbLine
 10
-36.92432916196815
 20
-45.28272567227036
 30
0.0
 11
-37.29034328225457
 21
-44.99956359064315
 31
0.0
  0
LINE
  5
C6
330
1F
100
AcDbEntity
  8
0
100
AcDbLine
 10
-37.29034328225457
 20
-44.99956359064315
 30
0.0
 11
-37.57052542780727
 21
-44.63061741591073
 31
0.0
  0
LINE
  5
C7
330
1F
100
AcDbEntity
  8
0
100
AcDbLine
 10
-37.27954236589576
 20
-42.48133318889225
 30
0.0
 11
-36.91122313225076
 21
-42.19853580976053
 31
0.0
  0
LINE
  5
C8
330
1F
100
AcDbEntity
  8
0
100
AcDbLine
 10
-36.91122313225076
 20
-42.19853580976053
 30
0.0
 11
-36.48297183289591
 21
-42.02082260223614
 31
0.0
  0
LINE
  5
C9
330
1F
100
AcDbEntity
  8
0
100
AcDbLine
 10
-36.48297183289591
 20
-42.02082260223614
 30
0.0
 11
-36.0239605629171
 21
-41.96029191484875
 31
0.0
  0
LINE
  5
CA
330
1F
100
AcDbEntity
  8
0
100
AcDbLine
 10
7.107789015908963
 20
-43.75197059768322
 30
0.0
 11
7.047611389470455
 21
-44.21284693697015
 31
0.0
  0
LINE
  5
CB
330
1F
100
AcDbEntity
  8
0
100
AcDbLine
 10
7.047611389470455
 20
-44.21284693697015
 30
0.0
 11
6.870701383952162
 21
-44.64232479583752
 31
0.0
  0
LINE
  5
CC
330
1F
100
AcDbEntity
  8
0
100
AcDbLine
 10
6.870701383952162
 20
-44.64232479583752
 30
0.0
 11
6.589102646667421
 21
-45.01112343835547
 31
0.0
  0
LINE
  5
CD
330
1F
100
AcDbEntity
  8
0
100
AcDbLine
 10
6.589102646667421
 20
-45.01112343835547
 30
0.0
 11
6.222001094739534
 21
-45.29409273142223
 31
0.0
  0
LINE
  5
CE
330
1F
100
AcDbEntity
  8
0
100
AcDbLine
 10
6.222001094739534
 20
-45.29409273142223
 30
0.0
 11
5.794418653383533
 21
-45.47193167153996
 31
0.0
  0
LINE
  5
CF
330
1F
100
AcDbEntity
  8
0
100
AcDbLine
 10
5.794418653383533
 20
-45.47193167153996
 30
0.0
 11
5.335506831697217
 21
-45.53250830385436
 31
0.0
  0
LINE
  5
D0
330
1F
100
AcDbEntity
  8
0
100
AcDbLine
 10
5.335506831697217
 20
-45.53250830385436
 30
0.0
 11
4.876556752749062
 21
-45.4716898528036
 31
0.0
  0
LINE
  5
D1
330
1F
100
AcDbEntity
  8
0
100
AcDbLine
 10
4.876556752749062
 20
-45.4716898528036
 30
0.0
 11
4.448862147272133
 21
-45.29362559145504
 31
0.0
  0
LINE
  5
D2
330
1F
100
AcDbEntity
  8
0
100
AcDbLine
 10
4.448862147272133
 20
-45.29362559145504
 30
0.0
 11
4.08158216951756
 21
-45.01046284307588
 31
0.0
  0
LINE
  5
D3
330
1F
100
AcDbEntity
  8
0
100
AcDbLine
 10
4.08158216951756
 20
-45.01046284307588
 30
0.0
 11
3.799750905975965
 21
-44.64151579962925
 31
0.0
  0
LINE
  5
D4
330
1F
100
AcDbEntity
  8
0
100
AcDbLine
 10
3.799750905975965
 20
-44.64151579962925
 30
0.0
 11
3.622570121902484
 21
-44.21194470267606
 31
0.0
  0
LINE
  5
D5
330
1F
100
AcDbEntity
  8
0
100
AcDbLine
 10
3.622570121902484
 20
-44.21194470267606
 30
0.0
 11
3.562101919079031
 21
-43.75103662901876
 31
0.0
  0
LINE
  5
D6
330
1F
100
AcDbEntity
  8
0
100
AcDbLine
 10
3.562101919079031
 20
-43.75103662901876
 30
0.0
 11
3.622450068312309
 21
-43.2902062718415
 31
0.0
  0
LINE
  5
D7
330
1F
100
AcDbEntity
  8
0
100
AcDbLine
 10
3.622450068312309
 20
-43.2902062718415
 30
0.0
 11
3.799484910151832
 21
-42.86085385876829
 31
0.0
  0
LINE
  5
D8
330
1F
100
AcDbEntity
  8
0
100
AcDbLine
 10
3.799484910151832
 20
-42.86085385876829
 30
0.0
 11
4.081129347492717
 21
-42.49222651263212
 31
0.0
  0
LINE
  5
D9
330
1F
100
AcDbEntity
  8
0
100
AcDbLine
 10
4.081129347492717
 20
-42.49222651263212
 30
0.0
 11
4.448185217916585
 21
-42.20942846780866
 31
0.0
  0
LINE
  5
DA
330
1F
100
AcDbEntity
  8
0
100
AcDbLine
 10
4.448185217916585
 20
-42.20942846780866
 30
0.0
 11
4.875642836528463
 21
-42.03171484196617
 31
0.0
  0
LINE
  5
DB
330
1F
100
AcDbEntity
  8
0
100
AcDbLine
 10
4.875642836528463
 20
-42.03171484196617
 30
0.0
 11
5.33438414038408
 21
-41.97118401209776
 31
0.0
  0
LINE
  5
DC
330
1F
100
AcDbEntity
  8
0
100
AcDbLine
 10
5.33438414038408
 20
-41.97118401209776
 30
0.0
 11
5.793163696531973
 21
-42.03195648103567
 31
0.0
  0
LINE
  5
DD
330
1F
100
AcDbEntity
  8
0
100
AcDbLine
 10
5.793163696531973
 20
-42.03195648103567
 30
0.0
 11
6.220733465687713
 21
-42.20989529658372
 31
0.0
  0
LINE
  5
DE
330
1F
100
AcDbEntity
  8
0
100
AcDbLine
 10
6.220733465687713
 20
-42.20989529658372
 30
0.0
 11
6.587967743391585
 21
-42.49288674857797
 31
0.0
  0
LINE
  5
DF
330
1F
100
AcDbEntity
  8
0
100
AcDbLine
 10
6.587967743391585
 20
-42.49288674857797
 30
0.0
 11
6.86984468844269
 21
-42.86166254378445
 31
0.0
  0
LINE
  5
E0
330
1F
100
AcDbEntity
  8
0
100
AcDbLine
 10
6.86984468844269
 20
-42.86166254378445
 30
0.0
 11
7.047150295260248
 21
-43.29110832646874
 31
0.0
  0
LINE
  5
E1
330
1F
100
AcDbEntity
  8
0
100
AcDbLine
 10
7.047150295260248
 20
-43.29110832646874
 30
0.0
 11
7.107789015908963
 21
-43.75197059768322
 31
0.0
  0
LINE
  5
E2
330
1F
100
AcDbEntity
  8
0
100
AcDbLine
 10
6.934813025959205
 20
45.08757575314816
 30
0.0
 11
7.049869979053621
 21
44.64609968148608
 31
0.0
  0
LINE
  5
E3
330
1F
100
AcDbEntity
  8
0
100
AcDbLine
 10
7.049869979053621
 20
44.64609968148608
 30
0.0
 11
7.046171250106287
 21
44.19008468348493
 31
0.0
  0
LINE
  5
E4
330
1F
100
AcDbEntity
  8
0
100
AcDbLine
 10
7.046171250106287
 20
44.19008468348493
 30
0.0
 11
6.923951602193837
 21
43.75060772545947
 31
0.0
  0
LINE
  5
E5
330
1F
100
AcDbEntity
  8
0
100
AcDbLine
 10
6.923951602193837
 20
43.75060772545947
 30
0.0
 11
6.691525264217058
 21
43.35762729965411
 31
0.0
  0
LINE
  5
E6
330
1F
100
AcDbEntity
  8
0
100
AcDbLine
 10
6.691525264217058
 20
43.35762729965411
 30
0.0
 11
6.364723307260291
 21
43.03793942882533
 31
0.0
  0
LINE
  5
E7
330
1F
100
AcDbEntity
  8
0
100
AcDbLine
 10
6.364723307260291
 20
43.03793942882533
 30
0.0
 11
5.965817035970981
 21
42.8133475272328
 31
0.0
  0
LINE
  5
E8
330
1F
100
AcDbEntity
  8
0
100
AcDbLine
 10
5.965817035970981
 20
42.8133475272328
 30
0.0
 11
5.522000159269754
 21
42.69917192001764
 31
0.0
  0
LINE
  5
E9
330
1F
100
AcDbEntity
  8
0
100
AcDbLine
 10
5.522000159269754
 20
42.69917192001764
 30
0.0
 11
5.063533197685492
 21
42.70320183191656
 31
0.0
  0
LINE
  5
EA
330
1F
100
AcDbEntity
  8
0
100
AcDbLine
 10
5.063533197685492
 20
42.70320183191656
 30
0.0
 11
4.621677222337509
 21
42.82516232684618
 31
0.0
  0
LINE
  5
EB
330
1F
100
AcDbEntity
  8
0
100
AcDbLine
 10
4.621677222337509
 20
42.82516232684618
 30
0.0
 11
4.22655882564097
 21
43.05673312591867
 31
0.0
  0
LINE
  5
EC
330
1F
100
AcDbEntity
  8
0
100
AcDbLine
 10
4.22655882564097
 20
43.05673312591867
 30
0.0
 11
3.905113066635785
 21
43.3821179995822
 31
0.0
  0
LINE
  5
ED
330
1F
100
AcDbEntity
  8
0
100
AcDbLine
 10
3.905113066635785
 20
43.3821179995822
 30
0.0
 11
3.679245642308096
 21
43.77912529248407
 31
0.0
  0
LINE
  5
EE
330
1F
100
AcDbEntity
  8
0
100
AcDbLine
 10
3.679245642308096
 20
43.77912529248407
 30
0.0
 11
3.564340132456702
 21
44.22068486194357
 31
0.0
  0
LINE
  5
EF
330
1F
100
AcDbEntity
  8
0
100
AcDbLine
 10
3.564340132456702
 20
44.22068486194357
 30
0.0
 11
3.568212024096778
 21
44.6766968161072
 31
0.0
  0
LINE
  5
F0
330
1F
100
AcDbEntity
  8
0
100
AcDbLine
 10
3.568212024096778
 20
44.6766968161072
 30
0.0
 11
3.690580155350312
 21
45.11608500425395
 31
0.0
  0
LINE
  5
F1
330
1F
100
AcDbEntity
  8
0
100
AcDbLine
 10
3.690580155350312
 20
45.11608500425395
 30
0.0
 11
3.923090511326209
 21
45.50891471995476
 31
0.0
  0
LINE
  5
F2
330
1F
100
AcDbEntity
  8
0
100
AcDbLine
 10
5.092372068431374
 20
46.1669666678351
 30
0.0
 11
5.550665867316772
 21
46.16293979977393
 31
0.0
  0
LINE
  5
F3
330
1F
100
AcDbEntity
  8
0
100
AcDbLine
 10
-33.90911606073195
 20
44.44362874186081
 30
0.0
 11
-33.97074304309384
 21
43.99149322284759
 31
0.0
  0
LINE
  5
F4
330
1F
100
AcDbEntity
  8
0
100
AcDbLine
 10
-33.97074304309384
 20
43.99149322284759
 30
0.0
 11
-34.1478522139932
 21
43.57016107773845
 31
0.0
  0
LINE
  5
F5
330
1F
100
AcDbEntity
  8
0
100
AcDbLine
 10
-34.1478522139932
 20
43.57016107773845
 30
0.0
 11
-34.42838606219115
 21
43.20835757081142
 31
0.0
  0
LINE
  5
F6
330
1F
100
AcDbEntity
  8
0
100
AcDbLine
 10
-34.42838606219115
 20
43.20835757081142
 30
0.0
 11
-34.79323107987056
 21
42.93075564364435
 31
0.0
  0
LINE
  5
F7
330
1F
100
AcDbEntity
  8
0
100
AcDbLine
 10
-34.79323107987056
 20
42.93075564364435
 30
0.0
 11
-35.21751913301075
 21
42.75629003802903
 31
0.0
  0
LINE
  5
F8
330
1F
100
AcDbEntity
  8
0
100
AcDbLine
 10
-35.21751913301075
 20
42.75629003802903
 30
0.0
 11
-35.672323401765
 21
42.6968624669793
 31
0.0
  0
LINE
  5
F9
330
1F
100
AcDbEntity
  8
0
100
AcDbLine
 10
-35.672323401765
 20
42.6968624669793
 30
0.0
 11
-36.12663298935372
 21
42.75652726978799
 31
0.0
  0
LINE
  5
FA
330
1F
100
AcDbEntity
  8
0
100
AcDbLine
 10
-36.12663298935372
 20
42.75652726978799
 30
0.0
 11
-36.54947075008054
 21
42.93121392276019
 31
0.0
  0
LINE
  5
FB
330
1F
100
AcDbEntity
  8
0
100
AcDbLine
 10
-36.54947075008054
 20
42.93121392276019
 30
0.0
 11
-36.91200880670873
 21
43.2090056360988
 31
0.0
  0
LINE
  5
FC
330
1F
100
AcDbEntity
  8
0
100
AcDbLine
 10
-37.35922173856266
 20
44.89663583640679
 30
0.0
 11
-37.18199064398923
 21
45.31784608740204
 31
0.0
  0
LINE
  5
FD
330
1F
100
AcDbEntity
  8
0
100
AcDbLine
 10
-37.18199064398923
 20
45.31784608740204
 30
0.0
 11
-36.90141270678417
 21
45.67948314777102
 31
0.0
  0
LINE
  5
FE
330
1F
100
AcDbEntity
  8
0
100
AcDbLine
 10
-36.90141270678417
 20
45.67948314777102
 30
0.0
 11
-36.53661324838038
 21
45.95691867515561
 31
0.0
  0
LINE
  5
FF
330
1F
100
AcDbEntity
  8
0
100
AcDbLine
 10
-36.53661324838038
 20
45.95691867515561
 30
0.0
 11
-36.11244819522937
 21
46.13126251445247
 31
0.0
  0
LINE
  5
100
330
1F
100
AcDbEntity
  8
0
100
AcDbLine
 10
-36.11244819522937
 20
46.13126251445247
 30
0.0
 11
-35.65781140943005
 21
46.19064557983667
 31
0.0
  0
LINE
  5
101
330
1F
100
AcDbEntity
  8
0
100
AcDbLine
 10
-34.14088596585029
 20
45.3170527377934
 30
0.0
 11
-33.96715434920886
 21
44.89575088857347
 31
0.0
  0
LINE
  5
102
330
1F
100
AcDbEntity
  8
0
100
AcDbLine
 10
-33.96715434920886
 20
44.89575088857347
 30
0.0
 11
-33.90911606073195
 21
44.44362874186081
 31
0.0
  0
LINE
  5
103
330
1F
100
AcDbEntity
  8
0
100
AcDbLine
 10
-37.544297002989
 20
-42.83188051414402
 30
0.0
 11
-37.27954236589576
 21
-42.48133318889225
 31
0.0
  0
LINE
  5
104
330
1F
100
AcDbEntity
  8
0
100
AcDbLine
 10
-37.27193665512818
 20
-44.98041918966609
 30
0.0
 11
-37.55198124062172
 21
-44.61165588321715
 31
0.0
  0
LINE
  5
105
330
1F
100
AcDbEntity
  8
0
100
AcDbLine
 10
-36.90610264333301
 20
-45.26344091208122
 30
0.0
 11
-37.27193665512818
 21
-44.98041918966609
 31
0.0
  0
LINE
  5
106
330
1F
100
AcDbEntity
  8
0
100
AcDbLine
 10
-34.78282870937246
 20
-45.00022418436729
 30
0.0
 11
-35.13384312167955
 21
-45.2639078193876
 31
0.0
  0
LINE
  5
107
330
1F
100
AcDbEntity
  8
0
100
AcDbLine
 10
5.089883199021164
 20
46.14136548383036
 30
0.0
 11
5.547953008090516
 21
46.13734057263901
 31
0.0
  0
LINE
  5
108
330
1F
100
AcDbEntity
  8
0
100
AcDbLine
 10
3.923090511326209
 20
45.50891471995476
 30
0.0
 11
4.247812321111891
 21
45.80299365798727
 31
0.0
  0
LINE
  5
109
330
1F
100
AcDbEntity
  8
0
100
AcDbLine
 10
6.705577295461516
 20
45.45916589879194
 30
0.0
 11
6.934813025959205
 21
45.08757575314816
 31
0.0
  0
LINE
  5
10A
330
1F
100
AcDbEntity
  8
0
100
AcDbLine
 10
-34.4016363743738
 20
45.65347146921879
 30
0.0
 11
-34.14088596585029
 21
45.3170527377934
 31
0.0
  0
LINE
  5
10B
330
1F
100
AcDbEntity
  8
0
100
AcDbLine
 10
-36.09479836203861
 20
46.10567868105926
 30
0.0
 11
-35.64038389122832
 21
46.16503288902139
 31
0.0
  0
LINE
  5
10C
330
1F
100
AcDbEntity
  8
0
100
AcDbLine
 10
-36.51875576653081
 20
45.93141956697286
 30
0.0
 11
-36.09479836203861
 21
46.10567868105926
 31
0.0
  0
LINE
  5
10D
330
1F
100
AcDbEntity
  8
0
100
AcDbLine
 10
-36.88337638148901
 20
45.65411887055274
 30
0.0
 11
-36.51875576653081
 21
45.93141956697286
 31
0.0
  0
LINE
  5
10E
330
1F
100
AcDbEntity
  8
0
100
AcDbLine
 10
-37.16381646386316
 20
45.29265757458975
 30
0.0
 11
-36.88337638148901
 21
45.65411887055274
 31
0.0
  0
LINE
  5
10F
330
1F
100
AcDbEntity
  8
0
100
AcDbLine
 10
-37.34096009106427
 20
44.87165205959268
 30
0.0
 11
-37.16381646386316
 21
45.29265757458975
 31
0.0
  0
LINE
  5
110
330
1F
100
AcDbEntity
  8
0
100
AcDbLine
 10
-36.46186207638006
 20
35.43503504230857
 30
0.0
 11
-36.87513804294873
 21
35.2326110766087
 31
0.0
  0
LINE
  5
111
330
1F
100
AcDbEntity
  8
0
100
AcDbLine
 10
-36.87513804294873
 20
35.2326110766087
 30
0.0
 11
-37.25858086957449
 21
34.97829301464034
 31
0.0
  0
LINE
  5
112
330
1F
100
AcDbEntity
  8
0
100
AcDbLine
 10
-37.25858086957449
 20
34.97829301464034
 30
0.0
 11
-37.60563320118101
 21
34.67642409017358
 31
0.0
  0
LINE
  5
113
330
1F
100
AcDbEntity
  8
0
100
AcDbLine
 10
-37.60563320118101
 20
34.67642409017358
 30
0.0
 11
-37.9103580851121
 21
34.33216054157081
 31
0.0
  0
LINE
  5
114
330
1F
100
AcDbEntity
  8
0
100
AcDbLine
 10
-37.9103580851121
 20
34.33216054157081
 30
0.0
 11
-38.16754047133686
 21
33.95138398789618
 31
0.0
  0
LINE
  5
115
330
1F
100
AcDbEntity
  8
0
100
AcDbLine
 10
-38.16754047133686
 20
33.95138398789618
 30
0.0
 11
-38.37277651944715
 21
33.54060139392504
 31
0.0
  0
LINE
  5
116
330
1F
100
AcDbEntity
  8
0
100
AcDbLine
 10
8.241504306832674
 20
32.18803134131378
 30
0.0
 11
8.211130725520432
 21
32.6452666635636
 31
0.0
  0
LINE
  5
117
330
1F
100
AcDbEntity
  8
0
100
AcDbLine
 10
8.211130725520432
 20
32.6452666635636
 30
0.0
 11
8.121115754288487
 21
33.09464989828396
 31
0.0
  0
LINE
  5
118
330
1F
100
AcDbEntity
  8
0
100
AcDbLine
 10
8.121115754288487
 20
33.09464989828396
 30
0.0
 11
7.973007829362522
 21
33.52849538282531
 31
0.0
  0
LINE
  5
119
330
1F
100
AcDbEntity
  8
0
100
AcDbLine
 10
7.973007829362522
 20
33.52849538282531
 30
0.0
 11
7.76934820486423
 21
33.93938532174159
 31
0.0
  0
LINE
  5
11A
330
1F
100
AcDbEntity
  8
0
100
AcDbLine
 10
7.76934820486423
 20
33.93938532174159
 30
0.0
 11
7.513626988790215
 21
34.32029633757546
 31
0.0
  0
LINE
  5
11B
330
1F
100
AcDbEntity
  8
0
100
AcDbLine
 10
7.513626988790215
 20
34.32029633757546
 30
0.0
 11
7.210223056442301
 21
34.66471916133028
 31
0.0
  0
LINE
  5
11C
330
1F
100
AcDbEntity
  8
0
100
AcDbLine
 10
7.210223056442301
 20
34.66471916133028
 30
0.0
 11
6.864328894527923
 21
34.96676944751937
 31
0.0
  0
LINE
  5
11D
330
1F
100
AcDbEntity
  8
0
100
AcDbLine
 10
6.864328894527923
 20
34.96676944751937
 30
0.0
 11
6.481861677603312
 21
35.22128785588622
 31
0.0
  0
LINE
  5
11E
330
1F
100
AcDbEntity
  8
0
100
AcDbLine
 10
6.481861677603312
 20
35.22128785588622
 30
0.0
 11
6.06936210365559
 21
35.42392772828315
 31
0.0
  0
LINE
  5
11F
330
1F
100
AcDbEntity
  8
0
100
AcDbLine
 10
6.06936210365559
 20
35.42392772828315
 30
0.0
 11
5.633882714270035
 21
35.5712289014095
 31
0.0
  0
LINE
  5
120
330
1F
100
AcDbEntity
  8
0
100
AcDbLine
 10
5.633882714270035
 20
35.5712289014095
 30
0.0
 11
5.182867594338037
 21
35.66067643051683
 31
0.0
  0
LINE
  5
121
330
1F
100
AcDbEntity
  8
0
100
AcDbLine
 10
5.182867594338037
 20
35.66067643051683
 30
0.0
 11
4.724025484434621
 21
35.69074325197348
 31
0.0
  0
LINE
  5
122
330
1F
100
AcDbEntity
  8
0
100
AcDbLine
 10
4.74176136221269
 20
-34.85659323791486
 30
0.0
 11
5.204112503402717
 21
-34.82630591533047
 31
0.0
  0
LINE
  5
123
330
1F
100
AcDbEntity
  8
0
100
AcDbLine
 10
5.204112503402717
 20
-34.82630591533047
 30
0.0
 11
5.658528418070094
 21
-34.73572001051573
 31
0.0
  0
LINE
  5
124
330
1F
100
AcDbEntity
  8
0
100
AcDbLine
 10
5.658528418070094
 20
-34.73572001051573
 30
0.0
 11
6.097225544707853
 21
-34.58638895185788
 31
0.0
  0
LINE
  5
125
330
1F
100
AcDbEntity
  8
0
100
AcDbLine
 10
6.097225544707853
 20
-34.58638895185788
 30
0.0
 11
6.51269045951739
 21
-34.38087337143993
 31
0.0
  0
LINE
  5
126
330
1F
100
AcDbEntity
  8
0
100
AcDbLine
 10
6.51269045951739
 20
-34.38087337143993
 30
0.0
 11
6.897808923776706
 21
-34.12269691414485
 31
0.0
  0
LINE
  5
127
330
1F
100
AcDbEntity
  8
0
100
AcDbLine
 10
6.897808923776706
 20
-34.12269691414485
 30
0.0
 11
7.245987986650339
 21
-33.81628545476364
 31
0.0
  0
LINE
  5
128
330
1F
100
AcDbEntity
  8
0
100
AcDbLine
 10
7.245987986650339
 20
-33.81628545476364
 30
0.0
 11
7.551269028572372
 21
-33.46689079675942
 31
0.0
  0
LINE
  5
129
330
1F
100
AcDbEntity
  8
0
100
AcDbLine
 10
7.551269028572372
 20
-33.46689079675942
 30
0.0
 11
7.808429794921954
 21
-33.08050019737868
 31
0.0
  0
LINE
  5
12A
330
1F
100
AcDbEntity
  8
0
100
AcDbLine
 10
7.808429794921954
 20
-33.08050019737868
 30
0.0
 11
8.013073668761088
 21
-32.6637333091501
 31
0.0
  0
LINE
  5
12B
330
1F
100
AcDbEntity
  8
0
100
AcDbLine
 10
8.013073668761088
 20
-32.6637333091501
 30
0.0
 11
8.161704660780313
 21
-32.22372834308191
 31
0.0
  0
LINE
  5
12C
330
1F
100
AcDbEntity
  8
0
100
AcDbLine
 10
8.161704660780313
 20
-32.22372834308191
 30
0.0
 11
8.25178684961751
 21
-31.76801944038383
 31
0.0
  0
LINE
  5
12D
330
1F
100
AcDbEntity
  8
0
100
AcDbLine
 10
8.25178684961751
 20
-31.76801944038383
 30
0.0
 11
8.281787281290226
 21
-31.30440738439533
 31
0.0
  0
LINE
  5
12E
330
1F
100
AcDbEntity
  8
0
100
AcDbLine
 10
8.281787281290226
 20
-31.30440738439533
 30
0.0
 11
8.241504306832674
 21
32.18803134131378
 31
0.0
  0
LINE
  5
12F
330
1F
100
AcDbEntity
  8
0
100
AcDbLine
 10
-35.40403106017884
 20
-34.846028605045
 30
0.0
 11
-35.86626441070031
 21
-34.81549800742868
 31
0.0
  0
LINE
  5
130
330
1F
100
AcDbEntity
  8
0
100
AcDbLine
 10
-35.86626441070031
 20
-34.81549800742868
 30
0.0
 11
-36.32033108684097
 21
-34.72467313850612
 31
0.0
  0
LINE
  5
131
330
1F
100
AcDbEntity
  8
0
100
AcDbLine
 10
-36.32033108684097
 20
-34.72467313850612
 30
0.0
 11
-36.75845351789194
 21
-34.57511152421446
 31
0.0
  0
LINE
  5
132
330
1F
100
AcDbEntity
  8
0
100
AcDbLine
 10
-36.75845351789194
 20
-34.57511152421446
 30
0.0
 11
-37.17312813745314
 21
-34.36937774906055
 31
0.0
  0
LINE
  5
133
330
1F
100
AcDbEntity
  8
0
100
AcDbLine
 10
-37.17312813745314
 20
-34.36937774906055
 30
0.0
 11
-37.55725426048745
 21
-34.11099919708273
 31
0.0
  0
LINE
  5
134
330
1F
100
AcDbEntity
  8
0
100
AcDbLine
 10
-37.55725426048745
 20
-34.11099919708273
 30
0.0
 11
-37.90425595207279
 21
-33.8044052045866
 31
0.0
  0
LINE
  5
135
330
1F
100
AcDbEntity
  8
0
100
AcDbLine
 10
-37.90425595207279
 20
-33.8044052045866
 30
0.0
 11
-38.20819477713569
 21
-33.45485069943532
 31
0.0
  0
LINE
  5
136
330
1F
100
AcDbEntity
  8
0
100
AcDbLine
 10
-38.20819477713569
 20
-33.45485069943532
 30
0.0
 11
-38.46387148608098
 21
-33.06832567261966
 31
0.0
  0
LINE
  5
137
330
1F
100
AcDbEntity
  8
0
100
AcDbLine
 10
-38.46387148608098
 20
-33.06832567261966
 30
0.0
 11
-38.66691489122595
 21
-32.65145207307004
 31
0.0
  0
LINE
  5
138
330
1F
100
AcDbEntity
  8
0
100
AcDbLine
 10
-38.66691489122595
 20
-32.65145207307004
 30
0.0
 11
-38.81385641914812
 21
-32.21136993181405
 31
0.0
  0
LINE
  5
139
330
1F
100
AcDbEntity
  8
0
100
AcDbLine
 10
-38.81385641914812
 20
-32.21136993181405
 30
0.0
 11
-38.90218907976954
 21
-31.75561470295633
 31
0.0
  0
LINE
  5
13A
330
1F
100
AcDbEntity
  8
0
100
AcDbLine
 10
-38.90218907976954
 20
-31.75561470295633
 30
0.0
 11
-38.9304098691273
 21
-31.29198795366114
 31
0.0
  0
LINE
  5
13B
330
1F
100
AcDbEntity
  8
0
100
AcDbLine
 10
-35.40403106017884
 20
-34.846028605045
 30
0.0
 11
4.74176136221269
 21
-34.85659323791486
 31
0.0
  0
LINE
  5
13C
330
1F
100
AcDbEntity
  8
0
100
AcDbLine
 10
-38.62750026789112
 20
32.18147711865414
 30
0.0
 11
-38.9304098691273
 21
-31.29198795366114
 31
0.0
  0
LINE
  5
13D
330
1F
100
AcDbEntity
  8
0
100
AcDbLine
 10
4.724025484434621
 20
35.69074325197348
 30
0.0
 11
-35.09832371276892
 21
35.68063786080018
 31
0.0
  0
LINE
  5
13E
330
1F
100
AcDbEntity
  8
0
100
AcDbLine
 10
-36.4440206842137
 20
35.41465521152345
 30
0.0
 11
-36.85709403022258
 21
35.21232984810272
 31
0.0
  0
LINE
  5
13F
330
1F
100
AcDbEntity
  8
0
100
AcDbLine
 10
-36.85709403022258
 20
35.21232984810272
 30
0.0
 11
-37.24034872282422
 21
34.95813567261944
 31
0.0
  0
LINE
  5
140
330
1F
100
AcDbEntity
  8
0
100
AcDbLine
 10
-37.24034872282422
 20
34.95813567261944
 30
0.0
 11
-37.58723062256713
 21
34.65641380713555
 31
0.0
  0
LINE
  5
141
330
1F
100
AcDbEntity
  8
0
100
AcDbLine
 10
-37.58723062256713
 20
34.65641380713555
 30
0.0
 11
-37.89180569172999
 21
34.31231798240776
 31
0.0
  0
LINE
  5
142
330
1F
100
AcDbEntity
  8
0
100
AcDbLine
 10
-37.89180569172999
 20
34.31231798240776
 30
0.0
 11
-38.14886144473376
 21
33.93172695631637
 31
0.0
  0
LINE
  5
143
330
1F
100
AcDbEntity
  8
0
100
AcDbLine
 10
-38.14886144473376
 20
33.93172695631637
 30
0.0
 11
-38.35399621118787
 21
33.52114452724356
 31
0.0
  0
LINE
  5
144
330
1F
100
AcDbEntity
  8
0
100
AcDbLine
 10
-38.64641726117176
 20
32.20028075287394
 30
0.0
 11
-38.62750026789112
 21
32.18147711865414
 31
0.0
  0
LINE
  5
145
330
1F
100
AcDbEntity
  8
0
100
AcDbLine
 10
-35.11550581255081
 20
35.70114731028437
 30
0.0
 11
-35.09832371276892
 21
35.68063786080018
 31
0.0
  0
LINE
  5
146
330
1F
100
AcDbEntity
  8
0
100
AcDbLine
 10
-0.5450928266109742
 20
47.34549166143289
 30
0.0
 11
-12.24772852405135
 21
47.3485439135783
 31
0.0
  0
LINE
  5
147
330
1F
100
AcDbEntity
  8
0
100
AcDbLine
 10
-12.25891006900761
 20
40.36007993901523
 30
0.0
 11
-0.5473512887428112
 21
40.35702303050186
 31
0.0
  0
LINE
  5
148
330
1F
100
AcDbEntity
  8
0
100
AcDbLine
 10
-18.09904344986654
 20
47.35007003888866
 30
0.0
 11
-29.80166745569225
 21
47.3531222879847
 31
0.0
  0
LINE
  5
149
330
1F
100
AcDbEntity
  8
0
100
AcDbLine
 10
-29.82623360258993
 20
40.36466529796482
 30
0.0
 11
-18.11468653177597
 21
40.36160839250782
 31
0.0
  0
LINE
  5
14A
330
1F
100
AcDbEntity
  8
0
100
AcDbLine
 10
-0.5451012851757445
 20
47.31931791526875
 30
0.0
 11
-12.24174328395196
 21
47.32236861286459
 31
0.0
  0
LINE
  5
14B
330
1F
100
AcDbEntity
  8
0
100
AcDbLine
 10
-12.24174328395196
 20
47.32236861286459
 30
0.0
 11
-12.25891006900761
 21
40.36007993901523
 31
0.0
  0
LINE
  5
14C
330
1F
100
AcDbEntity
  8
0
100
AcDbLine
 10
-12.24772852405135
 20
47.3485439135783
 30
0.0
 11
-12.24174328395196
 21
47.32236861286459
 31
0.0
  0
LINE
  5
14D
330
1F
100
AcDbEntity
  8
0
100
AcDbLine
 10
-18.09910203753101
 20
47.32389631887367
 30
0.0
 11
-29.78710393514421
 21
47.32694476297352
 31
0.0
  0
LINE
  5
14E
330
1F
100
AcDbEntity
  8
0
100
AcDbLine
 10
-29.78710393514421
 20
47.32694476297352
 30
0.0
 11
-29.82623360258993
 21
40.36466529796482
 31
0.0
  0
LINE
  5
14F
330
1F
100
AcDbEntity
  8
0
100
AcDbLine
 10
-29.80166745569225
 20
47.3531222879847
 30
0.0
 11
-29.78710393514421
 21
47.32694476297352
 31
0.0
  0
LINE
  5
150
330
1F
100
AcDbEntity
  8
0
100
AcDbLine
 10
-18.30959792528856
 20
-46.71399511658947
 30
0.0
 11
-18.2936565414041
 21
-39.59226868749818
 31
0.0
  0
LINE
  5
151
330
1F
100
AcDbEntity
  8
0
100
AcDbLine
 10
-18.2936565414041
 20
-39.59226868749818
 30
0.0
 11
-30.10729097724107
 21
-39.58915825678208
 31
0.0
  0
LINE
  5
152
330
1F
100
AcDbEntity
  8
0
100
AcDbLine
 10
-30.10729097724107
 20
-39.58915825678208
 30
0.0
 11
-30.13232558218972
 21
-46.71087989568943
 31
0.0
  0
LINE
  5
153
330
1F
100
AcDbEntity
  8
0
100
AcDbLine
 10
-30.13232558218972
 20
-46.71087989568943
 30
0.0
 11
-18.30959792528856
 21
-46.71399511658947
 31
0.0
  0
LINE
  5
154
330
1F
100
AcDbEntity
  8
0
100
AcDbLine
 10
-12.39823111363243
 20
-46.71555272782554
 30
0.0
 11
-0.5754915239036107
 21
-46.71866795186983
 31
0.0
  0
LINE
  5
155
330
1F
100
AcDbEntity
  8
0
100
AcDbLine
 10
-0.5754915239036107
 20
-46.71866795186983
 30
0.0
 11
-0.5731899945513853
 21
-39.59693433749357
 31
0.0
  0
LINE
  5
156
330
1F
100
AcDbEntity
  8
0
100
AcDbLine
 10
-0.5731899945513853
 20
-39.59693433749357
 30
0.0
 11
-12.38683634486725
 21
-39.59382390364048
 31
0.0
  0
LINE
  5
157
330
1F
100
AcDbEntity
  8
0
100
AcDbLine
 10
-12.38683634486725
 20
-39.59382390364048
 30
0.0
 11
-12.39823111363243
 21
-46.71555272782554
 31
0.0
  0
LINE
  5
158
330
1F
100
AcDbEntity
  8
0
100
AcDbLine
 10
88.79694965620236
 20
-23.81862622835375
 30
0.0
 11
89.09015057462396
 21
-24.17906876369741
 31
0.0
  0
LINE
  5
159
330
1F
100
AcDbEntity
  8
0
100
AcDbLine
 10
89.09015057462396
 20
-24.17906876369741
 30
0.0
 11
89.28102543697587
 21
-24.60242310172123
 31
0.0
  0
LINE
  5
15A
330
1F
100
AcDbEntity
  8
0
100
AcDbLine
 10
89.28102543697587
 20
-24.60242310172123
 30
0.0
 11
89.35655474787394
 21
-25.05985137118594
 31
0.0
  0
LINE
  5
15B
330
1F
100
AcDbEntity
  8
0
100
AcDbLine
 10
89.35655474787394
 20
-25.05985137118594
 30
0.0
 11
89.31157463102355
 21
-25.52018595402801
 31
0.0
  0
LINE
  5
15C
330
1F
100
AcDbEntity
  8
0
100
AcDbLine
 10
89.31157463102355
 20
-25.52018595402801
 30
0.0
 11
89.14913320692935
 21
-25.95205206828912
 31
0.0
  0
LINE
  5
15D
330
1F
100
AcDbEntity
  8
0
100
AcDbLine
 10
89.14913320692935
 20
-25.95205206828912
 30
0.0
 11
88.88028747790956
 21
-26.32600690806944
 31
0.0
  0
LINE
  5
15E
330
1F
100
AcDbEntity
  8
0
100
AcDbLine
 10
88.88028747790956
 20
-26.32600690806944
 30
0.0
 11
88.52335332691437
 21
-26.6165492947367
 31
0.0
  0
LINE
  5
15F
330
1F
100
AcDbEntity
  8
0
100
AcDbLine
 10
88.52335332691437
 20
-26.6165492947367
 30
0.0
 11
88.10265879850985
 21
-26.803862035415
 31
0.0
  0
LINE
  5
160
330
1F
100
AcDbEntity
  8
0
100
AcDbLine
 10
87.18710951434656
 20
-26.82559964527454
 30
0.0
 11
86.75468182084843
 21
-26.65854152166226
 31
0.0
  0
LINE
  5
161
330
1F
100
AcDbEntity
  8
0
100
AcDbLine
 10
86.75468182084843
 20
-26.65854152166226
 30
0.0
 11
86.37908448833545
 21
-26.38538926181223
 31
0.0
  0
LINE
  5
162
330
1F
100
AcDbEntity
  8
0
100
AcDbLine
 10
86.37908448833545
 20
-26.38538926181223
 30
0.0
 11
86.08591935537532
 21
-26.02477451921546
 31
0.0
  0
LINE
  5
163
330
1F
100
AcDbEntity
  8
0
100
AcDbLine
 10
86.08591935537532
 20
-26.02477451921546
 30
0.0
 11
85.895161560568
 21
-25.60128979910846
 31
0.0
  0
LINE
  5
164
330
1F
100
AcDbEntity
  8
0
100
AcDbLine
 10
85.895161560568
 20
-25.60128979910846
 30
0.0
 11
85.81979923114332
 21
-25.14380790850212
 31
0.0
  0
LINE
  5
165
330
1F
100
AcDbEntity
  8
0
100
AcDbLine
 10
85.81979923114332
 20
-25.14380790850212
 30
0.0
 11
85.86495150084677
 21
-24.68351083320023
 31
0.0
  0
LINE
  5
166
330
1F
100
AcDbEntity
  8
0
100
AcDbLine
 10
85.86495150084677
 20
-24.68351083320023
 30
0.0
 11
86.02752412095792
 21
-24.25176330504698
 31
0.0
  0
LINE
  5
167
330
1F
100
AcDbEntity
  8
0
100
AcDbLine
 10
86.02752412095792
 20
-24.25176330504698
 30
0.0
 11
86.29642493529194
 21
-23.87797635489266
 31
0.0
  0
LINE
  5
168
330
1F
100
AcDbEntity
  8
0
100
AcDbLine
 10
86.29642493529194
 20
-23.87797635489266
 30
0.0
 11
86.65332330083133
 21
-23.58760617548109
 31
0.0
  0
LINE
  5
169
330
1F
100
AcDbEntity
  8
0
100
AcDbLine
 10
86.65332330083133
 20
-23.58760617548109
 30
0.0
 11
87.07390076169193
 21
-23.40042381689221
 31
0.0
  0
LINE
  5
16A
330
1F
100
AcDbEntity
  8
0
100
AcDbLine
 10
87.07390076169193
 20
-23.40042381689221
 30
0.0
 11
87.52950735206635
 21
-23.3291724284455
 31
0.0
  0
LINE
  5
16B
330
1F
100
AcDbEntity
  8
0
100
AcDbLine
 10
26.20081429468146
 20
-18.41726815646368
 30
0.0
 11
26.51179239405381
 21
-18.75978617719532
 31
0.0
  0
LINE
  5
16C
330
1F
100
AcDbEntity
  8
0
100
AcDbLine
 10
26.51179239405381
 20
-18.75978617719532
 30
0.0
 11
26.72392243100979
 21
-19.17103549282326
 31
0.0
  0
LINE
  5
16D
330
1F
100
AcDbEntity
  8
0
100
AcDbLine
 10
26.72392243100979
 20
-19.17103549282326
 30
0.0
 11
26.8227379235488
 21
-19.62300443264236
 31
0.0
  0
LINE
  5
16E
330
1F
100
AcDbEntity
  8
0
100
AcDbLine
 10
26.8227379235488
 20
-19.62300443264236
 30
0.0
 11
26.80148880374703
 21
-20.08489932356053
 31
0.0
  0
LINE
  5
16F
330
1F
100
AcDbEntity
  8
0
100
AcDbLine
 10
26.80148880374703
 20
-20.08489932356053
 30
0.0
 11
26.66160569774377
 21
-20.52524108020316
 31
0.0
  0
LINE
  5
170
330
1F
100
AcDbEntity
  8
0
100
AcDbLine
 10
26.66160569774377
 20
-20.52524108020316
 30
0.0
 11
26.41260711129759
 21
-20.91401090922453
 31
0.0
  0
LINE
  5
171
330
1F
100
AcDbEntity
  8
0
100
AcDbLine
 10
26.41260711129759
 20
-20.91401090922453
 30
0.0
 11
26.07145459179264
 21
-21.22469878044983
 31
0.0
  0
LINE
  5
172
330
1F
100
AcDbEntity
  8
0
100
AcDbLine
 10
26.07145459179264
 20
-21.22469878044983
 30
0.0
 11
25.66139878347742
 21
-21.43611433146631
 31
0.0
  0
LINE
  5
173
330
1F
100
AcDbEntity
  8
0
100
AcDbLine
 10
25.66139878347742
 20
-21.43611433146631
 30
0.0
 11
25.21039448988905
 21
-21.53383564587243
 31
0.0
  0
LINE
  5
174
330
1F
100
AcDbEntity
  8
0
100
AcDbLine
 10
25.21039448988905
 20
-21.53383564587243
 30
0.0
 11
24.74919287274885
 21
-21.51119591567565
 31
0.0
  0
LINE
  5
175
330
1F
100
AcDbEntity
  8
0
100
AcDbLine
 10
24.74919287274885
 20
-21.51119591567565
 30
0.0
 11
24.30924153180985
 21
-21.3697397202864
 31
0.0
  0
LINE
  5
176
330
1F
100
AcDbEntity
  8
0
100
AcDbLine
 10
24.30924153180985
 20
-21.3697397202864
 30
0.0
 11
23.92053671934218
 21
-21.11911730502191
 31
0.0
  0
LINE
  5
177
330
1F
100
AcDbEntity
  8
0
100
AcDbLine
 10
23.92053671934218
 20
-21.11911730502191
 30
0.0
 11
23.60957531343388
 21
-20.77642418755541
 31
0.0
  0
LINE
  5
178
330
1F
100
AcDbEntity
  8
0
100
AcDbLine
 10
23.60957531343388
 20
-20.77642418755541
 30
0.0
 11
23.39754714715759
 21
-20.36503183360245
 31
0.0
  0
LINE
  5
179
330
1F
100
AcDbEntity
  8
0
100
AcDbLine
 10
23.39754714715759
 20
-20.36503183360245
 30
0.0
 11
23.29889140634679
 21
-19.91299024086964
 31
0.0
  0
LINE
  5
17A
330
1F
100
AcDbEntity
  8
0
100
AcDbLine
 10
23.29889140634679
 20
-19.91299024086964
 30
0.0
 11
23.32031535358021
 21
-19.45111254973694
 31
0.0
  0
LINE
  5
17B
330
1F
100
AcDbEntity
  8
0
100
AcDbLine
 10
23.32031535358021
 20
-19.45111254973694
 30
0.0
 11
23.46034151785173
 21
-19.0108732369108
 31
0.0
  0
LINE
  5
17C
330
1F
100
AcDbEntity
  8
0
100
AcDbLine
 10
23.46034151785173
 20
-19.0108732369108
 30
0.0
 11
23.70941306105603
 21
-18.62226364600115
 31
0.0
  0
LINE
  5
17D
330
1F
100
AcDbEntity
  8
0
100
AcDbLine
 10
23.70941306105603
 20
-18.62226364600115
 30
0.0
 11
24.05054888710308
 21
-18.31175087151193
 31
0.0
  0
LINE
  5
17E
330
1F
100
AcDbEntity
  8
0
100
AcDbLine
 10
24.05054888710308
 20
-18.31175087151193
 30
0.0
 11
24.46050282474063
 21
-18.10047835882642
 31
0.0
  0
LINE
  5
17F
330
1F
100
AcDbEntity
  8
0
100
AcDbLine
 10
24.46050282474063
 20
-18.10047835882642
 30
0.0
 11
24.91134736659668
 21
-18.0028296973387
 31
0.0
  0
LINE
  5
180
330
1F
100
AcDbEntity
  8
0
100
AcDbLine
 10
24.91134736659668
 20
-18.0028296973387
 30
0.0
 11
25.37237415629909
 21
-18.02545222774874
 31
0.0
  0
LINE
  5
181
330
1F
100
AcDbEntity
  8
0
100
AcDbLine
 10
25.37237415629909
 20
-18.02545222774874
 30
0.0
 11
25.8121824389678
 21
-18.16680597931563
 31
0.0
  0
LINE
  5
182
330
1F
100
AcDbEntity
  8
0
100
AcDbLine
 10
25.8121824389678
 20
-18.16680597931563
 30
0.0
 11
26.20081429468146
 21
-18.41726815646368
 31
0.0
  0
LINE
  5
183
330
1F
100
AcDbEntity
  8
0
100
AcDbLine
 10
85.98787868924362
 20
31.93137274194909
 30
0.0
 11
86.26272289704318
 21
31.56255775149819
 31
0.0
  0
LINE
  5
184
330
1F
100
AcDbEntity
  8
0
100
AcDbLine
 10
86.26272289704318
 20
31.56255775149819
 30
0.0
 11
86.433057413208
 21
31.13629910191125
 31
0.0
  0
LINE
  5
185
330
1F
100
AcDbEntity
  8
0
100
AcDbLine
 10
86.433057413208
 20
31.13629910191125
 30
0.0
 11
86.48726153837151
 21
30.68163393528798
 31
0.0
  0
LINE
  5
186
330
1F
100
AcDbEntity
  8
0
100
AcDbLine
 10
86.48726153837151
 20
30.68163393528798
 30
0.0
 11
86.42162444466048
 21
30.22954318728015
 31
0.0
  0
LINE
  5
187
330
1F
100
AcDbEntity
  8
0
100
AcDbLine
 10
86.42162444466048
 20
30.22954318728015
 30
0.0
 11
86.24060259185148
 21
29.81084129265157
 31
0.0
  0
LINE
  5
188
330
1F
100
AcDbEntity
  8
0
100
AcDbLine
 10
85.1623120085094
 20
29.01778874886347
 30
0.0
 11
84.7063274119678
 21
28.96802946081883
 31
0.0
  0
LINE
  5
189
330
1F
100
AcDbEntity
  8
0
100
AcDbLine
 10
84.7063274119678
 20
28.96802946081883
 30
0.0
 11
84.25187163122574
 21
29.03769065103818
 31
0.0
  0
LINE
  5
18A
330
1F
100
AcDbEntity
  8
0
100
AcDbLine
 10
84.25187163122574
 20
29.03769065103818
 30
0.0
 11
83.82993167936704
 21
29.22201981866139
 31
0.0
  0
LINE
  5
18B
330
1F
100
AcDbEntity
  8
0
100
AcDbLine
 10
83.82993167936704
 20
29.22201981866139
 30
0.0
 11
83.46927390723667
 21
29.50844247946662
 31
0.0
  0
LINE
  5
18C
330
1F
100
AcDbEntity
  8
0
100
AcDbLine
 10
83.46927390723667
 20
29.50844247946662
 30
0.0
 11
83.19448045087522
 21
29.87742251607082
 31
0.0
  0
LINE
  5
18D
330
1F
100
AcDbEntity
  8
0
100
AcDbLine
 10
83.19448045087522
 20
29.87742251607082
 30
0.0
 11
83.02427295413722
 21
30.3037980585389
 31
0.0
  0
LINE
  5
18E
330
1F
100
AcDbEntity
  8
0
100
AcDbLine
 10
83.02427295413722
 20
30.3037980585389
 30
0.0
 11
82.97023808163665
 21
30.75850064342026
 31
0.0
  0
LINE
  5
18F
330
1F
100
AcDbEntity
  8
0
100
AcDbLine
 10
82.97023808163665
 20
30.75850064342026
 30
0.0
 11
83.0360413101344
 21
31.2105393088721
 31
0.0
  0
LINE
  5
190
330
1F
100
AcDbEntity
  8
0
100
AcDbLine
 10
83.0360413101344
 20
31.2105393088721
 30
0.0
 11
83.21718166417375
 21
31.62911357560812
 31
0.0
  0
LINE
  5
191
330
1F
100
AcDbEntity
  8
0
100
AcDbLine
 10
83.21718166417375
 20
31.62911357560812
 30
0.0
 11
83.50130289564032
 21
31.98571105118543
 31
0.0
  0
LINE
  5
192
330
1F
100
AcDbEntity
  8
0
100
AcDbLine
 10
83.50130289564032
 20
31.98571105118543
 30
0.0
 11
83.86903871021266
 21
32.25604708486897
 31
0.0
  0
LINE
  5
193
330
1F
100
AcDbEntity
  8
0
100
AcDbLine
 10
85.20543858184385
 20
32.40182796703569
 30
0.0
 11
85.62726003247266
 21
32.21762642731112
 31
0.0
  0
LINE
  5
194
330
1F
100
AcDbEntity
  8
0
100
AcDbLine
 10
85.62726003247266
 20
32.21762642731112
 30
0.0
 11
85.98787868924362
 21
31.93137274194909
 31
0.0
  0
LINE
  5
195
330
1F
100
AcDbEntity
  8
0
100
AcDbLine
 10
63.50342620132763
 20
8.63012776809669
 30
0.0
 11
63.55878377878476
 21
0.2892308335556058
 31
0.0
  0
LINE
  5
196
330
1F
100
AcDbEntity
  8
0
100
AcDbLine
 10
89.312543032184
 20
-25.05056929835938
 30
0.0
 11
89.26758287886518
 21
-25.51067667420266
 31
0.0
  0
LINE
  5
197
330
1F
100
AcDbEntity
  8
0
100
AcDbLine
 10
89.23705309894204
 20
-24.59336677905409
 30
0.0
 11
89.312543032184
 21
-25.05056929835938
 31
0.0
  0
LINE
  5
198
330
1F
100
AcDbEntity
  8
0
100
AcDbLine
 10
89.04627425551246
 20
-24.17022135513957
 30
0.0
 11
89.23705309894204
 21
-24.59336677905409
 31
0.0
  0
LINE
  5
199
330
1F
100
AcDbEntity
  8
0
100
AcDbLine
 10
88.7532194423005
 20
-23.8099566735477
 30
0.0
 11
89.04627425551246
 21
-24.17022135513957
 31
0.0
  0
LINE
  5
19A
330
1F
100
AcDbEntity
  8
0
100
AcDbLine
 10
87.60370711324366
 20
-26.86498885708723
 30
0.0
 11
87.18710951434656
 21
-26.82559964527454
 31
0.0
  0
LINE
  5
19B
330
1F
100
AcDbEntity
  8
0
100
AcDbLine
 10
88.47974465278737
 20
-26.6064987927168
 30
0.0
 11
88.05925648888604
 21
-26.79371905323135
 31
0.0
  0
LINE
  5
19C
330
1F
100
AcDbEntity
  8
0
100
AcDbLine
 10
88.83650434585088
 20
-26.31609984541998
 30
0.0
 11
88.47974465278737
 21
-26.6064987927168
 31
0.0
  0
LINE
  5
19D
330
1F
100
AcDbEntity
  8
0
100
AcDbLine
 10
89.1052194159664
 20
-25.94232961209203
 30
0.0
 11
88.83650434585088
 21
-26.31609984541998
 31
0.0
  0
LINE
  5
19E
330
1F
100
AcDbEntity
  8
0
100
AcDbLine
 10
89.26758287886518
 20
-25.51067667420266
 30
0.0
 11
89.1052194159664
 21
-25.94232961209203
 31
0.0
  0
LINE
  5
19F
330
1F
100
AcDbEntity
  8
0
100
AcDbLine
 10
63.47234308905925
 20
8.610650400975713
 30
0.0
 11
63.52744216609424
 21
0.3044584537551107
 31
0.0
  0
LINE
  5
1A0
330
1F
100
AcDbEntity
  8
0
100
AcDbLine
 10
86.37931294012128
 20
30.21170037974591
 30
0.0
 11
86.19837779018798
 21
29.79320267518007
 31
0.0
  0
LINE
  5
1A1
330
1F
100
AcDbEntity
  8
0
100
AcDbLine
 10
86.44491998203266
 20
30.66357067579245
 30
0.0
 11
86.37931294012128
 21
30.21170037974591
 31
0.0
  0
LINE
  5
1A2
330
1F
100
AcDbEntity
  8
0
100
AcDbLine
 10
86.39074448785182
 20
31.11801415706745
 30
0.0
 11
86.44491998203266
 21
30.66357067579245
 31
0.0
  0
LINE
  5
1A3
330
1F
100
AcDbEntity
  8
0
100
AcDbLine
 10
86.22049531776621
 20
31.54406499174863
 30
0.0
 11
86.39074448785182
 21
31.11801415706745
 31
0.0
  0
LINE
  5
1A4
330
1F
100
AcDbEntity
  8
0
100
AcDbLine
 10
85.94578734258779
 20
31.91270018856636
 30
0.0
 11
86.22049531776621
 21
31.54406499174863
 31
0.0
  0
LINE
  5
1A5
330
1F
100
AcDbEntity
  8
0
100
AcDbLine
 10
85.58534651607198
 20
32.19881433810198
 30
0.0
 11
85.94578734258779
 21
31.91270018856636
 31
0.0
  0
LINE
  5
1A6
330
1F
100
AcDbEntity
  8
0
100
AcDbLine
 10
85.16373237839969
 20
32.3829260924599
 30
0.0
 11
85.58534651607198
 21
32.19881433810198
 31
0.0
  0
LINE
  5
1A7
330
1F
100
AcDbEntity
  8
0
100
AcDbLine
 10
83.86903871021266
 20
32.25604708486897
 30
0.0
 11
84.2540729544539
 21
32.40280363691469
 31
0.0
  0
LINE
  5
1A8
330
1F
100
AcDbEntity
  8
0
100
AcDbLine
 10
-92.11785647922035
 20
48.80934552968458
 30
0.0
 11
-91.79678538515387
 21
48.38755118029172
 31
0.0
  0
LINE
  5
1A9
330
1F
100
AcDbEntity
  8
0
100
AcDbLine
 10
-91.79678538515387
 20
48.38755118029172
 30
0.0
 11
-91.59725509804305
 21
47.896357802591
 31
0.0
  0
LINE
  5
1AA
330
1F
100
AcDbEntity
  8
0
100
AcDbLine
 10
-91.59725509804305
 20
47.896357802591
 30
0.0
 11
-91.53288008684949
 21
47.36922286832094
 31
0.0
  0
LINE
  5
1AB
330
1F
100
AcDbEntity
  8
0
100
AcDbLine
 10
-91.53288008684949
 20
47.36922286832094
 30
0.0
 11
-91.60807019572985
 21
46.84206369702333
 31
0.0
  0
LINE
  5
1AC
330
1F
100
AcDbEntity
  8
0
100
AcDbLine
 10
-91.60807019572985
 20
46.84206369702333
 30
0.0
 11
-91.81772401412395
 21
46.35081137545611
 31
0.0
  0
LINE
  5
1AD
330
1F
100
AcDbEntity
  8
0
100
AcDbLine
 10
-91.81772401412395
 20
46.35081137545611
 30
0.0
 11
-92.14757045350204
 21
45.92896049245424
 31
0.0
  0
LINE
  5
1AE
330
1F
100
AcDbEntity
  8
0
100
AcDbLine
 10
-92.14757045350204
 20
45.92896049245424
 30
0.0
 11
-92.5751368816557
 21
45.60528210337808
 31
0.0
  0
LINE
  5
1AF
330
1F
100
AcDbEntity
  8
0
100
AcDbLine
 10
-92.5751368816557
 20
45.60528210337808
 30
0.0
 11
-93.07127902299293
 21
45.40185696939972
 31
0.0
  0
LINE
  5
1B0
330
1F
100
AcDbEntity
  8
0
100
AcDbLine
 10
-93.07127902299293
 20
45.40185696939972
 30
0.0
 11
-93.60216878771396
 21
45.3325647278264
 31
0.0
  0
LINE
  5
1B1
330
1F
100
AcDbEntity
  8
0
100
AcDbLine
 10
-93.60216878771396
 20
45.3325647278264
 30
0.0
 11
-94.13160410912873
 21
45.40213358010869
 31
0.0
  0
LINE
  5
1B2
330
1F
100
AcDbEntity
  8
0
100
AcDbLine
 10
-95.36527351475605
 20
46.35173674125404
 30
0.0
 11
-95.56463544575433
 21
46.84309569782254
 31
0.0
  0
LINE
  5
1B3
330
1F
100
AcDbEntity
  8
0
100
AcDbLine
 10
-95.56463544575433
 20
46.84309569782254
 30
0.0
 11
-95.6287822570904
 21
47.37029115127103
 31
0.0
  0
LINE
  5
1B4
330
1F
100
AcDbEntity
  8
0
100
AcDbLine
 10
-95.6287822570904
 20
47.37029115127103
 30
0.0
 11
-95.55336525057167
 21
47.89738956599478
 31
0.0
  0
LINE
  5
1B5
330
1F
100
AcDbEntity
  8
0
100
AcDbLine
 10
-95.55336525057167
 20
47.89738956599478
 30
0.0
 11
-95.34354663379362
 21
48.3884761349087
 31
0.0
  0
LINE
  5
1B6
330
1F
100
AcDbEntity
  8
0
100
AcDbLine
 10
-95.34354663379362
 20
48.3884761349087
 30
0.0
 11
-95.01364165288
 21
48.8101006824633
 31
0.0
  0
LINE
  5
1B7
330
1F
100
AcDbEntity
  8
0
100
AcDbLine
 10
-95.01364165288
 20
48.8101006824633
 30
0.0
 11
-94.58613862619995
 21
49.13355279969657
 31
0.0
  0
LINE
  5
1B8
330
1F
100
AcDbEntity
  8
0
100
AcDbLine
 10
-94.58613862619995
 20
49.13355279969657
 30
0.0
 11
-94.09016484097542
 21
49.33681235479598
 31
0.0
  0
LINE
  5
1B9
330
1F
100
AcDbEntity
  8
0
100
AcDbLine
 10
-94.09016484097542
 20
49.33681235479598
 30
0.0
 11
-93.55950327612166
 21
49.40604407718527
 31
0.0
  0
LINE
  5
1BA
330
1F
100
AcDbEntity
  8
0
100
AcDbLine
 10
61.54911133933821
 20
48.4971493779155
 30
0.0
 11
61.90765488732966
 21
48.8889992421197
 31
0.0
  0
LINE
  5
1BB
330
1F
100
AcDbEntity
  8
0
100
AcDbLine
 10
62.86527309646451
 20
49.33427633728127
 30
0.0
 11
63.39911664855456
 21
49.35739328280786
 31
0.0
  0
LINE
  5
1BC
330
1F
100
AcDbEntity
  8
0
100
AcDbLine
 10
63.39911664855456
 20
49.35739328280786
 30
0.0
 11
63.92174332943046
 21
49.24229791526141
 31
0.0
  0
LINE
  5
1BD
330
1F
100
AcDbEntity
  8
0
100
AcDbLine
 10
63.92174332943046
 20
49.24229791526141
 30
0.0
 11
64.39755838178641
 21
48.99682390292331
 31
0.0
  0
LINE
  5
1BE
330
1F
100
AcDbEntity
  8
0
100
AcDbLine
 10
64.39755838178641
 20
48.99682390292331
 30
0.0
 11
64.79414942112396
 21
48.63768072784527
 31
0.0
  0
LINE
  5
1BF
330
1F
100
AcDbEntity
  8
0
100
AcDbLine
 10
64.79414942112396
 20
48.63768072784527
 30
0.0
 11
65.08449163582117
 21
48.18932009469782
 31
0.0
  0
LINE
  5
1C0
330
1F
100
AcDbEntity
  8
0
100
AcDbLine
 10
65.08449163582117
 20
48.18932009469782
 30
0.0
 11
65.24878888867708
 21
47.68227583067556
 31
0.0
  0
LINE
  5
1C1
330
1F
100
AcDbEntity
  8
0
100
AcDbLine
 10
65.24878888867708
 20
47.68227583067556
 30
0.0
 11
65.27582541237925
 21
47.15108873815497
 31
0.0
  0
LINE
  5
1C2
330
1F
100
AcDbEntity
  8
0
100
AcDbLine
 10
65.27582541237925
 20
47.15108873815497
 30
0.0
 11
65.16373528251731
 21
46.63195629558317
 31
0.0
  0
LINE
  5
1C3
330
1F
100
AcDbEntity
  8
0
100
AcDbLine
 10
64.56161439153966
 20
45.76818314237291
 30
0.0
 11
64.11260132354107
 21
45.48244964263968
 31
0.0
  0
LINE
  5
1C4
330
1F
100
AcDbEntity
  8
0
100
AcDbLine
 10
64.11260132354107
 20
45.48244964263968
 30
0.0
 11
63.60370595304587
 21
45.32255939678112
 31
0.0
  0
LINE
  5
1C5
330
1F
100
AcDbEntity
  8
0
100
AcDbLine
 10
63.06962785365175
 20
45.29942208894678
 30
0.0
 11
62.54678700651774
 21
45.41461652392916
 31
0.0
  0
LINE
  5
1C6
330
1F
100
AcDbEntity
  8
0
100
AcDbLine
 10
62.54678700651774
 20
45.41461652392916
 30
0.0
 11
62.07083555463122
 21
45.66028248840436
 31
0.0
  0
LINE
  5
1C7
330
1F
100
AcDbEntity
  8
0
100
AcDbLine
 10
62.07083555463122
 20
45.66028248840436
 30
0.0
 11
61.67422243063334
 21
46.01965906689682
 31
0.0
  0
LINE
  5
1C8
330
1F
100
AcDbEntity
  8
0
100
AcDbLine
 10
61.67422243063334
 20
46.01965906689682
 30
0.0
 11
61.38397836370886
 21
46.46823201447876
 31
0.0
  0
LINE
  5
1C9
330
1F
100
AcDbEntity
  8
0
100
AcDbLine
 10
61.38397836370886
 20
46.46823201447876
 30
0.0
 11
61.21987319243963
 21
46.97541061447754
 31
0.0
  0
LINE
  5
1CA
330
1F
100
AcDbEntity
  8
0
100
AcDbLine
 10
61.21987319243963
 20
46.97541061447754
 30
0.0
 11
61.19307121603349
 21
47.5066180693041
 31
0.0
  0
LINE
  5
1CB
330
1F
100
AcDbEntity
  8
0
100
AcDbLine
 10
61.19307121603349
 20
47.5066180693041
 30
0.0
 11
61.30537551214626
 21
48.02565144444853
 31
0.0
  0
LINE
  5
1CC
330
1F
100
AcDbEntity
  8
0
100
AcDbLine
 10
61.30537551214626
 20
48.02565144444853
 30
0.0
 11
61.54911133933821
 21
48.4971493779155
 31
0.0
  0
LINE
  5
1CD
330
1F
100
AcDbEntity
  8
0
100
AcDbLine
 10
63.8447883050401
 20
-44.65733377127363
 30
0.0
 11
64.38063544526935
 21
-44.728276226553
 31
0.0
  0
LINE
  5
1CE
330
1F
100
AcDbEntity
  8
0
100
AcDbLine
 10
64.38063544526935
 20
-44.728276226553
 30
0.0
 11
64.88092835024887
 21
-44.93599315928007
 31
0.0
  0
LINE
  5
1CF
330
1F
100
AcDbEntity
  8
0
100
AcDbLine
 10
65.85338182014496
 20
-46.19817621172203
 30
0.0
 11
65.92756689683237
 21
-46.73619112617622
 31
0.0
  0
LINE
  5
1D0
330
1F
100
AcDbEntity
  8
0
100
AcDbLine
 10
65.92756689683237
 20
-46.73619112617622
 30
0.0
 11
65.86075429220026
 21
-47.27423141337184
 31
0.0
  0
LINE
  5
1D1
330
1F
100
AcDbEntity
  8
0
100
AcDbLine
 10
65.86075429220026
 20
-47.27423141337184
 30
0.0
 11
65.65747392950516
 21
-47.77562426798271
 31
0.0
  0
LINE
  5
1D2
330
1F
100
AcDbEntity
  8
0
100
AcDbLine
 10
65.65747392950516
 20
-47.77562426798271
 30
0.0
 11
65.33156192645767
 21
-48.20618352545719
 31
0.0
  0
LINE
  5
1D3
330
1F
100
AcDbEntity
  8
0
100
AcDbLine
 10
65.33156192645767
 20
-48.20618352545719
 30
0.0
 11
64.90522227244477
 21
-48.53654396529493
 31
0.0
  0
LINE
  5
1D4
330
1F
100
AcDbEntity
  8
0
100
AcDbLine
 10
64.90522227244477
 20
-48.53654396529493
 30
0.0
 11
64.40751537457233
 21
-48.74416875176902
 31
0.0
  0
LINE
  5
1D5
330
1F
100
AcDbEntity
  8
0
100
AcDbLine
 10
62.40510687550428
 20
-48.20541229891273
 30
0.0
 11
62.07347978308009
 21
-47.77467980007188
 31
0.0
  0
LINE
  5
1D6
330
1F
100
AcDbEntity
  8
0
100
AcDbLine
 10
62.07347978308009
 20
-47.77467980007188
 30
0.0
 11
61.86354470134228
 21
-47.27317811037742
 31
0.0
  0
LINE
  5
1D7
330
1F
100
AcDbEntity
  8
0
100
AcDbLine
 10
61.86354470134228
 20
-47.27317811037742
 30
0.0
 11
61.78959147362268
 21
-46.73510079339547
 31
0.0
  0
LINE
  5
1D8
330
1F
100
AcDbEntity
  8
0
100
AcDbLine
 10
61.78959147362268
 20
-46.73510079339547
 30
0.0
 11
61.85663672435771
 21
-46.19712315351075
 31
0.0
  0
LINE
  5
1D9
330
1F
100
AcDbEntity
  8
0
100
AcDbLine
 10
61.85663672435771
 20
-46.19712315351075
 30
0.0
 11
62.06008819295916
 21
-45.69590120975523
 31
0.0
  0
LINE
  5
1DA
330
1F
100
AcDbEntity
  8
0
100
AcDbLine
 10
62.06008819295916
 20
-45.69590120975523
 30
0.0
 11
62.38606391402703
 21
-45.26557533125917
 31
0.0
  0
LINE
  5
1DB
330
1F
100
AcDbEntity
  8
0
100
AcDbLine
 10
62.38606391402703
 20
-45.26557533125917
 30
0.0
 11
62.8123428249785
 21
-44.9354482048163
 31
0.0
  0
LINE
  5
1DC
330
1F
100
AcDbEntity
  8
0
100
AcDbLine
 10
62.8123428249785
 20
-44.9354482048163
 30
0.0
 11
63.30988079475829
 21
-44.72799415001561
 31
0.0
  0
LINE
  5
1DD
330
1F
100
AcDbEntity
  8
0
100
AcDbLine
 10
63.30988079475829
 20
-44.72799415001561
 30
0.0
 11
63.8447883050401
 21
-44.65733377127363
 31
0.0
  0
LINE
  5
1DE
330
1F
100
AcDbEntity
  8
0
100
AcDbLine
 10
-95.1913061200335
 20
-44.71934299891043
 30
0.0
 11
-94.6596381822922
 21
-44.61880976261433
 31
0.0
  0
LINE
  5
1DF
330
1F
100
AcDbEntity
  8
0
100
AcDbLine
 10
-94.6596381822922
 20
-44.61880976261433
 30
0.0
 11
-94.12159729494118
 21
-44.65966021185982
 31
0.0
  0
LINE
  5
1E0
330
1F
100
AcDbEntity
  8
0
100
AcDbLine
 10
-94.12159729494118
 20
-44.65966021185982
 30
0.0
 11
-93.61382635503233
 21
-44.83911407840357
 31
0.0
  0
LINE
  5
1E1
330
1F
100
AcDbEntity
  8
0
100
AcDbLine
 10
-93.61382635503233
 20
-44.83911407840357
 30
0.0
 11
-93.17091051030401
 21
-45.14495693790239
 31
0.0
  0
LINE
  5
1E2
330
1F
100
AcDbEntity
  8
0
100
AcDbLine
 10
-93.17091051030401
 20
-45.14495693790239
 30
0.0
 11
-92.8230252213794
 21
-45.55636857019913
 31
0.0
  0
LINE
  5
1E3
330
1F
100
AcDbEntity
  8
0
100
AcDbLine
 10
-92.8230252213794
 20
-45.55636857019913
 30
0.0
 11
-92.59388213828751
 21
-46.04533580657628
 31
0.0
  0
LINE
  5
1E4
330
1F
100
AcDbEntity
  8
0
100
AcDbLine
 10
-92.59388213828751
 20
-46.04533580657628
 30
0.0
 11
-92.49911216390382
 21
-46.57855519096488
 31
0.0
  0
LINE
  5
1E5
330
1F
100
AcDbEntity
  8
0
100
AcDbLine
 10
-92.49911216390382
 20
-46.57855519096488
 30
0.0
 11
-92.54519616935518
 21
-47.11969750304626
 31
0.0
  0
LINE
  5
1E6
330
1F
100
AcDbEntity
  8
0
100
AcDbLine
 10
-92.54519616935518
 20
-47.11969750304626
 30
0.0
 11
-92.7290173185497
 21
-47.63188117395563
 31
0.0
  0
LINE
  5
1E7
330
1F
100
AcDbEntity
  8
0
100
AcDbLine
 10
-92.7290173185497
 20
-47.63188117395563
 30
0.0
 11
-93.0380671208336
 21
-48.08018666955854
 31
0.0
  0
LINE
  5
1E8
330
1F
100
AcDbEntity
  8
0
100
AcDbLine
 10
-93.0380671208336
 20
-48.08018666955854
 30
0.0
 11
-93.45129287277877
 21
-48.43404023346496
 31
0.0
  0
LINE
  5
1E9
330
1F
100
AcDbEntity
  8
0
100
AcDbLine
 10
-95.01070105852179
 20
-48.72903796073553
 30
0.0
 11
-95.51865826465618
 21
-48.54943325504563
 31
0.0
  0
LINE
  5
1EA
330
1F
100
AcDbEntity
  8
0
100
AcDbLine
 10
-95.51865826465618
 20
-48.54943325504563
 30
0.0
 11
-95.96165939255212
 21
-48.24336541751946
 31
0.0
  0
LINE
  5
1EB
330
1F
100
AcDbEntity
  8
0
100
AcDbLine
 10
-95.96165939255212
 20
-48.24336541751946
 30
0.0
 11
-96.30950613003367
 21
-47.83171495099785
 31
0.0
  0
LINE
  5
1EC
330
1F
100
AcDbEntity
  8
0
100
AcDbLine
 10
-96.30950613003367
 20
-47.83171495099785
 30
0.0
 11
-96.53849715690393
 21
-47.34255901963467
 31
0.0
  0
LINE
  5
1ED
330
1F
100
AcDbEntity
  8
0
100
AcDbLine
 10
-96.53849715690393
 20
-47.34255901963467
 30
0.0
 11
-96.63304231363023
 21
-46.80925164016385
 31
0.0
  0
LINE
  5
1EE
330
1F
100
AcDbEntity
  8
0
100
AcDbLine
 10
-96.63304231363023
 20
-46.80925164016385
 30
0.0
 11
-96.58672096879211
 21
-46.26814561111233
 31
0.0
  0
LINE
  5
1EF
330
1F
100
AcDbEntity
  8
0
100
AcDbLine
 10
-96.58672096879211
 20
-46.26814561111233
 30
0.0
 11
-96.40271355337451
 21
-45.75611277933763
 31
0.0
  0
LINE
  5
1F0
330
1F
100
AcDbEntity
  8
0
100
AcDbLine
 10
-96.40271355337451
 20
-45.75611277933763
 30
0.0
 11
-96.09357846791431
 21
-45.30803226175409
 31
0.0
  0
LINE
  5
1F1
330
1F
100
AcDbEntity
  8
0
100
AcDbLine
 10
-95.63316336478118
 20
-44.93529550853567
 30
0.0
 11
-95.1913061200335
 21
-44.71934299891043
 31
0.0
  0
LINE
  5
1F2
330
1F
100
AcDbEntity
  8
0
100
AcDbLine
 10
-96.35512499333466
 20
-45.73659334914826
 30
0.0
 11
-96.04614480497152
 21
-45.28873495705071
 31
0.0
  0
LINE
  5
1F3
330
1F
100
AcDbEntity
  8
0
100
AcDbLine
 10
-96.53903893914446
 20
-46.24837232636727
 30
0.0
 11
-96.35512499333466
 21
-45.73659334914826
 31
0.0
  0
LINE
  5
1F4
330
1F
100
AcDbEntity
  8
0
100
AcDbLine
 10
-96.58533462994323
 20
-46.78921005664612
 30
0.0
 11
-96.53903893914446
 21
-46.24837232636727
 31
0.0
  0
LINE
  5
1F5
330
1F
100
AcDbEntity
  8
0
100
AcDbLine
 10
-96.49083340640992
 20
-47.32225297364431
 30
0.0
 11
-96.58533462994323
 21
-46.78921005664612
 31
0.0
  0
LINE
  5
1F6
330
1F
100
AcDbEntity
  8
0
100
AcDbLine
 10
-96.26195292821336
 20
-47.81116631019903
 30
0.0
 11
-96.49083340640992
 21
-47.32225297364431
 31
0.0
  0
LINE
  5
1F7
330
1F
100
AcDbEntity
  8
0
100
AcDbLine
 10
-95.91427583628179
 20
-48.22261260065717
 30
0.0
 11
-96.26195292821336
 21
-47.81116631019903
 31
0.0
  0
LINE
  5
1F8
330
1F
100
AcDbEntity
  8
0
100
AcDbLine
 10
-95.47149189368325
 20
-48.52852861873864
 30
0.0
 11
-95.91427583628179
 21
-48.22261260065717
 31
0.0
  0
LINE
  5
1F9
330
1F
100
AcDbEntity
  8
0
100
AcDbLine
 10
-94.96378460348112
 20
-48.70804423009677
 30
0.0
 11
-95.47149189368325
 21
-48.52852861873864
 31
0.0
  0
LINE
  5
1FA
330
1F
100
AcDbEntity
  8
0
100
AcDbLine
 10
-94.04419467433256
 20
49.30967130996707
 30
0.0
 11
-93.51379272300437
 21
49.37886941263288
 31
0.0
  0
LINE
  5
1FB
330
1F
100
AcDbEntity
  8
0
100
AcDbLine
 10
-94.53992511425528
 20
49.10651046300531
 30
0.0
 11
-94.04419467433256
 21
49.30967130996707
 31
0.0
  0
LINE
  5
1FC
330
1F
100
AcDbEntity
  8
0
100
AcDbLine
 10
-94.9672176309267
 20
48.78321543162973
 30
0.0
 11
-94.53992511425528
 21
49.10651046300531
 31
0.0
  0
LINE
  5
1FD
330
1F
100
AcDbEntity
  8
0
100
AcDbLine
 10
-95.2969592767271
 20
48.36179566452076
 30
0.0
 11
-94.9672176309267
 21
48.78321543162973
 31
0.0
  0
LINE
  5
1FE
330
1F
100
AcDbEntity
  8
0
100
AcDbLine
 10
-95.50667286989369
 20
47.87094763721507
 30
0.0
 11
-95.2969592767271
 21
48.36179566452076
 31
0.0
  0
LINE
  5
1FF
330
1F
100
AcDbEntity
  8
0
100
AcDbLine
 10
-95.58205033747895
 20
47.34410528518401
 30
0.0
 11
-95.50667286989369
 21
47.87094763721507
 31
0.0
  0
LINE
  5
200
330
1F
100
AcDbEntity
  8
0
100
AcDbLine
 10
-95.51793218851282
 20
46.81716597119016
 30
0.0
 11
-95.58205033747895
 21
47.34410528518401
 31
0.0
  0
LINE
  5
201
330
1F
100
AcDbEntity
  8
0
100
AcDbLine
 10
-95.31866519020603
 20
46.32604576948087
 30
0.0
 11
-95.51793218851282
 21
46.81716597119016
 31
0.0
  0
LINE
  5
202
330
1F
100
AcDbEntity
  8
0
100
AcDbLine
 10
64.888406465076
 20
46.1346684819982
 30
0.0
 11
64.56161439153966
 21
45.76818314237291
 31
0.0
  0
LINE
  5
203
330
1F
100
AcDbEntity
  8
0
100
AcDbLine
 10
65.24392562787675
 20
47.12500936860426
 30
0.0
 11
65.13188847278373
 21
46.60612915995539
 31
0.0
  0
LINE
  5
204
330
1F
100
AcDbEntity
  8
0
100
AcDbLine
 10
65.21690416378149
 20
47.65593839987112
 30
0.0
 11
65.24392562787675
 21
47.12500936860426
 31
0.0
  0
LINE
  5
205
330
1F
100
AcDbEntity
  8
0
100
AcDbLine
 10
65.0526889557345
 20
48.16273635976052
 30
0.0
 11
65.21690416378149
 21
47.65593839987112
 31
0.0
  0
LINE
  5
206
330
1F
100
AcDbEntity
  8
0
100
AcDbLine
 10
64.7624901611369
 20
48.61087921803173
 30
0.0
 11
65.0526889557345
 21
48.16273635976052
 31
0.0
  0
LINE
  5
207
330
1F
100
AcDbEntity
  8
0
100
AcDbLine
 10
64.36609413385206
 20
48.96984796782533
 30
0.0
 11
64.7624901611369
 21
48.61087921803173
 31
0.0
  0
LINE
  5
208
330
1F
100
AcDbEntity
  8
0
100
AcDbLine
 10
63.89051239799608
 20
49.21520276856
 30
0.0
 11
64.36609413385206
 21
48.96984796782533
 31
0.0
  0
LINE
  5
209
330
1F
100
AcDbEntity
  8
0
100
AcDbLine
 10
63.36814145131064
 20
49.3302422435894
 30
0.0
 11
63.89051239799608
 21
49.21520276856
 31
0.0
  0
LINE
  5
20A
330
1F
100
AcDbEntity
  8
0
100
AcDbLine
 10
62.83455864416667
 20
49.30713652398144
 30
0.0
 11
63.36814145131064
 21
49.3302422435894
 31
0.0
  0
LINE
  5
20B
330
1F
100
AcDbEntity
  8
0
100
AcDbLine
 10
61.90765488732966
 20
48.8889992421197
 30
0.0
 11
62.32610336450347
 21
49.1474581954165
 31
0.0
  0
LINE
  5
20C
330
1F
100
AcDbEntity
  8
0
100
AcDbLine
 10
64.87317262278563
 20
-48.51564572268962
 30
0.0
 11
64.37571077572153
 21
-48.72316751522492
 31
0.0
  0
LINE
  5
20D
330
1F
100
AcDbEntity
  8
0
100
AcDbLine
 10
65.29930290407512
 20
-48.18544915132342
 30
0.0
 11
64.87317262278563
 21
-48.51564572268962
 31
0.0
  0
LINE
  5
20E
330
1F
100
AcDbEntity
  8
0
100
AcDbLine
 10
65.62505548679427
 20
-47.75510344641462
 30
0.0
 11
65.29930290407512
 21
-48.18544915132342
 31
0.0
  0
LINE
  5
20F
330
1F
100
AcDbEntity
  8
0
100
AcDbLine
 10
65.82823723941087
 20
-47.25395925213791
 30
0.0
 11
65.62505548679427
 21
-47.75510344641462
 31
0.0
  0
LINE
  5
210
330
1F
100
AcDbEntity
  8
0
100
AcDbLine
 10
65.89501874738224
 20
-46.71618577036851
 30
0.0
 11
65.82823723941087
 21
-47.25395925213791
 31
0.0
  0
LINE
  5
211
330
1F
100
AcDbEntity
  8
0
100
AcDbLine
 10
65.82087218366807
 20
-46.17843761790637
 30
0.0
 11
65.89501874738224
 21
-46.71618577036851
 31
0.0
  0
LINE
  5
212
330
1F
100
AcDbEntity
  8
0
100
AcDbLine
 10
64.88092835024887
 20
-44.93599315928007
 30
0.0
 11
65.27935104634733
 21
-45.24706942740598
 31
0.0
  0
LINE
  5
213
330
1F
100
AcDbEntity
  8
0
100
AcDbLine
 10
17.3348181262578
 20
-0.5923957880067888
 30
0.0
 11
17.07046403401719
 21
-0.3136472189978968
 31
0.0
  0
LINE
  5
214
330
1F
100
AcDbEntity
  8
0
100
AcDbLine
 10
16.7974225661005
 20
0.3970745545145048
 30
0.0
 11
16.80732508008972
 21
0.7805976241139568
 31
0.0
  0
LINE
  5
215
330
1F
100
AcDbEntity
  8
0
100
AcDbLine
 10
16.80732508008972
 20
0.7805976241139568
 30
0.0
 11
16.91619126318916
 21
1.148279568946675
 31
0.0
  0
LINE
  5
216
330
1F
100
AcDbEntity
  8
0
100
AcDbLine
 10
16.91619126318916
 20
1.148279568946675
 30
0.0
 11
17.11659190045855
 21
1.475070107859588
 31
0.0
  0
LINE
  5
217
330
1F
100
AcDbEntity
  8
0
100
AcDbLine
 10
17.11659190045855
 20
1.475070107859588
 30
0.0
 11
17.39486452614479
 21
1.738709825093415
 31
0.0
  0
LINE
  5
218
330
1F
100
AcDbEntity
  8
0
100
AcDbLine
 10
17.39486452614479
 20
1.738709825093415
 30
0.0
 11
17.73204596894997
 21
1.921244213724082
 31
0.0
  0
LINE
  5
219
330
1F
100
AcDbEntity
  8
0
100
AcDbLine
 10
17.73204596894997
 20
1.921244213724082
 30
0.0
 11
18.10516448634972
 21
2.010244003247891
 31
0.0
  0
LINE
  5
21A
330
1F
100
AcDbEntity
  8
0
100
AcDbLine
 10
18.10516448634972
 20
2.010244003247891
 30
0.0
 11
18.48880347833877
 21
1.999649476271636
 31
0.0
  0
LINE
  5
21B
330
1F
100
AcDbEntity
  8
0
100
AcDbLine
 10
18.48880347833877
 20
1.999649476271636
 30
0.0
 11
18.85683069099166
 21
1.890181963000024
 31
0.0
  0
LINE
  5
21C
330
1F
100
AcDbEntity
  8
0
100
AcDbLine
 10
18.85683069099166
 20
1.890181963000024
 30
0.0
 11
19.18417584285586
 21
1.689294863015462
 31
0.0
  0
LINE
  5
21D
330
1F
100
AcDbEntity
  8
0
100
AcDbLine
 10
19.18417584285586
 20
1.689294863015462
 30
0.0
 11
19.44853640028948
 21
1.410667484164142
 31
0.0
  0
LINE
  5
21E
330
1F
100
AcDbEntity
  8
0
100
AcDbLine
 10
19.44853640028948
 20
1.410667484164142
 30
0.0
 11
19.63189598512804
 21
1.073275717307455
 31
0.0
  0
LINE
  5
21F
330
1F
100
AcDbEntity
  8
0
100
AcDbLine
 10
19.63189598512804
 20
1.073275717307455
 30
0.0
 11
19.72175233249115
 21
0.7001021033633921
 31
0.0
  0
LINE
  5
220
330
1F
100
AcDbEntity
  8
0
100
AcDbLine
 10
19.72175233249115
 20
0.7001021033633921
 30
0.0
 11
19.71197107002985
 21
0.3165723310191331
 31
0.0
  0
LINE
  5
221
330
1F
100
AcDbEntity
  8
0
100
AcDbLine
 10
19.71197107002985
 20
0.3165723310191331
 30
0.0
 11
19.60320666123875
 21
-0.0511760136385022
 31
0.0
  0
LINE
  5
222
330
1F
100
AcDbEntity
  8
0
100
AcDbLine
 10
19.60320666123875
 20
-0.0511760136385022
 30
0.0
 11
19.40286105071485
 21
-0.3780748576779919
 31
0.0
  0
LINE
  5
223
330
1F
100
AcDbEntity
  8
0
100
AcDbLine
 10
19.40286105071485
 20
-0.3780748576779919
 30
0.0
 11
19.12458195983858
 21
-0.6418357650697207
 31
0.0
  0
LINE
  5
224
330
1F
100
AcDbEntity
  8
0
100
AcDbLine
 10
19.12458195983858
 20
-0.6418357650697207
 30
0.0
 11
18.78733429224921
 21
-0.8244717560845671
 31
0.0
  0
LINE
  5
225
330
1F
100
AcDbEntity
  8
0
100
AcDbLine
 10
18.78733429224921
 20
-0.8244717560845671
 30
0.0
 11
18.41410753534811
 21
-0.9135263359410198
 31
0.0
  0
LINE
  5
226
330
1F
100
AcDbEntity
  8
0
100
AcDbLine
 10
18.41410753534811
 20
-0.9135263359410198
 30
0.0
 11
18.03034729182819
 21
-0.9029251062196069
 31
0.0
  0
LINE
  5
227
330
1F
100
AcDbEntity
  8
0
100
AcDbLine
 10
18.03034729182819
 20
-0.9029251062196069
 30
0.0
 11
17.66221830486574
 21
-0.7933911931203315
 31
0.0
  0
LINE
  5
228
330
1F
100
AcDbEntity
  8
0
100
AcDbLine
 10
17.66221830486574
 20
-0.7933911931203315
 30
0.0
 11
17.3348181262578
 21
-0.5923957880067888
 31
0.0
  0
LINE
  5
229
330
1F
100
AcDbEntity
  8
0
100
AcDbLine
 10
-49.42037969121352
 20
-0.7632462290979792
 30
0.0
 11
-49.74209464218605
 21
-0.5556007188197005
 31
0.0
  0
LINE
  5
22A
330
1F
100
AcDbEntity
  8
0
100
AcDbLine
 10
-49.74209464218605
 20
-0.5556007188197005
 30
0.0
 11
-49.99862524531395
 21
-0.2715127405185862
 31
0.0
  0
LINE
  5
22B
330
1F
100
AcDbEntity
  8
0
100
AcDbLine
 10
-49.99862524531395
 20
-0.2715127405185862
 30
0.0
 11
-50.17249059599495
 21
0.0696455080313437
 31
0.0
  0
LINE
  5
22C
330
1F
100
AcDbEntity
  8
0
100
AcDbLine
 10
-50.17249059599495
 20
0.0696455080313437
 30
0.0
 11
-50.2518491599662
 21
0.4446147865323066
 31
0.0
  0
LINE
  5
22D
330
1F
100
AcDbEntity
  8
0
100
AcDbLine
 10
-50.2518491599662
 20
0.4446147865323066
 30
0.0
 11
-50.23130385013897
 21
0.8278365352927046
 31
0.0
  0
LINE
  5
22E
330
1F
100
AcDbEntity
  8
0
100
AcDbLine
 10
-50.23130385013897
 20
0.8278365352927046
 30
0.0
 11
-50.11226686283057
 21
1.193195993804544
 31
0.0
  0
LINE
  5
22F
330
1F
100
AcDbEntity
  8
0
100
AcDbLine
 10
-50.11226686283057
 20
1.193195993804544
 30
0.0
 11
-49.90286020564376
 21
1.515801564287385
 31
0.0
  0
LINE
  5
230
330
1F
100
AcDbEntity
  8
0
100
AcDbLine
 10
-49.90286020564376
 20
1.515801564287385
 30
0.0
 11
-49.61735956210395
 21
1.773679244393206
 31
0.0
  0
LINE
  5
231
330
1F
100
AcDbEntity
  8
0
100
AcDbLine
 10
-49.61735956210395
 20
1.773679244393206
 30
0.0
 11
-49.27522009797507
 21
1.949267162731031
 31
0.0
  0
LINE
  5
232
330
1F
100
AcDbEntity
  8
0
100
AcDbLine
 10
-49.27522009797507
 20
1.949267162731031
 30
0.0
 11
-48.89975095448344
 21
2.030609159156134
 31
0.0
  0
LINE
  5
233
330
1F
100
AcDbEntity
  8
0
100
AcDbLine
 10
-48.89975095448344
 20
2.030609159156134
 30
0.0
 11
-48.51652867054877
 21
2.012166934818515
 31
0.0
  0
LINE
  5
234
330
1F
100
AcDbEntity
  8
0
100
AcDbLine
 10
-48.51652867054877
 20
2.012166934818515
 30
0.0
 11
-48.15165714722269
 21
1.895196132662603
 31
0.0
  0
LINE
  5
235
330
1F
100
AcDbEntity
  8
0
100
AcDbLine
 10
-48.15165714722269
 20
1.895196132662603
 30
0.0
 11
-47.8299919414239
 21
1.687661079204001
 31
0.0
  0
LINE
  5
236
330
1F
100
AcDbEntity
  8
0
100
AcDbLine
 10
-47.8299919414239
 20
1.687661079204001
 30
0.0
 11
-47.57344903523467
 21
1.403693914351344
 31
0.0
  0
LINE
  5
237
330
1F
100
AcDbEntity
  8
0
100
AcDbLine
 10
-47.57344903523467
 20
1.403693914351344
 30
0.0
 11
-47.39951262985381
 21
1.062634464012876
 31
0.0
  0
LINE
  5
238
330
1F
100
AcDbEntity
  8
0
100
AcDbLine
 10
-47.39951262985381
 20
1.062634464012876
 30
0.0
 11
-47.32004329859395
 21
0.687715495586437
 31
0.0
  0
LINE
  5
239
330
1F
100
AcDbEntity
  8
0
100
AcDbLine
 10
-47.32004329859395
 20
0.687715495586437
 30
0.0
 11
-47.34046780854861
 21
0.3044820882206327
 31
0.0
  0
LINE
  5
23A
330
1F
100
AcDbEntity
  8
0
100
AcDbLine
 10
-47.34046780854861
 20
0.3044820882206327
 30
0.0
 11
-47.45940633162766
 21
-0.060947873662876
 31
0.0
  0
LINE
  5
23B
330
1F
100
AcDbEntity
  8
0
100
AcDbLine
 10
-47.45940633162766
 20
-0.060947873662876
 30
0.0
 11
-47.66876324363885
 21
-0.3836639009631415
 31
0.0
  0
LINE
  5
23C
330
1F
100
AcDbEntity
  8
0
100
AcDbLine
 10
-47.66876324363885
 20
-0.3836639009631415
 30
0.0
 11
-47.95427619023698
 21
-0.6416623945179637
 31
0.0
  0
LINE
  5
23D
330
1F
100
AcDbEntity
  8
0
100
AcDbLine
 10
-47.95427619023698
 20
-0.6416623945179637
 30
0.0
 11
-48.29648670906477
 21
-0.8173491110700855
 31
0.0
  0
LINE
  5
23E
330
1F
100
AcDbEntity
  8
0
100
AcDbLine
 10
-48.29648670906477
 20
-0.8173491110700855
 30
0.0
 11
-48.67206661984707
 21
-0.8987414175719755
 31
0.0
  0
LINE
  5
23F
330
1F
100
AcDbEntity
  8
0
100
AcDbLine
 10
-49.05540970365719
 20
-0.880287534628369
 30
0.0
 11
-49.42037969121352
 21
-0.7632462290979792
 31
0.0
  0
LINE
  5
240
330
1F
100
AcDbEntity
  8
0
100
AcDbLine
 10
-61.28947680528735
 20
-0.067819621145886
 30
0.0
 11
-61.40680431788559
 21
0.2967366975742032
 31
0.0
  0
LINE
  5
241
330
1F
100
AcDbEntity
  8
0
100
AcDbLine
 10
-61.40680431788559
 20
0.2967366975742032
 30
0.0
 11
-61.42553696624821
 21
0.6798240488379024
 31
0.0
  0
LINE
  5
242
330
1F
100
AcDbEntity
  8
0
100
AcDbLine
 10
-61.42553696624821
 20
0.6798240488379024
 30
0.0
 11
-61.34441021626747
 21
1.055334323545428
 31
0.0
  0
LINE
  5
243
330
1F
100
AcDbEntity
  8
0
100
AcDbLine
 10
-61.34441021626747
 20
1.055334323545428
 30
0.0
 11
-61.16896380020631
 21
1.397681982504517
 31
0.0
  0
LINE
  5
244
330
1F
100
AcDbEntity
  8
0
100
AcDbLine
 10
-59.83986518063405
 20
2.034395054352779
 30
0.0
 11
-59.4647477378527
 21
1.955823732600632
 31
0.0
  0
LINE
  5
245
330
1F
100
AcDbEntity
  8
0
100
AcDbLine
 10
-59.4647477378527
 20
1.955823732600632
 30
0.0
 11
-59.12337701771798
 21
1.782759515406831
 31
0.0
  0
LINE
  5
246
330
1F
100
AcDbEntity
  8
0
100
AcDbLine
 10
-59.12337701771798
 20
1.782759515406831
 30
0.0
 11
-58.83900974361435
 21
1.526986681963965
 31
0.0
  0
LINE
  5
247
330
1F
100
AcDbEntity
  8
0
100
AcDbLine
 10
-58.83900974361435
 20
1.526986681963965
 30
0.0
 11
-58.63102380821676
 21
1.205923680421688
 31
0.0
  0
LINE
  5
248
330
1F
100
AcDbEntity
  8
0
100
AcDbLine
 10
-58.63102380821676
 20
1.205923680421688
 30
0.0
 11
-58.51359804234033
 21
0.8414393166604756
 31
0.0
  0
LINE
  5
249
330
1F
100
AcDbEntity
  8
0
100
AcDbLine
 10
-58.51359804234033
 20
0.8414393166604756
 30
0.0
 11
-58.49474463041307
 21
0.4583654072518373
 31
0.0
  0
LINE
  5
24A
330
1F
100
AcDbEntity
  8
0
100
AcDbLine
 10
-58.49474463041307
 20
0.4583654072518373
 30
0.0
 11
-58.57576046504133
 21
0.0828064595616252
 31
0.0
  0
LINE
  5
24B
330
1F
100
AcDbEntity
  8
0
100
AcDbLine
 10
-58.57576046504133
 20
0.0828064595616252
 30
0.0
 11
-58.75113553364041
 21
-0.2596389453323324
 31
0.0
  0
LINE
  5
24C
330
1F
100
AcDbEntity
  8
0
100
AcDbLine
 10
-58.75113553364041
 20
-0.2596389453323324
 30
0.0
 11
-59.00892544640759
 21
-0.5456239547585117
 31
0.0
  0
LINE
  5
24D
330
1F
100
AcDbEntity
  8
0
100
AcDbLine
 10
-59.00892544640759
 20
-0.5456239547585117
 30
0.0
 11
-59.33156351475805
 21
-0.7556471100050757
 31
0.0
  0
LINE
  5
24E
330
1F
100
AcDbEntity
  8
0
100
AcDbLine
 10
-59.33156351475805
 20
-0.7556471100050757
 30
0.0
 11
-59.69705755141951
 21
-0.8753845687597968
 31
0.0
  0
LINE
  5
24F
330
1F
100
AcDbEntity
  8
0
100
AcDbLine
 10
-59.69705755141951
 20
-0.8753845687597968
 30
0.0
 11
-60.08048992408653
 21
-0.8966692297346248
 31
0.0
  0
LINE
  5
250
330
1F
100
AcDbEntity
  8
0
100
AcDbLine
 10
-128.0371535696311
 20
-0.4748467730191747
 30
0.0
 11
-128.2731796664248
 21
-0.1755070189560786
 31
0.0
  0
LINE
  5
251
330
1F
100
AcDbEntity
  8
0
100
AcDbLine
 10
-128.2731796664248
 20
-0.1755070189560786
 30
0.0
 11
-128.4227880389178
 21
0.1757551478322285
 31
0.0
  0
LINE
  5
252
330
1F
100
AcDbEntity
  8
0
100
AcDbLine
 10
-128.4227880389178
 20
0.1757551478322285
 30
0.0
 11
-128.4757914501208
 21
0.5549928569181385
 31
0.0
  0
LINE
  5
253
330
1F
100
AcDbEntity
  8
0
100
AcDbLine
 10
-128.4757914501208
 20
0.5549928569181385
 30
0.0
 11
-128.4285894275668
 21
0.9363580483447758
 31
0.0
  0
LINE
  5
254
330
1F
100
AcDbEntity
  8
0
100
AcDbLine
 10
-128.4285894275668
 20
0.9363580483447758
 30
0.0
 11
-128.2844105148382
 21
1.293863948617268
 31
0.0
  0
LINE
  5
255
330
1F
100
AcDbEntity
  8
0
100
AcDbLine
 10
-128.2844105148382
 20
1.293863948617268
 30
0.0
 11
-128.0530890892466
 21
1.603155319461362
 31
0.0
  0
LINE
  5
256
330
1F
100
AcDbEntity
  8
0
100
AcDbLine
 10
-128.0530890892466
 20
1.603155319461362
 30
0.0
 11
-127.7503928023068
 21
1.843166029889416
 31
0.0
  0
LINE
  5
257
330
1F
100
AcDbEntity
  8
0
100
AcDbLine
 10
-127.7503928023068
 20
1.843166029889416
 30
0.0
 11
-127.3969471093546
 21
1.997551579812956
 31
0.0
  0
LINE
  5
258
330
1F
100
AcDbEntity
  8
0
100
AcDbLine
 10
-126.6359354663243
 20
2.013944753512322
 30
0.0
 11
-126.2802077831099
 21
1.874836218718736
 31
0.0
  0
LINE
  5
259
330
1F
100
AcDbEntity
  8
0
100
AcDbLine
 10
-126.2802077831099
 20
1.874836218718736
 30
0.0
 11
-125.9738808083129
 21
1.64794600038947
 31
0.0
  0
LINE
  5
25A
330
1F
100
AcDbEntity
  8
0
100
AcDbLine
 10
-125.9738808083129
 20
1.64794600038947
 30
0.0
 11
-125.7378267356655
 21
1.34872472945562
 31
0.0
  0
LINE
  5
25B
330
1F
100
AcDbEntity
  8
0
100
AcDbLine
 10
-125.7378267356655
 20
1.34872472945562
 30
0.0
 11
-125.5881350515723
 21
0.9975520061664771
 31
0.0
  0
LINE
  5
25C
330
1F
100
AcDbEntity
  8
0
100
AcDbLine
 10
-125.5881350515723
 20
0.9975520061664771
 30
0.0
 11
-125.535015316299
 21
0.6183507346373418
 31
0.0
  0
LINE
  5
25D
330
1F
100
AcDbEntity
  8
0
100
AcDbLine
 10
-125.535015316299
 20
0.6183507346373418
 30
0.0
 11
-125.5820991712521
 21
0.2369592114118662
 31
0.0
  0
LINE
  5
25E
330
1F
100
AcDbEntity
  8
0
100
AcDbLine
 10
-125.5820991712521
 20
0.2369592114118662
 30
0.0
 11
-125.7261897357617
 21
-0.1206287344314277
 31
0.0
  0
LINE
  5
25F
330
1F
100
AcDbEntity
  8
0
100
AcDbLine
 10
-125.7261897357617
 20
-0.1206287344314277
 30
0.0
 11
-125.9574763053499
 21
-0.4300358805748147
 31
0.0
  0
LINE
  5
260
330
1F
100
AcDbEntity
  8
0
100
AcDbLine
 10
-125.9574763053499
 20
-0.4300358805748147
 30
0.0
 11
-126.2602005681409
 21
-0.6701650741333925
 31
0.0
  0
LINE
  5
261
330
1F
100
AcDbEntity
  8
0
100
AcDbLine
 10
-126.2602005681409
 20
-0.6701650741333925
 30
0.0
 11
-126.613729572693
 21
-0.8246400675590558
 31
0.0
  0
LINE
  5
262
330
1F
100
AcDbEntity
  8
0
100
AcDbLine
 10
-126.613729572693
 20
-0.8246400675590558
 30
0.0
 11
-126.9939625774739
 21
-0.8829247063800857
 31
0.0
  0
LINE
  5
263
330
1F
100
AcDbEntity
  8
0
100
AcDbLine
 10
-127.7307917388333
 20
-0.7018527666494688
 30
0.0
 11
-128.0371535696311
 21
-0.4748467730191747
 31
0.0
  0
LINE
  5
264
330
1F
100
AcDbEntity
  8
0
100
AcDbLine
 10
16.93241933896427
 20
-0.0778070221337234
 30
0.0
 11
16.90163085702623
 21
-0.0211168660746878
 31
0.0
  0
LINE
  5
265
330
1F
100
AcDbEntity
  8
0
100
AcDbLine
 10
-60.19360132856339
 20
2.009083243899626
 30
0.0
 11
-59.83986518063405
 21
2.034395054352779
 31
0.0
  0
LINE
  5
266
330
1F
100
AcDbEntity
  8
0
100
AcDbLine
 10
-61.31428098881882
 20
1.051763729326399
 30
0.0
 11
-61.13892185902547
 21
1.393943383557441
 31
0.0
  0
LINE
  5
267
330
1F
100
AcDbEntity
  8
0
100
AcDbLine
 10
-61.39536666427512
 20
0.6764377480350405
 30
0.0
 11
-61.31428098881882
 21
1.051763729326399
 31
0.0
  0
LINE
  5
268
330
1F
100
AcDbEntity
  8
0
100
AcDbLine
 10
-61.37664196315584
 20
0.2935384243620151
 30
0.0
 11
-61.39536666427512
 21
0.6764377480350405
 31
0.0
  0
LINE
  5
269
330
1F
100
AcDbEntity
  8
0
100
AcDbLine
 10
-61.25937088983085
 20
-0.0708389476754238
 30
0.0
 11
-61.37664196315584
 21
0.2935384243620151
 31
0.0
  0
LINE
  5
26A
330
1F
100
AcDbEntity
  8
0
100
AcDbLine
 10
-60.08048992408653
 20
-0.8966692297346248
 30
0.0
 11
-60.42601949899777
 21
-0.820700258079426
 31
0.0
  0
LINE
  5
26B
330
1F
100
AcDbEntity
  8
0
100
AcDbLine
 10
-126.9939625774739
 20
-0.8829247063800857
 30
0.0
 11
-127.3124027807102
 21
-0.8436830808594078
 31
0.0
  0
LINE
  5
26C
330
1F
100
AcDbEntity
  8
0
100
AcDbLine
 10
-127.6876537263163
 20
1.839208831454036
 30
0.0
 11
-127.3343826610762
 21
1.993518629162073
 31
0.0
  0
LINE
  5
26D
330
1F
100
AcDbEntity
  8
0
100
AcDbLine
 10
-127.9901997191972
 20
1.599315891904654
 30
0.0
 11
-127.6876537263163
 21
1.839208831454036
 31
0.0
  0
LINE
  5
26E
330
1F
100
AcDbEntity
  8
0
100
AcDbLine
 10
-128.2214054238478
 20
1.290176296327181
 30
0.0
 11
-127.9901997191972
 21
1.599315891904654
 31
0.0
  0
LINE
  5
26F
330
1F
100
AcDbEntity
  8
0
100
AcDbLine
 10
-128.3655110782805
 20
0.932845843828749
 30
0.0
 11
-128.2214054238478
 21
1.290176296327181
 31
0.0
  0
LINE
  5
270
330
1F
100
AcDbEntity
  8
0
100
AcDbLine
 10
-128.4126873062232
 20
0.5516678242569109
 30
0.0
 11
-128.3655110782805
 21
0.932845843828749
 31
0.0
  0
LINE
  5
271
330
1F
100
AcDbEntity
  8
0
100
AcDbLine
 10
-128.3597073335278
 20
0.1726162582416486
 30
0.0
 11
-128.4126873062232
 21
0.5516678242569109
 31
0.0
  0
LINE
  5
272
330
1F
100
AcDbEntity
  8
0
100
AcDbLine
 10
-128.2101700468057
 20
-0.1784734831715875
 30
0.0
 11
-128.3597073335278
 21
0.1726162582416486
 31
0.0
  0
LINE
  5
273
330
1F
100
AcDbEntity
  8
0
100
AcDbLine
 10
-127.9742578469076
 20
-0.4776662888301121
 30
0.0
 11
-128.2101700468057
 21
-0.1784734831715875
 31
0.0
  0
LINE
  5
274
330
1F
100
AcDbEntity
  8
0
100
AcDbLine
 10
-127.6680449650749
 20
-0.7045608369400959
 30
0.0
 11
-127.9742578469076
 21
-0.4776662888301121
 31
0.0
  0
LINE
  5
275
330
1F
100
AcDbEntity
  8
0
100
AcDbLine
 10
63.06962785365175
 20
45.29942208894678
 30
0.0
 11
63.40544015239168
 21
45.29012614095285
 31
0.0
  0
LINE
  5
276
330
1F
100
AcDbEntity
  8
0
100
AcDbLine
 10
-35.13384312167955
 20
-45.2639078193876
 30
0.0
 11
-35.15119438970376
 21
-45.28319281113757
 31
0.0
  0
LINE
  5
277
330
1F
100
AcDbEntity
  8
0
100
AcDbLine
 10
-35.15119438970376
 20
-45.28319281113757
 30
0.0
 11
-35.56200801179109
 21
-45.4416581844695
 31
0.0
  0
LINE
  5
278
330
1F
100
AcDbEntity
  8
0
100
AcDbLine
 10
-35.56200801179109
 20
-45.4416581844695
 30
0.0
 11
-35.57957107152474
 21
-45.46103133249465
 31
0.0
  0
LINE
  5
279
330
1F
100
AcDbEntity
  8
0
100
AcDbLine
 10
-35.57957107152474
 20
-45.46103133249465
 30
0.0
 11
-36.02096322262081
 21
-45.50220464501962
 31
0.0
  0
LINE
  5
27A
330
1F
100
AcDbEntity
  8
0
100
AcDbLine
 10
-36.02096322262081
 20
-45.50220464501962
 30
0.0
 11
-36.038753063619
 21
-45.52160782216628
 31
0.0
  0
LINE
  5
27B
330
1F
100
AcDbEntity
  8
0
100
AcDbLine
 10
-36.038753063619
 20
-45.52160782216628
 30
0.0
 11
-36.47941467063085
 21
-45.44141648617645
 31
0.0
  0
LINE
  5
27C
330
1F
100
AcDbEntity
  8
0
100
AcDbLine
 10
-36.47941467063085
 20
-45.44141648617645
 30
0.0
 11
-36.49743081083199
 21
-45.46078951432771
 31
0.0
  0
LINE
  5
27D
330
1F
100
AcDbEntity
  8
0
100
AcDbLine
 10
-36.49743081083199
 20
-45.46078951432771
 30
0.0
 11
-36.90610264333301
 21
-45.26344091208122
 31
0.0
  0
LINE
  5
27E
330
1F
100
AcDbEntity
  8
0
100
AcDbLine
 10
-36.90610264333301
 20
-45.26344091208122
 30
0.0
 11
-36.92432916196815
 21
-45.28272567227036
 31
0.0
  0
LINE
  5
27F
330
1F
100
AcDbEntity
  8
0
100
AcDbLine
 10
-37.57052542780727
 20
-44.63061741591073
 30
0.0
 11
-37.55198124062172
 21
-44.61165588321715
 31
0.0
  0
LINE
  5
280
330
1F
100
AcDbEntity
  8
0
100
AcDbLine
 10
-37.55198124062172
 20
-44.61165588321715
 30
0.0
 11
-37.74578629448975
 21
-44.20104733037211
 31
0.0
  0
LINE
  5
281
330
1F
100
AcDbEntity
  8
0
100
AcDbLine
 10
-37.74578629448975
 20
-44.20104733037211
 30
0.0
 11
-37.72715646554715
 21
-44.1822986959418
 31
0.0
  0
LINE
  5
282
330
1F
100
AcDbEntity
  8
0
100
AcDbLine
 10
-37.72715646554715
 20
-44.1822986959418
 30
0.0
 11
-37.80419467562284
 21
-43.74014034185932
 31
0.0
  0
LINE
  5
283
330
1F
100
AcDbEntity
  8
0
100
AcDbLine
 10
-37.80419467562284
 20
-43.74014034185932
 30
0.0
 11
-37.78553694717584
 21
-43.72162011463196
 31
0.0
  0
LINE
  5
284
330
1F
100
AcDbEntity
  8
0
100
AcDbLine
 10
-37.78553694717584
 20
-43.72162011463196
 30
0.0
 11
-37.74178719422509
 21
-43.27931106958958
 31
0.0
  0
LINE
  5
285
330
1F
100
AcDbEntity
  8
0
100
AcDbLine
 10
-37.74178719422509
 20
-43.27931106958958
 30
0.0
 11
-37.7231611929885
 21
-43.26101918841582
 31
0.0
  0
LINE
  5
286
330
1F
100
AcDbEntity
  8
0
100
AcDbLine
 10
-37.7231611929885
 20
-43.26101918841582
 30
0.0
 11
-37.56283382923542
 21
-42.84995966726852
 31
0.0
  0
LINE
  5
287
330
1F
100
AcDbEntity
  8
0
100
AcDbLine
 10
-37.56283382923542
 20
-42.84995966726852
 30
0.0
 11
-37.544297002989
 21
-42.83188051414402
 31
0.0
  0
LINE
  5
288
330
1F
100
AcDbEntity
  8
0
100
AcDbLine
 10
6.708856456931795
 20
45.48443537978322
 30
0.0
 11
6.705577295461516
 21
45.45916589879194
 31
0.0
  0
LINE
  5
289
330
1F
100
AcDbEntity
  8
0
100
AcDbLine
 10
4.247812321111891
 20
45.80299365798727
 30
0.0
 11
4.249889508383918
 21
45.82843032310213
 31
0.0
  0
LINE
  5
28A
330
1F
100
AcDbEntity
  8
0
100
AcDbLine
 10
4.249889508383918
 20
45.82843032310213
 30
0.0
 11
4.646434576391091
 21
46.02732881852437
 31
0.0
  0
LINE
  5
28B
330
1F
100
AcDbEntity
  8
0
100
AcDbLine
 10
4.646434576391091
 20
46.02732881852437
 30
0.0
 11
4.648706634976345
 21
46.05287455842249
 31
0.0
  0
LINE
  5
28C
330
1F
100
AcDbEntity
  8
0
100
AcDbLine
 10
4.648706634976345
 20
46.05287455842249
 30
0.0
 11
5.089883199021164
 21
46.14136548383036
 31
0.0
  0
LINE
  5
28D
330
1F
100
AcDbEntity
  8
0
100
AcDbLine
 10
5.089883199021164
 20
46.14136548383036
 30
0.0
 11
5.092372068431374
 21
46.1669666678351
 31
0.0
  0
LINE
  5
28E
330
1F
100
AcDbEntity
  8
0
100
AcDbLine
 10
5.550665867316772
 20
46.16293979977393
 30
0.0
 11
5.547953008090516
 21
46.13734057263901
 31
0.0
  0
LINE
  5
28F
330
1F
100
AcDbEntity
  8
0
100
AcDbLine
 10
5.547953008090516
 20
46.13734057263901
 30
0.0
 11
5.992373359320832
 21
46.04106807472834
 31
0.0
  0
LINE
  5
290
330
1F
100
AcDbEntity
  8
0
100
AcDbLine
 10
5.992373359320832
 20
46.04106807472834
 30
0.0
 11
5.989444578923732
 21
46.01552807237844
 31
0.0
  0
LINE
  5
291
330
1F
100
AcDbEntity
  8
0
100
AcDbLine
 10
5.989444578923732
 20
46.01552807237844
 30
0.0
 11
6.387407738021472
 21
45.80964798576554
 31
0.0
  0
LINE
  5
292
330
1F
100
AcDbEntity
  8
0
100
AcDbLine
 10
6.387407738021472
 20
45.80964798576554
 30
0.0
 11
6.384285805274727
 21
45.78422044868202
 31
0.0
  0
LINE
  5
293
330
1F
100
AcDbEntity
  8
0
100
AcDbLine
 10
6.384285805274727
 20
45.78422044868202
 30
0.0
 11
6.708856456931795
 21
45.48443537978322
 31
0.0
  0
LINE
  5
294
330
1F
100
AcDbEntity
  8
0
100
AcDbLine
 10
-37.18953638773595
 20
43.57095472972861
 30
0.0
 11
-37.34487963862615
 21
43.96783416117778
 31
0.0
  0
LINE
  5
295
330
1F
100
AcDbEntity
  8
0
100
AcDbLine
 10
-37.34487963862615
 20
43.96783416117778
 30
0.0
 11
-37.36314500438824
 21
43.99237834526093
 31
0.0
  0
LINE
  5
296
330
1F
100
AcDbEntity
  8
0
100
AcDbLine
 10
-37.36314500438824
 20
43.99237834526093
 30
0.0
 11
-37.40272305513397
 21
44.41978098786559
 31
0.0
  0
LINE
  5
297
330
1F
100
AcDbEntity
  8
0
100
AcDbLine
 10
-37.40272305513397
 20
44.41978098786559
 30
0.0
 11
-37.4210158099155
 21
44.44454499763614
 31
0.0
  0
LINE
  5
298
330
1F
100
AcDbEntity
  8
0
100
AcDbLine
 10
-37.4210158099155
 20
44.44454499763614
 30
0.0
 11
-37.34096009106427
 21
44.87165205959268
 31
0.0
  0
LINE
  5
299
330
1F
100
AcDbEntity
  8
0
100
AcDbLine
 10
-37.34096009106427
 20
44.87165205959268
 30
0.0
 11
-37.35922173856266
 21
44.89663583640679
 31
0.0
  0
LINE
  5
29A
330
1F
100
AcDbEntity
  8
0
100
AcDbLine
 10
-35.65781140943005
 20
46.19064557983667
 30
0.0
 11
-35.64038389122832
 21
46.16503288902139
 31
0.0
  0
LINE
  5
29B
330
1F
100
AcDbEntity
  8
0
100
AcDbLine
 10
-35.64038389122832
 20
46.16503288902139
 30
0.0
 11
-35.20366891083752
 21
46.13102545727355
 31
0.0
  0
LINE
  5
29C
330
1F
100
AcDbEntity
  8
0
100
AcDbLine
 10
-35.20366891083752
 20
46.13102545727355
 30
0.0
 11
-35.18646323990986
 21
46.10544173907992
 31
0.0
  0
LINE
  5
29D
330
1F
100
AcDbEntity
  8
0
100
AcDbLine
 10
-35.18646323990986
 20
46.10544173907992
 30
0.0
 11
-34.7809530737847
 21
45.9564606984213
 31
0.0
  0
LINE
  5
29E
330
1F
100
AcDbEntity
  8
0
100
AcDbLine
 10
-34.7809530737847
 20
45.9564606984213
 30
0.0
 11
-34.76395368018962
 21
45.93096181280402
 31
0.0
  0
LINE
  5
29F
330
1F
100
AcDbEntity
  8
0
100
AcDbLine
 10
-34.76395368018962
 20
45.93096181280402
 30
0.0
 11
-34.41845910615837
 21
45.67883543164375
 31
0.0
  0
LINE
  5
2A0
330
1F
100
AcDbEntity
  8
0
100
AcDbLine
 10
-34.41845910615837
 20
45.67883543164375
 30
0.0
 11
-34.4016363743738
 21
45.65347146921879
 31
0.0
  0
LINE
  5
2A1
330
1F
100
AcDbEntity
  8
0
100
AcDbLine
 10
-35.11550581255081
 20
35.70114731028437
 30
0.0
 11
-35.55705509427233
 21
35.65082528413481
 31
0.0
  0
LINE
  5
2A2
330
1F
100
AcDbEntity
  8
0
100
AcDbLine
 10
-35.55705509427233
 20
35.65082528413481
 30
0.0
 11
-35.57446181885748
 21
35.67132020572605
 31
0.0
  0
LINE
  5
2A3
330
1F
100
AcDbEntity
  8
0
100
AcDbLine
 10
-35.57446181885748
 20
35.67132020572605
 30
0.0
 11
-36.00819101836875
 21
35.56165696832033
 31
0.0
  0
LINE
  5
2A4
330
1F
100
AcDbEntity
  8
0
100
AcDbLine
 10
-36.00819101836875
 20
35.56165696832033
 30
0.0
 11
-36.0258187649661
 21
35.58210843695407
 31
0.0
  0
LINE
  5
2A5
330
1F
100
AcDbEntity
  8
0
100
AcDbLine
 10
-36.0258187649661
 20
35.58210843695407
 30
0.0
 11
-36.4440206842137
 21
35.41465521152345
 31
0.0
  0
LINE
  5
2A6
330
1F
100
AcDbEntity
  8
0
100
AcDbLine
 10
-36.4440206842137
 20
35.41465521152345
 30
0.0
 11
-36.46186207638006
 21
35.43503504230857
 31
0.0
  0
LINE
  5
2A7
330
1F
100
AcDbEntity
  8
0
100
AcDbLine
 10
-38.37277651944715
 20
33.54060139392504
 30
0.0
 11
-38.35399621118787
 21
33.52114452724356
 31
0.0
  0
LINE
  5
2A8
330
1F
100
AcDbEntity
  8
0
100
AcDbLine
 10
-38.35399621118787
 20
33.52114452724356
 30
0.0
 11
-38.52254917926997
 21
33.10683429476062
 31
0.0
  0
LINE
  5
2A9
330
1F
100
AcDbEntity
  8
0
100
AcDbLine
 10
-38.52254917926997
 20
33.10683429476062
 30
0.0
 11
-38.50369467914961
 21
33.08758881232049
 31
0.0
  0
LINE
  5
2AA
330
1F
100
AcDbEntity
  8
0
100
AcDbLine
 10
-38.50369467914961
 20
33.08758881232049
 30
0.0
 11
-38.61428873632065
 21
32.6574991372696
 31
0.0
  0
LINE
  5
2AB
330
1F
100
AcDbEntity
  8
0
100
AcDbLine
 10
-38.61428873632065
 20
32.6574991372696
 30
0.0
 11
-38.59538841047733
 21
32.63847264687465
 31
0.0
  0
LINE
  5
2AC
330
1F
100
AcDbEntity
  8
0
100
AcDbLine
 10
-38.59538841047733
 20
32.63847264687465
 30
0.0
 11
-38.64641726117176
 21
32.20028075287394
 31
0.0
  0
LINE
  5
2AD
330
1F
100
AcDbEntity
  8
0
100
AcDbLine
 10
-0.5473512887428112
 20
40.35702303050186
 30
0.0
 11
-0.5451012851757445
 21
47.31931791526875
 31
0.0
  0
LINE
  5
2AE
330
1F
100
AcDbEntity
  8
0
100
AcDbLine
 10
-0.5451012851757445
 20
47.31931791526875
 30
0.0
 11
-0.5450928266109742
 21
47.34549166143289
 31
0.0
  0
LINE
  5
2AF
330
1F
100
AcDbEntity
  8
0
100
AcDbLine
 10
-18.11468653177597
 20
40.36160839250782
 30
0.0
 11
-18.09910203753101
 21
47.32389631887367
 31
0.0
  0
LINE
  5
2B0
330
1F
100
AcDbEntity
  8
0
100
AcDbLine
 10
-18.09910203753101
 20
47.32389631887367
 30
0.0
 11
-18.09904344986654
 21
47.35007003888866
 31
0.0
  0
LINE
  5
2B1
330
1F
100
AcDbEntity
  8
0
100
AcDbLine
 10
88.10265879850985
 20
-26.803862035415
 30
0.0
 11
88.05925648888604
 21
-26.79371905323135
 31
0.0
  0
LINE
  5
2B2
330
1F
100
AcDbEntity
  8
0
100
AcDbLine
 10
88.05925648888604
 20
-26.79371905323135
 30
0.0
 11
87.64565634933875
 21
-26.86951130848113
 31
0.0
  0
LINE
  5
2B3
330
1F
100
AcDbEntity
  8
0
100
AcDbLine
 10
87.98911091151801
 20
-23.37870232063513
 30
0.0
 11
88.37786342633298
 21
-23.5371069932381
 31
0.0
  0
LINE
  5
2B4
330
1F
100
AcDbEntity
  8
0
100
AcDbLine
 10
88.37786342633298
 20
-23.5371069932381
 30
0.0
 11
88.42140740899853
 21
-23.54564185813329
 31
0.0
  0
LINE
  5
2B5
330
1F
100
AcDbEntity
  8
0
100
AcDbLine
 10
88.42140740899853
 20
-23.54564185813329
 30
0.0
 11
88.7532194423005
 21
-23.8099566735477
 31
0.0
  0
LINE
  5
2B6
330
1F
100
AcDbEntity
  8
0
100
AcDbLine
 10
88.7532194423005
 20
-23.8099566735477
 30
0.0
 11
88.79694965620236
 21
-23.81862622835375
 31
0.0
  0
LINE
  5
2B7
330
1F
100
AcDbEntity
  8
0
100
AcDbLine
 10
86.24060259185148
 20
29.81084129265157
 30
0.0
 11
86.19837779018798
 21
29.79320267518007
 31
0.0
  0
LINE
  5
2B8
330
1F
100
AcDbEntity
  8
0
100
AcDbLine
 10
86.19837779018798
 20
29.79320267518007
 30
0.0
 11
85.93735508371093
 21
29.4534689259164
 31
0.0
  0
LINE
  5
2B9
330
1F
100
AcDbEntity
  8
0
100
AcDbLine
 10
85.91443313103143
 20
29.43661022465652
 30
0.0
 11
85.58873390974446
 21
29.18357376179334
 31
0.0
  0
LINE
  5
2BA
330
1F
100
AcDbEntity
  8
0
100
AcDbLine
 10
84.2540729544539
 20
32.40280363691469
 30
0.0
 11
84.29533359202044
 21
32.42171520491162
 31
0.0
  0
LINE
  5
2BB
330
1F
100
AcDbEntity
  8
0
100
AcDbLine
 10
84.29533359202044
 20
32.42171520491162
 30
0.0
 11
84.70966541171487
 21
32.45250127149014
 31
0.0
  0
LINE
  5
2BC
330
1F
100
AcDbEntity
  8
0
100
AcDbLine
 10
84.70966541171487
 20
32.45250127149014
 30
0.0
 11
84.75114893589357
 21
32.47143707469555
 31
0.0
  0
LINE
  5
2BD
330
1F
100
AcDbEntity
  8
0
100
AcDbLine
 10
84.75114893589357
 20
32.47143707469555
 30
0.0
 11
85.16373237839969
 21
32.3829260924599
 31
0.0
  0
LINE
  5
2BE
330
1F
100
AcDbEntity
  8
0
100
AcDbLine
 10
85.16373237839969
 20
32.3829260924599
 30
0.0
 11
85.20543858184385
 21
32.40182796703569
 31
0.0
  0
LINE
  5
2BF
330
1F
100
AcDbEntity
  8
0
100
AcDbLine
 10
63.55878377878476
 20
0.2892308335556058
 30
0.0
 11
63.52744216609424
 21
0.3044584537551107
 31
0.0
  0
LINE
  5
2C0
330
1F
100
AcDbEntity
  8
0
100
AcDbLine
 10
63.52744216609424
 20
0.3044584537551107
 30
0.0
 11
56.03004375878484
 21
3.947140678127154
 31
0.0
  0
LINE
  5
2C1
330
1F
100
AcDbEntity
  8
0
100
AcDbLine
 10
56.03004375878484
 20
3.947140678127154
 30
0.0
 11
63.47234308905925
 21
8.610650400975713
 31
0.0
  0
LINE
  5
2C2
330
1F
100
AcDbEntity
  8
0
100
AcDbLine
 10
63.47234308905925
 20
8.610650400975713
 30
0.0
 11
63.50342620132763
 21
8.63012776809669
 31
0.0
  0
LINE
  5
2C3
330
1F
100
AcDbEntity
  8
0
100
AcDbLine
 10
-93.55950327612166
 20
49.40604407718527
 30
0.0
 11
-93.51379272300437
 21
49.37886941263288
 31
0.0
  0
LINE
  5
2C4
330
1F
100
AcDbEntity
  8
0
100
AcDbLine
 10
-93.51379272300437
 20
49.37886941263288
 30
0.0
 11
-93.03029485235491
 21
49.33653598148243
 31
0.0
  0
LINE
  5
2C5
330
1F
100
AcDbEntity
  8
0
100
AcDbLine
 10
-93.03029485235491
 20
49.33653598148243
 30
0.0
 11
-92.9848425110465
 21
49.30939507086462
 31
0.0
  0
LINE
  5
2C6
330
1F
100
AcDbEntity
  8
0
100
AcDbLine
 10
-92.9848425110465
 20
49.30939507086462
 30
0.0
 11
-92.53858159123632
 21
49.13301886375265
 31
0.0
  0
LINE
  5
2C7
330
1F
100
AcDbEntity
  8
0
100
AcDbLine
 10
-94.62348216863114
 20
45.60581645050296
 30
0.0
 11
-94.99781224765991
 21
45.90423023165523
 31
0.0
  0
LINE
  5
2C8
330
1F
100
AcDbEntity
  8
0
100
AcDbLine
 10
-94.99781224765991
 20
45.90423023165523
 30
0.0
 11
-95.0442658221729
 21
45.92971612002388
 31
0.0
  0
LINE
  5
2C9
330
1F
100
AcDbEntity
  8
0
100
AcDbLine
 10
-95.0442658221729
 20
45.92971612002388
 30
0.0
 11
-95.31866519020603
 21
46.32604576948087
 31
0.0
  0
LINE
  5
2CA
330
1F
100
AcDbEntity
  8
0
100
AcDbLine
 10
-95.31866519020603
 20
46.32604576948087
 30
0.0
 11
-95.36527351475605
 21
46.35173674125404
 31
0.0
  0
LINE
  5
2CB
330
1F
100
AcDbEntity
  8
0
100
AcDbLine
 10
62.32610336450347
 20
49.1474581954165
 30
0.0
 11
62.35656980756279
 21
49.17452042740988
 31
0.0
  0
LINE
  5
2CC
330
1F
100
AcDbEntity
  8
0
100
AcDbLine
 10
62.35656980756279
 20
49.17452042740988
 30
0.0
 11
62.83455864416667
 21
49.30713652398144
 31
0.0
  0
LINE
  5
2CD
330
1F
100
AcDbEntity
  8
0
100
AcDbLine
 10
62.83455864416667
 20
49.30713652398144
 30
0.0
 11
62.86527309646451
 21
49.33427633728127
 31
0.0
  0
LINE
  5
2CE
330
1F
100
AcDbEntity
  8
0
100
AcDbLine
 10
65.16373528251731
 20
46.63195629558317
 30
0.0
 11
65.13188847278373
 21
46.60612915995539
 31
0.0
  0
LINE
  5
2CF
330
1F
100
AcDbEntity
  8
0
100
AcDbLine
 10
65.13188847278373
 20
46.60612915995539
 30
0.0
 11
64.9201358548597
 21
46.16026640998957
 31
0.0
  0
LINE
  5
2D0
330
1F
100
AcDbEntity
  8
0
100
AcDbLine
 10
64.9201358548597
 20
46.16026640998957
 30
0.0
 11
64.888406465076
 21
46.1346684819982
 31
0.0
  0
LINE
  5
2D1
330
1F
100
AcDbEntity
  8
0
100
AcDbLine
 10
65.27935104634733
 20
-45.24706942740598
 30
0.0
 11
65.31158997481865
 21
-45.26634606823733
 31
0.0
  0
LINE
  5
2D2
330
1F
100
AcDbEntity
  8
0
100
AcDbLine
 10
65.31158997481865
 20
-45.26634606823733
 30
0.0
 11
65.61087364901239
 21
-45.67735520522407
 31
0.0
  0
LINE
  5
2D3
330
1F
100
AcDbEntity
  8
0
100
AcDbLine
 10
65.61087364901239
 20
-45.67735520522407
 30
0.0
 11
65.6432778103144
 21
-45.6968452536892
 31
0.0
  0
LINE
  5
2D4
330
1F
100
AcDbEntity
  8
0
100
AcDbLine
 10
65.6432778103144
 20
-45.6968452536892
 30
0.0
 11
65.82087218366807
 21
-46.17843761790637
 31
0.0
  0
LINE
  5
2D5
330
1F
100
AcDbEntity
  8
0
100
AcDbLine
 10
65.82087218366807
 20
-46.17843761790637
 30
0.0
 11
65.85338182014496
 21
-46.19817621172203
 31
0.0
  0
LINE
  5
2D6
330
1F
100
AcDbEntity
  8
0
100
AcDbLine
 10
64.40751537457233
 20
-48.74416875176902
 30
0.0
 11
64.37571077572153
 21
-48.72316751522492
 31
0.0
  0
LINE
  5
2D7
330
1F
100
AcDbEntity
  8
0
100
AcDbLine
 10
64.37571077572153
 20
-48.72316751522492
 30
0.0
 11
63.87237601531258
 21
-48.81489153304464
 31
0.0
  0
LINE
  5
2D8
330
1F
100
AcDbEntity
  8
0
100
AcDbLine
 10
63.87237601531258
 20
-48.81489153304464
 30
0.0
 11
63.84083542894069
 21
-48.79385521284919
 31
0.0
  0
LINE
  5
2D9
330
1F
100
AcDbEntity
  8
0
100
AcDbLine
 10
63.84083542894069
 20
-48.79385521284919
 30
0.0
 11
63.33629622897023
 21
-48.74388643044847
 31
0.0
  0
LINE
  5
2DA
330
1F
100
AcDbEntity
  8
0
100
AcDbLine
 10
63.33629622897023
 20
-48.74388643044847
 30
0.0
 11
63.30502060187663
 21
-48.72288533395523
 31
0.0
  0
LINE
  5
2DB
330
1F
100
AcDbEntity
  8
0
100
AcDbLine
 10
63.30502060187663
 20
-48.72288533395523
 30
0.0
 11
62.8358322180843
 21
-48.5359985868543
 31
0.0
  0
LINE
  5
2DC
330
1F
100
AcDbEntity
  8
0
100
AcDbLine
 10
-95.6803912674011
 20
-44.95441753207605
 30
0.0
 11
-95.63316336478118
 21
-44.93529550853567
 31
0.0
  0
LINE
  5
2DD
330
1F
100
AcDbEntity
  8
0
100
AcDbLine
 10
-93.94053007636549
 20
-48.66930346162808
 30
0.0
 11
-94.42577197364078
 21
-48.74891067970894
 31
0.0
  0
LINE
  5
2DE
330
1F
100
AcDbEntity
  8
0
100
AcDbLine
 10
-94.42577197364078
 20
-48.74891067970894
 30
0.0
 11
-94.47242283177292
 21
-48.76992469301439
 31
0.0
  0
LINE
  5
2DF
330
1F
100
AcDbEntity
  8
0
100
AcDbLine
 10
-94.47242283177292
 20
-48.76992469301439
 30
0.0
 11
-94.96378460348112
 21
-48.70804423009677
 31
0.0
  0
LINE
  5
2E0
330
1F
100
AcDbEntity
  8
0
100
AcDbLine
 10
-94.96378460348112
 20
-48.70804423009677
 30
0.0
 11
-95.01070105852179
 21
-48.72903796073553
 31
0.0
  0
LINE
  5
2E1
330
1F
100
AcDbEntity
  8
0
100
AcDbLine
 10
-96.09357846791431
 20
-45.30803226175409
 30
0.0
 11
-96.04614480497152
 21
-45.28873495705071
 31
0.0
  0
LINE
  5
2E2
330
1F
100
AcDbEntity
  8
0
100
AcDbLine
 10
-96.04614480497152
 20
-45.28873495705071
 30
0.0
 11
-95.6803912674011
 21
-44.95441753207605
 31
0.0
  0
LINE
  5
2E3
330
1F
100
AcDbEntity
  8
0
100
AcDbLine
 10
17.07046403401719
 20
-0.3136472189978968
 30
0.0
 11
16.93241933896427
 21
-0.0778070221337234
 31
0.0
  0
LINE
  5
2E4
330
1F
100
AcDbEntity
  8
0
100
AcDbLine
 10
-61.0815402859953
 20
-0.3889938104787615
 30
0.0
 11
-61.25937088983085
 21
-0.0708389476754238
 31
0.0
  0
LINE
  5
2E5
330
1F
100
AcDbEntity
  8
0
100
AcDbLine
 10
-61.25937088983085
 20
-0.0708389476754238
 30
0.0
 11
-61.28947680528735
 21
-0.067819621145886
 31
0.0
  0
LINE
  5
2E6
330
1F
100
AcDbEntity
  8
0
100
AcDbLine
 10
-61.16896380020631
 20
1.397681982504517
 30
0.0
 11
-61.13892185902547
 21
1.393943383557441
 31
0.0
  0
LINE
  5
2E7
330
1F
100
AcDbEntity
  8
0
100
AcDbLine
 10
-61.13892185902547
 20
1.393943383557441
 30
0.0
 11
-60.91116122536277
 21
1.683546363986927
 31
0.0
  0
LINE
  5
2E8
330
1F
100
AcDbEntity
  8
0
100
AcDbLine
 10
-60.91116122536277
 20
1.683546363986927
 30
0.0
 11
-60.88124682681462
 21
1.679667488656978
 31
0.0
  0
LINE
  5
2E9
330
1F
100
AcDbEntity
  8
0
100
AcDbLine
 10
-60.88124682681462
 20
1.679667488656978
 30
0.0
 11
-60.58857257311579
 21
1.893458331440699
 31
0.0
  0
LINE
  5
2EA
330
1F
100
AcDbEntity
  8
0
100
AcDbLine
 10
-60.58857257311579
 20
1.893458331440699
 30
0.0
 11
-60.55881728054619
 21
1.889476455849077
 31
0.0
  0
LINE
  5
2EB
330
1F
100
AcDbEntity
  8
0
100
AcDbLine
 10
-60.55881728054619
 20
1.889476455849077
 30
0.0
 11
-60.22317678973346
 21
2.013123835233682
 31
0.0
  0
LINE
  5
2EC
330
1F
100
AcDbEntity
  8
0
100
AcDbLine
 10
-60.22317678973346
 20
2.013123835233682
 30
0.0
 11
-60.19360132856339
 21
2.009083243899626
 31
0.0
  0
LINE
  5
2ED
330
1F
100
AcDbEntity
  8
0
100
AcDbLine
 10
-60.42601949899777
 20
-0.820700258079426
 30
0.0
 11
-60.45571828222243
 21
-0.8180492349975731
 31
0.0
  0
LINE
  5
2EE
330
1F
100
AcDbEntity
  8
0
100
AcDbLine
 10
-60.45571828222243
 20
-0.8180492349975731
 30
0.0
 11
-60.76729439472093
 21
-0.6476233091115913
 31
0.0
  0
LINE
  5
2EF
330
1F
100
AcDbEntity
  8
0
100
AcDbLine
 10
-60.76729439472093
 20
-0.6476233091115913
 30
0.0
 11
-60.79716034981823
 21
-0.6448872718660531
 31
0.0
  0
LINE
  5
2F0
330
1F
100
AcDbEntity
  8
0
100
AcDbLine
 10
-60.79716034981823
 20
-0.6448872718660531
 30
0.0
 11
-61.05153546526607
 21
-0.3918554732083245
 31
0.0
  0
LINE
  5
2F1
330
1F
100
AcDbEntity
  8
0
100
AcDbLine
 10
-61.05153546526607
 20
-0.3918554732083245
 30
0.0
 11
-61.0815402859953
 21
-0.3889938104787615
 31
0.0
  0
LINE
  5
2F2
330
1F
100
AcDbEntity
  8
0
100
AcDbLine
 10
-127.3969471093546
 20
1.997551579812956
 30
0.0
 11
-127.3343826610762
 21
1.993518629162073
 31
0.0
  0
LINE
  5
2F3
330
1F
100
AcDbEntity
  8
0
100
AcDbLine
 10
-127.3343826610762
 20
1.993518629162073
 30
0.0
 11
-127.0168304286466
 21
2.055799781075489
 31
0.0
  0
LINE
  5
2F4
330
1F
100
AcDbEntity
  8
0
100
AcDbLine
 10
-127.3124027807102
 20
-0.8436830808594078
 30
0.0
 11
-127.3749757073996
 21
-0.8410433470167765
 31
0.0
  0
LINE
  5
2F5
330
1F
100
AcDbEntity
  8
0
100
AcDbLine
 10
-127.3749757073996
 20
-0.8410433470167765
 30
0.0
 11
-127.6680449650749
 21
-0.7045608369400959
 31
0.0
  0
LINE
  5
2F6
330
1F
100
AcDbEntity
  8
0
100
AcDbLine
 10
-127.6680449650749
 20
-0.7045608369400959
 30
0.0
 11
-127.7307917388333
 21
-0.7018527666494688
 31
0.0
  0
LINE
  5
2F7
330
1F
100
AcDbEntity
  8
0
100
AcDbLine
 10
63.46235333848654
 20
45.29259173790016
 30
0.0
 11
63.60370595304587
 21
45.32255939678112
 31
0.0
  0
LINE
  5
2F8
330
1F
100
AcDbEntity
  8
0
100
AcDbLine
 10
16.90163085702623
 20
-0.0211168660746878
 30
0.0
 11
16.88717067396401
 21
0.0238461502402218
 31
0.0
  0
LINE
  5
2F9
330
1F
100
AcDbEntity
  8
0
100
AcDbLine
 10
-36.91200880670873
 20
43.2090056360988
 30
0.0
 11
-37.18953638773595
 21
43.57095472972861
 31
0.0
  0
LINE
  5
2FA
330
1F
100
AcDbEntity
  8
0
100
AcDbLine
 10
87.52950735206635
 20
-23.3291724284455
 30
0.0
 11
87.98911091151801
 21
-23.37870232063513
 31
0.0
  0
LINE
  5
2FB
330
1F
100
AcDbEntity
  8
0
100
AcDbLine
 10
85.58873390974446
 20
29.18357376179334
 30
0.0
 11
85.1623120085094
 21
29.01778874886347
 31
0.0
  0
LINE
  5
2FC
330
1F
100
AcDbEntity
  8
0
100
AcDbLine
 10
-93.45129287277877
 20
-48.43404023346496
 30
0.0
 11
-93.94053007636549
 21
-48.66930346162808
 31
0.0
  0
LINE
  5
2FD
330
1F
100
AcDbEntity
  8
0
100
AcDbLine
 10
-92.53858159123632
 20
49.13301886375265
 30
0.0
 11
-92.11785647922035
 21
48.80934552968458
 31
0.0
  0
LINE
  5
2FE
330
1F
100
AcDbEntity
  8
0
100
AcDbLine
 10
-94.13160410912873
 20
45.40213358010869
 30
0.0
 11
-94.62348216863114
 21
45.60581645050296
 31
0.0
  0
LINE
  5
2FF
330
1F
100
AcDbEntity
  8
0
100
AcDbLine
 10
62.8358322180843
 20
-48.5359985868543
 30
0.0
 11
62.40510687550428
 21
-48.20541229891273
 31
0.0
  0
LINE
  5
300
330
1F
100
AcDbEntity
  8
0
100
AcDbLine
 10
-127.0168304286466
 20
2.055799781075489
 30
0.0
 11
-126.6359354663243
 21
2.013944753512322
 31
0.0
  0
ENDSEC
  0
SECTION
  2
OBJECTS
  0
DICTIONARY
  5
C
330
0
100
AcDbDictionary
  3
ACAD_GROUP
350
D
  3
ACAD_LAYOUT
350
1A
  3
ACAD_MATERIAL
350
43
  3
ACAD_MLEADERSTYLE
350
6B
  3
ACAD_MLINESTYLE
350
17
  3
ACAD_PLOTSETTINGS
350
19
  3
ACAD_SCALELIST
350
47
  3
ACAD_VISUALSTYLE
350
2A
  3
ACDBHEADERROUNDTRIPXREC
350
301
  3
ACDBVARIABLEDICTIONARY
350
322
  0
DICTIONARY
  5
329
330
8
100
AcDbDictionary
280
     1
  3
ACAD_XREC_ROUNDTRIP
360
32A
  0
DICTIONARY
  5
D
102
{ACAD_REACTORS
330
C
102
}
330
C
100
AcDbDictionary
  0
DICTIONARY
  5
1A
102
{ACAD_REACTORS
330
C
102
}
330
C
100
AcDbDictionary
  0
DICTIONARY
  5
43
102
{ACAD_REACTORS
330
C
102
}
330
C
100
AcDbDictionary
  3
BYBLOCK
350
45
  3
BYLAYER
350
44
  3
GLOBAL
350
46
  0
DICTIONARY
  5
6B
102
{ACAD_REACTORS
330
C
102
}
330
C
100
AcDbDictionary
  3
STANDARD
350
6C
  0
DICTIONARY
  5
17
102
{ACAD_REACTORS
330
C
102
}
330
C
100
AcDbDictionary
  3
STANDARD
350
18
  0
DICTIONARY
  5
19
102
{ACAD_REACTORS
330
C
102
}
330
C
100
AcDbDictionary
  0
DICTIONARY
  5
47
102
{ACAD_REACTORS
330
C
102
}
330
C
100
AcDbDictionary
  3
A0
350
48
  3
A1
350
49
  3
A2
350
4A
  3
A3
350
4B
  3
A4
350
4C
  3
A5
350
4D
  3
A6
350
4E
  3
A7
350
4F
  3
A8
350
50
  3
A9
350
51
  3
B0
350
52
  3
B1
350
53
  3
B2
350
54
  3
B3
350
55
  3
B4
350
56
  3
B5
350
57
  3
B6
350
58
  3
B7
350
59
  3
B8
350
5A
  3
B9
350
5B
  3
C0
350
5C
  3
C1
350
5D
  3
C2
350
5E
  3
C3
350
5F
  3
C4
350
60
  3
C5
350
61
  3
C6
350
62
  3
C7
350
63
  3
C8
350
64
  3
C9
350
65
  3
D0
350
66
  3
D1
350
67
  3
D2
350
68
  0
DICTIONARY
  5
2A
102
{ACAD_REACTORS
330
C
102
}
330
C
100
AcDbDictionary
  3
2DWIREFRAME
350
2F
  3
BASIC
350
32
  3
BRIGHTEN
350
36
  3
COLORCHANGE
350
3A
  3
CONCEPTUAL
350
34
  3
DIM
350
35
  3
EDGECOLOROFF
350
3D
  3
FACEPATTERN
350
39
  3
FLAT
350
2B
  3
FLATWITHEDGES
350
2C
  3
GOURAUD
350
2D
  3
GOURAUDWITHEDGES
350
2E
  3
HIDDEN
350
31
  3
JITTEROFF
350
3B
  3
LINEPATTERN
350
38
  3
OVERHANGOFF
350
3C
  3
REALISTIC
350
33
  3
SHADED
350
42
  3
SHADED_WITH_EDGES
350
41
  3
SHADES_OF_GRAY
350
3E
  3
SKETCHY
350
3F
  3
THICKEN
350
37
  3
WIREFRAME
350
30
  3
X-RAY
350
40
  0
DICTIONARY
  5
301
102
{ACAD_REACTORS
330
C
102
}
330
C
100
AcDbDictionary
  3
CEPSNID
350
30B
  3
CEPSNTYPE
350
30A
  3
DIMSTYLEDATA
350
321
  3
FINGERPRINTGUID
350
30C
  3
HYPERLINKBASE
350
304
  3
INSUNITS
350
309
  3
LAYOUTDICT
350
306
  3
LWETCUNION
350
308
  3
PLOTSETDICT
350
307
  3
PSVPSCALE
350
30E
  3
PUCSBASE
350
311
  3
PUCSORGBACK
350
317
  3
PUCSORGBOTTOM
350
313
  3
PUCSORGFRONT
350
316
  3
PUCSORGLEFT
350
314
  3
PUCSORGRIGHT
350
315
  3
PUCSORGTOP
350
312
  3
PUCSORTHOREF
350
30F
  3
PUCSORTHOVIEW
350
310
  3
STYLESHEET
350
305
  3
TSTACKALIGN
350
302
  3
TSTACKSIZE
350
303
  3
UCSBASE
350
31A
  3
UCSORGBACK
350
320
  3
UCSORGBOTTOM
350
31C
  3
UCSORGFRONT
350
31F
  3
UCSORGLEFT
350
31D
  3
UCSORGRIGHT
350
31E
  3
UCSORGTOP
350
31B
  3
UCSORTHOREF
350
318
  3
UCSORTHOVIEW
350
319
  3
VERSIONGUID
350
30D
  0
DICTIONARY
  5
322
102
{ACAD_REACTORS
330
C
102
}
330
C
100
AcDbDictionary
  3
CANNOSCALE
350
32B
  3
CMLEADERSTYLE
350
324
  3
CTABLESTYLE
350
323
  3
DIMASSOC
350
327
  3
HIDETEXT
350
328
  3
MSLTSCALE
350
32C
  0
XRECORD
  5
32A
102
{ACAD_REACTORS
330
329
102
}
330
329
100
AcDbXrecord
102
VTR_0.000_0.000_1.000_1.000_VISUALSTYLE
340
2F
102
VTR_0.000_0.000_1.000_1.000_GRIDDISPLAY
 70
     3
102
VTR_0.000_0.000_1.000_1.000_GRIDMAJOR
 70
     5
102
VTR_0.000_0.000_1.000_1.000_DEFAULTLIGHTING
280
     1
102
VTR_0.000_0.000_1.000_1.000_DEFAULTLIGHTINGTYPE
 70
     1
102
VTR_0.000_0.000_1.000_1.000_BRIGHTNESS
141
0.0
102
VTR_0.000_0.000_1.000_1.000_CONTRAST
142
0.0
  0
MATERIAL
  5
45
102
{ACAD_REACTORS
330
43
102
}
102
{ACAD_XDICTIONARY
360
32F
102
}
330
43
100
AcDbMaterial
  1
BYBLOCK
  0
MATERIAL
  5
44
102
{ACAD_REACTORS
330
43
102
}
102
{ACAD_XDICTIONARY
360
32D
102
}
330
43
100
AcDbMaterial
  1
BYLAYER
  0
MATERIAL
  5
46
102
{ACAD_REACTORS
330
43
102
}
102
{ACAD_XDICTIONARY
360
331
102
}
330
43
100
AcDbMaterial
  1
GLOBAL
  0
ACAD_PROXY_OBJECT
  5
6C
102
{ACAD_REACTORS
330
6B
102
}
330
6B
100
AcDbProxyObject
 90
      499
 91
      505
 93
      610
310
40901902A4063FBFFFFFE056BD1B81E855B9FC0AD7A3703D0AD73F4214DD185B99185C9900AD7A3703D0AC73F90141901A02B5E8DC0F42B1CFC02B5E8DC0F42B1CFE5764000000000000300FC0
340
14
340
0
340
11
340
0
 94
        0
1001
ACAD_MLEADERVER
1070
     2
  0
MLINESTYLE
  5
18
102
{ACAD_REACTORS
330
17
102
}
330
17
100
AcDbMlineStyle
  2
Standard
 70
     0
  3

 62
   256
 51
90.0
 52
90.0
 71
     2
 49
0.5
 62
   256
  6
BYLAYER
 49
-0.5
 62
   256
  6
BYLAYER
  0
ACAD_PROXY_OBJECT
  5
48
102
{ACAD_REACTORS
330
47
102
}
330
47
100
AcDbProxyObject
 90
      499
 91
      503
 93
       41
310
903313A31580
  0
ACAD_PROXY_OBJECT
  5
49
102
{ACAD_REACTORS
330
47
102
}
330
47
100
AcDbProxyObject
 90
      499
 91
      503
 93
      105
310
903313A324000000000000004000
  0
ACAD_PROXY_OBJECT
  5
4A
102
{ACAD_REACTORS
330
47
102
}
330
47
100
AcDbProxyObject
 90
      499
 91
      503
 93
      105
310
903313A344000000000000104000
  0
ACAD_PROXY_OBJECT
  5
4B
102
{ACAD_REACTORS
330
47
102
}
330
47
100
AcDbProxyObject
 90
      499
 91
      503
 93
      105
310
903313A354000000000000144000
  0
ACAD_PROXY_OBJECT
  5
4C
102
{ACAD_REACTORS
330
47
102
}
330
47
100
AcDbProxyObject
 90
      499
 91
      503
 93
      105
310
903313A384000000000000204000
  0
ACAD_PROXY_OBJECT
  5
4D
102
{ACAD_REACTORS
330
47
102
}
330
47
100
AcDbProxyObject
 90
      499
 91
      503
 93
      113
310
904313A31304000000000000244000
  0
ACAD_PROXY_OBJECT
  5
4E
102
{ACAD_REACTORS
330
47
102
}
330
47
100
AcDbProxyObject
 90
      499
 91
      503
 93
      113
310
904313A31364000000000000304000
  0
ACAD_PROXY_OBJECT
  5
4F
102
{ACAD_REACTORS
330
47
102
}
330
47
100
AcDbProxyObject
 90
      499
 91
      503
 93
      113
310
904313A32304000000000000344000
  0
ACAD_PROXY_OBJECT
  5
50
102
{ACAD_REACTORS
330
47
102
}
330
47
100
AcDbProxyObject
 90
      499
 91
      503
 93
      113
310
904313A333040000000000003E4000
  0
ACAD_PROXY_OBJECT
  5
51
102
{ACAD_REACTORS
330
47
102
}
330
47
100
AcDbProxyObject
 90
      499
 91
      503
 93
      113
310
904313A34304000000000000444000
  0
ACAD_PROXY_OBJECT
  5
52
102
{ACAD_REACTORS
330
47
102
}
330
47
100
AcDbProxyObject
 90
      499
 91
      503
 93
      113
310
904313A35304000000000000494000
  0
ACAD_PROXY_OBJECT
  5
53
102
{ACAD_REACTORS
330
47
102
}
330
47
100
AcDbProxyObject
 90
      499
 91
      503
 93
      121
310
905313A3130304000000000000594000
  0
ACAD_PROXY_OBJECT
  5
54
102
{ACAD_REACTORS
330
47
102
}
330
47
100
AcDbProxyObject
 90
      499
 91
      503
 93
      105
310
903323A310000000000000010100
  0
ACAD_PROXY_OBJECT
  5
55
102
{ACAD_REACTORS
330
47
102
}
330
47
100
AcDbProxyObject
 90
      499
 91
      503
 93
      105
310
903343A310000000000000410100
  0
ACAD_PROXY_OBJECT
  5
56
102
{ACAD_REACTORS
330
47
102
}
330
47
100
AcDbProxyObject
 90
      499
 91
      503
 93
      105
310
903383A310000000000000810100
  0
ACAD_PROXY_OBJECT
  5
57
102
{ACAD_REACTORS
330
47
102
}
330
47
100
AcDbProxyObject
 90
      499
 91
      503
 93
      113
310
90431303A310000000000000910100
  0
ACAD_PROXY_OBJECT
  5
58
102
{ACAD_REACTORS
330
47
102
}
330
47
100
AcDbProxyObject
 90
      499
 91
      503
 93
      121
310
9053130303A310000000000001650100
  0
ACAD_PROXY_OBJECT
  5
59
102
{ACAD_REACTORS
330
47
102
}
330
47
100
AcDbProxyObject
 90
      499
 91
      503
 93
      257
310
90E312F31323822203D2031272D3022000000000000200FC000000000000284000
  0
ACAD_PROXY_OBJECT
  5
5A
102
{ACAD_REACTORS
330
47
102
}
330
47
100
AcDbProxyObject
 90
      499
 91
      503
 93
      249
310
90D312F363422203D2031272D3022000000000000240FC000000000000284000
  0
ACAD_PROXY_OBJECT
  5
5B
102
{ACAD_REACTORS
330
47
102
}
330
47
100
AcDbProxyObject
 90
      499
 91
      503
 93
      249
310
90D312F333222203D2031272D3022000000000000280FC000000000000284000
  0
ACAD_PROXY_OBJECT
  5
5C
102
{ACAD_REACTORS
330
47
102
}
330
47
100
AcDbProxyObject
 90
      499
 91
      503
 93
      249
310
90D312F313622203D2031272D30220000000000002C0FC000000000000284000
  0
ACAD_PROXY_OBJECT
  5
5D
102
{ACAD_REACTORS
330
47
102
}
330
47
100
AcDbProxyObject
 90
      499
 91
      503
 93
      249
310
90D332F333222203D2031272D30220000000000002E0FC000000000000284000
  0
ACAD_PROXY_OBJECT
  5
5E
102
{ACAD_REACTORS
330
47
102
}
330
47
100
AcDbProxyObject
 90
      499
 91
      503
 93
      241
310
90C312F3822203D2031272D3022000000000000300FC000000000000284000
  0
ACAD_PROXY_OBJECT
  5
5F
102
{ACAD_REACTORS
330
47
102
}
330
47
100
AcDbProxyObject
 90
      499
 91
      503
 93
      249
310
90D332F313622203D2031272D3022000000000000320FC000000000000284000
  0
ACAD_PROXY_OBJECT
  5
60
102
{ACAD_REACTORS
330
47
102
}
330
47
100
AcDbProxyObject
 90
      499
 91
      503
 93
      241
310
90C312F3422203D2031272D3022000000000000340FC000000000000284000
  0
ACAD_PROXY_OBJECT
  5
61
102
{ACAD_REACTORS
330
47
102
}
330
47
100
AcDbProxyObject
 90
      499
 91
      503
 93
      241
310
90C332F3822203D2031272D3022000000000000360FC000000000000284000
  0
ACAD_PROXY_OBJECT
  5
62
102
{ACAD_REACTORS
330
47
102
}
330
47
100
AcDbProxyObject
 90
      499
 91
      503
 93
      241
310
90C312F3222203D2031272D3022000000000000380FC000000000000284000
  0
ACAD_PROXY_OBJECT
  5
63
102
{ACAD_REACTORS
330
47
102
}
330
47
100
AcDbProxyObject
 90
      499
 91
      503
 93
      241
310
90C332F3422203D2031272D30220000000000003A0FC000000000000284000
  0
ACAD_PROXY_OBJECT
  5
64
102
{ACAD_REACTORS
330
47
102
}
330
47
100
AcDbProxyObject
 90
      499
 91
      503
 93
      161
310
90A3122203D2031272D30224000000000000284000
  0
ACAD_PROXY_OBJECT
  5
65
102
{ACAD_REACTORS
330
47
102
}
330
47
100
AcDbProxyObject
 90
      499
 91
      503
 93
      257
310
90E312D312F3222203D2031272D30220000000000003E0FC000000000000284000
  0
ACAD_PROXY_OBJECT
  5
66
102
{ACAD_REACTORS
330
47
102
}
330
47
100
AcDbProxyObject
 90
      499
 91
      503
 93
      225
310
90A3322203D2031272D302200000000000002100000000000000284000
  0
ACAD_PROXY_OBJECT
  5
67
102
{ACAD_REACTORS
330
47
102
}
330
47
100
AcDbProxyObject
 90
      499
 91
      503
 93
      225
310
90A3622203D2031272D302200000000000006100000000000000284000
  0
ACAD_PROXY_OBJECT
  5
68
102
{ACAD_REACTORS
330
47
102
}
330
47
100
AcDbProxyObject
 90
      499
 91
      503
 93
      249
310
90D31272D3022203D2031272D30220000000000000A100000000000000284000
  0
ACAD_PROXY_OBJECT
  5
2F
102
{ACAD_REACTORS
330
2A
102
}
330
2A
100
AcDbProxyObject
 90
      499
 91
      501
 93
      436
310
42CC9915DA5C99599C985B595049028333333333333E33F0000000000000F90107901411070040501600405405064090741402480A0340
1001
ACAD
1000
AcDbSavedByObjectVersion
1070
     0
  0
ACAD_PROXY_OBJECT
  5
32
102
{ACAD_REACTORS
330
2A
102
}
330
2A
100
AcDbProxyObject
 90
      499
 91
      501
 93
      388
310
4150985CDA58D07406404333333333333E33F0000000000000F90107A41107004050150841D405064090741402480A0350
1001
ACAD
1000
AcDbSavedByObjectVersion
1070
     0
  0
ACAD_PROXY_OBJECT
  5
36
102
{ACAD_REACTORS
330
2A
102
}
330
2A
100
AcDbProxyObject
 90
      499
 91
      501
 93
      428
310
42109C9A59DA1D195B90C409028333333333333E33F0000000000000F9010790141107004050150841D405064090741402480A029950
1001
ACAD
1000
AcDbSavedByObjectVersion
1070
     0
  0
ACAD_PROXY_OBJECT
  5
3A
102
{ACAD_REACTORS
330
2A
102
}
330
2A
100
AcDbProxyObject
 90
      499
 91
      501
 93
      452
310
42D0DBDB1BDC90DA185B99D95104090240C333333333333E33F0000000000000F90108901411070040501508421405064090741402480A0350
1001
ACAD
1000
AcDbSavedByObjectVersion
1070
     0
  0
ACAD_PROXY_OBJECT
  5
34
102
{ACAD_REACTORS
330
2A
102
}
330
2A
100
AcDbProxyObject
 90
      499
 91
      501
 93
      500
310
4290DBDB98D95C1D1D585B10940D028333333333333E33F0000000000000F90107902409070040501000000000018199010841D405064090740C02480A0340
1001
ACAD
1000
AcDbSavedByObjectVersion
1070
     0
  0
ACAD_PROXY_OBJECT
  5
35
102
{ACAD_REACTORS
330
2A
102
}
330
2A
100
AcDbProxyObject
 90
      499
 91
      501
 93
      412
310
40D11A5B50B409028333333333333E33F0000000000000F9010790141107004050150841D405064090741402480A02677FFFFFD0
1001
ACAD
1000
AcDbSavedByObjectVersion
1070
     0
  0
ACAD_PROXY_OBJECT
  5
3D
102
{ACAD_REACTORS
330
2A
102
}
330
2A
100
AcDbProxyObject
 90
      499
 91
      501
 93
      452
310
43115919D950DBDB1BDC93D999916409028333333333333E33F0000000000000F9010790141107004050150841D405064090741402480A0350
1001
ACAD
1000
AcDbSavedByObjectVersion
1070
     0
  0
ACAD_PROXY_OBJECT
  5
39
102
{ACAD_REACTORS
330
2A
102
}
330
2A
100
AcDbProxyObject
 90
      499
 91
      501
 93
      444
310
42D19858D95C185D1D195C9B90F409028333333333333E33F0000000000000F9010790141107004050150841D405064090741402480A0350
1001
ACAD
1000
AcDbSavedByObjectVersion
1070
     0
  0
ACAD_PROXY_OBJECT
  5
2B
102
{ACAD_REACTORS
330
2A
102
}
330
2A
100
AcDbProxyObject
 90
      499
 91
      501
 93
      380
310
41119B185D240901404333333333333E33F0000000000000F9010740A907004050150841D405064090741402480A1B50
1001
ACAD
1000
AcDbSavedByObjectVersion
1070
     0
  0
ACAD_PROXY_OBJECT
  5
2C
102
{ACAD_REACTORS
330
2A
102
}
330
2A
100
AcDbProxyObject
 90
      499
 91
      501
 93
      468
310
43519B185D15DA5D1A115919D95CD0140901404333333333333E33F0000000000000F90107409019070040501600405405064090741402480A1B50
1001
ACAD
1000
AcDbSavedByObjectVersion
1070
     0
  0
ACAD_PROXY_OBJECT
  5
2D
102
{ACAD_REACTORS
330
2A
102
}
330
2A
100
AcDbProxyObject
 90
      499
 91
      501
 93
      404
310
41D1DBDD5C985D5910240902404333333333333E33F0000000000000F9010740A9070040501641D405064090741402480A1B50
1001
ACAD
1000
AcDbSavedByObjectVersion
1070
     0
  0
ACAD_PROXY_OBJECT
  5
2E
102
{ACAD_REACTORS
330
2A
102
}
330
2A
100
AcDbProxyObject
 90
      499
 91
      501
 93
      492
310
4411DBDD5C985D5915DA5D1A115919D95CD0340902404333333333333E33F0000000000000F90107409019070040501600405405064090741402480A1B50
1001
ACAD
1000
AcDbSavedByObjectVersion
1070
     0
  0
ACAD_PROXY_OBJECT
  5
31
102
{ACAD_REACTORS
330
2A
102
}
330
2A
100
AcDbProxyObject
 90
      499
 91
      501
 93
      476
310
41921A5919195B90640502408333333333333E33F0000000000000F901079024090700405020000000000001110200405405064090740C02480A0340
1001
ACAD
1000
AcDbSavedByObjectVersion
1070
     0
  0
ACAD_PROXY_OBJECT
  5
3B
102
{ACAD_REACTORS
330
2A
102
}
330
2A
100
AcDbProxyObject
 90
      499
 91
      501
 93
      428
310
42529A5D1D195C93D999914409028333333333333E33F0000000000000F9010790141107004050150A41D405064090741402480A0350
1001
ACAD
1000
AcDbSavedByObjectVersion
1070
     0
  0
ACAD_PROXY_OBJECT
  5
38
102
{ACAD_REACTORS
330
2A
102
}
330
2A
100
AcDbProxyObject
 90
      499
 91
      501
 93
      444
310
42D31A5B995C185D1D195C9B90E409028333333333333E33F0000000000000F9010790141107004050750841D405064090741402483A0350
1001
ACAD
1000
AcDbSavedByObjectVersion
1070
     0
  0
ACAD_PROXY_OBJECT
  5
3C
102
{ACAD_REACTORS
330
2A
102
}
330
2A
100
AcDbProxyObject
 90
      499
 91
      501
 93
      444
310
42D3DD995C9A185B99D3D999915409028333333333333E33F0000000000000F9010790141107004050150941D405064090741402480A0350
1001
ACAD
1000
AcDbSavedByObjectVersion
1070
     0
  0
ACAD_PROXY_OBJECT
  5
33
102
{ACAD_REACTORS
330
2A
102
}
330
2A
100
AcDbProxyObject
 90
      499
 91
      501
 93
      428
310
425499585B1A5CDD1A58D08409038333333333333E33F0000000000000F9010740A907004050150800405405064090740C02480A1B40
1001
ACAD
1000
AcDbSavedByObjectVersion
1070
     0
  0
ACAD_PROXY_OBJECT
  5
42
102
{ACAD_REACTORS
330
2A
102
}
330
2A
100
AcDbProxyObject
 90
      499
 91
      501
 93
      420
310
4194DA1859195911B40902404333333333333E33F0000000000000F9010740A41107004050150800405405064090840C02480A0B40
1001
ACAD
1000
AcDbSavedByObjectVersion
1070
     0
  0
ACAD_PROXY_OBJECT
  5
41
102
{ACAD_REACTORS
330
2A
102
}
330
2A
100
AcDbProxyObject
 90
      499
 91
      501
 93
      516
310
4454DA18591959081DDA5D1A08195919D95CD1A40902404333333333333E33F0000000000000F901074090142907004050250800405405064090740C02480A0B40
1001
ACAD
1000
AcDbSavedByObjectVersion
1070
     0
  0
ACAD_PROXY_OBJECT
  5
3E
102
{ACAD_REACTORS
330
2A
102
}
330
2A
100
AcDbProxyObject
 90
      499
 91
      501
 93
      532
310
4394DA1859195CC81BD98811DC985E5174090240C333333333333E33F0000000000000F901079024090741D01000000000000111010841D405064090740C02480A0340
1001
ACAD
1000
AcDbSavedByObjectVersion
1070
     0
  0
ACAD_PROXY_OBJECT
  5
3F
102
{ACAD_REACTORS
330
2A
102
}
330
2A
100
AcDbProxyObject
 90
      499
 91
      501
 93
      476
310
41D4DAD95D18DA1E51840502408333333333333E33F0000000000000F901079024090741D01000000000000111010B41D405064090741802480A0340
1001
ACAD
1000
AcDbSavedByObjectVersion
1070
     0
  0
ACAD_PROXY_OBJECT
  5
37
102
{ACAD_REACTORS
330
2A
102
}
330
2A
100
AcDbProxyObject
 90
      499
 91
      501
 93
      412
310
41D51A1A58DAD95B90D409028333333333333E33F0000000000000F9010790141107004050150C41D405064090741402480A0350
1001
ACAD
1000
AcDbSavedByObjectVersion
1070
     0
  0
ACAD_PROXY_OBJECT
  5
30
102
{ACAD_REACTORS
330
2A
102
}
330
2A
100
AcDbProxyObject
 90
      499
 91
      501
 93
      420
310
4255DA5C99599C985B595059028333333333333E33F0000000000000F90107901411070040501600405405064090740C02480A0340
1001
ACAD
1000
AcDbSavedByObjectVersion
1070
     0
  0
ACAD_PROXY_OBJECT
  5
40
102
{ACAD_REACTORS
330
2A
102
}
330
2A
100
AcDbProxyObject
 90
      499
 91
      501
 93
      404
310
41560B54985E51940902404000000000000E03F0000000000000F9010740501907004050150841D405064090740C02480A1B40
1001
ACAD
1000
AcDbSavedByObjectVersion
1070
     0
  0
XRECORD
  5
30B
102
{ACAD_REACTORS
330
301
102
}
330
301
100
AcDbXrecord
340
0
  0
XRECORD
  5
30A
102
{ACAD_REACTORS
330
301
102
}
330
301
100
AcDbXrecord
 90
        0
  0
XRECORD
  5
321
102
{ACAD_REACTORS
330
301
102
}
330
301
100
AcDbXrecord
1000
DSTYLE
1002
{
1070
   171
 70
     2
1070
   143
 40
25.4
1070
   274
 70
     2
1070
    41
 40
0.18
1070
   141
 40
0.09
1070
   271
 70
     4
1070
    43
 40
0.38
1070
   278
 70
    46
1070
    44
 40
0.18
1070
    42
 40
0.0625
1070
   147
 40
0.09
1070
    77
 70
     0
1070
   272
 70
     4
1070
    73
 70
     1
1070
   172
 70
     0
1070
    74
 70
     1
1070
   283
 70
     1
1070
   340
340
11
1070
   140
 40
0.18
1070
   284
 70
     0
1070
    78
 70
     0
1002
}
  0
XRECORD
  5
30C
102
{ACAD_REACTORS
330
301
102
}
330
301
100
AcDbXrecord
  1
{37F7808B-3EE5-417C-8172-841B0DD23893}
  0
XRECORD
  5
304
102
{ACAD_REACTORS
330
301
102
}
330
301
100
AcDbXrecord
  1

  0
XRECORD
  5
309
102
{ACAD_REACTORS
330
301
102
}
330
301
100
AcDbXrecord
 90
        4
  0
XRECORD
  5
306
102
{ACAD_REACTORS
330
301
102
}
330
301
100
AcDbXrecord
340
1A
  0
XRECORD
  5
308
102
{ACAD_REACTORS
330
301
102
}
330
301
100
AcDbXrecord
 90
    10781
  0
XRECORD
  5
307
102
{ACAD_REACTORS
330
301
102
}
330
301
100
AcDbXrecord
340
19
  0
XRECORD
  5
30E
102
{ACAD_REACTORS
330
301
102
}
330
301
100
AcDbXrecord
 40
0.0
  0
XRECORD
  5
311
102
{ACAD_REACTORS
330
301
102
}
330
301
100
AcDbXrecord
340
0
  0
XRECORD
  5
317
102
{ACAD_REACTORS
330
301
102
}
330
301
100
AcDbXrecord
 10
0.0
 20
0.0
 30
0.0
  0
XRECORD
  5
313
102
{ACAD_REACTORS
330
301
102
}
330
301
100
AcDbXrecord
 10
0.0
 20
0.0
 30
0.0
  0
XRECORD
  5
316
102
{ACAD_REACTORS
330
301
102
}
330
301
100
AcDbXrecord
 10
0.0
 20
0.0
 30
0.0
  0
XRECORD
  5
314
102
{ACAD_REACTORS
330
301
102
}
330
301
100
AcDbXrecord
 10
0.0
 20
0.0
 30
0.0
  0
XRECORD
  5
315
102
{ACAD_REACTORS
330
301
102
}
330
301
100
AcDbXrecord
 10
0.0
 20
0.0
 30
0.0
  0
XRECORD
  5
312
102
{ACAD_REACTORS
330
301
102
}
330
301
100
AcDbXrecord
 10
0.0
 20
0.0
 30
0.0
  0
XRECORD
  5
30F
102
{ACAD_REACTORS
330
301
102
}
330
301
100
AcDbXrecord
340
0
  0
XRECORD
  5
310
102
{ACAD_REACTORS
330
301
102
}
330
301
100
AcDbXrecord
 70
     0
  0
XRECORD
  5
305
102
{ACAD_REACTORS
330
301
102
}
330
301
100
AcDbXrecord
  1

  0
XRECORD
  5
302
102
{ACAD_REACTORS
330
301
102
}
330
301
100
AcDbXrecord
 90
        1
  0
XRECORD
  5
303
102
{ACAD_REACTORS
330
301
102
}
330
301
100
AcDbXrecord
 90
       70
  0
XRECORD
  5
31A
102
{ACAD_REACTORS
330
301
102
}
330
301
100
AcDbXrecord
340
0
  0
XRECORD
  5
320
102
{ACAD_REACTORS
330
301
102
}
330
301
100
AcDbXrecord
 10
0.0
 20
0.0
 30
0.0
  0
XRECORD
  5
31C
102
{ACAD_REACTORS
330
301
102
}
330
301
100
AcDbXrecord
 10
0.0
 20
0.0
 30
0.0
  0
XRECORD
  5
31F
102
{ACAD_REACTORS
330
301
102
}
330
301
100
AcDbXrecord
 10
0.0
 20
0.0
 30
0.0
  0
XRECORD
  5
31D
102
{ACAD_REACTORS
330
301
102
}
330
301
100
AcDbXrecord
 10
0.0
 20
0.0
 30
0.0
  0
XRECORD
  5
31E
102
{ACAD_REACTORS
330
301
102
}
330
301
100
AcDbXrecord
 10
0.0
 20
0.0
 30
0.0
  0
XRECORD
  5
31B
102
{ACAD_REACTORS
330
301
102
}
330
301
100
AcDbXrecord
 10
0.0
 20
0.0
 30
0.0
  0
XRECORD
  5
318
102
{ACAD_REACTORS
330
301
102
}
330
301
100
AcDbXrecord
340
0
  0
XRECORD
  5
319
102
{ACAD_REACTORS
330
301
102
}
330
301
100
AcDbXrecord
 70
     0
  0
XRECORD
  5
30D
102
{ACAD_REACTORS
330
301
102
}
330
301
100
AcDbXrecord
  1
{FAEB1C32-E019-11D5-929B-00C0DF256EC4}
  0
DICTIONARYVAR
  5
32B
102
{ACAD_REACTORS
330
322
102
}
330
322
100
DictionaryVariables
280
     0
  1
1:1
  0
DICTIONARYVAR
  5
324
102
{ACAD_REACTORS
330
322
102
}
330
322
100
DictionaryVariables
280
     0
  1
Standard
  0
DICTIONARYVAR
  5
323
102
{ACAD_REACTORS
330
322
102
}
330
322
100
DictionaryVariables
280
     0
  1
Standard
  0
DICTIONARYVAR
  5
327
102
{ACAD_REACTORS
330
322
102
}
330
322
100
DictionaryVariables
280
     0
  1
2
  0
DICTIONARYVAR
  5
328
102
{ACAD_REACTORS
330
322
102
}
330
322
100
DictionaryVariables
280
     0
  1
1
  0
DICTIONARYVAR
  5
32C
102
{ACAD_REACTORS
330
322
102
}
330
322
100
DictionaryVariables
280
     0
  1
1
  0
DICTIONARY
  5
32F
330
45
100
AcDbDictionary
280
     1
  3
ACAD_XREC_ROUNDTRIP
360
330
  0
DICTIONARY
  5
32D
330
44
100
AcDbDictionary
280
     1
  3
ACAD_XREC_ROUNDTRIP
360
32E
  0
DICTIONARY
  5
331
330
46
100
AcDbDictionary
280
     1
  3
ACAD_XREC_ROUNDTRIP
360
332
  0
XRECORD
  5
330
102
{ACAD_REACTORS
330
32F
102
}
330
32F
100
AcDbXrecord
102
MATERIAL
148
0.0
149
0.0
149
0.0
 93
        0
 94
      127
282
     0
 72
     1
 77
     1
171
     1
175
     1
179
     1
273
     0
  0
XRECORD
  5
32E
102
{ACAD_REACTORS
330
32D
102
}
330
32D
100
AcDbXrecord
102
MATERIAL
148
0.0
149
0.0
149
0.0
 93
        0
 94
      127
282
     0
 72
     1
 77
     1
171
     1
175
     1
179
     1
273
     0
  0
XRECORD
  5
332
102
{ACAD_REACTORS
330
331
102
}
330
331
100
AcDbXrecord
102
MATERIAL
148
0.0
149
0.0
149
0.0
 93
        0
 94
      127
282
     0
 72
     1
 77
     1
171
     1
175
     1
179
     1
273
     0
  0
ENDSEC
  0
EOF
