  0
SECTION
  2
HEADER
  9
$ACADVER
  1
AC1014
  9
$ACADMAINTVER
 70
     9
  9
$DWGCODEPAGE
  3
ANSI_1252
  9
$INSBASE
 10
0.0
 20
0.0
 30
0.0
  9
$EXTMIN
 10
1.000000000000000E+20
 20
1.000000000000000E+20
 30
1.000000000000000E+20
  9
$EXTMAX
 10
-1.000000000000000E+20
 20
-1.000000000000000E+20
 30
-1.000000000000000E+20
  9
$LIMMIN
 10
0.0
 20
0.0
  9
$LIMMAX
 10
12.0
 20
9.0
  9
$ORTHOMODE
 70
     0
  9
$REGENMODE
 70
     1
  9
$FILLMODE
 70
     1
  9
$QTEXTMODE
 70
     0
  9
$MIRRTEXT
 70
     1
  9
$DRAGMODE
 70
     2
  9
$LTSCALE
 40
1.0
  9
$OSMODE
 70
    37
  9
$ATTMODE
 70
     1
  9
$TEXTSIZE
 40
0.2
  9
$TRACEWID
 40
0.05
  9
$TEXTSTYLE
  7
STANDARD
  9
$CLAYER
  8
0
  9
$CELTYPE
  6
BYLAYER
  9
$CECOLOR
 62
   256
  9
$CELTSCALE
 40
1.0
  9
$DELOBJ
 70
     1
  9
$DISPSILH
 70
     0
  9
$DIMSCALE
 40
1.0
  9
$DIMASZ
 40
0.18
  9
$DIMEXO
 40
0.0625
  9
$DIMDLI
 40
0.38
  9
$DIMRND
 40
0.0
  9
$DIMDLE
 40
0.0
  9
$DIMEXE
 40
0.18
  9
$DIMTP
 40
0.0
  9
$DIMTM
 40
0.0
  9
$DIMTXT
 40
0.18
  9
$DIMCEN
 40
0.09
  9
$DIMTSZ
 40
0.0
  9
$DIMTOL
 70
     0
  9
$DIMLIM
 70
     0
  9
$DIMTIH
 70
     1
  9
$DIMTOH
 70
     1
  9
$DIMSE1
 70
     0
  9
$DIMSE2
 70
     0
  9
$DIMTAD
 70
     0
  9
$DIMZIN
 70
     0
  9
$DIMBLK
  1

  9
$DIMASO
 70
     1
  9
$DIMSHO
 70
     1
  9
$DIMPOST
  1

  9
$DIMAPOST
  1

  9
$DIMALT
 70
     0
  9
$DIMALTD
 70
     2
  9
$DIMALTF
 40
25.4
  9
$DIMLFAC
 40
1.0
  9
$DIMTOFL
 70
     0
  9
$DIMTVP
 40
0.0
  9
$DIMTIX
 70
     0
  9
$DIMSOXD
 70
     0
  9
$DIMSAH
 70
     0
  9
$DIMBLK1
  1

  9
$DIMBLK2
  1

  9
$DIMSTYLE
  2
STANDARD
  9
$DIMCLRD
 70
     0
  9
$DIMCLRE
 70
     0
  9
$DIMCLRT
 70
     0
  9
$DIMTFAC
 40
1.0
  9
$DIMGAP
 40
0.09
  9
$DIMJUST
 70
     0
  9
$DIMSD1
 70
     0
  9
$DIMSD2
 70
     0
  9
$DIMTOLJ
 70
     1
  9
$DIMTZIN
 70
     0
  9
$DIMALTZ
 70
     0
  9
$DIMALTTZ
 70
     0
  9
$DIMFIT
 70
     3
  9
$DIMUPT
 70
     0
  9
$DIMUNIT
 70
     2
  9
$DIMDEC
 70
     4
  9
$DIMTDEC
 70
     4
  9
$DIMALTU
 70
     2
  9
$DIMALTTD
 70
     2
  9
$DIMTXSTY
  7
STANDARD
  9
$DIMAUNIT
 70
     0
  9
$LUNITS
 70
     2
  9
$LUPREC
 70
     4
  9
$SKETCHINC
 40
0.1
  9
$FILLETRAD
 40
0.5
  9
$AUNITS
 70
     0
  9
$AUPREC
 70
     0
  9
$MENU
  1
.
  9
$ELEVATION
 40
0.0
  9
$PELEVATION
 40
0.0
  9
$THICKNESS
 40
0.0
  9
$LIMCHECK
 70
     0
  9
$CHAMFERA
 40
0.0
  9
$CHAMFERB
 40
0.0
  9
$CHAMFERC
 40
0.0
  9
$CHAMFERD
 40
0.0
  9
$SKPOLY
 70
     0
  9
$TDCREATE
 40
2458239.875554398
  9
$TDUPDATE
 40
2458239.875554757
  9
$TDINDWG
 40
0.0000000116
  9
$TDUSRTIMER
 40
0.0000000116
  9
$USRTIMER
 70
     1
  9
$ANGBASE
 50
0.0
  9
$ANGDIR
 70
     0
  9
$PDMODE
 70
     0
  9
$PDSIZE
 40
0.0
  9
$PLINEWID
 40
0.0
  9
$COORDS
 70
     1
  9
$SPLFRAME
 70
     0
  9
$SPLINETYPE
 70
     6
  9
$SPLINESEGS
 70
     8
  9
$ATTDIA
 70
     0
  9
$ATTREQ
 70
     1
  9
$HANDLING
 70
     1
  9
$HANDSEED
  5
3D3
  9
$SURFTAB1
 70
     6
  9
$SURFTAB2
 70
     6
  9
$SURFTYPE
 70
     6
  9
$SURFU
 70
     6
  9
$SURFV
 70
     6
  9
$UCSNAME
  2

  9
$UCSORG
 10
0.0
 20
0.0
 30
0.0
  9
$UCSXDIR
 10
1.0
 20
0.0
 30
0.0
  9
$UCSYDIR
 10
0.0
 20
1.0
 30
0.0
  9
$PUCSNAME
  2

  9
$PUCSORG
 10
0.0
 20
0.0
 30
0.0
  9
$PUCSXDIR
 10
1.0
 20
0.0
 30
0.0
  9
$PUCSYDIR
 10
0.0
 20
1.0
 30
0.0
  9
$USERI1
 70
     0
  9
$USERI2
 70
     0
  9
$USERI3
 70
     0
  9
$USERI4
 70
     0
  9
$USERI5
 70
     0
  9
$USERR1
 40
0.0
  9
$USERR2
 40
0.0
  9
$USERR3
 40
0.0
  9
$USERR4
 40
0.0
  9
$USERR5
 40
0.0
  9
$WORLDVIEW
 70
     1
  9
$SHADEDGE
 70
     3
  9
$SHADEDIF
 70
    70
  9
$TILEMODE
 70
     1
  9
$MAXACTVP
 70
    64
  9
$PINSBASE
 10
0.0
 20
0.0
 30
0.0
  9
$PLIMCHECK
 70
     0
  9
$PEXTMIN
 10
1.000000000000000E+20
 20
1.000000000000000E+20
 30
1.000000000000000E+20
  9
$PEXTMAX
 10
-1.000000000000000E+20
 20
-1.000000000000000E+20
 30
-1.000000000000000E+20
  9
$PLIMMIN
 10
0.0
 20
0.0
  9
$PLIMMAX
 10
12.0
 20
9.0
  9
$UNITMODE
 70
     0
  9
$VISRETAIN
 70
     1
  9
$PLINEGEN
 70
     0
  9
$PSLTSCALE
 70
     1
  9
$TREEDEPTH
 70
  3020
  9
$PICKSTYLE
 70
     1
  9
$CMLSTYLE
  2
STANDARD
  9
$CMLJUST
 70
     0
  9
$CMLSCALE
 40
1.0
  9
$PROXYGRAPHICS
 70
     1
  9
$MEASUREMENT
 70
     1
  0
ENDSEC
  0
SECTION
  2
CLASSES
  0
CLASS
  1
ACDBDICTIONARYWDFLT
  2
AcDbDictionaryWithDefault
  3
ObjectDBX Classes
 90
        0
280
     0
281
     0
  0
CLASS
  1
VISUALSTYLE
  2
AcDbVisualStyle
  3
ObjectDBX Classes
 90
     4095
280
     0
281
     0
  0
CLASS
  1
MATERIAL
  2
AcDbMaterial
  3
ObjectDBX Classes
 90
     1153
280
     0
281
     0
  0
CLASS
  1
SCALE
  2
AcDbScale
  3
ObjectDBX Classes
 90
     1153
280
     0
281
     0
  0
CLASS
  1
TABLESTYLE
  2
AcDbTableStyle
  3
ObjectDBX Classes
 90
     4095
280
     0
281
     0
  0
CLASS
  1
MLEADERSTYLE
  2
AcDbMLeaderStyle
  3
ACDB_MLEADERSTYLE_CLASS
 90
     4095
280
     0
281
     0
  0
CLASS
  1
SUN
  2
AcDbSun
  3
SCENEOE
 90
     1153
280
     0
281
     0
  0
CLASS
  1
DICTIONARYVAR
  2
AcDbDictionaryVar
  3
ObjectDBX Classes
 90
        0
280
     0
281
     0
  0
CLASS
  1
XRECORD
  2
AcDbXrecord
  3
ObjectDBX Classes
 90
        0
280
     0
281
     0
  0
CLASS
  1
LWPOLYLINE
  2
AcDbPolyline
  3
ObjectDBX Classes
 90
        0
280
     0
281
     1
  0
CLASS
  1
HATCH
  2
AcDbHatch
  3
ObjectDBX Classes
 90
        0
280
     0
281
     1
  0
CLASS
  1
ACDBPLACEHOLDER
  2
AcDbPlaceHolder
  3
ObjectDBX Classes
 90
        0
280
     0
281
     0
  0
CLASS
  1
LAYOUT
  2
AcDbLayout
  3
ObjectDBX Classes
 90
        0
280
     0
281
     0
  0
ENDSEC
  0
SECTION
  2
TABLES
  0
TABLE
  2
VPORT
  5
8
102
{ACAD_XDICTIONARY
360
3C8
102
}
330
0
100
AcDbSymbolTable
 70
     1
  0
VPORT
  5
29
330
8
100
AcDbSymbolTableRecord
100
AcDbViewportTableRecord
  2
*ACTIVE
 70
     0
 10
0.0
 20
0.0
 11
1.0
 21
1.0
 12
0.0
 22
0.0
 13
0.0
 23
0.0
 14
0.5
 24
0.5
 15
0.5
 25
0.5
 16
-45.06072433477764
 26
13.15863758902307
 36
50.41613408859832
 17
25.54301755374511
 27
30.72725809729212
 37
9.349290803244969
 40
3378.2
 41
1.3333
 42
50.0
 43
-43.48690149232726
 44
25331.11309850767
 50
0.0
 51
0.000000000000001
 71
     0
 72
   100
 73
     1
 74
     3
 75
     0
 76
     0
 77
     0
 78
     0
  0
ENDTAB
  0
TABLE
  2
LTYPE
  5
5
330
0
100
AcDbSymbolTable
 70
     1
  0
LTYPE
  5
14
330
5
100
AcDbSymbolTableRecord
100
AcDbLinetypeTableRecord
  2
BYBLOCK
 70
     0
  3

 72
    65
 73
     0
 40
0.0
  0
LTYPE
  5
15
330
5
100
AcDbSymbolTableRecord
100
AcDbLinetypeTableRecord
  2
BYLAYER
 70
     0
  3

 72
    65
 73
     0
 40
0.0
  0
LTYPE
  5
16
330
5
100
AcDbSymbolTableRecord
100
AcDbLinetypeTableRecord
  2
CONTINUOUS
 70
     0
  3
Solid line
 72
    65
 73
     0
 40
0.0
  0
ENDTAB
  0
TABLE
  2
LAYER
  5
2
330
0
100
AcDbSymbolTable
 70
     1
  0
LAYER
  5
10
330
2
100
AcDbSymbolTableRecord
100
AcDbLayerTableRecord
  2
0
 70
     0
 62
    13
  6
CONTINUOUS
  0
ENDTAB
  0
TABLE
  2
STYLE
  5
3
330
0
100
AcDbSymbolTable
 70
     2
  0
STYLE
  5
11
330
3
100
AcDbSymbolTableRecord
100
AcDbTextStyleTableRecord
  2
STANDARD
 70
     0
 40
0.0
 41
1.0
 50
0.0
 71
     0
 42
0.2
  3
txt
  4

  0
STYLE
  5
6E
330
3
100
AcDbSymbolTableRecord
100
AcDbTextStyleTableRecord
  2
TAHOMA
 70
     0
 40
0.0
 41
1.0
 50
0.0
 71
     0
 42
0.2
  3
Tahoma
  4

1001
ACAD
1000
Tahoma
1071
       34
  0
ENDTAB
  0
TABLE
  2
VIEW
  5
6
330
0
100
AcDbSymbolTable
 70
     0
  0
ENDTAB
  0
TABLE
  2
UCS
  5
7
330
0
100
AcDbSymbolTable
 70
     0
  0
ENDTAB
  0
TABLE
  2
APPID
  5
9
330
0
100
AcDbSymbolTable
 70
     2
  0
APPID
  5
12
330
9
100
AcDbSymbolTableRecord
100
AcDbRegAppTableRecord
  2
ACAD
 70
     0
  0
APPID
  5
3D2
330
9
100
AcDbSymbolTableRecord
100
AcDbRegAppTableRecord
  2
ACAD_MLEADERVER
 70
     0
  0
ENDTAB
  0
TABLE
  2
DIMSTYLE
  5
A
330
0
100
AcDbSymbolTable
 70
     1
  0
DIMSTYLE
105
27
330
A
100
AcDbSymbolTableRecord
100
AcDbDimStyleTableRecord
  2
STANDARD
 70
     0
  3

  4

  5

  6

  7

 40
1.0
 41
0.18
 42
0.0625
 43
0.38
 44
0.18
 45
0.0
 46
0.0
 47
0.0
 48
0.0
140
0.18
141
0.09
142
0.0
143
25.4
144
1.0
145
0.0
146
1.0
147
0.09
 71
     0
 72
     0
 73
     1
 74
     1
 75
     0
 76
     0
 77
     0
 78
     0
170
     0
171
     2
172
     0
173
     0
174
     0
175
     0
176
     0
177
     0
178
     0
270
     2
271
     4
272
     4
273
     2
274
     2
340
11
275
     0
280
     0
281
     0
282
     0
283
     1
284
     0
285
     0
286
     0
287
     3
288
     0
  0
ENDTAB
  0
TABLE
  2
BLOCK_RECORD
  5
1
330
0
100
AcDbSymbolTable
 70
     1
  0
BLOCK_RECORD
  5
1F
330
1
100
AcDbSymbolTableRecord
100
AcDbBlockTableRecord
  2
*MODEL_SPACE
  0
BLOCK_RECORD
  5
1B
330
1
100
AcDbSymbolTableRecord
100
AcDbBlockTableRecord
  2
*PAPER_SPACE
  0
ENDTAB
  0
ENDSEC
  0
SECTION
  2
BLOCKS
  0
BLOCK
  5
20
330
1F
100
AcDbEntity
  8
0
100
AcDbBlockBegin
  2
*MODEL_SPACE
 70
     0
 10
0.0
 20
0.0
 30
0.0
  3
*MODEL_SPACE
  1

  0
ENDBLK
  5
21
330
1F
100
AcDbEntity
  8
0
100
AcDbBlockEnd
  0
BLOCK
  5
1C
330
1B
100
AcDbEntity
 67
     1
  8
0
100
AcDbBlockBegin
  2
*PAPER_SPACE
 70
     0
 10
0.0
 20
0.0
 30
0.0
  3
*PAPER_SPACE
  1

  0
ENDBLK
  5
1D
330
1B
100
AcDbEntity
 67
     1
  8
0
100
AcDbBlockEnd
  0
ENDSEC
  0
SECTION
  2
ENTITIES
  0
LINE
  5
6F
330
1F
100
AcDbEntity
  8
0
100
AcDbLine
 10
22.13705097513528
 20
46.15827606382022
 30
-0.0000000000007219
 11
22.13705097513528
 21
26.15827606382026
 31
-0.0000000000007219
  0
LINE
  5
70
330
1F
100
AcDbEntity
  8
0
100
AcDbLine
 10
22.13705097513528
 20
26.15827606382026
 30
-0.0000000000007219
 11
32.13705097513525
 21
26.15827606382026
 31
-0.0000000000007219
  0
LINE
  5
71
330
1F
100
AcDbEntity
  8
0
100
AcDbLine
 10
32.13705097513525
 20
26.15827606382026
 30
-0.0000000000007219
 11
32.13705097513525
 21
46.15827606382022
 31
-0.0000000000007219
  0
LINE
  5
72
330
1F
100
AcDbEntity
  8
0
100
AcDbLine
 10
32.13705097513525
 20
46.15827606382022
 30
-0.0000000000007219
 11
22.13705097513528
 21
46.15827606382022
 31
-0.0000000000007219
  0
LINE
  5
73
330
1F
100
AcDbEntity
  8
0
100
AcDbLine
 10
32.13705097513525
 20
23.48190888793095
 30
1.882395994608106
 11
32.13705097513525
 21
51.15827606382022
 31
5.499999999999278
  0
LINE
  5
74
330
1F
100
AcDbEntity
  8
0
100
AcDbLine
 10
22.13705097513528
 20
23.48190888793095
 30
1.882395994608106
 11
32.13705097513525
 21
23.48190888793095
 31
1.882395994608106
  0
LINE
  5
75
330
1F
100
AcDbEntity
  8
0
100
AcDbLine
 10
22.13705097513528
 20
51.15827606382022
 30
5.499999999999278
 11
22.13705097513528
 21
23.48190888793095
 31
1.882395994608106
  0
LINE
  5
76
330
1F
100
AcDbEntity
  8
0
100
AcDbLine
 10
32.13705097513525
 20
51.15827606382022
 30
5.499999999999278
 11
22.13705097513528
 21
51.15827606382022
 31
5.499999999999278
  0
LINE
  5
77
330
1F
100
AcDbEntity
  8
0
100
AcDbLine
 10
32.13705097513525
 20
26.15827606382026
 30
-0.0000000000007219
 11
32.13705097513525
 21
23.48190888793095
 31
1.882395994608106
  0
LINE
  5
78
330
1F
100
AcDbEntity
  8
0
100
AcDbLine
 10
32.13705097513525
 20
46.15827606382022
 30
-0.0000000000007219
 11
32.13705097513525
 21
51.15827606382022
 31
5.499999999999278
  0
LINE
  5
79
330
1F
100
AcDbEntity
  8
0
100
AcDbLine
 10
22.13705097513528
 20
26.15827606382026
 30
-0.0000000000007219
 11
22.13705097513528
 21
23.48190888793095
 31
1.882395994608106
  0
LINE
  5
7A
330
1F
100
AcDbEntity
  8
0
100
AcDbLine
 10
22.13705097513528
 20
46.15827606382022
 30
-0.0000000000007219
 11
22.13705097513528
 21
51.15827606382022
 31
5.499999999999278
  0
LINE
  5
7B
330
1F
100
AcDbEntity
  8
0
100
AcDbLine
 10
29.63705097513528
 20
32.23826141703733
 30
3.026947076063201
 11
29.63705097513528
 21
37.19608769329821
 31
3.674989215447005
  0
LINE
  5
7C
330
1F
100
AcDbEntity
  8
0
100
AcDbLine
 10
29.63705097513528
 20
37.19608769329821
 30
3.674989215447005
 11
24.63705097513528
 21
37.19608769329821
 31
3.674989215447004
  0
LINE
  5
7D
330
1F
100
AcDbEntity
  8
0
100
AcDbLine
 10
24.63705097513528
 20
37.19608769329821
 30
3.674989215447004
 11
24.63705097513528
 21
32.23826141703733
 31
3.026947076063201
  0
LINE
  5
7E
330
1F
100
AcDbEntity
  8
0
100
AcDbLine
 10
24.63705097513528
 20
32.23826141703733
 30
3.026947076063201
 11
29.63705097513528
 21
32.23826141703733
 31
3.026947076063201
  0
LINE
  5
7F
330
1F
100
AcDbEntity
  8
0
100
AcDbLine
 10
29.85034975775378
 20
31.67284120643507
 30
3.702486316294514
 11
29.63705097513528
 21
37.19608769329821
 31
3.674989215447005
  0
LINE
  5
80
330
1F
100
AcDbEntity
  8
0
100
AcDbLine
 10
24.63705097513528
 20
37.19608769329821
 30
3.674989215447004
 11
24.8503497577538
 21
31.67284120643507
 31
3.702486316294514
  0
LINE
  5
81
330
1F
100
AcDbEntity
  8
0
100
AcDbLine
 10
24.8503497577538
 20
31.67284120643507
 30
3.702486316294514
 11
29.85034975775378
 21
31.67284120643507
 31
3.702486316294514
  0
LINE
  5
82
330
1F
100
AcDbEntity
  8
0
100
AcDbLine
 10
29.63705097513528
 20
32.23826141703733
 30
3.026947076063201
 11
29.85034975775378
 21
31.67284120643507
 31
3.702486316294514
  0
LINE
  5
83
330
1F
100
AcDbEntity
  8
0
100
AcDbLine
 10
24.63705097513528
 20
32.23826141703733
 30
3.026947076063201
 11
24.8503497577538
 21
31.67284120643507
 31
3.702486316294514
  0
CIRCLE
  5
84
330
1F
100
AcDbEntity
  8
0
100
AcDbCircle
 10
-27.25566970528113
 20
34.15398538745718
 30
-3.866342492575982
 40
2.099990887036161
210
7.827958453985969E-17
220
-0.004978369182785884
230
-0.9999876078433573
  0
POLYLINE
  5
85
330
1F
100
AcDbEntity
  8
0
100
AcDb3dPolyline
 66
     1
 10
0.0
 20
0.0
 30
0.0
 70
     9
  0
VERTEX
  5
86
330
85
100
AcDbEntity
  8
0
100
AcDbVertex
100
AcDb3dPolylineVertex
 10
28.6845505300066
 20
32.70560218356552
 30
18.10374627502051
 70
    32
  0
VERTEX
  5
87
330
85
100
AcDbEntity
  8
0
100
AcDbVertex
100
AcDb3dPolylineVertex
 10
28.2375619228818
 20
32.38822182450279
 30
18.1053263311996
 70
    32
  0
VERTEX
  5
88
330
85
100
AcDbEntity
  8
0
100
AcDbVertex
100
AcDb3dPolylineVertex
 10
27.72365898378112
 20
32.19734366975668
 30
18.10627660489879
 70
    32
  0
VERTEX
  5
89
330
85
100
AcDbEntity
  8
0
100
AcDbVertex
100
AcDb3dPolylineVertex
 10
27.17786334873952
 20
32.14597575013211
 30
18.1065323365359
 70
    32
  0
VERTEX
  5
8A
330
85
100
AcDbEntity
  8
0
100
AcDbVertex
100
AcDb3dPolylineVertex
 10
26.63737008831515
 20
32.23761870446197
 30
18.10607609842247
 70
    32
  0
VERTEX
  5
8B
330
85
100
AcDbEntity
  8
0
100
AcDbVertex
100
AcDb3dPolylineVertex
 10
26.13901292499858
 20
32.46602721685583
 30
18.10493898243196
 70
    32
  0
VERTEX
  5
8C
330
85
100
AcDbEntity
  8
0
100
AcDbVertex
100
AcDb3dPolylineVertex
 10
25.71675407589569
 20
32.81563562465696
 30
18.10319848113996
 70
    32
  0
VERTEX
  5
8D
330
85
100
AcDbEntity
  8
0
100
AcDbVertex
100
AcDb3dPolylineVertex
 10
25.39936978375708
 20
33.26261869262891
 30
18.10097320683319
 70
    32
  0
VERTEX
  5
8E
330
85
100
AcDbEntity
  8
0
100
AcDbVertex
100
AcDb3dPolylineVertex
 10
25.20848926358968
 20
33.77651526336387
 30
18.09841480827823
 70
    32
  0
VERTEX
  5
8F
330
85
100
AcDbEntity
  8
0
100
AcDbVertex
100
AcDb3dPolylineVertex
 10
25.15712070739791
 20
34.32230413482046
 30
18.09569763610864
 70
    32
  0
VERTEX
  5
90
330
85
100
AcDbEntity
  8
0
100
AcDbVertex
100
AcDb3dPolylineVertex
 10
25.24876479739569
 20
34.86279069736769
 30
18.09300686111744
 70
    32
  0
VERTEX
  5
91
330
85
100
AcDbEntity
  8
0
100
AcDbVertex
100
AcDb3dPolylineVertex
 10
25.47717614029868
 20
35.36114168496422
 30
18.09052585517357
 70
    32
  0
VERTEX
  5
92
330
85
100
AcDbEntity
  8
0
100
AcDbVertex
100
AcDb3dPolylineVertex
 10
25.82678888055565
 20
35.78339530136932
 30
18.08842369473203
 70
    32
  0
VERTEX
  5
93
330
85
100
AcDbEntity
  8
0
100
AcDbVertex
100
AcDb3dPolylineVertex
 10
26.27377748768045
 20
36.10077566043206
 30
18.08684363855295
 70
    32
  0
VERTEX
  5
94
330
85
100
AcDbEntity
  8
0
100
AcDbVertex
100
AcDb3dPolylineVertex
 10
26.78768042678113
 20
36.29165381517815
 30
18.08589336485376
 70
    32
  0
VERTEX
  5
95
330
85
100
AcDbEntity
  8
0
100
AcDbVertex
100
AcDb3dPolylineVertex
 10
27.33347606182272
 20
36.34302173480273
 30
18.08563763321665
 70
    32
  0
VERTEX
  5
96
330
85
100
AcDbEntity
  8
0
100
AcDbVertex
100
AcDb3dPolylineVertex
 10
27.8739693222471
 20
36.25137878047287
 30
18.08609387133007
 70
    32
  0
VERTEX
  5
97
330
85
100
AcDbEntity
  8
0
100
AcDbVertex
100
AcDb3dPolylineVertex
 10
28.37232648556367
 20
36.02297026807901
 30
18.08723098732058
 70
    32
  0
VERTEX
  5
98
330
85
100
AcDbEntity
  8
0
100
AcDbVertex
100
AcDb3dPolylineVertex
 10
28.79458533466656
 20
35.67336186027789
 30
18.08897148861259
 70
    32
  0
VERTEX
  5
99
330
85
100
AcDbEntity
  8
0
100
AcDbVertex
100
AcDb3dPolylineVertex
 10
29.11196962680516
 20
35.22637879230592
 30
18.09119676291935
 70
    32
  0
VERTEX
  5
9A
330
85
100
AcDbEntity
  8
0
100
AcDbVertex
100
AcDb3dPolylineVertex
 10
29.30285014697257
 20
34.71248222157097
 30
18.09375516147431
 70
    32
  0
VERTEX
  5
9B
330
85
100
AcDbEntity
  8
0
100
AcDbVertex
100
AcDb3dPolylineVertex
 10
29.35421870316434
 20
34.16669335011438
 30
18.0964723336439
 70
    32
  0
VERTEX
  5
9C
330
85
100
AcDbEntity
  8
0
100
AcDbVertex
100
AcDb3dPolylineVertex
 10
29.26257461316656
 20
33.62620678756716
 30
18.0991631086351
 70
    32
  0
VERTEX
  5
9D
330
85
100
AcDbEntity
  8
0
100
AcDbVertex
100
AcDb3dPolylineVertex
 10
29.03416327026357
 20
33.12785579997061
 30
18.10164411457898
 70
    32
  0
VERTEX
  5
9E
330
85
100
AcDbEntity
  8
0
100
AcDbVertex
100
AcDb3dPolylineVertex
 10
28.6845505300066
 20
32.70560218356552
 30
18.10374627502051
 70
    32
  0
SEQEND
  5
9F
330
85
100
AcDbEntity
  8
0
  0
LINE
  5
A0
330
1F
100
AcDbEntity
  8
0
100
AcDbLine
 10
28.6845505300066
 20
32.63391366733352
 30
3.703924722076185
 11
28.6845505300066
 21
32.70560218356552
 31
18.10374627502051
  0
LINE
  5
A1
330
1F
100
AcDbEntity
  8
0
100
AcDbLine
 10
28.2375619228818
 20
32.31653330827078
 30
3.705504778255268
 11
28.2375619228818
 21
32.38822182450279
 31
18.1053263311996
  0
LINE
  5
A2
330
1F
100
AcDbEntity
  8
0
100
AcDbLine
 10
29.03416327026357
 20
33.05616728373861
 30
3.701822561634653
 11
29.03416327026357
 21
33.12785579997061
 31
18.10164411457898
  0
LINE
  5
A3
330
1F
100
AcDbEntity
  8
0
100
AcDbLine
 10
29.26257461316656
 20
33.55451827133516
 30
3.699341555690777
 11
29.26257461316656
 21
33.62620678756716
 31
18.0991631086351
  0
LINE
  5
A4
330
1F
100
AcDbEntity
  8
0
100
AcDbLine
 10
29.35421870316434
 20
34.09500483388238
 30
3.696650780699577
 11
29.35421870316434
 21
34.16669335011438
 31
18.0964723336439
  0
LINE
  5
A5
330
1F
100
AcDbEntity
  8
0
100
AcDbLine
 10
29.30285014697257
 20
34.64079370533897
 30
3.693933608529986
 11
29.30285014697257
 21
34.71248222157097
 31
18.09375516147431
  0
LINE
  5
A6
330
1F
100
AcDbEntity
  8
0
100
AcDbLine
 10
29.11196962680516
 20
35.15469027607392
 30
3.691375209975025
 11
29.11196962680516
 21
35.22637879230592
 31
18.09119676291935
  0
LINE
  5
A7
330
1F
100
AcDbEntity
  8
0
100
AcDbLine
 10
28.79458533466656
 20
35.60167334404589
 30
3.689149935668258
 11
28.79458533466656
 21
35.67336186027789
 31
18.08897148861259
  0
LINE
  5
A8
330
1F
100
AcDbEntity
  8
0
100
AcDbLine
 10
28.37232648556367
 20
35.95128175184701
 30
3.687409434376254
 11
28.37232648556367
 21
36.02297026807901
 31
18.08723098732058
  0
LINE
  5
A9
330
1F
100
AcDbEntity
  8
0
100
AcDbLine
 10
27.8739693222471
 20
36.17969026424087
 30
3.686272318385747
 11
27.8739693222471
 21
36.25137878047287
 31
18.08609387133007
  0
LINE
  5
AA
330
1F
100
AcDbEntity
  8
0
100
AcDbLine
 10
27.33347606182272
 20
36.27133321857073
 30
3.685816080272317
 11
27.33347606182272
 21
36.34302173480273
 31
18.08563763321665
  0
LINE
  5
AB
330
1F
100
AcDbEntity
  8
0
100
AcDbLine
 10
26.78768042678113
 20
36.21996529894615
 30
3.686071811909427
 11
26.78768042678113
 21
36.29165381517815
 31
18.08589336485376
  0
LINE
  5
AC
330
1F
100
AcDbEntity
  8
0
100
AcDbLine
 10
26.27377748768045
 20
36.02908714420006
 30
3.687022085608622
 11
26.27377748768045
 21
36.10077566043206
 31
18.08684363855295
  0
LINE
  5
AD
330
1F
100
AcDbEntity
  8
0
100
AcDbLine
 10
25.82678888055565
 20
35.71170678513732
 30
3.688602141787705
 11
25.82678888055565
 21
35.78339530136932
 31
18.08842369473203
  0
LINE
  5
AE
330
1F
100
AcDbEntity
  8
0
100
AcDbLine
 10
25.47717614029868
 20
35.28945316873222
 30
3.690704302229238
 11
25.47717614029868
 21
35.36114168496422
 31
18.09052585517357
  0
LINE
  5
AF
330
1F
100
AcDbEntity
  8
0
100
AcDbLine
 10
25.24876479739569
 20
34.79110218113568
 30
3.693185308173113
 11
25.24876479739569
 21
34.86279069736769
 31
18.09300686111744
  0
LINE
  5
B0
330
1F
100
AcDbEntity
  8
0
100
AcDbLine
 10
25.15712070739791
 20
34.25061561858846
 30
3.695876083164314
 11
25.15712070739791
 21
34.32230413482046
 31
18.09569763610864
  0
LINE
  5
B1
330
1F
100
AcDbEntity
  8
0
100
AcDbLine
 10
25.20848926358968
 20
33.70482674713187
 30
3.698593255333904
 11
25.20848926358968
 21
33.77651526336387
 31
18.09841480827823
  0
LINE
  5
B2
330
1F
100
AcDbEntity
  8
0
100
AcDbLine
 10
25.39936978375708
 20
33.19093017639691
 30
3.701151653888865
 11
25.39936978375708
 21
33.26261869262891
 31
18.10097320683319
  0
LINE
  5
B3
330
1F
100
AcDbEntity
  8
0
100
AcDbLine
 10
25.71675407589569
 20
32.74394710842495
 30
3.703376928195632
 11
25.71675407589569
 21
32.81563562465696
 31
18.10319848113996
  0
LINE
  5
B4
330
1F
100
AcDbEntity
  8
0
100
AcDbLine
 10
26.13901292499858
 20
32.39433870062383
 30
3.705117429487637
 11
26.13901292499858
 21
32.46602721685583
 31
18.10493898243196
  0
LINE
  5
B5
330
1F
100
AcDbEntity
  8
0
100
AcDbLine
 10
26.63737008831515
 20
32.16593018822996
 30
3.706254545478143
 11
26.63737008831515
 21
32.23761870446197
 31
18.10607609842247
  0
LINE
  5
B6
330
1F
100
AcDbEntity
  8
0
100
AcDbLine
 10
27.17786334873952
 20
32.07428723390011
 30
3.706710783591573
 11
27.17786334873952
 21
32.14597575013211
 31
18.1065323365359
  0
LINE
  5
B7
330
1F
100
AcDbEntity
  8
0
100
AcDbLine
 10
27.72365898378112
 20
32.12565515352468
 30
3.706455051954464
 11
27.72365898378112
 21
32.19734366975668
 31
18.10627660489879
  0
POLYLINE
  5
B8
330
1F
100
AcDbEntity
  8
0
100
AcDb3dPolyline
 66
     1
 10
0.0
 20
0.0
 30
0.0
 70
     9
  0
VERTEX
  5
B9
330
B8
100
AcDbEntity
  8
0
100
AcDbVertex
100
AcDb3dPolylineVertex
 10
28.25566970528112
 20
34.24449874246742
 30
18.09608498487628
 70
    32
  0
VERTEX
  5
BA
330
B8
100
AcDbEntity
  8
0
100
AcDbVertex
100
AcDb3dPolylineVertex
 10
28.22159553157019
 20
33.98568290469105
 30
18.09737348163433
 70
    32
  0
VERTEX
  5
BB
330
B8
100
AcDbEntity
  8
0
100
AcDbVertex
100
AcDb3dPolylineVertex
 10
28.12169510906556
 20
33.74450493854575
 30
18.09857416946767
 70
    32
  0
VERTEX
  5
BC
330
B8
100
AcDbEntity
  8
0
100
AcDbVertex
100
AcDb3dPolylineVertex
 10
27.96277648646767
 20
33.53740072385887
 30
18.09960522348468
 70
    32
  0
VERTEX
  5
BD
330
B8
100
AcDbEntity
  8
0
100
AcDbVertex
100
AcDb3dPolylineVertex
 10
27.75566970528113
 20
33.37848407060545
 30
18.10039637905799
 70
    32
  0
VERTEX
  5
BE
330
B8
100
AcDbEntity
  8
0
100
AcDbVertex
100
AcDb3dPolylineVertex
 10
27.51448875038365
 20
33.2785848860825
 30
18.10089372024273
 70
    32
  0
VERTEX
  5
BF
330
B8
100
AcDbEntity
  8
0
100
AcDbVertex
100
AcDb3dPolylineVertex
 10
27.25566970528113
 20
33.24451113462406
 30
18.10106335405906
 70
    32
  0
VERTEX
  5
C0
330
B8
100
AcDbEntity
  8
0
100
AcDbVertex
100
AcDb3dPolylineVertex
 10
26.9968506601786
 20
33.2785848860825
 30
18.10089372024273
 70
    32
  0
VERTEX
  5
C1
330
B8
100
AcDbEntity
  8
0
100
AcDbVertex
100
AcDb3dPolylineVertex
 10
26.75566970528113
 20
33.37848407060545
 30
18.10039637905799
 70
    32
  0
VERTEX
  5
C2
330
B8
100
AcDbEntity
  8
0
100
AcDbVertex
100
AcDb3dPolylineVertex
 10
26.54856292409458
 20
33.53740072385887
 30
18.09960522348468
 70
    32
  0
VERTEX
  5
C3
330
B8
100
AcDbEntity
  8
0
100
AcDbVertex
100
AcDb3dPolylineVertex
 10
26.38964430149669
 20
33.74450493854575
 30
18.09857416946767
 70
    32
  0
VERTEX
  5
C4
330
B8
100
AcDbEntity
  8
0
100
AcDbVertex
100
AcDb3dPolylineVertex
 10
26.28974387899206
 20
33.98568290469105
 30
18.09737348163433
 70
    32
  0
VERTEX
  5
C5
330
B8
100
AcDbEntity
  8
0
100
AcDbVertex
100
AcDb3dPolylineVertex
 10
26.25566970528113
 20
34.24449874246742
 30
18.09608498487628
 70
    32
  0
VERTEX
  5
C6
330
B8
100
AcDbEntity
  8
0
100
AcDbVertex
100
AcDb3dPolylineVertex
 10
26.28974387899206
 20
34.50331458024379
 30
18.09479648811822
 70
    32
  0
VERTEX
  5
C7
330
B8
100
AcDbEntity
  8
0
100
AcDbVertex
100
AcDb3dPolylineVertex
 10
26.38964430149669
 20
34.7444925463891
 30
18.09359580028488
 70
    32
  0
VERTEX
  5
C8
330
B8
100
AcDbEntity
  8
0
100
AcDbVertex
100
AcDb3dPolylineVertex
 10
26.54856292409458
 20
34.95159676107597
 30
18.09256474626788
 70
    32
  0
VERTEX
  5
C9
330
B8
100
AcDbEntity
  8
0
100
AcDbVertex
100
AcDb3dPolylineVertex
 10
26.75566970528113
 20
35.1105134143294
 30
18.09177359069457
 70
    32
  0
VERTEX
  5
CA
330
B8
100
AcDbEntity
  8
0
100
AcDbVertex
100
AcDb3dPolylineVertex
 10
26.9968506601786
 20
35.21041259885234
 30
18.09127624950982
 70
    32
  0
VERTEX
  5
CB
330
B8
100
AcDbEntity
  8
0
100
AcDbVertex
100
AcDb3dPolylineVertex
 10
27.25566970528113
 20
35.24448635031078
 30
18.09110661569349
 70
    32
  0
VERTEX
  5
CC
330
B8
100
AcDbEntity
  8
0
100
AcDbVertex
100
AcDb3dPolylineVertex
 10
27.51448875038364
 20
35.21041259885234
 30
18.09127624950982
 70
    32
  0
VERTEX
  5
CD
330
B8
100
AcDbEntity
  8
0
100
AcDbVertex
100
AcDb3dPolylineVertex
 10
27.75566970528113
 20
35.1105134143294
 30
18.09177359069457
 70
    32
  0
VERTEX
  5
CE
330
B8
100
AcDbEntity
  8
0
100
AcDbVertex
100
AcDb3dPolylineVertex
 10
27.96277648646767
 20
34.95159676107597
 30
18.09256474626788
 70
    32
  0
VERTEX
  5
CF
330
B8
100
AcDbEntity
  8
0
100
AcDbVertex
100
AcDb3dPolylineVertex
 10
28.12169510906556
 20
34.7444925463891
 30
18.09359580028488
 70
    32
  0
VERTEX
  5
D0
330
B8
100
AcDbEntity
  8
0
100
AcDbVertex
100
AcDb3dPolylineVertex
 10
28.22159553157019
 20
34.50331458024379
 30
18.09479648811822
 70
    32
  0
VERTEX
  5
D1
330
B8
100
AcDbEntity
  8
0
100
AcDbVertex
100
AcDb3dPolylineVertex
 10
28.25566970528112
 20
34.24449874246742
 30
18.09608498487628
 70
    32
  0
SEQEND
  5
D2
330
B8
100
AcDbEntity
  8
0
  0
POLYLINE
  5
D3
330
1F
100
AcDbEntity
  8
0
100
AcDb3dPolyline
 66
     1
 10
0.0
 20
0.0
 30
0.0
 70
     9
  0
VERTEX
  5
D4
330
D3
100
AcDbEntity
  8
0
100
AcDbVertex
100
AcDb3dPolylineVertex
 10
28.12169510906556
 20
34.70715477751821
 30
10.5936887414597
 70
    32
  0
VERTEX
  5
D5
330
D3
100
AcDbEntity
  8
0
100
AcDbVertex
100
AcDb3dPolylineVertex
 10
28.22159553157019
 20
34.4659768113729
 30
10.59488942929304
 70
    32
  0
VERTEX
  5
D6
330
D3
100
AcDbEntity
  8
0
100
AcDbVertex
100
AcDb3dPolylineVertex
 10
28.25566970528112
 20
34.20716097359653
 30
10.5961779260511
 70
    32
  0
VERTEX
  5
D7
330
D3
100
AcDbEntity
  8
0
100
AcDbVertex
100
AcDb3dPolylineVertex
 10
28.22159553157019
 20
33.94834513582016
 30
10.59746642280915
 70
    32
  0
VERTEX
  5
D8
330
D3
100
AcDbEntity
  8
0
100
AcDbVertex
100
AcDb3dPolylineVertex
 10
28.12169510906556
 20
33.70716716967485
 30
10.59866711064249
 70
    32
  0
VERTEX
  5
D9
330
D3
100
AcDbEntity
  8
0
100
AcDbVertex
100
AcDb3dPolylineVertex
 10
27.96277648646767
 20
33.50006295498798
 30
10.59969816465949
 70
    32
  0
VERTEX
  5
DA
330
D3
100
AcDbEntity
  8
0
100
AcDbVertex
100
AcDb3dPolylineVertex
 10
27.75566970528113
 20
33.34114630173455
 30
10.60048932023281
 70
    32
  0
VERTEX
  5
DB
330
D3
100
AcDbEntity
  8
0
100
AcDbVertex
100
AcDb3dPolylineVertex
 10
27.51448875038365
 20
33.24124711721161
 30
10.60098666141755
 70
    32
  0
VERTEX
  5
DC
330
D3
100
AcDbEntity
  8
0
100
AcDbVertex
100
AcDb3dPolylineVertex
 10
27.25566970528113
 20
33.20717336575317
 30
10.60115629523388
 70
    32
  0
VERTEX
  5
DD
330
D3
100
AcDbEntity
  8
0
100
AcDbVertex
100
AcDb3dPolylineVertex
 10
26.9968506601786
 20
33.24124711721161
 30
10.60098666141755
 70
    32
  0
VERTEX
  5
DE
330
D3
100
AcDbEntity
  8
0
100
AcDbVertex
100
AcDb3dPolylineVertex
 10
26.75566970528113
 20
33.34114630173455
 30
10.60048932023281
 70
    32
  0
VERTEX
  5
DF
330
D3
100
AcDbEntity
  8
0
100
AcDbVertex
100
AcDb3dPolylineVertex
 10
26.54856292409458
 20
33.50006295498798
 30
10.59969816465949
 70
    32
  0
VERTEX
  5
E0
330
D3
100
AcDbEntity
  8
0
100
AcDbVertex
100
AcDb3dPolylineVertex
 10
26.38964430149669
 20
33.70716716967485
 30
10.59866711064249
 70
    32
  0
VERTEX
  5
E1
330
D3
100
AcDbEntity
  8
0
100
AcDbVertex
100
AcDb3dPolylineVertex
 10
26.28974387899206
 20
33.94834513582016
 30
10.59746642280915
 70
    32
  0
VERTEX
  5
E2
330
D3
100
AcDbEntity
  8
0
100
AcDbVertex
100
AcDb3dPolylineVertex
 10
26.25566970528113
 20
34.20716097359653
 30
10.5961779260511
 70
    32
  0
VERTEX
  5
E3
330
D3
100
AcDbEntity
  8
0
100
AcDbVertex
100
AcDb3dPolylineVertex
 10
26.28974387899206
 20
34.4659768113729
 30
10.59488942929304
 70
    32
  0
VERTEX
  5
E4
330
D3
100
AcDbEntity
  8
0
100
AcDbVertex
100
AcDb3dPolylineVertex
 10
26.38964430149669
 20
34.70715477751821
 30
10.5936887414597
 70
    32
  0
VERTEX
  5
E5
330
D3
100
AcDbEntity
  8
0
100
AcDbVertex
100
AcDb3dPolylineVertex
 10
26.54856292409458
 20
34.91425899220508
 30
10.5926576874427
 70
    32
  0
VERTEX
  5
E6
330
D3
100
AcDbEntity
  8
0
100
AcDbVertex
100
AcDb3dPolylineVertex
 10
26.75566970528113
 20
35.07317564545851
 30
10.59186653186939
 70
    32
  0
VERTEX
  5
E7
330
D3
100
AcDbEntity
  8
0
100
AcDbVertex
100
AcDb3dPolylineVertex
 10
26.9968506601786
 20
35.17307482998145
 30
10.59136919068464
 70
    32
  0
VERTEX
  5
E8
330
D3
100
AcDbEntity
  8
0
100
AcDbVertex
100
AcDb3dPolylineVertex
 10
27.25566970528113
 20
35.20714858143989
 30
10.59119955686831
 70
    32
  0
VERTEX
  5
E9
330
D3
100
AcDbEntity
  8
0
100
AcDbVertex
100
AcDb3dPolylineVertex
 10
27.51448875038364
 20
35.17307482998145
 30
10.59136919068464
 70
    32
  0
VERTEX
  5
EA
330
D3
100
AcDbEntity
  8
0
100
AcDbVertex
100
AcDb3dPolylineVertex
 10
27.75566970528113
 20
35.07317564545851
 30
10.59186653186939
 70
    32
  0
VERTEX
  5
EB
330
D3
100
AcDbEntity
  8
0
100
AcDbVertex
100
AcDb3dPolylineVertex
 10
27.96277648646767
 20
34.91425899220508
 30
10.5926576874427
 70
    32
  0
VERTEX
  5
EC
330
D3
100
AcDbEntity
  8
0
100
AcDbVertex
100
AcDb3dPolylineVertex
 10
28.12169510906556
 20
34.70715477751821
 30
10.5936887414597
 70
    32
  0
SEQEND
  5
ED
330
D3
100
AcDbEntity
  8
0
  0
LINE
  5
EE
330
1F
100
AcDbEntity
  8
0
100
AcDbLine
 10
28.12169510906556
 20
34.7444925463891
 30
18.09359580028488
 11
28.12169510906556
 21
34.70715477751821
 31
10.5936887414597
  0
LINE
  5
EF
330
1F
100
AcDbEntity
  8
0
100
AcDbLine
 10
28.22159553157019
 20
34.50331458024379
 30
18.09479648811822
 11
28.22159553157019
 21
34.4659768113729
 31
10.59488942929304
  0
LINE
  5
F0
330
1F
100
AcDbEntity
  8
0
100
AcDbLine
 10
27.96277648646767
 20
34.95159676107597
 30
18.09256474626788
 11
27.96277648646767
 21
34.91425899220508
 31
10.5926576874427
  0
LINE
  5
F1
330
1F
100
AcDbEntity
  8
0
100
AcDbLine
 10
27.75566970528113
 20
35.1105134143294
 30
18.09177359069457
 11
27.75566970528113
 21
35.07317564545851
 31
10.59186653186939
  0
LINE
  5
F2
330
1F
100
AcDbEntity
  8
0
100
AcDbLine
 10
27.51448875038364
 20
35.21041259885234
 30
18.09127624950982
 11
27.51448875038364
 21
35.17307482998145
 31
10.59136919068464
  0
LINE
  5
F3
330
1F
100
AcDbEntity
  8
0
100
AcDbLine
 10
27.25566970528113
 20
35.24448635031078
 30
18.09110661569349
 11
27.25566970528113
 21
35.20714858143989
 31
10.59119955686831
  0
LINE
  5
F4
330
1F
100
AcDbEntity
  8
0
100
AcDbLine
 10
26.9968506601786
 20
35.21041259885234
 30
18.09127624950982
 11
26.9968506601786
 21
35.17307482998145
 31
10.59136919068464
  0
LINE
  5
F5
330
1F
100
AcDbEntity
  8
0
100
AcDbLine
 10
26.75566970528113
 20
35.1105134143294
 30
18.09177359069457
 11
26.75566970528113
 21
35.07317564545851
 31
10.59186653186939
  0
LINE
  5
F6
330
1F
100
AcDbEntity
  8
0
100
AcDbLine
 10
26.54856292409458
 20
34.95159676107597
 30
18.09256474626788
 11
26.54856292409458
 21
34.91425899220508
 31
10.5926576874427
  0
LINE
  5
F7
330
1F
100
AcDbEntity
  8
0
100
AcDbLine
 10
26.38964430149669
 20
34.7444925463891
 30
18.09359580028488
 11
26.38964430149669
 21
34.70715477751821
 31
10.5936887414597
  0
LINE
  5
F8
330
1F
100
AcDbEntity
  8
0
100
AcDbLine
 10
26.28974387899206
 20
34.50331458024379
 30
18.09479648811822
 11
26.28974387899206
 21
34.4659768113729
 31
10.59488942929304
  0
LINE
  5
F9
330
1F
100
AcDbEntity
  8
0
100
AcDbLine
 10
26.25566970528113
 20
34.24449874246742
 30
18.09608498487628
 11
26.25566970528113
 21
34.20716097359653
 31
10.5961779260511
  0
LINE
  5
FA
330
1F
100
AcDbEntity
  8
0
100
AcDbLine
 10
26.28974387899206
 20
33.98568290469105
 30
18.09737348163433
 11
26.28974387899206
 21
33.94834513582016
 31
10.59746642280915
  0
LINE
  5
FB
330
1F
100
AcDbEntity
  8
0
100
AcDbLine
 10
26.38964430149669
 20
33.74450493854575
 30
18.09857416946767
 11
26.38964430149669
 21
33.70716716967485
 31
10.59866711064249
  0
LINE
  5
FC
330
1F
100
AcDbEntity
  8
0
100
AcDbLine
 10
26.54856292409458
 20
33.53740072385887
 30
18.09960522348468
 11
26.54856292409458
 21
33.50006295498798
 31
10.59969816465949
  0
LINE
  5
FD
330
1F
100
AcDbEntity
  8
0
100
AcDbLine
 10
26.75566970528113
 20
33.37848407060545
 30
18.10039637905799
 11
26.75566970528113
 21
33.34114630173455
 31
10.60048932023281
  0
LINE
  5
FE
330
1F
100
AcDbEntity
  8
0
100
AcDbLine
 10
26.9968506601786
 20
33.2785848860825
 30
18.10089372024273
 11
26.9968506601786
 21
33.24124711721161
 31
10.60098666141755
  0
LINE
  5
FF
330
1F
100
AcDbEntity
  8
0
100
AcDbLine
 10
27.25566970528113
 20
33.24451113462406
 30
18.10106335405906
 11
27.25566970528113
 21
33.20717336575317
 31
10.60115629523388
  0
LINE
  5
100
330
1F
100
AcDbEntity
  8
0
100
AcDbLine
 10
27.51448875038365
 20
33.2785848860825
 30
18.10089372024273
 11
27.51448875038365
 21
33.24124711721161
 31
10.60098666141755
  0
LINE
  5
101
330
1F
100
AcDbEntity
  8
0
100
AcDbLine
 10
27.75566970528113
 20
33.37848407060545
 30
18.10039637905799
 11
27.75566970528113
 21
33.34114630173455
 31
10.60048932023281
  0
LINE
  5
102
330
1F
100
AcDbEntity
  8
0
100
AcDbLine
 10
27.96277648646767
 20
33.53740072385887
 30
18.09960522348468
 11
27.96277648646767
 21
33.50006295498798
 31
10.59969816465949
  0
LINE
  5
103
330
1F
100
AcDbEntity
  8
0
100
AcDbLine
 10
28.12169510906556
 20
33.74450493854575
 30
18.09857416946767
 11
28.12169510906556
 21
33.70716716967485
 31
10.59866711064249
  0
LINE
  5
104
330
1F
100
AcDbEntity
  8
0
100
AcDbLine
 10
28.22159553157019
 20
33.98568290469105
 30
18.09737348163433
 11
28.22159553157019
 21
33.94834513582016
 31
10.59746642280915
  0
LINE
  5
105
330
1F
100
AcDbEntity
  8
0
100
AcDbLine
 10
28.25566970528112
 20
34.24449874246742
 30
18.09608498487628
 11
28.25566970528112
 21
34.20716097359653
 31
10.5961779260511
  0
POLYLINE
  5
106
330
1F
100
AcDbEntity
  8
0
100
AcDbPolyFaceMesh
 66
     1
 10
0.0
 20
0.0
 30
0.0
 70
    64
 71
     4
 72
     2
  0
VERTEX
  5
107
330
106
100
AcDbEntity
  8
0
100
AcDbVertex
100
AcDbPolyFaceMeshVertex
 10
32.13705097513525
 20
46.15827606382022
 30
-0.0000000000007219
 70
   192
  0
VERTEX
  5
108
330
106
100
AcDbEntity
  8
0
100
AcDbVertex
100
AcDbPolyFaceMeshVertex
 10
22.13705097513528
 20
26.15827606382026
 30
-0.0000000000007219
 70
   192
  0
VERTEX
  5
109
330
106
100
AcDbEntity
  8
0
100
AcDbVertex
100
AcDbPolyFaceMeshVertex
 10
22.13705097513528
 20
46.15827606382022
 30
-0.0000000000007219
 70
   192
  0
VERTEX
  5
10A
330
106
100
AcDbEntity
  8
0
100
AcDbVertex
100
AcDbPolyFaceMeshVertex
 10
32.13705097513525
 20
26.15827606382026
 30
-0.0000000000007219
 70
   192
  0
VERTEX
  5
10B
330
106
100
AcDbEntity
  8
0
100
AcDbFaceRecord
 10
0.0
 20
0.0
 30
0.0
 70
   128
 71
    -1
 72
     2
 73
     3
  0
VERTEX
  5
10C
330
106
100
AcDbEntity
  8
0
100
AcDbFaceRecord
 10
0.0
 20
0.0
 30
0.0
 70
   128
 71
    -2
 72
     1
 73
     4
  0
SEQEND
  5
10D
330
106
100
AcDbEntity
  8
0
  0
POLYLINE
  5
10E
330
1F
100
AcDbEntity
  8
0
100
AcDbPolyFaceMesh
 66
     1
 10
0.0
 20
0.0
 30
0.0
 70
    64
 71
     8
 72
     8
  0
VERTEX
  5
10F
330
10E
100
AcDbEntity
  8
0
100
AcDbVertex
100
AcDbPolyFaceMeshVertex
 10
22.13705097513528
 20
23.48190888793095
 30
1.882395994608106
 70
   192
  0
VERTEX
  5
110
330
10E
100
AcDbEntity
  8
0
100
AcDbVertex
100
AcDbPolyFaceMeshVertex
 10
24.63705097513528
 20
32.23826141703733
 30
3.026947076063201
 70
   192
  0
VERTEX
  5
111
330
10E
100
AcDbEntity
  8
0
100
AcDbVertex
100
AcDbPolyFaceMeshVertex
 10
22.13705097513528
 20
51.15827606382022
 30
5.499999999999278
 70
   192
  0
VERTEX
  5
112
330
10E
100
AcDbEntity
  8
0
100
AcDbVertex
100
AcDbPolyFaceMeshVertex
 10
32.13705097513525
 20
23.48190888793095
 30
1.882395994608106
 70
   192
  0
VERTEX
  5
113
330
10E
100
AcDbEntity
  8
0
100
AcDbVertex
100
AcDbPolyFaceMeshVertex
 10
29.63705097513528
 20
32.23826141703733
 30
3.026947076063201
 70
   192
  0
VERTEX
  5
114
330
10E
100
AcDbEntity
  8
0
100
AcDbVertex
100
AcDbPolyFaceMeshVertex
 10
29.63705097513528
 20
37.19608769329821
 30
3.674989215447005
 70
   192
  0
VERTEX
  5
115
330
10E
100
AcDbEntity
  8
0
100
AcDbVertex
100
AcDbPolyFaceMeshVertex
 10
24.63705097513528
 20
37.19608769329821
 30
3.674989215447004
 70
   192
  0
VERTEX
  5
116
330
10E
100
AcDbEntity
  8
0
100
AcDbVertex
100
AcDbPolyFaceMeshVertex
 10
32.13705097513525
 20
51.15827606382022
 30
5.499999999999278
 70
   192
  0
VERTEX
  5
117
330
10E
100
AcDbEntity
  8
0
100
AcDbFaceRecord
 10
0.0
 20
0.0
 30
0.0
 70
   128
 71
    -1
 72
    -2
 73
     3
  0
VERTEX
  5
118
330
10E
100
AcDbEntity
  8
0
100
AcDbFaceRecord
 10
0.0
 20
0.0
 30
0.0
 70
   128
 71
    -2
 72
     1
 73
    -4
  0
VERTEX
  5
119
330
10E
100
AcDbEntity
  8
0
100
AcDbFaceRecord
 10
0.0
 20
0.0
 30
0.0
 70
   128
 71
    -2
 72
    -4
 73
     5
  0
VERTEX
  5
11A
330
10E
100
AcDbEntity
  8
0
100
AcDbFaceRecord
 10
0.0
 20
0.0
 30
0.0
 70
   128
 71
    -5
 72
    -4
 73
     6
  0
VERTEX
  5
11B
330
10E
100
AcDbEntity
  8
0
100
AcDbFaceRecord
 10
0.0
 20
0.0
 30
0.0
 70
   128
 71
    -3
 72
    -7
 73
     8
  0
VERTEX
  5
11C
330
10E
100
AcDbEntity
  8
0
100
AcDbFaceRecord
 10
0.0
 20
0.0
 30
0.0
 70
   128
 71
    -7
 72
    -3
 73
     2
  0
VERTEX
  5
11D
330
10E
100
AcDbEntity
  8
0
100
AcDbFaceRecord
 10
0.0
 20
0.0
 30
0.0
 70
   128
 71
    -8
 72
     7
 73
    -6
  0
VERTEX
  5
11E
330
10E
100
AcDbEntity
  8
0
100
AcDbFaceRecord
 10
0.0
 20
0.0
 30
0.0
 70
   128
 71
    -8
 72
    -6
 73
     4
  0
SEQEND
  5
11F
330
10E
100
AcDbEntity
  8
0
  0
POLYLINE
  5
120
330
1F
100
AcDbEntity
  8
0
100
AcDbPolyFaceMesh
 66
     1
 10
0.0
 20
0.0
 30
0.0
 70
    64
 71
     4
 72
     2
  0
VERTEX
  5
121
330
120
100
AcDbEntity
  8
0
100
AcDbVertex
100
AcDbPolyFaceMeshVertex
 10
32.13705097513525
 20
26.15827606382026
 30
-0.0000000000007219
 70
   192
  0
VERTEX
  5
122
330
120
100
AcDbEntity
  8
0
100
AcDbVertex
100
AcDbPolyFaceMeshVertex
 10
32.13705097513525
 20
51.15827606382022
 30
5.499999999999278
 70
   192
  0
VERTEX
  5
123
330
120
100
AcDbEntity
  8
0
100
AcDbVertex
100
AcDbPolyFaceMeshVertex
 10
32.13705097513525
 20
23.48190888793095
 30
1.882395994608106
 70
   192
  0
VERTEX
  5
124
330
120
100
AcDbEntity
  8
0
100
AcDbVertex
100
AcDbPolyFaceMeshVertex
 10
32.13705097513525
 20
46.15827606382022
 30
-0.0000000000007219
 70
   192
  0
VERTEX
  5
125
330
120
100
AcDbEntity
  8
0
100
AcDbFaceRecord
 10
0.0
 20
0.0
 30
0.0
 70
   128
 71
    -1
 72
     2
 73
     3
  0
VERTEX
  5
126
330
120
100
AcDbEntity
  8
0
100
AcDbFaceRecord
 10
0.0
 20
0.0
 30
0.0
 70
   128
 71
    -2
 72
     1
 73
     4
  0
SEQEND
  5
127
330
120
100
AcDbEntity
  8
0
  0
POLYLINE
  5
128
330
1F
100
AcDbEntity
  8
0
100
AcDbPolyFaceMesh
 66
     1
 10
0.0
 20
0.0
 30
0.0
 70
    64
 71
     4
 72
     2
  0
VERTEX
  5
129
330
128
100
AcDbEntity
  8
0
100
AcDbVertex
100
AcDbPolyFaceMeshVertex
 10
32.13705097513525
 20
26.15827606382026
 30
-0.0000000000007219
 70
   192
  0
VERTEX
  5
12A
330
128
100
AcDbEntity
  8
0
100
AcDbVertex
100
AcDbPolyFaceMeshVertex
 10
22.13705097513528
 20
23.48190888793095
 30
1.882395994608106
 70
   192
  0
VERTEX
  5
12B
330
128
100
AcDbEntity
  8
0
100
AcDbVertex
100
AcDbPolyFaceMeshVertex
 10
22.13705097513528
 20
26.15827606382026
 30
-0.0000000000007219
 70
   192
  0
VERTEX
  5
12C
330
128
100
AcDbEntity
  8
0
100
AcDbVertex
100
AcDbPolyFaceMeshVertex
 10
32.13705097513525
 20
23.48190888793095
 30
1.882395994608106
 70
   192
  0
VERTEX
  5
12D
330
128
100
AcDbEntity
  8
0
100
AcDbFaceRecord
 10
0.0
 20
0.0
 30
0.0
 70
   128
 71
    -1
 72
     2
 73
     3
  0
VERTEX
  5
12E
330
128
100
AcDbEntity
  8
0
100
AcDbFaceRecord
 10
0.0
 20
0.0
 30
0.0
 70
   128
 71
    -2
 72
     1
 73
     4
  0
SEQEND
  5
12F
330
128
100
AcDbEntity
  8
0
  0
POLYLINE
  5
130
330
1F
100
AcDbEntity
  8
0
100
AcDbPolyFaceMesh
 66
     1
 10
0.0
 20
0.0
 30
0.0
 70
    64
 71
     4
 72
     2
  0
VERTEX
  5
131
330
130
100
AcDbEntity
  8
0
100
AcDbVertex
100
AcDbPolyFaceMeshVertex
 10
22.13705097513528
 20
51.15827606382022
 30
5.499999999999278
 70
   192
  0
VERTEX
  5
132
330
130
100
AcDbEntity
  8
0
100
AcDbVertex
100
AcDbPolyFaceMeshVertex
 10
22.13705097513528
 20
26.15827606382026
 30
-0.0000000000007219
 70
   192
  0
VERTEX
  5
133
330
130
100
AcDbEntity
  8
0
100
AcDbVertex
100
AcDbPolyFaceMeshVertex
 10
22.13705097513528
 20
23.48190888793095
 30
1.882395994608106
 70
   192
  0
VERTEX
  5
134
330
130
100
AcDbEntity
  8
0
100
AcDbVertex
100
AcDbPolyFaceMeshVertex
 10
22.13705097513528
 20
46.15827606382022
 30
-0.0000000000007219
 70
   192
  0
VERTEX
  5
135
330
130
100
AcDbEntity
  8
0
100
AcDbFaceRecord
 10
0.0
 20
0.0
 30
0.0
 70
   128
 71
    -1
 72
     2
 73
     3
  0
VERTEX
  5
136
330
130
100
AcDbEntity
  8
0
100
AcDbFaceRecord
 10
0.0
 20
0.0
 30
0.0
 70
   128
 71
    -2
 72
     1
 73
     4
  0
SEQEND
  5
137
330
130
100
AcDbEntity
  8
0
  0
POLYLINE
  5
138
330
1F
100
AcDbEntity
  8
0
100
AcDbPolyFaceMesh
 66
     1
 10
0.0
 20
0.0
 30
0.0
 70
    64
 71
     4
 72
     2
  0
VERTEX
  5
139
330
138
100
AcDbEntity
  8
0
100
AcDbVertex
100
AcDbPolyFaceMeshVertex
 10
22.13705097513528
 20
51.15827606382022
 30
5.499999999999278
 70
   192
  0
VERTEX
  5
13A
330
138
100
AcDbEntity
  8
0
100
AcDbVertex
100
AcDbPolyFaceMeshVertex
 10
32.13705097513525
 20
46.15827606382022
 30
-0.0000000000007219
 70
   192
  0
VERTEX
  5
13B
330
138
100
AcDbEntity
  8
0
100
AcDbVertex
100
AcDbPolyFaceMeshVertex
 10
22.13705097513528
 20
46.15827606382022
 30
-0.0000000000007219
 70
   192
  0
VERTEX
  5
13C
330
138
100
AcDbEntity
  8
0
100
AcDbVertex
100
AcDbPolyFaceMeshVertex
 10
32.13705097513525
 20
51.15827606382022
 30
5.499999999999278
 70
   192
  0
VERTEX
  5
13D
330
138
100
AcDbEntity
  8
0
100
AcDbFaceRecord
 10
0.0
 20
0.0
 30
0.0
 70
   128
 71
    -1
 72
     2
 73
     3
  0
VERTEX
  5
13E
330
138
100
AcDbEntity
  8
0
100
AcDbFaceRecord
 10
0.0
 20
0.0
 30
0.0
 70
   128
 71
    -2
 72
     1
 73
     4
  0
SEQEND
  5
13F
330
138
100
AcDbEntity
  8
0
  0
POLYLINE
  5
140
330
1F
100
AcDbEntity
  8
0
100
AcDbPolyFaceMesh
 66
     1
 10
0.0
 20
0.0
 30
0.0
 70
    64
 71
     3
 72
     1
  0
VERTEX
  5
141
330
140
100
AcDbEntity
  8
0
100
AcDbVertex
100
AcDbPolyFaceMeshVertex
 10
29.63705097513528
 20
37.19608769329821
 30
3.674989215447005
 70
   192
  0
VERTEX
  5
142
330
140
100
AcDbEntity
  8
0
100
AcDbVertex
100
AcDbPolyFaceMeshVertex
 10
29.85034975775378
 20
31.67284120643507
 30
3.702486316294514
 70
   192
  0
VERTEX
  5
143
330
140
100
AcDbEntity
  8
0
100
AcDbVertex
100
AcDbPolyFaceMeshVertex
 10
29.63705097513528
 20
32.23826141703733
 30
3.026947076063201
 70
   192
  0
VERTEX
  5
144
330
140
100
AcDbEntity
  8
0
100
AcDbFaceRecord
 10
0.0
 20
0.0
 30
0.0
 70
   128
 71
     1
 72
     2
 73
     3
  0
SEQEND
  5
145
330
140
100
AcDbEntity
  8
0
  0
POLYLINE
  5
146
330
1F
100
AcDbEntity
  8
0
100
AcDbPolyFaceMesh
 66
     1
 10
0.0
 20
0.0
 30
0.0
 70
    64
 71
     3
 72
     1
  0
VERTEX
  5
147
330
146
100
AcDbEntity
  8
0
100
AcDbVertex
100
AcDbPolyFaceMeshVertex
 10
24.63705097513528
 20
37.19608769329821
 30
3.674989215447004
 70
   192
  0
VERTEX
  5
148
330
146
100
AcDbEntity
  8
0
100
AcDbVertex
100
AcDbPolyFaceMeshVertex
 10
24.63705097513528
 20
32.23826141703733
 30
3.026947076063201
 70
   192
  0
VERTEX
  5
149
330
146
100
AcDbEntity
  8
0
100
AcDbVertex
100
AcDbPolyFaceMeshVertex
 10
24.8503497577538
 20
31.67284120643507
 30
3.702486316294514
 70
   192
  0
VERTEX
  5
14A
330
146
100
AcDbEntity
  8
0
100
AcDbFaceRecord
 10
0.0
 20
0.0
 30
0.0
 70
   128
 71
     1
 72
     2
 73
     3
  0
SEQEND
  5
14B
330
146
100
AcDbEntity
  8
0
  0
POLYLINE
  5
14C
330
1F
100
AcDbEntity
  8
0
100
AcDbPolyFaceMesh
 66
     1
 10
0.0
 20
0.0
 30
0.0
 70
    64
 71
     4
 72
     2
  0
VERTEX
  5
14D
330
14C
100
AcDbEntity
  8
0
100
AcDbVertex
100
AcDbPolyFaceMeshVertex
 10
29.85034975775378
 20
31.67284120643507
 30
3.702486316294514
 70
   192
  0
VERTEX
  5
14E
330
14C
100
AcDbEntity
  8
0
100
AcDbVertex
100
AcDbPolyFaceMeshVertex
 10
24.63705097513528
 20
32.23826141703733
 30
3.026947076063201
 70
   192
  0
VERTEX
  5
14F
330
14C
100
AcDbEntity
  8
0
100
AcDbVertex
100
AcDbPolyFaceMeshVertex
 10
29.63705097513528
 20
32.23826141703733
 30
3.026947076063201
 70
   192
  0
VERTEX
  5
150
330
14C
100
AcDbEntity
  8
0
100
AcDbVertex
100
AcDbPolyFaceMeshVertex
 10
24.8503497577538
 20
31.67284120643507
 30
3.702486316294514
 70
   192
  0
VERTEX
  5
151
330
14C
100
AcDbEntity
  8
0
100
AcDbFaceRecord
 10
0.0
 20
0.0
 30
0.0
 70
   128
 71
    -1
 72
     2
 73
     3
  0
VERTEX
  5
152
330
14C
100
AcDbEntity
  8
0
100
AcDbFaceRecord
 10
0.0
 20
0.0
 30
0.0
 70
   128
 71
    -2
 72
     1
 73
     4
  0
SEQEND
  5
153
330
14C
100
AcDbEntity
  8
0
  0
POLYLINE
  5
154
330
1F
100
AcDbEntity
  8
0
100
AcDbPolyFaceMesh
 66
     1
 10
0.0
 20
0.0
 30
0.0
 70
    64
 71
    28
 72
    28
  0
VERTEX
  5
155
330
154
100
AcDbEntity
  8
0
100
AcDbVertex
100
AcDbPolyFaceMeshVertex
 10
24.8503497577538
 20
31.67284120643507
 30
3.702486316294514
 70
   192
  0
VERTEX
  5
156
330
154
100
AcDbEntity
  8
0
100
AcDbVertex
100
AcDbPolyFaceMeshVertex
 10
25.20848926358968
 20
33.70482674713187
 30
3.698593255333904
 70
   192
  0
VERTEX
  5
157
330
154
100
AcDbEntity
  8
0
100
AcDbVertex
100
AcDbPolyFaceMeshVertex
 10
25.15712070739791
 20
34.25061561858846
 30
3.695876083164314
 70
   192
  0
VERTEX
  5
158
330
154
100
AcDbEntity
  8
0
100
AcDbVertex
100
AcDbPolyFaceMeshVertex
 10
25.39936978375708
 20
33.19093017639691
 30
3.701151653888865
 70
   192
  0
VERTEX
  5
159
330
154
100
AcDbEntity
  8
0
100
AcDbVertex
100
AcDbPolyFaceMeshVertex
 10
25.71675407589569
 20
32.74394710842495
 30
3.703376928195632
 70
   192
  0
VERTEX
  5
15A
330
154
100
AcDbEntity
  8
0
100
AcDbVertex
100
AcDbPolyFaceMeshVertex
 10
26.13901292499858
 20
32.39433870062383
 30
3.705117429487637
 70
   192
  0
VERTEX
  5
15B
330
154
100
AcDbEntity
  8
0
100
AcDbVertex
100
AcDbPolyFaceMeshVertex
 10
26.63737008831515
 20
32.16593018822996
 30
3.706254545478143
 70
   192
  0
VERTEX
  5
15C
330
154
100
AcDbEntity
  8
0
100
AcDbVertex
100
AcDbPolyFaceMeshVertex
 10
27.17786334873952
 20
32.07428723390011
 30
3.706710783591573
 70
   192
  0
VERTEX
  5
15D
330
154
100
AcDbEntity
  8
0
100
AcDbVertex
100
AcDbPolyFaceMeshVertex
 10
29.85034975775378
 20
31.67284120643507
 30
3.702486316294514
 70
   192
  0
VERTEX
  5
15E
330
154
100
AcDbEntity
  8
0
100
AcDbVertex
100
AcDbPolyFaceMeshVertex
 10
27.72365898378112
 20
32.12565515352468
 30
3.706455051954464
 70
   192
  0
VERTEX
  5
15F
330
154
100
AcDbEntity
  8
0
100
AcDbVertex
100
AcDbPolyFaceMeshVertex
 10
28.2375619228818
 20
32.31653330827078
 30
3.705504778255268
 70
   192
  0
VERTEX
  5
160
330
154
100
AcDbEntity
  8
0
100
AcDbVertex
100
AcDbPolyFaceMeshVertex
 10
28.6845505300066
 20
32.63391366733352
 30
3.703924722076185
 70
   192
  0
VERTEX
  5
161
330
154
100
AcDbEntity
  8
0
100
AcDbVertex
100
AcDbPolyFaceMeshVertex
 10
29.03416327026357
 20
33.05616728373861
 30
3.701822561634653
 70
   192
  0
VERTEX
  5
162
330
154
100
AcDbEntity
  8
0
100
AcDbVertex
100
AcDbPolyFaceMeshVertex
 10
29.26257461316656
 20
33.55451827133516
 30
3.699341555690777
 70
   192
  0
VERTEX
  5
163
330
154
100
AcDbEntity
  8
0
100
AcDbVertex
100
AcDbPolyFaceMeshVertex
 10
29.35421870316434
 20
34.09500483388238
 30
3.696650780699577
 70
   192
  0
VERTEX
  5
164
330
154
100
AcDbEntity
  8
0
100
AcDbVertex
100
AcDbPolyFaceMeshVertex
 10
29.63705097513528
 20
37.19608769329821
 30
3.674989215447005
 70
   192
  0
VERTEX
  5
165
330
154
100
AcDbEntity
  8
0
100
AcDbVertex
100
AcDbPolyFaceMeshVertex
 10
24.63705097513528
 20
37.19608769329821
 30
3.674989215447004
 70
   192
  0
VERTEX
  5
166
330
154
100
AcDbEntity
  8
0
100
AcDbVertex
100
AcDbPolyFaceMeshVertex
 10
26.78768042678113
 20
36.21996529894615
 30
3.686071811909427
 70
   192
  0
VERTEX
  5
167
330
154
100
AcDbEntity
  8
0
100
AcDbVertex
100
AcDbPolyFaceMeshVertex
 10
26.27377748768045
 20
36.02908714420006
 30
3.687022085608622
 70
   192
  0
VERTEX
  5
168
330
154
100
AcDbEntity
  8
0
100
AcDbVertex
100
AcDbPolyFaceMeshVertex
 10
25.82678888055565
 20
35.71170678513732
 30
3.688602141787705
 70
   192
  0
VERTEX
  5
169
330
154
100
AcDbEntity
  8
0
100
AcDbVertex
100
AcDbPolyFaceMeshVertex
 10
25.47717614029868
 20
35.28945316873222
 30
3.690704302229238
 70
   192
  0
VERTEX
  5
16A
330
154
100
AcDbEntity
  8
0
100
AcDbVertex
100
AcDbPolyFaceMeshVertex
 10
25.24876479739569
 20
34.79110218113568
 30
3.693185308173113
 70
   192
  0
VERTEX
  5
16B
330
154
100
AcDbEntity
  8
0
100
AcDbVertex
100
AcDbPolyFaceMeshVertex
 10
27.33347606182272
 20
36.27133321857073
 30
3.685816080272317
 70
   192
  0
VERTEX
  5
16C
330
154
100
AcDbEntity
  8
0
100
AcDbVertex
100
AcDbPolyFaceMeshVertex
 10
27.8739693222471
 20
36.17969026424087
 30
3.686272318385747
 70
   192
  0
VERTEX
  5
16D
330
154
100
AcDbEntity
  8
0
100
AcDbVertex
100
AcDbPolyFaceMeshVertex
 10
28.37232648556367
 20
35.95128175184701
 30
3.687409434376254
 70
   192
  0
VERTEX
  5
16E
330
154
100
AcDbEntity
  8
0
100
AcDbVertex
100
AcDbPolyFaceMeshVertex
 10
28.79458533466656
 20
35.60167334404589
 30
3.689149935668258
 70
   192
  0
VERTEX
  5
16F
330
154
100
AcDbEntity
  8
0
100
AcDbVertex
100
AcDbPolyFaceMeshVertex
 10
29.11196962680516
 20
35.15469027607392
 30
3.691375209975025
 70
   192
  0
VERTEX
  5
170
330
154
100
AcDbEntity
  8
0
100
AcDbVertex
100
AcDbPolyFaceMeshVertex
 10
29.30285014697257
 20
34.64079370533897
 30
3.693933608529986
 70
   192
  0
VERTEX
  5
171
330
154
100
AcDbEntity
  8
0
100
AcDbFaceRecord
 10
0.0
 20
0.0
 30
0.0
 70
   128
 71
    -1
 72
     2
 73
    -3
  0
VERTEX
  5
172
330
154
100
AcDbEntity
  8
0
100
AcDbFaceRecord
 10
0.0
 20
0.0
 30
0.0
 70
   128
 71
    -2
 72
    -1
 73
     4
  0
VERTEX
  5
173
330
154
100
AcDbEntity
  8
0
100
AcDbFaceRecord
 10
0.0
 20
0.0
 30
0.0
 70
   128
 71
    -4
 72
    -1
 73
     5
  0
VERTEX
  5
174
330
154
100
AcDbEntity
  8
0
100
AcDbFaceRecord
 10
0.0
 20
0.0
 30
0.0
 70
   128
 71
    -5
 72
    -1
 73
     6
  0
VERTEX
  5
175
330
154
100
AcDbEntity
  8
0
100
AcDbFaceRecord
 10
0.0
 20
0.0
 30
0.0
 70
   128
 71
    -6
 72
    -1
 73
     7
  0
VERTEX
  5
176
330
154
100
AcDbEntity
  8
0
100
AcDbFaceRecord
 10
0.0
 20
0.0
 30
0.0
 70
   128
 71
    -7
 72
    -1
 73
     8
  0
VERTEX
  5
177
330
154
100
AcDbEntity
  8
0
100
AcDbFaceRecord
 10
0.0
 20
0.0
 30
0.0
 70
   128
 71
    -8
 72
     1
 73
    -9
  0
VERTEX
  5
178
330
154
100
AcDbEntity
  8
0
100
AcDbFaceRecord
 10
0.0
 20
0.0
 30
0.0
 70
   128
 71
    -8
 72
    -9
 73
    10
  0
VERTEX
  5
179
330
154
100
AcDbEntity
  8
0
100
AcDbFaceRecord
 10
0.0
 20
0.0
 30
0.0
 70
   128
 71
   -10
 72
    -9
 73
    11
  0
VERTEX
  5
17A
330
154
100
AcDbEntity
  8
0
100
AcDbFaceRecord
 10
0.0
 20
0.0
 30
0.0
 70
   128
 71
   -11
 72
    -9
 73
    12
  0
VERTEX
  5
17B
330
154
100
AcDbEntity
  8
0
100
AcDbFaceRecord
 10
0.0
 20
0.0
 30
0.0
 70
   128
 71
   -12
 72
    -9
 73
    13
  0
VERTEX
  5
17C
330
154
100
AcDbEntity
  8
0
100
AcDbFaceRecord
 10
0.0
 20
0.0
 30
0.0
 70
   128
 71
   -13
 72
    -9
 73
    14
  0
VERTEX
  5
17D
330
154
100
AcDbEntity
  8
0
100
AcDbFaceRecord
 10
0.0
 20
0.0
 30
0.0
 70
   128
 71
   -14
 72
    -9
 73
    15
  0
VERTEX
  5
17E
330
154
100
AcDbEntity
  8
0
100
AcDbFaceRecord
 10
0.0
 20
0.0
 30
0.0
 70
   128
 71
   -15
 72
     9
 73
   -16
  0
VERTEX
  5
17F
330
154
100
AcDbEntity
  8
0
100
AcDbFaceRecord
 10
0.0
 20
0.0
 30
0.0
 70
   128
 71
   -17
 72
   -18
 73
    16
  0
VERTEX
  5
180
330
154
100
AcDbEntity
  8
0
100
AcDbFaceRecord
 10
0.0
 20
0.0
 30
0.0
 70
   128
 71
   -18
 72
   -17
 73
    19
  0
VERTEX
  5
181
330
154
100
AcDbEntity
  8
0
100
AcDbFaceRecord
 10
0.0
 20
0.0
 30
0.0
 70
   128
 71
   -19
 72
   -17
 73
    20
  0
VERTEX
  5
182
330
154
100
AcDbEntity
  8
0
100
AcDbFaceRecord
 10
0.0
 20
0.0
 30
0.0
 70
   128
 71
   -20
 72
   -17
 73
    21
  0
VERTEX
  5
183
330
154
100
AcDbEntity
  8
0
100
AcDbFaceRecord
 10
0.0
 20
0.0
 30
0.0
 70
   128
 71
   -21
 72
   -17
 73
    22
  0
VERTEX
  5
184
330
154
100
AcDbEntity
  8
0
100
AcDbFaceRecord
 10
0.0
 20
0.0
 30
0.0
 70
   128
 71
   -22
 72
   -17
 73
     3
  0
VERTEX
  5
185
330
154
100
AcDbEntity
  8
0
100
AcDbFaceRecord
 10
0.0
 20
0.0
 30
0.0
 70
   128
 71
    -3
 72
    17
 73
    -1
  0
VERTEX
  5
186
330
154
100
AcDbEntity
  8
0
100
AcDbFaceRecord
 10
0.0
 20
0.0
 30
0.0
 70
   128
 71
   -16
 72
    18
 73
   -23
  0
VERTEX
  5
187
330
154
100
AcDbEntity
  8
0
100
AcDbFaceRecord
 10
0.0
 20
0.0
 30
0.0
 70
   128
 71
   -16
 72
    23
 73
   -24
  0
VERTEX
  5
188
330
154
100
AcDbEntity
  8
0
100
AcDbFaceRecord
 10
0.0
 20
0.0
 30
0.0
 70
   128
 71
   -16
 72
    24
 73
   -25
  0
VERTEX
  5
189
330
154
100
AcDbEntity
  8
0
100
AcDbFaceRecord
 10
0.0
 20
0.0
 30
0.0
 70
   128
 71
   -16
 72
    25
 73
   -26
  0
VERTEX
  5
18A
330
154
100
AcDbEntity
  8
0
100
AcDbFaceRecord
 10
0.0
 20
0.0
 30
0.0
 70
   128
 71
   -16
 72
    26
 73
   -27
  0
VERTEX
  5
18B
330
154
100
AcDbEntity
  8
0
100
AcDbFaceRecord
 10
0.0
 20
0.0
 30
0.0
 70
   128
 71
   -16
 72
    27
 73
   -28
  0
VERTEX
  5
18C
330
154
100
AcDbEntity
  8
0
100
AcDbFaceRecord
 10
0.0
 20
0.0
 30
0.0
 70
   128
 71
   -16
 72
    28
 73
   -15
  0
SEQEND
  5
18D
330
154
100
AcDbEntity
  8
0
  0
POLYLINE
  5
18E
330
1F
100
AcDbEntity
  8
0
100
AcDbPolyFaceMesh
 66
     1
 10
0.0
 20
0.0
 30
0.0
 70
    64
 71
    48
 72
    48
  0
VERTEX
  5
18F
330
18E
100
AcDbEntity
  8
0
100
AcDbVertex
100
AcDbPolyFaceMeshVertex
 10
26.13901292499858
 20
32.46602721685583
 30
18.10493898243196
 70
   192
  0
VERTEX
  5
190
330
18E
100
AcDbEntity
  8
0
100
AcDbVertex
100
AcDbPolyFaceMeshVertex
 10
26.28974387899206
 20
33.98568290469105
 30
18.09737348163433
 70
   192
  0
VERTEX
  5
191
330
18E
100
AcDbEntity
  8
0
100
AcDbVertex
100
AcDbPolyFaceMeshVertex
 10
26.25566970528113
 20
34.24449874246742
 30
18.09608498487628
 70
   192
  0
VERTEX
  5
192
330
18E
100
AcDbEntity
  8
0
100
AcDbVertex
100
AcDbPolyFaceMeshVertex
 10
26.63737008831515
 20
32.23761870446197
 30
18.10607609842247
 70
   192
  0
VERTEX
  5
193
330
18E
100
AcDbEntity
  8
0
100
AcDbVertex
100
AcDbPolyFaceMeshVertex
 10
26.38964430149669
 20
33.74450493854575
 30
18.09857416946767
 70
   192
  0
VERTEX
  5
194
330
18E
100
AcDbEntity
  8
0
100
AcDbVertex
100
AcDbPolyFaceMeshVertex
 10
26.54856292409458
 20
33.53740072385887
 30
18.09960522348468
 70
   192
  0
VERTEX
  5
195
330
18E
100
AcDbEntity
  8
0
100
AcDbVertex
100
AcDbPolyFaceMeshVertex
 10
26.75566970528113
 20
33.37848407060545
 30
18.10039637905799
 70
   192
  0
VERTEX
  5
196
330
18E
100
AcDbEntity
  8
0
100
AcDbVertex
100
AcDbPolyFaceMeshVertex
 10
27.17786334873952
 20
32.14597575013211
 30
18.1065323365359
 70
   192
  0
VERTEX
  5
197
330
18E
100
AcDbEntity
  8
0
100
AcDbVertex
100
AcDbPolyFaceMeshVertex
 10
26.9968506601786
 20
33.2785848860825
 30
18.10089372024273
 70
   192
  0
VERTEX
  5
198
330
18E
100
AcDbEntity
  8
0
100
AcDbVertex
100
AcDbPolyFaceMeshVertex
 10
27.25566970528113
 20
33.24451113462406
 30
18.10106335405906
 70
   192
  0
VERTEX
  5
199
330
18E
100
AcDbEntity
  8
0
100
AcDbVertex
100
AcDbPolyFaceMeshVertex
 10
27.72365898378112
 20
32.19734366975668
 30
18.10627660489879
 70
   192
  0
VERTEX
  5
19A
330
18E
100
AcDbEntity
  8
0
100
AcDbVertex
100
AcDbPolyFaceMeshVertex
 10
27.51448875038365
 20
33.2785848860825
 30
18.10089372024273
 70
   192
  0
VERTEX
  5
19B
330
18E
100
AcDbEntity
  8
0
100
AcDbVertex
100
AcDbPolyFaceMeshVertex
 10
27.75566970528113
 20
33.37848407060545
 30
18.10039637905799
 70
   192
  0
VERTEX
  5
19C
330
18E
100
AcDbEntity
  8
0
100
AcDbVertex
100
AcDbPolyFaceMeshVertex
 10
28.2375619228818
 20
32.38822182450279
 30
18.1053263311996
 70
   192
  0
VERTEX
  5
19D
330
18E
100
AcDbEntity
  8
0
100
AcDbVertex
100
AcDbPolyFaceMeshVertex
 10
27.96277648646767
 20
33.53740072385887
 30
18.09960522348468
 70
   192
  0
VERTEX
  5
19E
330
18E
100
AcDbEntity
  8
0
100
AcDbVertex
100
AcDbPolyFaceMeshVertex
 10
28.12169510906556
 20
33.74450493854575
 30
18.09857416946767
 70
   192
  0
VERTEX
  5
19F
330
18E
100
AcDbEntity
  8
0
100
AcDbVertex
100
AcDbPolyFaceMeshVertex
 10
28.22159553157019
 20
33.98568290469105
 30
18.09737348163433
 70
   192
  0
VERTEX
  5
1A0
330
18E
100
AcDbEntity
  8
0
100
AcDbVertex
100
AcDbPolyFaceMeshVertex
 10
28.25566970528112
 20
34.24449874246742
 30
18.09608498487628
 70
   192
  0
VERTEX
  5
1A1
330
18E
100
AcDbEntity
  8
0
100
AcDbVertex
100
AcDbPolyFaceMeshVertex
 10
28.6845505300066
 20
32.70560218356552
 30
18.10374627502051
 70
   192
  0
VERTEX
  5
1A2
330
18E
100
AcDbEntity
  8
0
100
AcDbVertex
100
AcDbPolyFaceMeshVertex
 10
28.37232648556367
 20
36.02297026807901
 30
18.08723098732058
 70
   192
  0
VERTEX
  5
1A3
330
18E
100
AcDbEntity
  8
0
100
AcDbVertex
100
AcDbPolyFaceMeshVertex
 10
28.79458533466656
 20
35.67336186027789
 30
18.08897148861259
 70
   192
  0
VERTEX
  5
1A4
330
18E
100
AcDbEntity
  8
0
100
AcDbVertex
100
AcDbPolyFaceMeshVertex
 10
29.03416327026357
 20
33.12785579997061
 30
18.10164411457898
 70
   192
  0
VERTEX
  5
1A5
330
18E
100
AcDbEntity
  8
0
100
AcDbVertex
100
AcDbPolyFaceMeshVertex
 10
29.11196962680516
 20
35.22637879230592
 30
18.09119676291935
 70
   192
  0
VERTEX
  5
1A6
330
18E
100
AcDbEntity
  8
0
100
AcDbVertex
100
AcDbPolyFaceMeshVertex
 10
29.26257461316656
 20
33.62620678756716
 30
18.0991631086351
 70
   192
  0
VERTEX
  5
1A7
330
18E
100
AcDbEntity
  8
0
100
AcDbVertex
100
AcDbPolyFaceMeshVertex
 10
29.30285014697257
 20
34.71248222157097
 30
18.09375516147431
 70
   192
  0
VERTEX
  5
1A8
330
18E
100
AcDbEntity
  8
0
100
AcDbVertex
100
AcDbPolyFaceMeshVertex
 10
29.35421870316434
 20
34.16669335011438
 30
18.0964723336439
 70
   192
  0
VERTEX
  5
1A9
330
18E
100
AcDbEntity
  8
0
100
AcDbVertex
100
AcDbPolyFaceMeshVertex
 10
25.20848926358968
 20
33.77651526336387
 30
18.09841480827823
 70
   192
  0
VERTEX
  5
1AA
330
18E
100
AcDbEntity
  8
0
100
AcDbVertex
100
AcDbPolyFaceMeshVertex
 10
25.24876479739569
 20
34.86279069736769
 30
18.09300686111744
 70
   192
  0
VERTEX
  5
1AB
330
18E
100
AcDbEntity
  8
0
100
AcDbVertex
100
AcDbPolyFaceMeshVertex
 10
25.15712070739791
 20
34.32230413482046
 30
18.09569763610864
 70
   192
  0
VERTEX
  5
1AC
330
18E
100
AcDbEntity
  8
0
100
AcDbVertex
100
AcDbPolyFaceMeshVertex
 10
25.39936978375708
 20
33.26261869262891
 30
18.10097320683319
 70
   192
  0
VERTEX
  5
1AD
330
18E
100
AcDbEntity
  8
0
100
AcDbVertex
100
AcDbPolyFaceMeshVertex
 10
25.47717614029868
 20
35.36114168496422
 30
18.09052585517357
 70
   192
  0
VERTEX
  5
1AE
330
18E
100
AcDbEntity
  8
0
100
AcDbVertex
100
AcDbPolyFaceMeshVertex
 10
25.71675407589569
 20
32.81563562465696
 30
18.10319848113996
 70
   192
  0
VERTEX
  5
1AF
330
18E
100
AcDbEntity
  8
0
100
AcDbVertex
100
AcDbPolyFaceMeshVertex
 10
25.82678888055565
 20
35.78339530136932
 30
18.08842369473203
 70
   192
  0
VERTEX
  5
1B0
330
18E
100
AcDbEntity
  8
0
100
AcDbVertex
100
AcDbPolyFaceMeshVertex
 10
26.27377748768045
 20
36.10077566043206
 30
18.08684363855295
 70
   192
  0
VERTEX
  5
1B1
330
18E
100
AcDbEntity
  8
0
100
AcDbVertex
100
AcDbPolyFaceMeshVertex
 10
26.28974387899206
 20
34.50331458024379
 30
18.09479648811822
 70
   192
  0
VERTEX
  5
1B2
330
18E
100
AcDbEntity
  8
0
100
AcDbVertex
100
AcDbPolyFaceMeshVertex
 10
26.78768042678113
 20
36.29165381517815
 30
18.08589336485376
 70
   192
  0
VERTEX
  5
1B3
330
18E
100
AcDbEntity
  8
0
100
AcDbVertex
100
AcDbPolyFaceMeshVertex
 10
26.38964430149669
 20
34.7444925463891
 30
18.09359580028488
 70
   192
  0
VERTEX
  5
1B4
330
18E
100
AcDbEntity
  8
0
100
AcDbVertex
100
AcDbPolyFaceMeshVertex
 10
26.54856292409458
 20
34.95159676107597
 30
18.09256474626788
 70
   192
  0
VERTEX
  5
1B5
330
18E
100
AcDbEntity
  8
0
100
AcDbVertex
100
AcDbPolyFaceMeshVertex
 10
26.75566970528113
 20
35.1105134143294
 30
18.09177359069457
 70
   192
  0
VERTEX
  5
1B6
330
18E
100
AcDbEntity
  8
0
100
AcDbVertex
100
AcDbPolyFaceMeshVertex
 10
26.9968506601786
 20
35.21041259885234
 30
18.09127624950982
 70
   192
  0
VERTEX
  5
1B7
330
18E
100
AcDbEntity
  8
0
100
AcDbVertex
100
AcDbPolyFaceMeshVertex
 10
27.33347606182272
 20
36.34302173480273
 30
18.08563763321665
 70
   192
  0
VERTEX
  5
1B8
330
18E
100
AcDbEntity
  8
0
100
AcDbVertex
100
AcDbPolyFaceMeshVertex
 10
27.25566970528113
 20
35.24448635031078
 30
18.09110661569349
 70
   192
  0
VERTEX
  5
1B9
330
18E
100
AcDbEntity
  8
0
100
AcDbVertex
100
AcDbPolyFaceMeshVertex
 10
27.51448875038364
 20
35.21041259885234
 30
18.09127624950982
 70
   192
  0
VERTEX
  5
1BA
330
18E
100
AcDbEntity
  8
0
100
AcDbVertex
100
AcDbPolyFaceMeshVertex
 10
27.8739693222471
 20
36.25137878047287
 30
18.08609387133007
 70
   192
  0
VERTEX
  5
1BB
330
18E
100
AcDbEntity
  8
0
100
AcDbVertex
100
AcDbPolyFaceMeshVertex
 10
27.75566970528113
 20
35.1105134143294
 30
18.09177359069457
 70
   192
  0
VERTEX
  5
1BC
330
18E
100
AcDbEntity
  8
0
100
AcDbVertex
100
AcDbPolyFaceMeshVertex
 10
27.96277648646767
 20
34.95159676107597
 30
18.09256474626788
 70
   192
  0
VERTEX
  5
1BD
330
18E
100
AcDbEntity
  8
0
100
AcDbVertex
100
AcDbPolyFaceMeshVertex
 10
28.12169510906556
 20
34.7444925463891
 30
18.09359580028488
 70
   192
  0
VERTEX
  5
1BE
330
18E
100
AcDbEntity
  8
0
100
AcDbVertex
100
AcDbPolyFaceMeshVertex
 10
28.22159553157019
 20
34.50331458024379
 30
18.09479648811822
 70
   192
  0
VERTEX
  5
1BF
330
18E
100
AcDbEntity
  8
0
100
AcDbFaceRecord
 10
0.0
 20
0.0
 30
0.0
 70
   128
 71
    -1
 72
     2
 73
    -3
  0
VERTEX
  5
1C0
330
18E
100
AcDbEntity
  8
0
100
AcDbFaceRecord
 10
0.0
 20
0.0
 30
0.0
 70
   128
 71
    -2
 72
     1
 73
    -4
  0
VERTEX
  5
1C1
330
18E
100
AcDbEntity
  8
0
100
AcDbFaceRecord
 10
0.0
 20
0.0
 30
0.0
 70
   128
 71
    -2
 72
    -4
 73
     5
  0
VERTEX
  5
1C2
330
18E
100
AcDbEntity
  8
0
100
AcDbFaceRecord
 10
0.0
 20
0.0
 30
0.0
 70
   128
 71
    -5
 72
    -4
 73
     6
  0
VERTEX
  5
1C3
330
18E
100
AcDbEntity
  8
0
100
AcDbFaceRecord
 10
0.0
 20
0.0
 30
0.0
 70
   128
 71
    -6
 72
    -4
 73
     7
  0
VERTEX
  5
1C4
330
18E
100
AcDbEntity
  8
0
100
AcDbFaceRecord
 10
0.0
 20
0.0
 30
0.0
 70
   128
 71
    -7
 72
     4
 73
    -8
  0
VERTEX
  5
1C5
330
18E
100
AcDbEntity
  8
0
100
AcDbFaceRecord
 10
0.0
 20
0.0
 30
0.0
 70
   128
 71
    -7
 72
    -8
 73
     9
  0
VERTEX
  5
1C6
330
18E
100
AcDbEntity
  8
0
100
AcDbFaceRecord
 10
0.0
 20
0.0
 30
0.0
 70
   128
 71
    -9
 72
    -8
 73
    10
  0
VERTEX
  5
1C7
330
18E
100
AcDbEntity
  8
0
100
AcDbFaceRecord
 10
0.0
 20
0.0
 30
0.0
 70
   128
 71
   -10
 72
     8
 73
   -11
  0
VERTEX
  5
1C8
330
18E
100
AcDbEntity
  8
0
100
AcDbFaceRecord
 10
0.0
 20
0.0
 30
0.0
 70
   128
 71
   -10
 72
   -11
 73
    12
  0
VERTEX
  5
1C9
330
18E
100
AcDbEntity
  8
0
100
AcDbFaceRecord
 10
0.0
 20
0.0
 30
0.0
 70
   128
 71
   -12
 72
   -11
 73
    13
  0
VERTEX
  5
1CA
330
18E
100
AcDbEntity
  8
0
100
AcDbFaceRecord
 10
0.0
 20
0.0
 30
0.0
 70
   128
 71
   -13
 72
    11
 73
   -14
  0
VERTEX
  5
1CB
330
18E
100
AcDbEntity
  8
0
100
AcDbFaceRecord
 10
0.0
 20
0.0
 30
0.0
 70
   128
 71
   -13
 72
   -14
 73
    15
  0
VERTEX
  5
1CC
330
18E
100
AcDbEntity
  8
0
100
AcDbFaceRecord
 10
0.0
 20
0.0
 30
0.0
 70
   128
 71
   -15
 72
   -14
 73
    16
  0
VERTEX
  5
1CD
330
18E
100
AcDbEntity
  8
0
100
AcDbFaceRecord
 10
0.0
 20
0.0
 30
0.0
 70
   128
 71
   -16
 72
   -14
 73
    17
  0
VERTEX
  5
1CE
330
18E
100
AcDbEntity
  8
0
100
AcDbFaceRecord
 10
0.0
 20
0.0
 30
0.0
 70
   128
 71
   -17
 72
   -14
 73
    18
  0
VERTEX
  5
1CF
330
18E
100
AcDbEntity
  8
0
100
AcDbFaceRecord
 10
0.0
 20
0.0
 30
0.0
 70
   128
 71
   -18
 72
    14
 73
   -19
  0
VERTEX
  5
1D0
330
18E
100
AcDbEntity
  8
0
100
AcDbFaceRecord
 10
0.0
 20
0.0
 30
0.0
 70
   128
 71
   -18
 72
   -19
 73
   -20
  0
VERTEX
  5
1D1
330
18E
100
AcDbEntity
  8
0
100
AcDbFaceRecord
 10
0.0
 20
0.0
 30
0.0
 70
   128
 71
   -20
 72
   -19
 73
    21
  0
VERTEX
  5
1D2
330
18E
100
AcDbEntity
  8
0
100
AcDbFaceRecord
 10
0.0
 20
0.0
 30
0.0
 70
   128
 71
   -21
 72
    19
 73
   -22
  0
VERTEX
  5
1D3
330
18E
100
AcDbEntity
  8
0
100
AcDbFaceRecord
 10
0.0
 20
0.0
 30
0.0
 70
   128
 71
   -21
 72
   -22
 73
    23
  0
VERTEX
  5
1D4
330
18E
100
AcDbEntity
  8
0
100
AcDbFaceRecord
 10
0.0
 20
0.0
 30
0.0
 70
   128
 71
   -23
 72
    22
 73
   -24
  0
VERTEX
  5
1D5
330
18E
100
AcDbEntity
  8
0
100
AcDbFaceRecord
 10
0.0
 20
0.0
 30
0.0
 70
   128
 71
   -23
 72
   -24
 73
    25
  0
VERTEX
  5
1D6
330
18E
100
AcDbEntity
  8
0
100
AcDbFaceRecord
 10
0.0
 20
0.0
 30
0.0
 70
   128
 71
   -25
 72
    24
 73
    26
  0
VERTEX
  5
1D7
330
18E
100
AcDbEntity
  8
0
100
AcDbFaceRecord
 10
0.0
 20
0.0
 30
0.0
 70
   128
 71
   -27
 72
    28
 73
    29
  0
VERTEX
  5
1D8
330
18E
100
AcDbEntity
  8
0
100
AcDbFaceRecord
 10
0.0
 20
0.0
 30
0.0
 70
   128
 71
   -28
 72
    27
 73
   -30
  0
VERTEX
  5
1D9
330
18E
100
AcDbEntity
  8
0
100
AcDbFaceRecord
 10
0.0
 20
0.0
 30
0.0
 70
   128
 71
   -28
 72
   -30
 73
    31
  0
VERTEX
  5
1DA
330
18E
100
AcDbEntity
  8
0
100
AcDbFaceRecord
 10
0.0
 20
0.0
 30
0.0
 70
   128
 71
   -31
 72
    30
 73
   -32
  0
VERTEX
  5
1DB
330
18E
100
AcDbEntity
  8
0
100
AcDbFaceRecord
 10
0.0
 20
0.0
 30
0.0
 70
   128
 71
   -31
 72
   -32
 73
    33
  0
VERTEX
  5
1DC
330
18E
100
AcDbEntity
  8
0
100
AcDbFaceRecord
 10
0.0
 20
0.0
 30
0.0
 70
   128
 71
   -33
 72
    32
 73
    -1
  0
VERTEX
  5
1DD
330
18E
100
AcDbEntity
  8
0
100
AcDbFaceRecord
 10
0.0
 20
0.0
 30
0.0
 70
   128
 71
   -33
 72
    -1
 73
    34
  0
VERTEX
  5
1DE
330
18E
100
AcDbEntity
  8
0
100
AcDbFaceRecord
 10
0.0
 20
0.0
 30
0.0
 70
   128
 71
   -34
 72
    -1
 73
    -3
  0
VERTEX
  5
1DF
330
18E
100
AcDbEntity
  8
0
100
AcDbFaceRecord
 10
0.0
 20
0.0
 30
0.0
 70
   128
 71
   -34
 72
     3
 73
   -35
  0
VERTEX
  5
1E0
330
18E
100
AcDbEntity
  8
0
100
AcDbFaceRecord
 10
0.0
 20
0.0
 30
0.0
 70
   128
 71
   -34
 72
   -35
 73
    36
  0
VERTEX
  5
1E1
330
18E
100
AcDbEntity
  8
0
100
AcDbFaceRecord
 10
0.0
 20
0.0
 30
0.0
 70
   128
 71
   -36
 72
    35
 73
   -37
  0
VERTEX
  5
1E2
330
18E
100
AcDbEntity
  8
0
100
AcDbFaceRecord
 10
0.0
 20
0.0
 30
0.0
 70
   128
 71
   -36
 72
    37
 73
   -38
  0
VERTEX
  5
1E3
330
18E
100
AcDbEntity
  8
0
100
AcDbFaceRecord
 10
0.0
 20
0.0
 30
0.0
 70
   128
 71
   -36
 72
    38
 73
   -39
  0
VERTEX
  5
1E4
330
18E
100
AcDbEntity
  8
0
100
AcDbFaceRecord
 10
0.0
 20
0.0
 30
0.0
 70
   128
 71
   -36
 72
    39
 73
   -40
  0
VERTEX
  5
1E5
330
18E
100
AcDbEntity
  8
0
100
AcDbFaceRecord
 10
0.0
 20
0.0
 30
0.0
 70
   128
 71
   -36
 72
   -40
 73
    41
  0
VERTEX
  5
1E6
330
18E
100
AcDbEntity
  8
0
100
AcDbFaceRecord
 10
0.0
 20
0.0
 30
0.0
 70
   128
 71
   -41
 72
    40
 73
   -42
  0
VERTEX
  5
1E7
330
18E
100
AcDbEntity
  8
0
100
AcDbFaceRecord
 10
0.0
 20
0.0
 30
0.0
 70
   128
 71
   -41
 72
    42
 73
   -43
  0
VERTEX
  5
1E8
330
18E
100
AcDbEntity
  8
0
100
AcDbFaceRecord
 10
0.0
 20
0.0
 30
0.0
 70
   128
 71
   -41
 72
   -43
 73
    44
  0
VERTEX
  5
1E9
330
18E
100
AcDbEntity
  8
0
100
AcDbFaceRecord
 10
0.0
 20
0.0
 30
0.0
 70
   128
 71
   -44
 72
    43
 73
   -45
  0
VERTEX
  5
1EA
330
18E
100
AcDbEntity
  8
0
100
AcDbFaceRecord
 10
0.0
 20
0.0
 30
0.0
 70
   128
 71
   -44
 72
    45
 73
   -46
  0
VERTEX
  5
1EB
330
18E
100
AcDbEntity
  8
0
100
AcDbFaceRecord
 10
0.0
 20
0.0
 30
0.0
 70
   128
 71
   -44
 72
   -46
 73
    20
  0
VERTEX
  5
1EC
330
18E
100
AcDbEntity
  8
0
100
AcDbFaceRecord
 10
0.0
 20
0.0
 30
0.0
 70
   128
 71
   -20
 72
    46
 73
   -47
  0
VERTEX
  5
1ED
330
18E
100
AcDbEntity
  8
0
100
AcDbFaceRecord
 10
0.0
 20
0.0
 30
0.0
 70
   128
 71
   -20
 72
    47
 73
   -48
  0
VERTEX
  5
1EE
330
18E
100
AcDbEntity
  8
0
100
AcDbFaceRecord
 10
0.0
 20
0.0
 30
0.0
 70
   128
 71
   -20
 72
    48
 73
   -18
  0
SEQEND
  5
1EF
330
18E
100
AcDbEntity
  8
0
  0
POLYLINE
  5
1F0
330
1F
100
AcDbEntity
  8
0
100
AcDbPolyFaceMesh
 66
     1
 10
0.0
 20
0.0
 30
0.0
 70
    64
 71
     4
 72
     2
  0
VERTEX
  5
1F1
330
1F0
100
AcDbEntity
  8
0
100
AcDbVertex
100
AcDbPolyFaceMeshVertex
 10
28.6845505300066
 20
32.70560218356552
 30
18.10374627502051
 70
   192
  0
VERTEX
  5
1F2
330
1F0
100
AcDbEntity
  8
0
100
AcDbVertex
100
AcDbPolyFaceMeshVertex
 10
28.2375619228818
 20
32.31653330827078
 30
3.705504778255268
 70
   192
  0
VERTEX
  5
1F3
330
1F0
100
AcDbEntity
  8
0
100
AcDbVertex
100
AcDbPolyFaceMeshVertex
 10
28.6845505300066
 20
32.63391366733352
 30
3.703924722076185
 70
   192
  0
VERTEX
  5
1F4
330
1F0
100
AcDbEntity
  8
0
100
AcDbVertex
100
AcDbPolyFaceMeshVertex
 10
28.2375619228818
 20
32.38822182450279
 30
18.1053263311996
 70
   192
  0
VERTEX
  5
1F5
330
1F0
100
AcDbEntity
  8
0
100
AcDbFaceRecord
 10
0.0
 20
0.0
 30
0.0
 70
   128
 71
    -1
 72
     2
 73
     3
  0
VERTEX
  5
1F6
330
1F0
100
AcDbEntity
  8
0
100
AcDbFaceRecord
 10
0.0
 20
0.0
 30
0.0
 70
   128
 71
    -2
 72
     1
 73
     4
  0
SEQEND
  5
1F7
330
1F0
100
AcDbEntity
  8
0
  0
POLYLINE
  5
1F8
330
1F
100
AcDbEntity
  8
0
100
AcDbPolyFaceMesh
 66
     1
 10
0.0
 20
0.0
 30
0.0
 70
    64
 71
     4
 72
     2
  0
VERTEX
  5
1F9
330
1F8
100
AcDbEntity
  8
0
100
AcDbVertex
100
AcDbPolyFaceMeshVertex
 10
29.03416327026357
 20
33.05616728373861
 30
3.701822561634653
 70
   192
  0
VERTEX
  5
1FA
330
1F8
100
AcDbEntity
  8
0
100
AcDbVertex
100
AcDbPolyFaceMeshVertex
 10
28.6845505300066
 20
32.70560218356552
 30
18.10374627502051
 70
   192
  0
VERTEX
  5
1FB
330
1F8
100
AcDbEntity
  8
0
100
AcDbVertex
100
AcDbPolyFaceMeshVertex
 10
28.6845505300066
 20
32.63391366733352
 30
3.703924722076185
 70
   192
  0
VERTEX
  5
1FC
330
1F8
100
AcDbEntity
  8
0
100
AcDbVertex
100
AcDbPolyFaceMeshVertex
 10
29.03416327026357
 20
33.12785579997061
 30
18.10164411457898
 70
   192
  0
VERTEX
  5
1FD
330
1F8
100
AcDbEntity
  8
0
100
AcDbFaceRecord
 10
0.0
 20
0.0
 30
0.0
 70
   128
 71
    -1
 72
     2
 73
     3
  0
VERTEX
  5
1FE
330
1F8
100
AcDbEntity
  8
0
100
AcDbFaceRecord
 10
0.0
 20
0.0
 30
0.0
 70
   128
 71
    -2
 72
     1
 73
     4
  0
SEQEND
  5
1FF
330
1F8
100
AcDbEntity
  8
0
  0
POLYLINE
  5
200
330
1F
100
AcDbEntity
  8
0
100
AcDbPolyFaceMesh
 66
     1
 10
0.0
 20
0.0
 30
0.0
 70
    64
 71
     4
 72
     2
  0
VERTEX
  5
201
330
200
100
AcDbEntity
  8
0
100
AcDbVertex
100
AcDbPolyFaceMeshVertex
 10
29.26257461316656
 20
33.55451827133516
 30
3.699341555690777
 70
   192
  0
VERTEX
  5
202
330
200
100
AcDbEntity
  8
0
100
AcDbVertex
100
AcDbPolyFaceMeshVertex
 10
29.03416327026357
 20
33.12785579997061
 30
18.10164411457898
 70
   192
  0
VERTEX
  5
203
330
200
100
AcDbEntity
  8
0
100
AcDbVertex
100
AcDbPolyFaceMeshVertex
 10
29.03416327026357
 20
33.05616728373861
 30
3.701822561634653
 70
   192
  0
VERTEX
  5
204
330
200
100
AcDbEntity
  8
0
100
AcDbVertex
100
AcDbPolyFaceMeshVertex
 10
29.26257461316656
 20
33.62620678756716
 30
18.0991631086351
 70
   192
  0
VERTEX
  5
205
330
200
100
AcDbEntity
  8
0
100
AcDbFaceRecord
 10
0.0
 20
0.0
 30
0.0
 70
   128
 71
    -1
 72
     2
 73
     3
  0
VERTEX
  5
206
330
200
100
AcDbEntity
  8
0
100
AcDbFaceRecord
 10
0.0
 20
0.0
 30
0.0
 70
   128
 71
    -2
 72
     1
 73
     4
  0
SEQEND
  5
207
330
200
100
AcDbEntity
  8
0
  0
POLYLINE
  5
208
330
1F
100
AcDbEntity
  8
0
100
AcDbPolyFaceMesh
 66
     1
 10
0.0
 20
0.0
 30
0.0
 70
    64
 71
     4
 72
     2
  0
VERTEX
  5
209
330
208
100
AcDbEntity
  8
0
100
AcDbVertex
100
AcDbPolyFaceMeshVertex
 10
29.35421870316434
 20
34.09500483388238
 30
3.696650780699577
 70
   192
  0
VERTEX
  5
20A
330
208
100
AcDbEntity
  8
0
100
AcDbVertex
100
AcDbPolyFaceMeshVertex
 10
29.26257461316656
 20
33.62620678756716
 30
18.0991631086351
 70
   192
  0
VERTEX
  5
20B
330
208
100
AcDbEntity
  8
0
100
AcDbVertex
100
AcDbPolyFaceMeshVertex
 10
29.26257461316656
 20
33.55451827133516
 30
3.699341555690777
 70
   192
  0
VERTEX
  5
20C
330
208
100
AcDbEntity
  8
0
100
AcDbVertex
100
AcDbPolyFaceMeshVertex
 10
29.35421870316434
 20
34.16669335011438
 30
18.0964723336439
 70
   192
  0
VERTEX
  5
20D
330
208
100
AcDbEntity
  8
0
100
AcDbFaceRecord
 10
0.0
 20
0.0
 30
0.0
 70
   128
 71
    -1
 72
     2
 73
     3
  0
VERTEX
  5
20E
330
208
100
AcDbEntity
  8
0
100
AcDbFaceRecord
 10
0.0
 20
0.0
 30
0.0
 70
   128
 71
    -2
 72
     1
 73
     4
  0
SEQEND
  5
20F
330
208
100
AcDbEntity
  8
0
  0
POLYLINE
  5
210
330
1F
100
AcDbEntity
  8
0
100
AcDbPolyFaceMesh
 66
     1
 10
0.0
 20
0.0
 30
0.0
 70
    64
 71
     4
 72
     2
  0
VERTEX
  5
211
330
210
100
AcDbEntity
  8
0
100
AcDbVertex
100
AcDbPolyFaceMeshVertex
 10
29.30285014697257
 20
34.64079370533897
 30
3.693933608529986
 70
   192
  0
VERTEX
  5
212
330
210
100
AcDbEntity
  8
0
100
AcDbVertex
100
AcDbPolyFaceMeshVertex
 10
29.35421870316434
 20
34.16669335011438
 30
18.0964723336439
 70
   192
  0
VERTEX
  5
213
330
210
100
AcDbEntity
  8
0
100
AcDbVertex
100
AcDbPolyFaceMeshVertex
 10
29.35421870316434
 20
34.09500483388238
 30
3.696650780699577
 70
   192
  0
VERTEX
  5
214
330
210
100
AcDbEntity
  8
0
100
AcDbVertex
100
AcDbPolyFaceMeshVertex
 10
29.30285014697257
 20
34.71248222157097
 30
18.09375516147431
 70
   192
  0
VERTEX
  5
215
330
210
100
AcDbEntity
  8
0
100
AcDbFaceRecord
 10
0.0
 20
0.0
 30
0.0
 70
   128
 71
    -1
 72
     2
 73
     3
  0
VERTEX
  5
216
330
210
100
AcDbEntity
  8
0
100
AcDbFaceRecord
 10
0.0
 20
0.0
 30
0.0
 70
   128
 71
    -2
 72
     1
 73
     4
  0
SEQEND
  5
217
330
210
100
AcDbEntity
  8
0
  0
POLYLINE
  5
218
330
1F
100
AcDbEntity
  8
0
100
AcDbPolyFaceMesh
 66
     1
 10
0.0
 20
0.0
 30
0.0
 70
    64
 71
     4
 72
     2
  0
VERTEX
  5
219
330
218
100
AcDbEntity
  8
0
100
AcDbVertex
100
AcDbPolyFaceMeshVertex
 10
29.11196962680516
 20
35.15469027607392
 30
3.691375209975025
 70
   192
  0
VERTEX
  5
21A
330
218
100
AcDbEntity
  8
0
100
AcDbVertex
100
AcDbPolyFaceMeshVertex
 10
29.30285014697257
 20
34.71248222157097
 30
18.09375516147431
 70
   192
  0
VERTEX
  5
21B
330
218
100
AcDbEntity
  8
0
100
AcDbVertex
100
AcDbPolyFaceMeshVertex
 10
29.30285014697257
 20
34.64079370533897
 30
3.693933608529986
 70
   192
  0
VERTEX
  5
21C
330
218
100
AcDbEntity
  8
0
100
AcDbVertex
100
AcDbPolyFaceMeshVertex
 10
29.11196962680516
 20
35.22637879230592
 30
18.09119676291935
 70
   192
  0
VERTEX
  5
21D
330
218
100
AcDbEntity
  8
0
100
AcDbFaceRecord
 10
0.0
 20
0.0
 30
0.0
 70
   128
 71
    -1
 72
     2
 73
     3
  0
VERTEX
  5
21E
330
218
100
AcDbEntity
  8
0
100
AcDbFaceRecord
 10
0.0
 20
0.0
 30
0.0
 70
   128
 71
    -2
 72
     1
 73
     4
  0
SEQEND
  5
21F
330
218
100
AcDbEntity
  8
0
  0
POLYLINE
  5
220
330
1F
100
AcDbEntity
  8
0
100
AcDbPolyFaceMesh
 66
     1
 10
0.0
 20
0.0
 30
0.0
 70
    64
 71
     4
 72
     2
  0
VERTEX
  5
221
330
220
100
AcDbEntity
  8
0
100
AcDbVertex
100
AcDbPolyFaceMeshVertex
 10
28.79458533466656
 20
35.60167334404589
 30
3.689149935668258
 70
   192
  0
VERTEX
  5
222
330
220
100
AcDbEntity
  8
0
100
AcDbVertex
100
AcDbPolyFaceMeshVertex
 10
29.11196962680516
 20
35.22637879230592
 30
18.09119676291935
 70
   192
  0
VERTEX
  5
223
330
220
100
AcDbEntity
  8
0
100
AcDbVertex
100
AcDbPolyFaceMeshVertex
 10
29.11196962680516
 20
35.15469027607392
 30
3.691375209975025
 70
   192
  0
VERTEX
  5
224
330
220
100
AcDbEntity
  8
0
100
AcDbVertex
100
AcDbPolyFaceMeshVertex
 10
28.79458533466656
 20
35.67336186027789
 30
18.08897148861259
 70
   192
  0
VERTEX
  5
225
330
220
100
AcDbEntity
  8
0
100
AcDbFaceRecord
 10
0.0
 20
0.0
 30
0.0
 70
   128
 71
    -1
 72
     2
 73
     3
  0
VERTEX
  5
226
330
220
100
AcDbEntity
  8
0
100
AcDbFaceRecord
 10
0.0
 20
0.0
 30
0.0
 70
   128
 71
    -2
 72
     1
 73
     4
  0
SEQEND
  5
227
330
220
100
AcDbEntity
  8
0
  0
POLYLINE
  5
228
330
1F
100
AcDbEntity
  8
0
100
AcDbPolyFaceMesh
 66
     1
 10
0.0
 20
0.0
 30
0.0
 70
    64
 71
     4
 72
     2
  0
VERTEX
  5
229
330
228
100
AcDbEntity
  8
0
100
AcDbVertex
100
AcDbPolyFaceMeshVertex
 10
28.37232648556367
 20
36.02297026807901
 30
18.08723098732058
 70
   192
  0
VERTEX
  5
22A
330
228
100
AcDbEntity
  8
0
100
AcDbVertex
100
AcDbPolyFaceMeshVertex
 10
28.79458533466656
 20
35.60167334404589
 30
3.689149935668258
 70
   192
  0
VERTEX
  5
22B
330
228
100
AcDbEntity
  8
0
100
AcDbVertex
100
AcDbPolyFaceMeshVertex
 10
28.37232648556367
 20
35.95128175184701
 30
3.687409434376254
 70
   192
  0
VERTEX
  5
22C
330
228
100
AcDbEntity
  8
0
100
AcDbVertex
100
AcDbPolyFaceMeshVertex
 10
28.79458533466656
 20
35.67336186027789
 30
18.08897148861259
 70
   192
  0
VERTEX
  5
22D
330
228
100
AcDbEntity
  8
0
100
AcDbFaceRecord
 10
0.0
 20
0.0
 30
0.0
 70
   128
 71
    -1
 72
     2
 73
     3
  0
VERTEX
  5
22E
330
228
100
AcDbEntity
  8
0
100
AcDbFaceRecord
 10
0.0
 20
0.0
 30
0.0
 70
   128
 71
    -2
 72
     1
 73
     4
  0
SEQEND
  5
22F
330
228
100
AcDbEntity
  8
0
  0
POLYLINE
  5
230
330
1F
100
AcDbEntity
  8
0
100
AcDbPolyFaceMesh
 66
     1
 10
0.0
 20
0.0
 30
0.0
 70
    64
 71
     4
 72
     2
  0
VERTEX
  5
231
330
230
100
AcDbEntity
  8
0
100
AcDbVertex
100
AcDbPolyFaceMeshVertex
 10
27.8739693222471
 20
36.25137878047287
 30
18.08609387133007
 70
   192
  0
VERTEX
  5
232
330
230
100
AcDbEntity
  8
0
100
AcDbVertex
100
AcDbPolyFaceMeshVertex
 10
28.37232648556367
 20
35.95128175184701
 30
3.687409434376254
 70
   192
  0
VERTEX
  5
233
330
230
100
AcDbEntity
  8
0
100
AcDbVertex
100
AcDbPolyFaceMeshVertex
 10
27.8739693222471
 20
36.17969026424087
 30
3.686272318385747
 70
   192
  0
VERTEX
  5
234
330
230
100
AcDbEntity
  8
0
100
AcDbVertex
100
AcDbPolyFaceMeshVertex
 10
28.37232648556367
 20
36.02297026807901
 30
18.08723098732058
 70
   192
  0
VERTEX
  5
235
330
230
100
AcDbEntity
  8
0
100
AcDbFaceRecord
 10
0.0
 20
0.0
 30
0.0
 70
   128
 71
    -1
 72
     2
 73
     3
  0
VERTEX
  5
236
330
230
100
AcDbEntity
  8
0
100
AcDbFaceRecord
 10
0.0
 20
0.0
 30
0.0
 70
   128
 71
    -2
 72
     1
 73
     4
  0
SEQEND
  5
237
330
230
100
AcDbEntity
  8
0
  0
POLYLINE
  5
238
330
1F
100
AcDbEntity
  8
0
100
AcDbPolyFaceMesh
 66
     1
 10
0.0
 20
0.0
 30
0.0
 70
    64
 71
     4
 72
     2
  0
VERTEX
  5
239
330
238
100
AcDbEntity
  8
0
100
AcDbVertex
100
AcDbPolyFaceMeshVertex
 10
27.33347606182272
 20
36.34302173480273
 30
18.08563763321665
 70
   192
  0
VERTEX
  5
23A
330
238
100
AcDbEntity
  8
0
100
AcDbVertex
100
AcDbPolyFaceMeshVertex
 10
27.8739693222471
 20
36.17969026424087
 30
3.686272318385747
 70
   192
  0
VERTEX
  5
23B
330
238
100
AcDbEntity
  8
0
100
AcDbVertex
100
AcDbPolyFaceMeshVertex
 10
27.33347606182272
 20
36.27133321857073
 30
3.685816080272317
 70
   192
  0
VERTEX
  5
23C
330
238
100
AcDbEntity
  8
0
100
AcDbVertex
100
AcDbPolyFaceMeshVertex
 10
27.8739693222471
 20
36.25137878047287
 30
18.08609387133007
 70
   192
  0
VERTEX
  5
23D
330
238
100
AcDbEntity
  8
0
100
AcDbFaceRecord
 10
0.0
 20
0.0
 30
0.0
 70
   128
 71
    -1
 72
     2
 73
     3
  0
VERTEX
  5
23E
330
238
100
AcDbEntity
  8
0
100
AcDbFaceRecord
 10
0.0
 20
0.0
 30
0.0
 70
   128
 71
    -2
 72
     1
 73
     4
  0
SEQEND
  5
23F
330
238
100
AcDbEntity
  8
0
  0
POLYLINE
  5
240
330
1F
100
AcDbEntity
  8
0
100
AcDbPolyFaceMesh
 66
     1
 10
0.0
 20
0.0
 30
0.0
 70
    64
 71
     4
 72
     2
  0
VERTEX
  5
241
330
240
100
AcDbEntity
  8
0
100
AcDbVertex
100
AcDbPolyFaceMeshVertex
 10
26.78768042678113
 20
36.21996529894615
 30
3.686071811909427
 70
   192
  0
VERTEX
  5
242
330
240
100
AcDbEntity
  8
0
100
AcDbVertex
100
AcDbPolyFaceMeshVertex
 10
27.33347606182272
 20
36.34302173480273
 30
18.08563763321665
 70
   192
  0
VERTEX
  5
243
330
240
100
AcDbEntity
  8
0
100
AcDbVertex
100
AcDbPolyFaceMeshVertex
 10
27.33347606182272
 20
36.27133321857073
 30
3.685816080272317
 70
   192
  0
VERTEX
  5
244
330
240
100
AcDbEntity
  8
0
100
AcDbVertex
100
AcDbPolyFaceMeshVertex
 10
26.78768042678113
 20
36.29165381517815
 30
18.08589336485376
 70
   192
  0
VERTEX
  5
245
330
240
100
AcDbEntity
  8
0
100
AcDbFaceRecord
 10
0.0
 20
0.0
 30
0.0
 70
   128
 71
    -1
 72
     2
 73
     3
  0
VERTEX
  5
246
330
240
100
AcDbEntity
  8
0
100
AcDbFaceRecord
 10
0.0
 20
0.0
 30
0.0
 70
   128
 71
    -2
 72
     1
 73
     4
  0
SEQEND
  5
247
330
240
100
AcDbEntity
  8
0
  0
POLYLINE
  5
248
330
1F
100
AcDbEntity
  8
0
100
AcDbPolyFaceMesh
 66
     1
 10
0.0
 20
0.0
 30
0.0
 70
    64
 71
     4
 72
     2
  0
VERTEX
  5
249
330
248
100
AcDbEntity
  8
0
100
AcDbVertex
100
AcDbPolyFaceMeshVertex
 10
26.27377748768045
 20
36.02908714420006
 30
3.687022085608622
 70
   192
  0
VERTEX
  5
24A
330
248
100
AcDbEntity
  8
0
100
AcDbVertex
100
AcDbPolyFaceMeshVertex
 10
26.78768042678113
 20
36.29165381517815
 30
18.08589336485376
 70
   192
  0
VERTEX
  5
24B
330
248
100
AcDbEntity
  8
0
100
AcDbVertex
100
AcDbPolyFaceMeshVertex
 10
26.78768042678113
 20
36.21996529894615
 30
3.686071811909427
 70
   192
  0
VERTEX
  5
24C
330
248
100
AcDbEntity
  8
0
100
AcDbVertex
100
AcDbPolyFaceMeshVertex
 10
26.27377748768045
 20
36.10077566043206
 30
18.08684363855295
 70
   192
  0
VERTEX
  5
24D
330
248
100
AcDbEntity
  8
0
100
AcDbFaceRecord
 10
0.0
 20
0.0
 30
0.0
 70
   128
 71
    -1
 72
     2
 73
     3
  0
VERTEX
  5
24E
330
248
100
AcDbEntity
  8
0
100
AcDbFaceRecord
 10
0.0
 20
0.0
 30
0.0
 70
   128
 71
    -2
 72
     1
 73
     4
  0
SEQEND
  5
24F
330
248
100
AcDbEntity
  8
0
  0
POLYLINE
  5
250
330
1F
100
AcDbEntity
  8
0
100
AcDbPolyFaceMesh
 66
     1
 10
0.0
 20
0.0
 30
0.0
 70
    64
 71
     4
 72
     2
  0
VERTEX
  5
251
330
250
100
AcDbEntity
  8
0
100
AcDbVertex
100
AcDbPolyFaceMeshVertex
 10
25.82678888055565
 20
35.71170678513732
 30
3.688602141787705
 70
   192
  0
VERTEX
  5
252
330
250
100
AcDbEntity
  8
0
100
AcDbVertex
100
AcDbPolyFaceMeshVertex
 10
26.27377748768045
 20
36.10077566043206
 30
18.08684363855295
 70
   192
  0
VERTEX
  5
253
330
250
100
AcDbEntity
  8
0
100
AcDbVertex
100
AcDbPolyFaceMeshVertex
 10
26.27377748768045
 20
36.02908714420006
 30
3.687022085608622
 70
   192
  0
VERTEX
  5
254
330
250
100
AcDbEntity
  8
0
100
AcDbVertex
100
AcDbPolyFaceMeshVertex
 10
25.82678888055565
 20
35.78339530136932
 30
18.08842369473203
 70
   192
  0
VERTEX
  5
255
330
250
100
AcDbEntity
  8
0
100
AcDbFaceRecord
 10
0.0
 20
0.0
 30
0.0
 70
   128
 71
    -1
 72
     2
 73
     3
  0
VERTEX
  5
256
330
250
100
AcDbEntity
  8
0
100
AcDbFaceRecord
 10
0.0
 20
0.0
 30
0.0
 70
   128
 71
    -2
 72
     1
 73
     4
  0
SEQEND
  5
257
330
250
100
AcDbEntity
  8
0
  0
POLYLINE
  5
258
330
1F
100
AcDbEntity
  8
0
100
AcDbPolyFaceMesh
 66
     1
 10
0.0
 20
0.0
 30
0.0
 70
    64
 71
     4
 72
     2
  0
VERTEX
  5
259
330
258
100
AcDbEntity
  8
0
100
AcDbVertex
100
AcDbPolyFaceMeshVertex
 10
25.47717614029868
 20
35.36114168496422
 30
18.09052585517357
 70
   192
  0
VERTEX
  5
25A
330
258
100
AcDbEntity
  8
0
100
AcDbVertex
100
AcDbPolyFaceMeshVertex
 10
25.82678888055565
 20
35.71170678513732
 30
3.688602141787705
 70
   192
  0
VERTEX
  5
25B
330
258
100
AcDbEntity
  8
0
100
AcDbVertex
100
AcDbPolyFaceMeshVertex
 10
25.47717614029868
 20
35.28945316873222
 30
3.690704302229238
 70
   192
  0
VERTEX
  5
25C
330
258
100
AcDbEntity
  8
0
100
AcDbVertex
100
AcDbPolyFaceMeshVertex
 10
25.82678888055565
 20
35.78339530136932
 30
18.08842369473203
 70
   192
  0
VERTEX
  5
25D
330
258
100
AcDbEntity
  8
0
100
AcDbFaceRecord
 10
0.0
 20
0.0
 30
0.0
 70
   128
 71
    -1
 72
     2
 73
     3
  0
VERTEX
  5
25E
330
258
100
AcDbEntity
  8
0
100
AcDbFaceRecord
 10
0.0
 20
0.0
 30
0.0
 70
   128
 71
    -2
 72
     1
 73
     4
  0
SEQEND
  5
25F
330
258
100
AcDbEntity
  8
0
  0
POLYLINE
  5
260
330
1F
100
AcDbEntity
  8
0
100
AcDbPolyFaceMesh
 66
     1
 10
0.0
 20
0.0
 30
0.0
 70
    64
 71
     4
 72
     2
  0
VERTEX
  5
261
330
260
100
AcDbEntity
  8
0
100
AcDbVertex
100
AcDbPolyFaceMeshVertex
 10
25.24876479739569
 20
34.86279069736769
 30
18.09300686111744
 70
   192
  0
VERTEX
  5
262
330
260
100
AcDbEntity
  8
0
100
AcDbVertex
100
AcDbPolyFaceMeshVertex
 10
25.47717614029868
 20
35.28945316873222
 30
3.690704302229238
 70
   192
  0
VERTEX
  5
263
330
260
100
AcDbEntity
  8
0
100
AcDbVertex
100
AcDbPolyFaceMeshVertex
 10
25.24876479739569
 20
34.79110218113568
 30
3.693185308173113
 70
   192
  0
VERTEX
  5
264
330
260
100
AcDbEntity
  8
0
100
AcDbVertex
100
AcDbPolyFaceMeshVertex
 10
25.47717614029868
 20
35.36114168496422
 30
18.09052585517357
 70
   192
  0
VERTEX
  5
265
330
260
100
AcDbEntity
  8
0
100
AcDbFaceRecord
 10
0.0
 20
0.0
 30
0.0
 70
   128
 71
    -1
 72
     2
 73
     3
  0
VERTEX
  5
266
330
260
100
AcDbEntity
  8
0
100
AcDbFaceRecord
 10
0.0
 20
0.0
 30
0.0
 70
   128
 71
    -2
 72
     1
 73
     4
  0
SEQEND
  5
267
330
260
100
AcDbEntity
  8
0
  0
POLYLINE
  5
268
330
1F
100
AcDbEntity
  8
0
100
AcDbPolyFaceMesh
 66
     1
 10
0.0
 20
0.0
 30
0.0
 70
    64
 71
     4
 72
     2
  0
VERTEX
  5
269
330
268
100
AcDbEntity
  8
0
100
AcDbVertex
100
AcDbPolyFaceMeshVertex
 10
25.15712070739791
 20
34.32230413482046
 30
18.09569763610864
 70
   192
  0
VERTEX
  5
26A
330
268
100
AcDbEntity
  8
0
100
AcDbVertex
100
AcDbPolyFaceMeshVertex
 10
25.24876479739569
 20
34.79110218113568
 30
3.693185308173113
 70
   192
  0
VERTEX
  5
26B
330
268
100
AcDbEntity
  8
0
100
AcDbVertex
100
AcDbPolyFaceMeshVertex
 10
25.15712070739791
 20
34.25061561858846
 30
3.695876083164314
 70
   192
  0
VERTEX
  5
26C
330
268
100
AcDbEntity
  8
0
100
AcDbVertex
100
AcDbPolyFaceMeshVertex
 10
25.24876479739569
 20
34.86279069736769
 30
18.09300686111744
 70
   192
  0
VERTEX
  5
26D
330
268
100
AcDbEntity
  8
0
100
AcDbFaceRecord
 10
0.0
 20
0.0
 30
0.0
 70
   128
 71
    -1
 72
     2
 73
     3
  0
VERTEX
  5
26E
330
268
100
AcDbEntity
  8
0
100
AcDbFaceRecord
 10
0.0
 20
0.0
 30
0.0
 70
   128
 71
    -2
 72
     1
 73
     4
  0
SEQEND
  5
26F
330
268
100
AcDbEntity
  8
0
  0
POLYLINE
  5
270
330
1F
100
AcDbEntity
  8
0
100
AcDbPolyFaceMesh
 66
     1
 10
0.0
 20
0.0
 30
0.0
 70
    64
 71
     4
 72
     2
  0
VERTEX
  5
271
330
270
100
AcDbEntity
  8
0
100
AcDbVertex
100
AcDbPolyFaceMeshVertex
 10
25.20848926358968
 20
33.77651526336387
 30
18.09841480827823
 70
   192
  0
VERTEX
  5
272
330
270
100
AcDbEntity
  8
0
100
AcDbVertex
100
AcDbPolyFaceMeshVertex
 10
25.15712070739791
 20
34.25061561858846
 30
3.695876083164314
 70
   192
  0
VERTEX
  5
273
330
270
100
AcDbEntity
  8
0
100
AcDbVertex
100
AcDbPolyFaceMeshVertex
 10
25.20848926358968
 20
33.70482674713187
 30
3.698593255333904
 70
   192
  0
VERTEX
  5
274
330
270
100
AcDbEntity
  8
0
100
AcDbVertex
100
AcDbPolyFaceMeshVertex
 10
25.15712070739791
 20
34.32230413482046
 30
18.09569763610864
 70
   192
  0
VERTEX
  5
275
330
270
100
AcDbEntity
  8
0
100
AcDbFaceRecord
 10
0.0
 20
0.0
 30
0.0
 70
   128
 71
    -1
 72
     2
 73
     3
  0
VERTEX
  5
276
330
270
100
AcDbEntity
  8
0
100
AcDbFaceRecord
 10
0.0
 20
0.0
 30
0.0
 70
   128
 71
    -2
 72
     1
 73
     4
  0
SEQEND
  5
277
330
270
100
AcDbEntity
  8
0
  0
POLYLINE
  5
278
330
1F
100
AcDbEntity
  8
0
100
AcDbPolyFaceMesh
 66
     1
 10
0.0
 20
0.0
 30
0.0
 70
    64
 71
     4
 72
     2
  0
VERTEX
  5
279
330
278
100
AcDbEntity
  8
0
100
AcDbVertex
100
AcDbPolyFaceMeshVertex
 10
25.39936978375708
 20
33.26261869262891
 30
18.10097320683319
 70
   192
  0
VERTEX
  5
27A
330
278
100
AcDbEntity
  8
0
100
AcDbVertex
100
AcDbPolyFaceMeshVertex
 10
25.20848926358968
 20
33.70482674713187
 30
3.698593255333904
 70
   192
  0
VERTEX
  5
27B
330
278
100
AcDbEntity
  8
0
100
AcDbVertex
100
AcDbPolyFaceMeshVertex
 10
25.39936978375708
 20
33.19093017639691
 30
3.701151653888865
 70
   192
  0
VERTEX
  5
27C
330
278
100
AcDbEntity
  8
0
100
AcDbVertex
100
AcDbPolyFaceMeshVertex
 10
25.20848926358968
 20
33.77651526336387
 30
18.09841480827823
 70
   192
  0
VERTEX
  5
27D
330
278
100
AcDbEntity
  8
0
100
AcDbFaceRecord
 10
0.0
 20
0.0
 30
0.0
 70
   128
 71
    -1
 72
     2
 73
     3
  0
VERTEX
  5
27E
330
278
100
AcDbEntity
  8
0
100
AcDbFaceRecord
 10
0.0
 20
0.0
 30
0.0
 70
   128
 71
    -2
 72
     1
 73
     4
  0
SEQEND
  5
27F
330
278
100
AcDbEntity
  8
0
  0
POLYLINE
  5
280
330
1F
100
AcDbEntity
  8
0
100
AcDbPolyFaceMesh
 66
     1
 10
0.0
 20
0.0
 30
0.0
 70
    64
 71
     4
 72
     2
  0
VERTEX
  5
281
330
280
100
AcDbEntity
  8
0
100
AcDbVertex
100
AcDbPolyFaceMeshVertex
 10
25.71675407589569
 20
32.81563562465696
 30
18.10319848113996
 70
   192
  0
VERTEX
  5
282
330
280
100
AcDbEntity
  8
0
100
AcDbVertex
100
AcDbPolyFaceMeshVertex
 10
25.39936978375708
 20
33.19093017639691
 30
3.701151653888865
 70
   192
  0
VERTEX
  5
283
330
280
100
AcDbEntity
  8
0
100
AcDbVertex
100
AcDbPolyFaceMeshVertex
 10
25.71675407589569
 20
32.74394710842495
 30
3.703376928195632
 70
   192
  0
VERTEX
  5
284
330
280
100
AcDbEntity
  8
0
100
AcDbVertex
100
AcDbPolyFaceMeshVertex
 10
25.39936978375708
 20
33.26261869262891
 30
18.10097320683319
 70
   192
  0
VERTEX
  5
285
330
280
100
AcDbEntity
  8
0
100
AcDbFaceRecord
 10
0.0
 20
0.0
 30
0.0
 70
   128
 71
    -1
 72
     2
 73
     3
  0
VERTEX
  5
286
330
280
100
AcDbEntity
  8
0
100
AcDbFaceRecord
 10
0.0
 20
0.0
 30
0.0
 70
   128
 71
    -2
 72
     1
 73
     4
  0
SEQEND
  5
287
330
280
100
AcDbEntity
  8
0
  0
POLYLINE
  5
288
330
1F
100
AcDbEntity
  8
0
100
AcDbPolyFaceMesh
 66
     1
 10
0.0
 20
0.0
 30
0.0
 70
    64
 71
     4
 72
     2
  0
VERTEX
  5
289
330
288
100
AcDbEntity
  8
0
100
AcDbVertex
100
AcDbPolyFaceMeshVertex
 10
26.13901292499858
 20
32.39433870062383
 30
3.705117429487637
 70
   192
  0
VERTEX
  5
28A
330
288
100
AcDbEntity
  8
0
100
AcDbVertex
100
AcDbPolyFaceMeshVertex
 10
25.71675407589569
 20
32.81563562465696
 30
18.10319848113996
 70
   192
  0
VERTEX
  5
28B
330
288
100
AcDbEntity
  8
0
100
AcDbVertex
100
AcDbPolyFaceMeshVertex
 10
25.71675407589569
 20
32.74394710842495
 30
3.703376928195632
 70
   192
  0
VERTEX
  5
28C
330
288
100
AcDbEntity
  8
0
100
AcDbVertex
100
AcDbPolyFaceMeshVertex
 10
26.13901292499858
 20
32.46602721685583
 30
18.10493898243196
 70
   192
  0
VERTEX
  5
28D
330
288
100
AcDbEntity
  8
0
100
AcDbFaceRecord
 10
0.0
 20
0.0
 30
0.0
 70
   128
 71
    -1
 72
     2
 73
     3
  0
VERTEX
  5
28E
330
288
100
AcDbEntity
  8
0
100
AcDbFaceRecord
 10
0.0
 20
0.0
 30
0.0
 70
   128
 71
    -2
 72
     1
 73
     4
  0
SEQEND
  5
28F
330
288
100
AcDbEntity
  8
0
  0
POLYLINE
  5
290
330
1F
100
AcDbEntity
  8
0
100
AcDbPolyFaceMesh
 66
     1
 10
0.0
 20
0.0
 30
0.0
 70
    64
 71
     4
 72
     2
  0
VERTEX
  5
291
330
290
100
AcDbEntity
  8
0
100
AcDbVertex
100
AcDbPolyFaceMeshVertex
 10
26.63737008831515
 20
32.16593018822996
 30
3.706254545478143
 70
   192
  0
VERTEX
  5
292
330
290
100
AcDbEntity
  8
0
100
AcDbVertex
100
AcDbPolyFaceMeshVertex
 10
26.13901292499858
 20
32.46602721685583
 30
18.10493898243196
 70
   192
  0
VERTEX
  5
293
330
290
100
AcDbEntity
  8
0
100
AcDbVertex
100
AcDbPolyFaceMeshVertex
 10
26.13901292499858
 20
32.39433870062383
 30
3.705117429487637
 70
   192
  0
VERTEX
  5
294
330
290
100
AcDbEntity
  8
0
100
AcDbVertex
100
AcDbPolyFaceMeshVertex
 10
26.63737008831515
 20
32.23761870446197
 30
18.10607609842247
 70
   192
  0
VERTEX
  5
295
330
290
100
AcDbEntity
  8
0
100
AcDbFaceRecord
 10
0.0
 20
0.0
 30
0.0
 70
   128
 71
    -1
 72
     2
 73
     3
  0
VERTEX
  5
296
330
290
100
AcDbEntity
  8
0
100
AcDbFaceRecord
 10
0.0
 20
0.0
 30
0.0
 70
   128
 71
    -2
 72
     1
 73
     4
  0
SEQEND
  5
297
330
290
100
AcDbEntity
  8
0
  0
POLYLINE
  5
298
330
1F
100
AcDbEntity
  8
0
100
AcDbPolyFaceMesh
 66
     1
 10
0.0
 20
0.0
 30
0.0
 70
    64
 71
     4
 72
     2
  0
VERTEX
  5
299
330
298
100
AcDbEntity
  8
0
100
AcDbVertex
100
AcDbPolyFaceMeshVertex
 10
27.17786334873952
 20
32.07428723390011
 30
3.706710783591573
 70
   192
  0
VERTEX
  5
29A
330
298
100
AcDbEntity
  8
0
100
AcDbVertex
100
AcDbPolyFaceMeshVertex
 10
26.63737008831515
 20
32.23761870446197
 30
18.10607609842247
 70
   192
  0
VERTEX
  5
29B
330
298
100
AcDbEntity
  8
0
100
AcDbVertex
100
AcDbPolyFaceMeshVertex
 10
26.63737008831515
 20
32.16593018822996
 30
3.706254545478143
 70
   192
  0
VERTEX
  5
29C
330
298
100
AcDbEntity
  8
0
100
AcDbVertex
100
AcDbPolyFaceMeshVertex
 10
27.17786334873952
 20
32.14597575013211
 30
18.1065323365359
 70
   192
  0
VERTEX
  5
29D
330
298
100
AcDbEntity
  8
0
100
AcDbFaceRecord
 10
0.0
 20
0.0
 30
0.0
 70
   128
 71
    -1
 72
     2
 73
     3
  0
VERTEX
  5
29E
330
298
100
AcDbEntity
  8
0
100
AcDbFaceRecord
 10
0.0
 20
0.0
 30
0.0
 70
   128
 71
    -2
 72
     1
 73
     4
  0
SEQEND
  5
29F
330
298
100
AcDbEntity
  8
0
  0
POLYLINE
  5
2A0
330
1F
100
AcDbEntity
  8
0
100
AcDbPolyFaceMesh
 66
     1
 10
0.0
 20
0.0
 30
0.0
 70
    64
 71
     4
 72
     2
  0
VERTEX
  5
2A1
330
2A0
100
AcDbEntity
  8
0
100
AcDbVertex
100
AcDbPolyFaceMeshVertex
 10
27.72365898378112
 20
32.19734366975668
 30
18.10627660489879
 70
   192
  0
VERTEX
  5
2A2
330
2A0
100
AcDbEntity
  8
0
100
AcDbVertex
100
AcDbPolyFaceMeshVertex
 10
27.17786334873952
 20
32.07428723390011
 30
3.706710783591573
 70
   192
  0
VERTEX
  5
2A3
330
2A0
100
AcDbEntity
  8
0
100
AcDbVertex
100
AcDbPolyFaceMeshVertex
 10
27.72365898378112
 20
32.12565515352468
 30
3.706455051954464
 70
   192
  0
VERTEX
  5
2A4
330
2A0
100
AcDbEntity
  8
0
100
AcDbVertex
100
AcDbPolyFaceMeshVertex
 10
27.17786334873952
 20
32.14597575013211
 30
18.1065323365359
 70
   192
  0
VERTEX
  5
2A5
330
2A0
100
AcDbEntity
  8
0
100
AcDbFaceRecord
 10
0.0
 20
0.0
 30
0.0
 70
   128
 71
    -1
 72
     2
 73
     3
  0
VERTEX
  5
2A6
330
2A0
100
AcDbEntity
  8
0
100
AcDbFaceRecord
 10
0.0
 20
0.0
 30
0.0
 70
   128
 71
    -2
 72
     1
 73
     4
  0
SEQEND
  5
2A7
330
2A0
100
AcDbEntity
  8
0
  0
POLYLINE
  5
2A8
330
1F
100
AcDbEntity
  8
0
100
AcDbPolyFaceMesh
 66
     1
 10
0.0
 20
0.0
 30
0.0
 70
    64
 71
     4
 72
     2
  0
VERTEX
  5
2A9
330
2A8
100
AcDbEntity
  8
0
100
AcDbVertex
100
AcDbPolyFaceMeshVertex
 10
28.2375619228818
 20
32.38822182450279
 30
18.1053263311996
 70
   192
  0
VERTEX
  5
2AA
330
2A8
100
AcDbEntity
  8
0
100
AcDbVertex
100
AcDbPolyFaceMeshVertex
 10
27.72365898378112
 20
32.12565515352468
 30
3.706455051954464
 70
   192
  0
VERTEX
  5
2AB
330
2A8
100
AcDbEntity
  8
0
100
AcDbVertex
100
AcDbPolyFaceMeshVertex
 10
28.2375619228818
 20
32.31653330827078
 30
3.705504778255268
 70
   192
  0
VERTEX
  5
2AC
330
2A8
100
AcDbEntity
  8
0
100
AcDbVertex
100
AcDbPolyFaceMeshVertex
 10
27.72365898378112
 20
32.19734366975668
 30
18.10627660489879
 70
   192
  0
VERTEX
  5
2AD
330
2A8
100
AcDbEntity
  8
0
100
AcDbFaceRecord
 10
0.0
 20
0.0
 30
0.0
 70
   128
 71
    -1
 72
     2
 73
     3
  0
VERTEX
  5
2AE
330
2A8
100
AcDbEntity
  8
0
100
AcDbFaceRecord
 10
0.0
 20
0.0
 30
0.0
 70
   128
 71
    -2
 72
     1
 73
     4
  0
SEQEND
  5
2AF
330
2A8
100
AcDbEntity
  8
0
  0
POLYLINE
  5
2B0
330
1F
100
AcDbEntity
  8
0
100
AcDbPolyFaceMesh
 66
     1
 10
0.0
 20
0.0
 30
0.0
 70
    64
 71
    24
 72
    22
  0
VERTEX
  5
2B1
330
2B0
100
AcDbEntity
  8
0
100
AcDbVertex
100
AcDbPolyFaceMeshVertex
 10
26.28974387899206
 20
33.94834513582016
 30
10.59746642280915
 70
   192
  0
VERTEX
  5
2B2
330
2B0
100
AcDbEntity
  8
0
100
AcDbVertex
100
AcDbPolyFaceMeshVertex
 10
26.28974387899206
 20
34.4659768113729
 30
10.59488942929304
 70
   192
  0
VERTEX
  5
2B3
330
2B0
100
AcDbEntity
  8
0
100
AcDbVertex
100
AcDbPolyFaceMeshVertex
 10
26.25566970528113
 20
34.20716097359653
 30
10.5961779260511
 70
   192
  0
VERTEX
  5
2B4
330
2B0
100
AcDbEntity
  8
0
100
AcDbVertex
100
AcDbPolyFaceMeshVertex
 10
26.38964430149669
 20
33.70716716967485
 30
10.59866711064249
 70
   192
  0
VERTEX
  5
2B5
330
2B0
100
AcDbEntity
  8
0
100
AcDbVertex
100
AcDbPolyFaceMeshVertex
 10
26.38964430149669
 20
34.70715477751821
 30
10.5936887414597
 70
   192
  0
VERTEX
  5
2B6
330
2B0
100
AcDbEntity
  8
0
100
AcDbVertex
100
AcDbPolyFaceMeshVertex
 10
26.54856292409458
 20
33.50006295498798
 30
10.59969816465949
 70
   192
  0
VERTEX
  5
2B7
330
2B0
100
AcDbEntity
  8
0
100
AcDbVertex
100
AcDbPolyFaceMeshVertex
 10
26.54856292409458
 20
34.91425899220508
 30
10.5926576874427
 70
   192
  0
VERTEX
  5
2B8
330
2B0
100
AcDbEntity
  8
0
100
AcDbVertex
100
AcDbPolyFaceMeshVertex
 10
26.75566970528113
 20
35.07317564545851
 30
10.59186653186939
 70
   192
  0
VERTEX
  5
2B9
330
2B0
100
AcDbEntity
  8
0
100
AcDbVertex
100
AcDbPolyFaceMeshVertex
 10
26.75566970528113
 20
33.34114630173455
 30
10.60048932023281
 70
   192
  0
VERTEX
  5
2BA
330
2B0
100
AcDbEntity
  8
0
100
AcDbVertex
100
AcDbPolyFaceMeshVertex
 10
26.9968506601786
 20
33.24124711721161
 30
10.60098666141755
 70
   192
  0
VERTEX
  5
2BB
330
2B0
100
AcDbEntity
  8
0
100
AcDbVertex
100
AcDbPolyFaceMeshVertex
 10
26.9968506601786
 20
35.17307482998145
 30
10.59136919068464
 70
   192
  0
VERTEX
  5
2BC
330
2B0
100
AcDbEntity
  8
0
100
AcDbVertex
100
AcDbPolyFaceMeshVertex
 10
27.25566970528113
 20
33.20717336575317
 30
10.60115629523388
 70
   192
  0
VERTEX
  5
2BD
330
2B0
100
AcDbEntity
  8
0
100
AcDbVertex
100
AcDbPolyFaceMeshVertex
 10
27.25566970528113
 20
35.20714858143989
 30
10.59119955686831
 70
   192
  0
VERTEX
  5
2BE
330
2B0
100
AcDbEntity
  8
0
100
AcDbVertex
100
AcDbPolyFaceMeshVertex
 10
27.51448875038365
 20
33.24124711721161
 30
10.60098666141755
 70
   192
  0
VERTEX
  5
2BF
330
2B0
100
AcDbEntity
  8
0
100
AcDbVertex
100
AcDbPolyFaceMeshVertex
 10
27.51448875038364
 20
35.17307482998145
 30
10.59136919068464
 70
   192
  0
VERTEX
  5
2C0
330
2B0
100
AcDbEntity
  8
0
100
AcDbVertex
100
AcDbPolyFaceMeshVertex
 10
27.75566970528113
 20
35.07317564545851
 30
10.59186653186939
 70
   192
  0
VERTEX
  5
2C1
330
2B0
100
AcDbEntity
  8
0
100
AcDbVertex
100
AcDbPolyFaceMeshVertex
 10
27.75566970528113
 20
33.34114630173455
 30
10.60048932023281
 70
   192
  0
VERTEX
  5
2C2
330
2B0
100
AcDbEntity
  8
0
100
AcDbVertex
100
AcDbPolyFaceMeshVertex
 10
27.96277648646767
 20
33.50006295498798
 30
10.59969816465949
 70
   192
  0
VERTEX
  5
2C3
330
2B0
100
AcDbEntity
  8
0
100
AcDbVertex
100
AcDbPolyFaceMeshVertex
 10
27.96277648646767
 20
34.91425899220508
 30
10.5926576874427
 70
   192
  0
VERTEX
  5
2C4
330
2B0
100
AcDbEntity
  8
0
100
AcDbVertex
100
AcDbPolyFaceMeshVertex
 10
28.12169510906556
 20
33.70716716967485
 30
10.59866711064249
 70
   192
  0
VERTEX
  5
2C5
330
2B0
100
AcDbEntity
  8
0
100
AcDbVertex
100
AcDbPolyFaceMeshVertex
 10
28.12169510906556
 20
34.70715477751821
 30
10.5936887414597
 70
   192
  0
VERTEX
  5
2C6
330
2B0
100
AcDbEntity
  8
0
100
AcDbVertex
100
AcDbPolyFaceMeshVertex
 10
28.22159553157019
 20
33.94834513582016
 30
10.59746642280915
 70
   192
  0
VERTEX
  5
2C7
330
2B0
100
AcDbEntity
  8
0
100
AcDbVertex
100
AcDbPolyFaceMeshVertex
 10
28.22159553157019
 20
34.4659768113729
 30
10.59488942929304
 70
   192
  0
VERTEX
  5
2C8
330
2B0
100
AcDbEntity
  8
0
100
AcDbVertex
100
AcDbPolyFaceMeshVertex
 10
28.25566970528112
 20
34.20716097359653
 30
10.5961779260511
 70
   192
  0
VERTEX
  5
2C9
330
2B0
100
AcDbEntity
  8
0
100
AcDbFaceRecord
 10
0.0
 20
0.0
 30
0.0
 70
   128
 71
    -1
 72
     2
 73
     3
  0
VERTEX
  5
2CA
330
2B0
100
AcDbEntity
  8
0
100
AcDbFaceRecord
 10
0.0
 20
0.0
 30
0.0
 70
   128
 71
    -2
 72
     1
 73
    -4
  0
VERTEX
  5
2CB
330
2B0
100
AcDbEntity
  8
0
100
AcDbFaceRecord
 10
0.0
 20
0.0
 30
0.0
 70
   128
 71
    -2
 72
    -4
 73
     5
  0
VERTEX
  5
2CC
330
2B0
100
AcDbEntity
  8
0
100
AcDbFaceRecord
 10
0.0
 20
0.0
 30
0.0
 70
   128
 71
    -5
 72
     4
 73
    -6
  0
VERTEX
  5
2CD
330
2B0
100
AcDbEntity
  8
0
100
AcDbFaceRecord
 10
0.0
 20
0.0
 30
0.0
 70
   128
 71
    -5
 72
    -6
 73
     7
  0
VERTEX
  5
2CE
330
2B0
100
AcDbEntity
  8
0
100
AcDbFaceRecord
 10
0.0
 20
0.0
 30
0.0
 70
   128
 71
    -7
 72
    -6
 73
     8
  0
VERTEX
  5
2CF
330
2B0
100
AcDbEntity
  8
0
100
AcDbFaceRecord
 10
0.0
 20
0.0
 30
0.0
 70
   128
 71
    -8
 72
     6
 73
    -9
  0
VERTEX
  5
2D0
330
2B0
100
AcDbEntity
  8
0
100
AcDbFaceRecord
 10
0.0
 20
0.0
 30
0.0
 70
   128
 71
    -8
 72
     9
 73
   -10
  0
VERTEX
  5
2D1
330
2B0
100
AcDbEntity
  8
0
100
AcDbFaceRecord
 10
0.0
 20
0.0
 30
0.0
 70
   128
 71
    -8
 72
   -10
 73
    11
  0
VERTEX
  5
2D2
330
2B0
100
AcDbEntity
  8
0
100
AcDbFaceRecord
 10
0.0
 20
0.0
 30
0.0
 70
   128
 71
   -11
 72
    10
 73
   -12
  0
VERTEX
  5
2D3
330
2B0
100
AcDbEntity
  8
0
100
AcDbFaceRecord
 10
0.0
 20
0.0
 30
0.0
 70
   128
 71
   -11
 72
   -12
 73
    13
  0
VERTEX
  5
2D4
330
2B0
100
AcDbEntity
  8
0
100
AcDbFaceRecord
 10
0.0
 20
0.0
 30
0.0
 70
   128
 71
   -13
 72
    12
 73
   -14
  0
VERTEX
  5
2D5
330
2B0
100
AcDbEntity
  8
0
100
AcDbFaceRecord
 10
0.0
 20
0.0
 30
0.0
 70
   128
 71
   -13
 72
   -14
 73
    15
  0
VERTEX
  5
2D6
330
2B0
100
AcDbEntity
  8
0
100
AcDbFaceRecord
 10
0.0
 20
0.0
 30
0.0
 70
   128
 71
   -15
 72
   -14
 73
    16
  0
VERTEX
  5
2D7
330
2B0
100
AcDbEntity
  8
0
100
AcDbFaceRecord
 10
0.0
 20
0.0
 30
0.0
 70
   128
 71
   -16
 72
    14
 73
   -17
  0
VERTEX
  5
2D8
330
2B0
100
AcDbEntity
  8
0
100
AcDbFaceRecord
 10
0.0
 20
0.0
 30
0.0
 70
   128
 71
   -16
 72
    17
 73
   -18
  0
VERTEX
  5
2D9
330
2B0
100
AcDbEntity
  8
0
100
AcDbFaceRecord
 10
0.0
 20
0.0
 30
0.0
 70
   128
 71
   -16
 72
   -18
 73
    19
  0
VERTEX
  5
2DA
330
2B0
100
AcDbEntity
  8
0
100
AcDbFaceRecord
 10
0.0
 20
0.0
 30
0.0
 70
   128
 71
   -19
 72
    18
 73
   -20
  0
VERTEX
  5
2DB
330
2B0
100
AcDbEntity
  8
0
100
AcDbFaceRecord
 10
0.0
 20
0.0
 30
0.0
 70
   128
 71
   -19
 72
   -20
 73
    21
  0
VERTEX
  5
2DC
330
2B0
100
AcDbEntity
  8
0
100
AcDbFaceRecord
 10
0.0
 20
0.0
 30
0.0
 70
   128
 71
   -21
 72
    20
 73
   -22
  0
VERTEX
  5
2DD
330
2B0
100
AcDbEntity
  8
0
100
AcDbFaceRecord
 10
0.0
 20
0.0
 30
0.0
 70
   128
 71
   -21
 72
   -22
 73
    23
  0
VERTEX
  5
2DE
330
2B0
100
AcDbEntity
  8
0
100
AcDbFaceRecord
 10
0.0
 20
0.0
 30
0.0
 70
   128
 71
   -23
 72
    22
 73
    24
  0
SEQEND
  5
2DF
330
2B0
100
AcDbEntity
  8
0
  0
POLYLINE
  5
2E0
330
1F
100
AcDbEntity
  8
0
100
AcDbPolyFaceMesh
 66
     1
 10
0.0
 20
0.0
 30
0.0
 70
    64
 71
     4
 72
     2
  0
VERTEX
  5
2E1
330
2E0
100
AcDbEntity
  8
0
100
AcDbVertex
100
AcDbPolyFaceMeshVertex
 10
28.22159553157019
 20
34.50331458024379
 30
18.09479648811822
 70
   192
  0
VERTEX
  5
2E2
330
2E0
100
AcDbEntity
  8
0
100
AcDbVertex
100
AcDbPolyFaceMeshVertex
 10
28.12169510906556
 20
34.70715477751821
 30
10.5936887414597
 70
   192
  0
VERTEX
  5
2E3
330
2E0
100
AcDbEntity
  8
0
100
AcDbVertex
100
AcDbPolyFaceMeshVertex
 10
28.22159553157019
 20
34.4659768113729
 30
10.59488942929304
 70
   192
  0
VERTEX
  5
2E4
330
2E0
100
AcDbEntity
  8
0
100
AcDbVertex
100
AcDbPolyFaceMeshVertex
 10
28.12169510906556
 20
34.7444925463891
 30
18.09359580028488
 70
   192
  0
VERTEX
  5
2E5
330
2E0
100
AcDbEntity
  8
0
100
AcDbFaceRecord
 10
0.0
 20
0.0
 30
0.0
 70
   128
 71
    -1
 72
     2
 73
     3
  0
VERTEX
  5
2E6
330
2E0
100
AcDbEntity
  8
0
100
AcDbFaceRecord
 10
0.0
 20
0.0
 30
0.0
 70
   128
 71
    -2
 72
     1
 73
     4
  0
SEQEND
  5
2E7
330
2E0
100
AcDbEntity
  8
0
  0
POLYLINE
  5
2E8
330
1F
100
AcDbEntity
  8
0
100
AcDbPolyFaceMesh
 66
     1
 10
0.0
 20
0.0
 30
0.0
 70
    64
 71
     4
 72
     2
  0
VERTEX
  5
2E9
330
2E8
100
AcDbEntity
  8
0
100
AcDbVertex
100
AcDbPolyFaceMeshVertex
 10
28.12169510906556
 20
34.7444925463891
 30
18.09359580028488
 70
   192
  0
VERTEX
  5
2EA
330
2E8
100
AcDbEntity
  8
0
100
AcDbVertex
100
AcDbPolyFaceMeshVertex
 10
27.96277648646767
 20
34.91425899220508
 30
10.5926576874427
 70
   192
  0
VERTEX
  5
2EB
330
2E8
100
AcDbEntity
  8
0
100
AcDbVertex
100
AcDbPolyFaceMeshVertex
 10
28.12169510906556
 20
34.70715477751821
 30
10.5936887414597
 70
   192
  0
VERTEX
  5
2EC
330
2E8
100
AcDbEntity
  8
0
100
AcDbVertex
100
AcDbPolyFaceMeshVertex
 10
27.96277648646767
 20
34.95159676107597
 30
18.09256474626788
 70
   192
  0
VERTEX
  5
2ED
330
2E8
100
AcDbEntity
  8
0
100
AcDbFaceRecord
 10
0.0
 20
0.0
 30
0.0
 70
   128
 71
    -1
 72
     2
 73
     3
  0
VERTEX
  5
2EE
330
2E8
100
AcDbEntity
  8
0
100
AcDbFaceRecord
 10
0.0
 20
0.0
 30
0.0
 70
   128
 71
    -2
 72
     1
 73
     4
  0
SEQEND
  5
2EF
330
2E8
100
AcDbEntity
  8
0
  0
POLYLINE
  5
2F0
330
1F
100
AcDbEntity
  8
0
100
AcDbPolyFaceMesh
 66
     1
 10
0.0
 20
0.0
 30
0.0
 70
    64
 71
     4
 72
     2
  0
VERTEX
  5
2F1
330
2F0
100
AcDbEntity
  8
0
100
AcDbVertex
100
AcDbPolyFaceMeshVertex
 10
27.96277648646767
 20
34.91425899220508
 30
10.5926576874427
 70
   192
  0
VERTEX
  5
2F2
330
2F0
100
AcDbEntity
  8
0
100
AcDbVertex
100
AcDbPolyFaceMeshVertex
 10
27.75566970528113
 20
35.1105134143294
 30
18.09177359069457
 70
   192
  0
VERTEX
  5
2F3
330
2F0
100
AcDbEntity
  8
0
100
AcDbVertex
100
AcDbPolyFaceMeshVertex
 10
27.75566970528113
 20
35.07317564545851
 30
10.59186653186939
 70
   192
  0
VERTEX
  5
2F4
330
2F0
100
AcDbEntity
  8
0
100
AcDbVertex
100
AcDbPolyFaceMeshVertex
 10
27.96277648646767
 20
34.95159676107597
 30
18.09256474626788
 70
   192
  0
VERTEX
  5
2F5
330
2F0
100
AcDbEntity
  8
0
100
AcDbFaceRecord
 10
0.0
 20
0.0
 30
0.0
 70
   128
 71
    -1
 72
     2
 73
     3
  0
VERTEX
  5
2F6
330
2F0
100
AcDbEntity
  8
0
100
AcDbFaceRecord
 10
0.0
 20
0.0
 30
0.0
 70
   128
 71
    -2
 72
     1
 73
     4
  0
SEQEND
  5
2F7
330
2F0
100
AcDbEntity
  8
0
  0
POLYLINE
  5
2F8
330
1F
100
AcDbEntity
  8
0
100
AcDbPolyFaceMesh
 66
     1
 10
0.0
 20
0.0
 30
0.0
 70
    64
 71
     4
 72
     2
  0
VERTEX
  5
2F9
330
2F8
100
AcDbEntity
  8
0
100
AcDbVertex
100
AcDbPolyFaceMeshVertex
 10
27.75566970528113
 20
35.07317564545851
 30
10.59186653186939
 70
   192
  0
VERTEX
  5
2FA
330
2F8
100
AcDbEntity
  8
0
100
AcDbVertex
100
AcDbPolyFaceMeshVertex
 10
27.51448875038364
 20
35.21041259885234
 30
18.09127624950982
 70
   192
  0
VERTEX
  5
2FB
330
2F8
100
AcDbEntity
  8
0
100
AcDbVertex
100
AcDbPolyFaceMeshVertex
 10
27.51448875038364
 20
35.17307482998145
 30
10.59136919068464
 70
   192
  0
VERTEX
  5
2FC
330
2F8
100
AcDbEntity
  8
0
100
AcDbVertex
100
AcDbPolyFaceMeshVertex
 10
27.75566970528113
 20
35.1105134143294
 30
18.09177359069457
 70
   192
  0
VERTEX
  5
2FD
330
2F8
100
AcDbEntity
  8
0
100
AcDbFaceRecord
 10
0.0
 20
0.0
 30
0.0
 70
   128
 71
    -1
 72
     2
 73
     3
  0
VERTEX
  5
2FE
330
2F8
100
AcDbEntity
  8
0
100
AcDbFaceRecord
 10
0.0
 20
0.0
 30
0.0
 70
   128
 71
    -2
 72
     1
 73
     4
  0
SEQEND
  5
2FF
330
2F8
100
AcDbEntity
  8
0
  0
POLYLINE
  5
300
330
1F
100
AcDbEntity
  8
0
100
AcDbPolyFaceMesh
 66
     1
 10
0.0
 20
0.0
 30
0.0
 70
    64
 71
     4
 72
     2
  0
VERTEX
  5
301
330
300
100
AcDbEntity
  8
0
100
AcDbVertex
100
AcDbPolyFaceMeshVertex
 10
27.51448875038364
 20
35.17307482998145
 30
10.59136919068464
 70
   192
  0
VERTEX
  5
302
330
300
100
AcDbEntity
  8
0
100
AcDbVertex
100
AcDbPolyFaceMeshVertex
 10
27.25566970528113
 20
35.24448635031078
 30
18.09110661569349
 70
   192
  0
VERTEX
  5
303
330
300
100
AcDbEntity
  8
0
100
AcDbVertex
100
AcDbPolyFaceMeshVertex
 10
27.25566970528113
 20
35.20714858143989
 30
10.59119955686831
 70
   192
  0
VERTEX
  5
304
330
300
100
AcDbEntity
  8
0
100
AcDbVertex
100
AcDbPolyFaceMeshVertex
 10
27.51448875038364
 20
35.21041259885234
 30
18.09127624950982
 70
   192
  0
VERTEX
  5
305
330
300
100
AcDbEntity
  8
0
100
AcDbFaceRecord
 10
0.0
 20
0.0
 30
0.0
 70
   128
 71
    -1
 72
     2
 73
     3
  0
VERTEX
  5
306
330
300
100
AcDbEntity
  8
0
100
AcDbFaceRecord
 10
0.0
 20
0.0
 30
0.0
 70
   128
 71
    -2
 72
     1
 73
     4
  0
SEQEND
  5
307
330
300
100
AcDbEntity
  8
0
  0
POLYLINE
  5
308
330
1F
100
AcDbEntity
  8
0
100
AcDbPolyFaceMesh
 66
     1
 10
0.0
 20
0.0
 30
0.0
 70
    64
 71
     4
 72
     2
  0
VERTEX
  5
309
330
308
100
AcDbEntity
  8
0
100
AcDbVertex
100
AcDbPolyFaceMeshVertex
 10
27.25566970528113
 20
35.24448635031078
 30
18.09110661569349
 70
   192
  0
VERTEX
  5
30A
330
308
100
AcDbEntity
  8
0
100
AcDbVertex
100
AcDbPolyFaceMeshVertex
 10
26.9968506601786
 20
35.17307482998145
 30
10.59136919068464
 70
   192
  0
VERTEX
  5
30B
330
308
100
AcDbEntity
  8
0
100
AcDbVertex
100
AcDbPolyFaceMeshVertex
 10
27.25566970528113
 20
35.20714858143989
 30
10.59119955686831
 70
   192
  0
VERTEX
  5
30C
330
308
100
AcDbEntity
  8
0
100
AcDbVertex
100
AcDbPolyFaceMeshVertex
 10
26.9968506601786
 20
35.21041259885234
 30
18.09127624950982
 70
   192
  0
VERTEX
  5
30D
330
308
100
AcDbEntity
  8
0
100
AcDbFaceRecord
 10
0.0
 20
0.0
 30
0.0
 70
   128
 71
    -1
 72
     2
 73
     3
  0
VERTEX
  5
30E
330
308
100
AcDbEntity
  8
0
100
AcDbFaceRecord
 10
0.0
 20
0.0
 30
0.0
 70
   128
 71
    -2
 72
     1
 73
     4
  0
SEQEND
  5
30F
330
308
100
AcDbEntity
  8
0
  0
POLYLINE
  5
310
330
1F
100
AcDbEntity
  8
0
100
AcDbPolyFaceMesh
 66
     1
 10
0.0
 20
0.0
 30
0.0
 70
    64
 71
     4
 72
     2
  0
VERTEX
  5
311
330
310
100
AcDbEntity
  8
0
100
AcDbVertex
100
AcDbPolyFaceMeshVertex
 10
26.9968506601786
 20
35.21041259885234
 30
18.09127624950982
 70
   192
  0
VERTEX
  5
312
330
310
100
AcDbEntity
  8
0
100
AcDbVertex
100
AcDbPolyFaceMeshVertex
 10
26.75566970528113
 20
35.07317564545851
 30
10.59186653186939
 70
   192
  0
VERTEX
  5
313
330
310
100
AcDbEntity
  8
0
100
AcDbVertex
100
AcDbPolyFaceMeshVertex
 10
26.9968506601786
 20
35.17307482998145
 30
10.59136919068464
 70
   192
  0
VERTEX
  5
314
330
310
100
AcDbEntity
  8
0
100
AcDbVertex
100
AcDbPolyFaceMeshVertex
 10
26.75566970528113
 20
35.1105134143294
 30
18.09177359069457
 70
   192
  0
VERTEX
  5
315
330
310
100
AcDbEntity
  8
0
100
AcDbFaceRecord
 10
0.0
 20
0.0
 30
0.0
 70
   128
 71
    -1
 72
     2
 73
     3
  0
VERTEX
  5
316
330
310
100
AcDbEntity
  8
0
100
AcDbFaceRecord
 10
0.0
 20
0.0
 30
0.0
 70
   128
 71
    -2
 72
     1
 73
     4
  0
SEQEND
  5
317
330
310
100
AcDbEntity
  8
0
  0
POLYLINE
  5
318
330
1F
100
AcDbEntity
  8
0
100
AcDbPolyFaceMesh
 66
     1
 10
0.0
 20
0.0
 30
0.0
 70
    64
 71
     4
 72
     2
  0
VERTEX
  5
319
330
318
100
AcDbEntity
  8
0
100
AcDbVertex
100
AcDbPolyFaceMeshVertex
 10
26.75566970528113
 20
35.1105134143294
 30
18.09177359069457
 70
   192
  0
VERTEX
  5
31A
330
318
100
AcDbEntity
  8
0
100
AcDbVertex
100
AcDbPolyFaceMeshVertex
 10
26.54856292409458
 20
34.91425899220508
 30
10.5926576874427
 70
   192
  0
VERTEX
  5
31B
330
318
100
AcDbEntity
  8
0
100
AcDbVertex
100
AcDbPolyFaceMeshVertex
 10
26.75566970528113
 20
35.07317564545851
 30
10.59186653186939
 70
   192
  0
VERTEX
  5
31C
330
318
100
AcDbEntity
  8
0
100
AcDbVertex
100
AcDbPolyFaceMeshVertex
 10
26.54856292409458
 20
34.95159676107597
 30
18.09256474626788
 70
   192
  0
VERTEX
  5
31D
330
318
100
AcDbEntity
  8
0
100
AcDbFaceRecord
 10
0.0
 20
0.0
 30
0.0
 70
   128
 71
    -1
 72
     2
 73
     3
  0
VERTEX
  5
31E
330
318
100
AcDbEntity
  8
0
100
AcDbFaceRecord
 10
0.0
 20
0.0
 30
0.0
 70
   128
 71
    -2
 72
     1
 73
     4
  0
SEQEND
  5
31F
330
318
100
AcDbEntity
  8
0
  0
POLYLINE
  5
320
330
1F
100
AcDbEntity
  8
0
100
AcDbPolyFaceMesh
 66
     1
 10
0.0
 20
0.0
 30
0.0
 70
    64
 71
     4
 72
     2
  0
VERTEX
  5
321
330
320
100
AcDbEntity
  8
0
100
AcDbVertex
100
AcDbPolyFaceMeshVertex
 10
26.54856292409458
 20
34.91425899220508
 30
10.5926576874427
 70
   192
  0
VERTEX
  5
322
330
320
100
AcDbEntity
  8
0
100
AcDbVertex
100
AcDbPolyFaceMeshVertex
 10
26.38964430149669
 20
34.7444925463891
 30
18.09359580028488
 70
   192
  0
VERTEX
  5
323
330
320
100
AcDbEntity
  8
0
100
AcDbVertex
100
AcDbPolyFaceMeshVertex
 10
26.38964430149669
 20
34.70715477751821
 30
10.5936887414597
 70
   192
  0
VERTEX
  5
324
330
320
100
AcDbEntity
  8
0
100
AcDbVertex
100
AcDbPolyFaceMeshVertex
 10
26.54856292409458
 20
34.95159676107597
 30
18.09256474626788
 70
   192
  0
VERTEX
  5
325
330
320
100
AcDbEntity
  8
0
100
AcDbFaceRecord
 10
0.0
 20
0.0
 30
0.0
 70
   128
 71
    -1
 72
     2
 73
     3
  0
VERTEX
  5
326
330
320
100
AcDbEntity
  8
0
100
AcDbFaceRecord
 10
0.0
 20
0.0
 30
0.0
 70
   128
 71
    -2
 72
     1
 73
     4
  0
SEQEND
  5
327
330
320
100
AcDbEntity
  8
0
  0
POLYLINE
  5
328
330
1F
100
AcDbEntity
  8
0
100
AcDbPolyFaceMesh
 66
     1
 10
0.0
 20
0.0
 30
0.0
 70
    64
 71
     4
 72
     2
  0
VERTEX
  5
329
330
328
100
AcDbEntity
  8
0
100
AcDbVertex
100
AcDbPolyFaceMeshVertex
 10
26.38964430149669
 20
34.70715477751821
 30
10.5936887414597
 70
   192
  0
VERTEX
  5
32A
330
328
100
AcDbEntity
  8
0
100
AcDbVertex
100
AcDbPolyFaceMeshVertex
 10
26.28974387899206
 20
34.50331458024379
 30
18.09479648811822
 70
   192
  0
VERTEX
  5
32B
330
328
100
AcDbEntity
  8
0
100
AcDbVertex
100
AcDbPolyFaceMeshVertex
 10
26.28974387899206
 20
34.4659768113729
 30
10.59488942929304
 70
   192
  0
VERTEX
  5
32C
330
328
100
AcDbEntity
  8
0
100
AcDbVertex
100
AcDbPolyFaceMeshVertex
 10
26.38964430149669
 20
34.7444925463891
 30
18.09359580028488
 70
   192
  0
VERTEX
  5
32D
330
328
100
AcDbEntity
  8
0
100
AcDbFaceRecord
 10
0.0
 20
0.0
 30
0.0
 70
   128
 71
    -1
 72
     2
 73
     3
  0
VERTEX
  5
32E
330
328
100
AcDbEntity
  8
0
100
AcDbFaceRecord
 10
0.0
 20
0.0
 30
0.0
 70
   128
 71
    -2
 72
     1
 73
     4
  0
SEQEND
  5
32F
330
328
100
AcDbEntity
  8
0
  0
POLYLINE
  5
330
330
1F
100
AcDbEntity
  8
0
100
AcDbPolyFaceMesh
 66
     1
 10
0.0
 20
0.0
 30
0.0
 70
    64
 71
     4
 72
     2
  0
VERTEX
  5
331
330
330
100
AcDbEntity
  8
0
100
AcDbVertex
100
AcDbPolyFaceMeshVertex
 10
26.28974387899206
 20
34.4659768113729
 30
10.59488942929304
 70
   192
  0
VERTEX
  5
332
330
330
100
AcDbEntity
  8
0
100
AcDbVertex
100
AcDbPolyFaceMeshVertex
 10
26.25566970528113
 20
34.24449874246742
 30
18.09608498487628
 70
   192
  0
VERTEX
  5
333
330
330
100
AcDbEntity
  8
0
100
AcDbVertex
100
AcDbPolyFaceMeshVertex
 10
26.25566970528113
 20
34.20716097359653
 30
10.5961779260511
 70
   192
  0
VERTEX
  5
334
330
330
100
AcDbEntity
  8
0
100
AcDbVertex
100
AcDbPolyFaceMeshVertex
 10
26.28974387899206
 20
34.50331458024379
 30
18.09479648811822
 70
   192
  0
VERTEX
  5
335
330
330
100
AcDbEntity
  8
0
100
AcDbFaceRecord
 10
0.0
 20
0.0
 30
0.0
 70
   128
 71
    -1
 72
     2
 73
     3
  0
VERTEX
  5
336
330
330
100
AcDbEntity
  8
0
100
AcDbFaceRecord
 10
0.0
 20
0.0
 30
0.0
 70
   128
 71
    -2
 72
     1
 73
     4
  0
SEQEND
  5
337
330
330
100
AcDbEntity
  8
0
  0
POLYLINE
  5
338
330
1F
100
AcDbEntity
  8
0
100
AcDbPolyFaceMesh
 66
     1
 10
0.0
 20
0.0
 30
0.0
 70
    64
 71
     4
 72
     2
  0
VERTEX
  5
339
330
338
100
AcDbEntity
  8
0
100
AcDbVertex
100
AcDbPolyFaceMeshVertex
 10
26.25566970528113
 20
34.20716097359653
 30
10.5961779260511
 70
   192
  0
VERTEX
  5
33A
330
338
100
AcDbEntity
  8
0
100
AcDbVertex
100
AcDbPolyFaceMeshVertex
 10
26.28974387899206
 20
33.98568290469105
 30
18.09737348163433
 70
   192
  0
VERTEX
  5
33B
330
338
100
AcDbEntity
  8
0
100
AcDbVertex
100
AcDbPolyFaceMeshVertex
 10
26.28974387899206
 20
33.94834513582016
 30
10.59746642280915
 70
   192
  0
VERTEX
  5
33C
330
338
100
AcDbEntity
  8
0
100
AcDbVertex
100
AcDbPolyFaceMeshVertex
 10
26.25566970528113
 20
34.24449874246742
 30
18.09608498487628
 70
   192
  0
VERTEX
  5
33D
330
338
100
AcDbEntity
  8
0
100
AcDbFaceRecord
 10
0.0
 20
0.0
 30
0.0
 70
   128
 71
    -1
 72
     2
 73
     3
  0
VERTEX
  5
33E
330
338
100
AcDbEntity
  8
0
100
AcDbFaceRecord
 10
0.0
 20
0.0
 30
0.0
 70
   128
 71
    -2
 72
     1
 73
     4
  0
SEQEND
  5
33F
330
338
100
AcDbEntity
  8
0
  0
POLYLINE
  5
340
330
1F
100
AcDbEntity
  8
0
100
AcDbPolyFaceMesh
 66
     1
 10
0.0
 20
0.0
 30
0.0
 70
    64
 71
     4
 72
     2
  0
VERTEX
  5
341
330
340
100
AcDbEntity
  8
0
100
AcDbVertex
100
AcDbPolyFaceMeshVertex
 10
26.28974387899206
 20
33.94834513582016
 30
10.59746642280915
 70
   192
  0
VERTEX
  5
342
330
340
100
AcDbEntity
  8
0
100
AcDbVertex
100
AcDbPolyFaceMeshVertex
 10
26.38964430149669
 20
33.74450493854575
 30
18.09857416946767
 70
   192
  0
VERTEX
  5
343
330
340
100
AcDbEntity
  8
0
100
AcDbVertex
100
AcDbPolyFaceMeshVertex
 10
26.38964430149669
 20
33.70716716967485
 30
10.59866711064249
 70
   192
  0
VERTEX
  5
344
330
340
100
AcDbEntity
  8
0
100
AcDbVertex
100
AcDbPolyFaceMeshVertex
 10
26.28974387899206
 20
33.98568290469105
 30
18.09737348163433
 70
   192
  0
VERTEX
  5
345
330
340
100
AcDbEntity
  8
0
100
AcDbFaceRecord
 10
0.0
 20
0.0
 30
0.0
 70
   128
 71
    -1
 72
     2
 73
     3
  0
VERTEX
  5
346
330
340
100
AcDbEntity
  8
0
100
AcDbFaceRecord
 10
0.0
 20
0.0
 30
0.0
 70
   128
 71
    -2
 72
     1
 73
     4
  0
SEQEND
  5
347
330
340
100
AcDbEntity
  8
0
  0
POLYLINE
  5
348
330
1F
100
AcDbEntity
  8
0
100
AcDbPolyFaceMesh
 66
     1
 10
0.0
 20
0.0
 30
0.0
 70
    64
 71
     4
 72
     2
  0
VERTEX
  5
349
330
348
100
AcDbEntity
  8
0
100
AcDbVertex
100
AcDbPolyFaceMeshVertex
 10
26.38964430149669
 20
33.70716716967485
 30
10.59866711064249
 70
   192
  0
VERTEX
  5
34A
330
348
100
AcDbEntity
  8
0
100
AcDbVertex
100
AcDbPolyFaceMeshVertex
 10
26.54856292409458
 20
33.53740072385887
 30
18.09960522348468
 70
   192
  0
VERTEX
  5
34B
330
348
100
AcDbEntity
  8
0
100
AcDbVertex
100
AcDbPolyFaceMeshVertex
 10
26.54856292409458
 20
33.50006295498798
 30
10.59969816465949
 70
   192
  0
VERTEX
  5
34C
330
348
100
AcDbEntity
  8
0
100
AcDbVertex
100
AcDbPolyFaceMeshVertex
 10
26.38964430149669
 20
33.74450493854575
 30
18.09857416946767
 70
   192
  0
VERTEX
  5
34D
330
348
100
AcDbEntity
  8
0
100
AcDbFaceRecord
 10
0.0
 20
0.0
 30
0.0
 70
   128
 71
    -1
 72
     2
 73
     3
  0
VERTEX
  5
34E
330
348
100
AcDbEntity
  8
0
100
AcDbFaceRecord
 10
0.0
 20
0.0
 30
0.0
 70
   128
 71
    -2
 72
     1
 73
     4
  0
SEQEND
  5
34F
330
348
100
AcDbEntity
  8
0
  0
POLYLINE
  5
350
330
1F
100
AcDbEntity
  8
0
100
AcDbPolyFaceMesh
 66
     1
 10
0.0
 20
0.0
 30
0.0
 70
    64
 71
     4
 72
     2
  0
VERTEX
  5
351
330
350
100
AcDbEntity
  8
0
100
AcDbVertex
100
AcDbPolyFaceMeshVertex
 10
26.54856292409458
 20
33.53740072385887
 30
18.09960522348468
 70
   192
  0
VERTEX
  5
352
330
350
100
AcDbEntity
  8
0
100
AcDbVertex
100
AcDbPolyFaceMeshVertex
 10
26.75566970528113
 20
33.34114630173455
 30
10.60048932023281
 70
   192
  0
VERTEX
  5
353
330
350
100
AcDbEntity
  8
0
100
AcDbVertex
100
AcDbPolyFaceMeshVertex
 10
26.54856292409458
 20
33.50006295498798
 30
10.59969816465949
 70
   192
  0
VERTEX
  5
354
330
350
100
AcDbEntity
  8
0
100
AcDbVertex
100
AcDbPolyFaceMeshVertex
 10
26.75566970528113
 20
33.37848407060545
 30
18.10039637905799
 70
   192
  0
VERTEX
  5
355
330
350
100
AcDbEntity
  8
0
100
AcDbFaceRecord
 10
0.0
 20
0.0
 30
0.0
 70
   128
 71
    -1
 72
     2
 73
     3
  0
VERTEX
  5
356
330
350
100
AcDbEntity
  8
0
100
AcDbFaceRecord
 10
0.0
 20
0.0
 30
0.0
 70
   128
 71
    -2
 72
     1
 73
     4
  0
SEQEND
  5
357
330
350
100
AcDbEntity
  8
0
  0
POLYLINE
  5
358
330
1F
100
AcDbEntity
  8
0
100
AcDbPolyFaceMesh
 66
     1
 10
0.0
 20
0.0
 30
0.0
 70
    64
 71
     4
 72
     2
  0
VERTEX
  5
359
330
358
100
AcDbEntity
  8
0
100
AcDbVertex
100
AcDbPolyFaceMeshVertex
 10
26.75566970528113
 20
33.37848407060545
 30
18.10039637905799
 70
   192
  0
VERTEX
  5
35A
330
358
100
AcDbEntity
  8
0
100
AcDbVertex
100
AcDbPolyFaceMeshVertex
 10
26.9968506601786
 20
33.24124711721161
 30
10.60098666141755
 70
   192
  0
VERTEX
  5
35B
330
358
100
AcDbEntity
  8
0
100
AcDbVertex
100
AcDbPolyFaceMeshVertex
 10
26.75566970528113
 20
33.34114630173455
 30
10.60048932023281
 70
   192
  0
VERTEX
  5
35C
330
358
100
AcDbEntity
  8
0
100
AcDbVertex
100
AcDbPolyFaceMeshVertex
 10
26.9968506601786
 20
33.2785848860825
 30
18.10089372024273
 70
   192
  0
VERTEX
  5
35D
330
358
100
AcDbEntity
  8
0
100
AcDbFaceRecord
 10
0.0
 20
0.0
 30
0.0
 70
   128
 71
    -1
 72
     2
 73
     3
  0
VERTEX
  5
35E
330
358
100
AcDbEntity
  8
0
100
AcDbFaceRecord
 10
0.0
 20
0.0
 30
0.0
 70
   128
 71
    -2
 72
     1
 73
     4
  0
SEQEND
  5
35F
330
358
100
AcDbEntity
  8
0
  0
POLYLINE
  5
360
330
1F
100
AcDbEntity
  8
0
100
AcDbPolyFaceMesh
 66
     1
 10
0.0
 20
0.0
 30
0.0
 70
    64
 71
     4
 72
     2
  0
VERTEX
  5
361
330
360
100
AcDbEntity
  8
0
100
AcDbVertex
100
AcDbPolyFaceMeshVertex
 10
26.9968506601786
 20
33.2785848860825
 30
18.10089372024273
 70
   192
  0
VERTEX
  5
362
330
360
100
AcDbEntity
  8
0
100
AcDbVertex
100
AcDbPolyFaceMeshVertex
 10
27.25566970528113
 20
33.20717336575317
 30
10.60115629523388
 70
   192
  0
VERTEX
  5
363
330
360
100
AcDbEntity
  8
0
100
AcDbVertex
100
AcDbPolyFaceMeshVertex
 10
26.9968506601786
 20
33.24124711721161
 30
10.60098666141755
 70
   192
  0
VERTEX
  5
364
330
360
100
AcDbEntity
  8
0
100
AcDbVertex
100
AcDbPolyFaceMeshVertex
 10
27.25566970528113
 20
33.24451113462406
 30
18.10106335405906
 70
   192
  0
VERTEX
  5
365
330
360
100
AcDbEntity
  8
0
100
AcDbFaceRecord
 10
0.0
 20
0.0
 30
0.0
 70
   128
 71
    -1
 72
     2
 73
     3
  0
VERTEX
  5
366
330
360
100
AcDbEntity
  8
0
100
AcDbFaceRecord
 10
0.0
 20
0.0
 30
0.0
 70
   128
 71
    -2
 72
     1
 73
     4
  0
SEQEND
  5
367
330
360
100
AcDbEntity
  8
0
  0
POLYLINE
  5
368
330
1F
100
AcDbEntity
  8
0
100
AcDbPolyFaceMesh
 66
     1
 10
0.0
 20
0.0
 30
0.0
 70
    64
 71
     4
 72
     2
  0
VERTEX
  5
369
330
368
100
AcDbEntity
  8
0
100
AcDbVertex
100
AcDbPolyFaceMeshVertex
 10
27.25566970528113
 20
33.20717336575317
 30
10.60115629523388
 70
   192
  0
VERTEX
  5
36A
330
368
100
AcDbEntity
  8
0
100
AcDbVertex
100
AcDbPolyFaceMeshVertex
 10
27.51448875038365
 20
33.2785848860825
 30
18.10089372024273
 70
   192
  0
VERTEX
  5
36B
330
368
100
AcDbEntity
  8
0
100
AcDbVertex
100
AcDbPolyFaceMeshVertex
 10
27.51448875038365
 20
33.24124711721161
 30
10.60098666141755
 70
   192
  0
VERTEX
  5
36C
330
368
100
AcDbEntity
  8
0
100
AcDbVertex
100
AcDbPolyFaceMeshVertex
 10
27.25566970528113
 20
33.24451113462406
 30
18.10106335405906
 70
   192
  0
VERTEX
  5
36D
330
368
100
AcDbEntity
  8
0
100
AcDbFaceRecord
 10
0.0
 20
0.0
 30
0.0
 70
   128
 71
    -1
 72
     2
 73
     3
  0
VERTEX
  5
36E
330
368
100
AcDbEntity
  8
0
100
AcDbFaceRecord
 10
0.0
 20
0.0
 30
0.0
 70
   128
 71
    -2
 72
     1
 73
     4
  0
SEQEND
  5
36F
330
368
100
AcDbEntity
  8
0
  0
POLYLINE
  5
370
330
1F
100
AcDbEntity
  8
0
100
AcDbPolyFaceMesh
 66
     1
 10
0.0
 20
0.0
 30
0.0
 70
    64
 71
     4
 72
     2
  0
VERTEX
  5
371
330
370
100
AcDbEntity
  8
0
100
AcDbVertex
100
AcDbPolyFaceMeshVertex
 10
27.51448875038365
 20
33.24124711721161
 30
10.60098666141755
 70
   192
  0
VERTEX
  5
372
330
370
100
AcDbEntity
  8
0
100
AcDbVertex
100
AcDbPolyFaceMeshVertex
 10
27.75566970528113
 20
33.37848407060545
 30
18.10039637905799
 70
   192
  0
VERTEX
  5
373
330
370
100
AcDbEntity
  8
0
100
AcDbVertex
100
AcDbPolyFaceMeshVertex
 10
27.75566970528113
 20
33.34114630173455
 30
10.60048932023281
 70
   192
  0
VERTEX
  5
374
330
370
100
AcDbEntity
  8
0
100
AcDbVertex
100
AcDbPolyFaceMeshVertex
 10
27.51448875038365
 20
33.2785848860825
 30
18.10089372024273
 70
   192
  0
VERTEX
  5
375
330
370
100
AcDbEntity
  8
0
100
AcDbFaceRecord
 10
0.0
 20
0.0
 30
0.0
 70
   128
 71
    -1
 72
     2
 73
     3
  0
VERTEX
  5
376
330
370
100
AcDbEntity
  8
0
100
AcDbFaceRecord
 10
0.0
 20
0.0
 30
0.0
 70
   128
 71
    -2
 72
     1
 73
     4
  0
SEQEND
  5
377
330
370
100
AcDbEntity
  8
0
  0
POLYLINE
  5
378
330
1F
100
AcDbEntity
  8
0
100
AcDbPolyFaceMesh
 66
     1
 10
0.0
 20
0.0
 30
0.0
 70
    64
 71
     4
 72
     2
  0
VERTEX
  5
379
330
378
100
AcDbEntity
  8
0
100
AcDbVertex
100
AcDbPolyFaceMeshVertex
 10
27.75566970528113
 20
33.34114630173455
 30
10.60048932023281
 70
   192
  0
VERTEX
  5
37A
330
378
100
AcDbEntity
  8
0
100
AcDbVertex
100
AcDbPolyFaceMeshVertex
 10
27.96277648646767
 20
33.53740072385887
 30
18.09960522348468
 70
   192
  0
VERTEX
  5
37B
330
378
100
AcDbEntity
  8
0
100
AcDbVertex
100
AcDbPolyFaceMeshVertex
 10
27.96277648646767
 20
33.50006295498798
 30
10.59969816465949
 70
   192
  0
VERTEX
  5
37C
330
378
100
AcDbEntity
  8
0
100
AcDbVertex
100
AcDbPolyFaceMeshVertex
 10
27.75566970528113
 20
33.37848407060545
 30
18.10039637905799
 70
   192
  0
VERTEX
  5
37D
330
378
100
AcDbEntity
  8
0
100
AcDbFaceRecord
 10
0.0
 20
0.0
 30
0.0
 70
   128
 71
    -1
 72
     2
 73
     3
  0
VERTEX
  5
37E
330
378
100
AcDbEntity
  8
0
100
AcDbFaceRecord
 10
0.0
 20
0.0
 30
0.0
 70
   128
 71
    -2
 72
     1
 73
     4
  0
SEQEND
  5
37F
330
378
100
AcDbEntity
  8
0
  0
POLYLINE
  5
380
330
1F
100
AcDbEntity
  8
0
100
AcDbPolyFaceMesh
 66
     1
 10
0.0
 20
0.0
 30
0.0
 70
    64
 71
     4
 72
     2
  0
VERTEX
  5
381
330
380
100
AcDbEntity
  8
0
100
AcDbVertex
100
AcDbPolyFaceMeshVertex
 10
27.96277648646767
 20
33.53740072385887
 30
18.09960522348468
 70
   192
  0
VERTEX
  5
382
330
380
100
AcDbEntity
  8
0
100
AcDbVertex
100
AcDbPolyFaceMeshVertex
 10
28.12169510906556
 20
33.70716716967485
 30
10.59866711064249
 70
   192
  0
VERTEX
  5
383
330
380
100
AcDbEntity
  8
0
100
AcDbVertex
100
AcDbPolyFaceMeshVertex
 10
27.96277648646767
 20
33.50006295498798
 30
10.59969816465949
 70
   192
  0
VERTEX
  5
384
330
380
100
AcDbEntity
  8
0
100
AcDbVertex
100
AcDbPolyFaceMeshVertex
 10
28.12169510906556
 20
33.74450493854575
 30
18.09857416946767
 70
   192
  0
VERTEX
  5
385
330
380
100
AcDbEntity
  8
0
100
AcDbFaceRecord
 10
0.0
 20
0.0
 30
0.0
 70
   128
 71
    -1
 72
     2
 73
     3
  0
VERTEX
  5
386
330
380
100
AcDbEntity
  8
0
100
AcDbFaceRecord
 10
0.0
 20
0.0
 30
0.0
 70
   128
 71
    -2
 72
     1
 73
     4
  0
SEQEND
  5
387
330
380
100
AcDbEntity
  8
0
  0
POLYLINE
  5
388
330
1F
100
AcDbEntity
  8
0
100
AcDbPolyFaceMesh
 66
     1
 10
0.0
 20
0.0
 30
0.0
 70
    64
 71
     4
 72
     2
  0
VERTEX
  5
389
330
388
100
AcDbEntity
  8
0
100
AcDbVertex
100
AcDbPolyFaceMeshVertex
 10
28.12169510906556
 20
33.74450493854575
 30
18.09857416946767
 70
   192
  0
VERTEX
  5
38A
330
388
100
AcDbEntity
  8
0
100
AcDbVertex
100
AcDbPolyFaceMeshVertex
 10
28.22159553157019
 20
33.94834513582016
 30
10.59746642280915
 70
   192
  0
VERTEX
  5
38B
330
388
100
AcDbEntity
  8
0
100
AcDbVertex
100
AcDbPolyFaceMeshVertex
 10
28.12169510906556
 20
33.70716716967485
 30
10.59866711064249
 70
   192
  0
VERTEX
  5
38C
330
388
100
AcDbEntity
  8
0
100
AcDbVertex
100
AcDbPolyFaceMeshVertex
 10
28.22159553157019
 20
33.98568290469105
 30
18.09737348163433
 70
   192
  0
VERTEX
  5
38D
330
388
100
AcDbEntity
  8
0
100
AcDbFaceRecord
 10
0.0
 20
0.0
 30
0.0
 70
   128
 71
    -1
 72
     2
 73
     3
  0
VERTEX
  5
38E
330
388
100
AcDbEntity
  8
0
100
AcDbFaceRecord
 10
0.0
 20
0.0
 30
0.0
 70
   128
 71
    -2
 72
     1
 73
     4
  0
SEQEND
  5
38F
330
388
100
AcDbEntity
  8
0
  0
POLYLINE
  5
390
330
1F
100
AcDbEntity
  8
0
100
AcDbPolyFaceMesh
 66
     1
 10
0.0
 20
0.0
 30
0.0
 70
    64
 71
     4
 72
     2
  0
VERTEX
  5
391
330
390
100
AcDbEntity
  8
0
100
AcDbVertex
100
AcDbPolyFaceMeshVertex
 10
28.22159553157019
 20
33.98568290469105
 30
18.09737348163433
 70
   192
  0
VERTEX
  5
392
330
390
100
AcDbEntity
  8
0
100
AcDbVertex
100
AcDbPolyFaceMeshVertex
 10
28.25566970528112
 20
34.20716097359653
 30
10.5961779260511
 70
   192
  0
VERTEX
  5
393
330
390
100
AcDbEntity
  8
0
100
AcDbVertex
100
AcDbPolyFaceMeshVertex
 10
28.22159553157019
 20
33.94834513582016
 30
10.59746642280915
 70
   192
  0
VERTEX
  5
394
330
390
100
AcDbEntity
  8
0
100
AcDbVertex
100
AcDbPolyFaceMeshVertex
 10
28.25566970528112
 20
34.24449874246742
 30
18.09608498487628
 70
   192
  0
VERTEX
  5
395
330
390
100
AcDbEntity
  8
0
100
AcDbFaceRecord
 10
0.0
 20
0.0
 30
0.0
 70
   128
 71
    -1
 72
     2
 73
     3
  0
VERTEX
  5
396
330
390
100
AcDbEntity
  8
0
100
AcDbFaceRecord
 10
0.0
 20
0.0
 30
0.0
 70
   128
 71
    -2
 72
     1
 73
     4
  0
SEQEND
  5
397
330
390
100
AcDbEntity
  8
0
  0
POLYLINE
  5
398
330
1F
100
AcDbEntity
  8
0
100
AcDbPolyFaceMesh
 66
     1
 10
0.0
 20
0.0
 30
0.0
 70
    64
 71
     4
 72
     2
  0
VERTEX
  5
399
330
398
100
AcDbEntity
  8
0
100
AcDbVertex
100
AcDbPolyFaceMeshVertex
 10
28.25566970528112
 20
34.24449874246742
 30
18.09608498487628
 70
   192
  0
VERTEX
  5
39A
330
398
100
AcDbEntity
  8
0
100
AcDbVertex
100
AcDbPolyFaceMeshVertex
 10
28.22159553157019
 20
34.4659768113729
 30
10.59488942929304
 70
   192
  0
VERTEX
  5
39B
330
398
100
AcDbEntity
  8
0
100
AcDbVertex
100
AcDbPolyFaceMeshVertex
 10
28.25566970528112
 20
34.20716097359653
 30
10.5961779260511
 70
   192
  0
VERTEX
  5
39C
330
398
100
AcDbEntity
  8
0
100
AcDbVertex
100
AcDbPolyFaceMeshVertex
 10
28.22159553157019
 20
34.50331458024379
 30
18.09479648811822
 70
   192
  0
VERTEX
  5
39D
330
398
100
AcDbEntity
  8
0
100
AcDbFaceRecord
 10
0.0
 20
0.0
 30
0.0
 70
   128
 71
    -1
 72
     2
 73
     3
  0
VERTEX
  5
39E
330
398
100
AcDbEntity
  8
0
100
AcDbFaceRecord
 10
0.0
 20
0.0
 30
0.0
 70
   128
 71
    -2
 72
     1
 73
     4
  0
SEQEND
  5
39F
330
398
100
AcDbEntity
  8
0
  0
ENDSEC
  0
SECTION
  2
OBJECTS
  0
DICTIONARY
  5
C
330
0
100
AcDbDictionary
  3
ACAD_GROUP
350
D
  3
ACAD_LAYOUT
350
1A
  3
ACAD_MATERIAL
350
43
  3
ACAD_MLEADERSTYLE
350
6B
  3
ACAD_MLINESTYLE
350
17
  3
ACAD_PLOTSETTINGS
350
19
  3
ACAD_SCALELIST
350
47
  3
ACAD_VISUALSTYLE
350
2A
  3
ACDBHEADERROUNDTRIPXREC
350
3A0
  3
ACDBVARIABLEDICTIONARY
350
3C1
  0
DICTIONARY
  5
3C8
330
8
100
AcDbDictionary
280
     1
  3
ACAD_XREC_ROUNDTRIP
360
3C9
  0
DICTIONARY
  5
D
102
{ACAD_REACTORS
330
C
102
}
330
C
100
AcDbDictionary
  0
DICTIONARY
  5
1A
102
{ACAD_REACTORS
330
C
102
}
330
C
100
AcDbDictionary
  0
DICTIONARY
  5
43
102
{ACAD_REACTORS
330
C
102
}
330
C
100
AcDbDictionary
  3
BYBLOCK
350
45
  3
BYLAYER
350
44
  3
GLOBAL
350
46
  0
DICTIONARY
  5
6B
102
{ACAD_REACTORS
330
C
102
}
330
C
100
AcDbDictionary
  3
STANDARD
350
6C
  0
DICTIONARY
  5
17
102
{ACAD_REACTORS
330
C
102
}
330
C
100
AcDbDictionary
  3
STANDARD
350
18
  0
DICTIONARY
  5
19
102
{ACAD_REACTORS
330
C
102
}
330
C
100
AcDbDictionary
  0
DICTIONARY
  5
47
102
{ACAD_REACTORS
330
C
102
}
330
C
100
AcDbDictionary
  3
A0
350
48
  3
A1
350
49
  3
A2
350
4A
  3
A3
350
4B
  3
A4
350
4C
  3
A5
350
4D
  3
A6
350
4E
  3
A7
350
4F
  3
A8
350
50
  3
A9
350
51
  3
B0
350
52
  3
B1
350
53
  3
B2
350
54
  3
B3
350
55
  3
B4
350
56
  3
B5
350
57
  3
B6
350
58
  3
B7
350
59
  3
B8
350
5A
  3
B9
350
5B
  3
C0
350
5C
  3
C1
350
5D
  3
C2
350
5E
  3
C3
350
5F
  3
C4
350
60
  3
C5
350
61
  3
C6
350
62
  3
C7
350
63
  3
C8
350
64
  3
C9
350
65
  3
D0
350
66
  3
D1
350
67
  3
D2
350
68
  0
DICTIONARY
  5
2A
102
{ACAD_REACTORS
330
C
102
}
330
C
100
AcDbDictionary
  3
2DWIREFRAME
350
2F
  3
BASIC
350
32
  3
BRIGHTEN
350
36
  3
COLORCHANGE
350
3A
  3
CONCEPTUAL
350
34
  3
DIM
350
35
  3
EDGECOLOROFF
350
3D
  3
FACEPATTERN
350
39
  3
FLAT
350
2B
  3
FLATWITHEDGES
350
2C
  3
GOURAUD
350
2D
  3
GOURAUDWITHEDGES
350
2E
  3
HIDDEN
350
31
  3
JITTEROFF
350
3B
  3
LINEPATTERN
350
38
  3
OVERHANGOFF
350
3C
  3
REALISTIC
350
33
  3
SHADED
350
42
  3
SHADED_WITH_EDGES
350
41
  3
SHADES_OF_GRAY
350
3E
  3
SKETCHY
350
3F
  3
THICKEN
350
37
  3
WIREFRAME
350
30
  3
X-RAY
350
40
  0
DICTIONARY
  5
3A0
102
{ACAD_REACTORS
330
C
102
}
330
C
100
AcDbDictionary
  3
CEPSNID
350
3AA
  3
CEPSNTYPE
350
3A9
  3
DIMSTYLEDATA
350
3C0
  3
FINGERPRINTGUID
350
3AB
  3
HYPERLINKBASE
350
3A3
  3
INSUNITS
350
3A8
  3
LAYOUTDICT
350
3A5
  3
LWETCUNION
350
3A7
  3
PLOTSETDICT
350
3A6
  3
PSVPSCALE
350
3AD
  3
PUCSBASE
350
3B0
  3
PUCSORGBACK
350
3B6
  3
PUCSORGBOTTOM
350
3B2
  3
PUCSORGFRONT
350
3B5
  3
PUCSORGLEFT
350
3B3
  3
PUCSORGRIGHT
350
3B4
  3
PUCSORGTOP
350
3B1
  3
PUCSORTHOREF
350
3AE
  3
PUCSORTHOVIEW
350
3AF
  3
STYLESHEET
350
3A4
  3
TSTACKALIGN
350
3A1
  3
TSTACKSIZE
350
3A2
  3
UCSBASE
350
3B9
  3
UCSORGBACK
350
3BF
  3
UCSORGBOTTOM
350
3BB
  3
UCSORGFRONT
350
3BE
  3
UCSORGLEFT
350
3BC
  3
UCSORGRIGHT
350
3BD
  3
UCSORGTOP
350
3BA
  3
UCSORTHOREF
350
3B7
  3
UCSORTHOVIEW
350
3B8
  3
VERSIONGUID
350
3AC
  0
DICTIONARY
  5
3C1
102
{ACAD_REACTORS
330
C
102
}
330
C
100
AcDbDictionary
  3
CANNOSCALE
350
3CA
  3
CMLEADERSTYLE
350
3C3
  3
CTABLESTYLE
350
3C2
  3
DIMASSOC
350
3C6
  3
HIDETEXT
350
3C7
  3
MSLTSCALE
350
3CB
  0
XRECORD
  5
3C9
102
{ACAD_REACTORS
330
3C8
102
}
330
3C8
100
AcDbXrecord
102
VTR_0.000_0.000_1.000_1.000_VISUALSTYLE
340
2F
102
VTR_0.000_0.000_1.000_1.000_GRIDDISPLAY
 70
     3
102
VTR_0.000_0.000_1.000_1.000_GRIDMAJOR
 70
     5
102
VTR_0.000_0.000_1.000_1.000_DEFAULTLIGHTING
280
     1
102
VTR_0.000_0.000_1.000_1.000_DEFAULTLIGHTINGTYPE
 70
     1
102
VTR_0.000_0.000_1.000_1.000_BRIGHTNESS
141
0.0
102
VTR_0.000_0.000_1.000_1.000_CONTRAST
142
0.0
  0
MATERIAL
  5
45
102
{ACAD_REACTORS
330
43
102
}
102
{ACAD_XDICTIONARY
360
3CE
102
}
330
43
100
AcDbMaterial
  1
BYBLOCK
  0
MATERIAL
  5
44
102
{ACAD_REACTORS
330
43
102
}
102
{ACAD_XDICTIONARY
360
3CC
102
}
330
43
100
AcDbMaterial
  1
BYLAYER
  0
MATERIAL
  5
46
102
{ACAD_REACTORS
330
43
102
}
102
{ACAD_XDICTIONARY
360
3D0
102
}
330
43
100
AcDbMaterial
  1
GLOBAL
  0
ACAD_PROXY_OBJECT
  5
6C
102
{ACAD_REACTORS
330
6B
102
}
330
6B
100
AcDbProxyObject
 90
      499
 91
      505
 93
      610
310
40901902A4063FBFFFFFE056BD1B81E855B9FC0AD7A3703D0AD73F4214DD185B99185C9900AD7A3703D0AC73F90141901A02B5E8DC0F42B1CFC02B5E8DC0F42B1CFE5764000000000000300FC0
340
14
340
0
340
11
340
0
 94
        0
1001
ACAD_MLEADERVER
1070
     2
  0
MLINESTYLE
  5
18
102
{ACAD_REACTORS
330
17
102
}
330
17
100
AcDbMlineStyle
  2
Standard
 70
     0
  3

 62
   256
 51
90.0
 52
90.0
 71
     2
 49
0.5
 62
   256
  6
BYLAYER
 49
-0.5
 62
   256
  6
BYLAYER
  0
ACAD_PROXY_OBJECT
  5
48
102
{ACAD_REACTORS
330
47
102
}
330
47
100
AcDbProxyObject
 90
      499
 91
      503
 93
       41
310
903313A31580
  0
ACAD_PROXY_OBJECT
  5
49
102
{ACAD_REACTORS
330
47
102
}
330
47
100
AcDbProxyObject
 90
      499
 91
      503
 93
      105
310
903313A324000000000000004000
  0
ACAD_PROXY_OBJECT
  5
4A
102
{ACAD_REACTORS
330
47
102
}
330
47
100
AcDbProxyObject
 90
      499
 91
      503
 93
      105
310
903313A344000000000000104000
  0
ACAD_PROXY_OBJECT
  5
4B
102
{ACAD_REACTORS
330
47
102
}
330
47
100
AcDbProxyObject
 90
      499
 91
      503
 93
      105
310
903313A354000000000000144000
  0
ACAD_PROXY_OBJECT
  5
4C
102
{ACAD_REACTORS
330
47
102
}
330
47
100
AcDbProxyObject
 90
      499
 91
      503
 93
      105
310
903313A384000000000000204000
  0
ACAD_PROXY_OBJECT
  5
4D
102
{ACAD_REACTORS
330
47
102
}
330
47
100
AcDbProxyObject
 90
      499
 91
      503
 93
      113
310
904313A31304000000000000244000
  0
ACAD_PROXY_OBJECT
  5
4E
102
{ACAD_REACTORS
330
47
102
}
330
47
100
AcDbProxyObject
 90
      499
 91
      503
 93
      113
310
904313A31364000000000000304000
  0
ACAD_PROXY_OBJECT
  5
4F
102
{ACAD_REACTORS
330
47
102
}
330
47
100
AcDbProxyObject
 90
      499
 91
      503
 93
      113
310
904313A32304000000000000344000
  0
ACAD_PROXY_OBJECT
  5
50
102
{ACAD_REACTORS
330
47
102
}
330
47
100
AcDbProxyObject
 90
      499
 91
      503
 93
      113
310
904313A333040000000000003E4000
  0
ACAD_PROXY_OBJECT
  5
51
102
{ACAD_REACTORS
330
47
102
}
330
47
100
AcDbProxyObject
 90
      499
 91
      503
 93
      113
310
904313A34304000000000000444000
  0
ACAD_PROXY_OBJECT
  5
52
102
{ACAD_REACTORS
330
47
102
}
330
47
100
AcDbProxyObject
 90
      499
 91
      503
 93
      113
310
904313A35304000000000000494000
  0
ACAD_PROXY_OBJECT
  5
53
102
{ACAD_REACTORS
330
47
102
}
330
47
100
AcDbProxyObject
 90
      499
 91
      503
 93
      121
310
905313A3130304000000000000594000
  0
ACAD_PROXY_OBJECT
  5
54
102
{ACAD_REACTORS
330
47
102
}
330
47
100
AcDbProxyObject
 90
      499
 91
      503
 93
      105
310
903323A310000000000000010100
  0
ACAD_PROXY_OBJECT
  5
55
102
{ACAD_REACTORS
330
47
102
}
330
47
100
AcDbProxyObject
 90
      499
 91
      503
 93
      105
310
903343A310000000000000410100
  0
ACAD_PROXY_OBJECT
  5
56
102
{ACAD_REACTORS
330
47
102
}
330
47
100
AcDbProxyObject
 90
      499
 91
      503
 93
      105
310
903383A310000000000000810100
  0
ACAD_PROXY_OBJECT
  5
57
102
{ACAD_REACTORS
330
47
102
}
330
47
100
AcDbProxyObject
 90
      499
 91
      503
 93
      113
310
90431303A310000000000000910100
  0
ACAD_PROXY_OBJECT
  5
58
102
{ACAD_REACTORS
330
47
102
}
330
47
100
AcDbProxyObject
 90
      499
 91
      503
 93
      121
310
9053130303A310000000000001650100
  0
ACAD_PROXY_OBJECT
  5
59
102
{ACAD_REACTORS
330
47
102
}
330
47
100
AcDbProxyObject
 90
      499
 91
      503
 93
      257
310
90E312F31323822203D2031272D3022000000000000200FC000000000000284000
  0
ACAD_PROXY_OBJECT
  5
5A
102
{ACAD_REACTORS
330
47
102
}
330
47
100
AcDbProxyObject
 90
      499
 91
      503
 93
      249
310
90D312F363422203D2031272D3022000000000000240FC000000000000284000
  0
ACAD_PROXY_OBJECT
  5
5B
102
{ACAD_REACTORS
330
47
102
}
330
47
100
AcDbProxyObject
 90
      499
 91
      503
 93
      249
310
90D312F333222203D2031272D3022000000000000280FC000000000000284000
  0
ACAD_PROXY_OBJECT
  5
5C
102
{ACAD_REACTORS
330
47
102
}
330
47
100
AcDbProxyObject
 90
      499
 91
      503
 93
      249
310
90D312F313622203D2031272D30220000000000002C0FC000000000000284000
  0
ACAD_PROXY_OBJECT
  5
5D
102
{ACAD_REACTORS
330
47
102
}
330
47
100
AcDbProxyObject
 90
      499
 91
      503
 93
      249
310
90D332F333222203D2031272D30220000000000002E0FC000000000000284000
  0
ACAD_PROXY_OBJECT
  5
5E
102
{ACAD_REACTORS
330
47
102
}
330
47
100
AcDbProxyObject
 90
      499
 91
      503
 93
      241
310
90C312F3822203D2031272D3022000000000000300FC000000000000284000
  0
ACAD_PROXY_OBJECT
  5
5F
102
{ACAD_REACTORS
330
47
102
}
330
47
100
AcDbProxyObject
 90
      499
 91
      503
 93
      249
310
90D332F313622203D2031272D3022000000000000320FC000000000000284000
  0
ACAD_PROXY_OBJECT
  5
60
102
{ACAD_REACTORS
330
47
102
}
330
47
100
AcDbProxyObject
 90
      499
 91
      503
 93
      241
310
90C312F3422203D2031272D3022000000000000340FC000000000000284000
  0
ACAD_PROXY_OBJECT
  5
61
102
{ACAD_REACTORS
330
47
102
}
330
47
100
AcDbProxyObject
 90
      499
 91
      503
 93
      241
310
90C332F3822203D2031272D3022000000000000360FC000000000000284000
  0
ACAD_PROXY_OBJECT
  5
62
102
{ACAD_REACTORS
330
47
102
}
330
47
100
AcDbProxyObject
 90
      499
 91
      503
 93
      241
310
90C312F3222203D2031272D3022000000000000380FC000000000000284000
  0
ACAD_PROXY_OBJECT
  5
63
102
{ACAD_REACTORS
330
47
102
}
330
47
100
AcDbProxyObject
 90
      499
 91
      503
 93
      241
310
90C332F3422203D2031272D30220000000000003A0FC000000000000284000
  0
ACAD_PROXY_OBJECT
  5
64
102
{ACAD_REACTORS
330
47
102
}
330
47
100
AcDbProxyObject
 90
      499
 91
      503
 93
      161
310
90A3122203D2031272D30224000000000000284000
  0
ACAD_PROXY_OBJECT
  5
65
102
{ACAD_REACTORS
330
47
102
}
330
47
100
AcDbProxyObject
 90
      499
 91
      503
 93
      257
310
90E312D312F3222203D2031272D30220000000000003E0FC000000000000284000
  0
ACAD_PROXY_OBJECT
  5
66
102
{ACAD_REACTORS
330
47
102
}
330
47
100
AcDbProxyObject
 90
      499
 91
      503
 93
      225
310
90A3322203D2031272D302200000000000002100000000000000284000
  0
ACAD_PROXY_OBJECT
  5
67
102
{ACAD_REACTORS
330
47
102
}
330
47
100
AcDbProxyObject
 90
      499
 91
      503
 93
      225
310
90A3622203D2031272D302200000000000006100000000000000284000
  0
ACAD_PROXY_OBJECT
  5
68
102
{ACAD_REACTORS
330
47
102
}
330
47
100
AcDbProxyObject
 90
      499
 91
      503
 93
      249
310
90D31272D3022203D2031272D30220000000000000A100000000000000284000
  0
ACAD_PROXY_OBJECT
  5
2F
102
{ACAD_REACTORS
330
2A
102
}
330
2A
100
AcDbProxyObject
 90
      499
 91
      501
 93
      436
310
42CC9915DA5C99599C985B595049028333333333333E33F0000000000000F90107901411070040501600405405064090741402480A0340
1001
ACAD
1000
AcDbSavedByObjectVersion
1070
     0
  0
ACAD_PROXY_OBJECT
  5
32
102
{ACAD_REACTORS
330
2A
102
}
330
2A
100
AcDbProxyObject
 90
      499
 91
      501
 93
      388
310
4150985CDA58D07406404333333333333E33F0000000000000F90107A41107004050150841D405064090741402480A0350
1001
ACAD
1000
AcDbSavedByObjectVersion
1070
     0
  0
ACAD_PROXY_OBJECT
  5
36
102
{ACAD_REACTORS
330
2A
102
}
330
2A
100
AcDbProxyObject
 90
      499
 91
      501
 93
      428
310
42109C9A59DA1D195B90C409028333333333333E33F0000000000000F9010790141107004050150841D405064090741402480A029950
1001
ACAD
1000
AcDbSavedByObjectVersion
1070
     0
  0
ACAD_PROXY_OBJECT
  5
3A
102
{ACAD_REACTORS
330
2A
102
}
330
2A
100
AcDbProxyObject
 90
      499
 91
      501
 93
      452
310
42D0DBDB1BDC90DA185B99D95104090240C333333333333E33F0000000000000F90108901411070040501508421405064090741402480A0350
1001
ACAD
1000
AcDbSavedByObjectVersion
1070
     0
  0
ACAD_PROXY_OBJECT
  5
34
102
{ACAD_REACTORS
330
2A
102
}
330
2A
100
AcDbProxyObject
 90
      499
 91
      501
 93
      500
310
4290DBDB98D95C1D1D585B10940D028333333333333E33F0000000000000F90107902409070040501000000000018199010841D405064090740C02480A0340
1001
ACAD
1000
AcDbSavedByObjectVersion
1070
     0
  0
ACAD_PROXY_OBJECT
  5
35
102
{ACAD_REACTORS
330
2A
102
}
330
2A
100
AcDbProxyObject
 90
      499
 91
      501
 93
      412
310
40D11A5B50B409028333333333333E33F0000000000000F9010790141107004050150841D405064090741402480A02677FFFFFD0
1001
ACAD
1000
AcDbSavedByObjectVersion
1070
     0
  0
ACAD_PROXY_OBJECT
  5
3D
102
{ACAD_REACTORS
330
2A
102
}
330
2A
100
AcDbProxyObject
 90
      499
 91
      501
 93
      452
310
43115919D950DBDB1BDC93D999916409028333333333333E33F0000000000000F9010790141107004050150841D405064090741402480A0350
1001
ACAD
1000
AcDbSavedByObjectVersion
1070
     0
  0
ACAD_PROXY_OBJECT
  5
39
102
{ACAD_REACTORS
330
2A
102
}
330
2A
100
AcDbProxyObject
 90
      499
 91
      501
 93
      444
310
42D19858D95C185D1D195C9B90F409028333333333333E33F0000000000000F9010790141107004050150841D405064090741402480A0350
1001
ACAD
1000
AcDbSavedByObjectVersion
1070
     0
  0
ACAD_PROXY_OBJECT
  5
2B
102
{ACAD_REACTORS
330
2A
102
}
330
2A
100
AcDbProxyObject
 90
      499
 91
      501
 93
      380
310
41119B185D240901404333333333333E33F0000000000000F9010740A907004050150841D405064090741402480A1B50
1001
ACAD
1000
AcDbSavedByObjectVersion
1070
     0
  0
ACAD_PROXY_OBJECT
  5
2C
102
{ACAD_REACTORS
330
2A
102
}
330
2A
100
AcDbProxyObject
 90
      499
 91
      501
 93
      468
310
43519B185D15DA5D1A115919D95CD0140901404333333333333E33F0000000000000F90107409019070040501600405405064090741402480A1B50
1001
ACAD
1000
AcDbSavedByObjectVersion
1070
     0
  0
ACAD_PROXY_OBJECT
  5
2D
102
{ACAD_REACTORS
330
2A
102
}
330
2A
100
AcDbProxyObject
 90
      499
 91
      501
 93
      404
310
41D1DBDD5C985D5910240902404333333333333E33F0000000000000F9010740A9070040501641D405064090741402480A1B50
1001
ACAD
1000
AcDbSavedByObjectVersion
1070
     0
  0
ACAD_PROXY_OBJECT
  5
2E
102
{ACAD_REACTORS
330
2A
102
}
330
2A
100
AcDbProxyObject
 90
      499
 91
      501
 93
      492
310
4411DBDD5C985D5915DA5D1A115919D95CD0340902404333333333333E33F0000000000000F90107409019070040501600405405064090741402480A1B50
1001
ACAD
1000
AcDbSavedByObjectVersion
1070
     0
  0
ACAD_PROXY_OBJECT
  5
31
102
{ACAD_REACTORS
330
2A
102
}
330
2A
100
AcDbProxyObject
 90
      499
 91
      501
 93
      476
310
41921A5919195B90640502408333333333333E33F0000000000000F901079024090700405020000000000001110200405405064090740C02480A0340
1001
ACAD
1000
AcDbSavedByObjectVersion
1070
     0
  0
ACAD_PROXY_OBJECT
  5
3B
102
{ACAD_REACTORS
330
2A
102
}
330
2A
100
AcDbProxyObject
 90
      499
 91
      501
 93
      428
310
42529A5D1D195C93D999914409028333333333333E33F0000000000000F9010790141107004050150A41D405064090741402480A0350
1001
ACAD
1000
AcDbSavedByObjectVersion
1070
     0
  0
ACAD_PROXY_OBJECT
  5
38
102
{ACAD_REACTORS
330
2A
102
}
330
2A
100
AcDbProxyObject
 90
      499
 91
      501
 93
      444
310
42D31A5B995C185D1D195C9B90E409028333333333333E33F0000000000000F9010790141107004050750841D405064090741402483A0350
1001
ACAD
1000
AcDbSavedByObjectVersion
1070
     0
  0
ACAD_PROXY_OBJECT
  5
3C
102
{ACAD_REACTORS
330
2A
102
}
330
2A
100
AcDbProxyObject
 90
      499
 91
      501
 93
      444
310
42D3DD995C9A185B99D3D999915409028333333333333E33F0000000000000F9010790141107004050150941D405064090741402480A0350
1001
ACAD
1000
AcDbSavedByObjectVersion
1070
     0
  0
ACAD_PROXY_OBJECT
  5
33
102
{ACAD_REACTORS
330
2A
102
}
330
2A
100
AcDbProxyObject
 90
      499
 91
      501
 93
      428
310
425499585B1A5CDD1A58D08409038333333333333E33F0000000000000F9010740A907004050150800405405064090740C02480A1B40
1001
ACAD
1000
AcDbSavedByObjectVersion
1070
     0
  0
ACAD_PROXY_OBJECT
  5
42
102
{ACAD_REACTORS
330
2A
102
}
330
2A
100
AcDbProxyObject
 90
      499
 91
      501
 93
      420
310
4194DA1859195911B40902404333333333333E33F0000000000000F9010740A41107004050150800405405064090840C02480A0B40
1001
ACAD
1000
AcDbSavedByObjectVersion
1070
     0
  0
ACAD_PROXY_OBJECT
  5
41
102
{ACAD_REACTORS
330
2A
102
}
330
2A
100
AcDbProxyObject
 90
      499
 91
      501
 93
      516
310
4454DA18591959081DDA5D1A08195919D95CD1A40902404333333333333E33F0000000000000F901074090142907004050250800405405064090740C02480A0B40
1001
ACAD
1000
AcDbSavedByObjectVersion
1070
     0
  0
ACAD_PROXY_OBJECT
  5
3E
102
{ACAD_REACTORS
330
2A
102
}
330
2A
100
AcDbProxyObject
 90
      499
 91
      501
 93
      532
310
4394DA1859195CC81BD98811DC985E5174090240C333333333333E33F0000000000000F901079024090741D01000000000000111010841D405064090740C02480A0340
1001
ACAD
1000
AcDbSavedByObjectVersion
1070
     0
  0
ACAD_PROXY_OBJECT
  5
3F
102
{ACAD_REACTORS
330
2A
102
}
330
2A
100
AcDbProxyObject
 90
      499
 91
      501
 93
      476
310
41D4DAD95D18DA1E51840502408333333333333E33F0000000000000F901079024090741D01000000000000111010B41D405064090741802480A0340
1001
ACAD
1000
AcDbSavedByObjectVersion
1070
     0
  0
ACAD_PROXY_OBJECT
  5
37
102
{ACAD_REACTORS
330
2A
102
}
330
2A
100
AcDbProxyObject
 90
      499
 91
      501
 93
      412
310
41D51A1A58DAD95B90D409028333333333333E33F0000000000000F9010790141107004050150C41D405064090741402480A0350
1001
ACAD
1000
AcDbSavedByObjectVersion
1070
     0
  0
ACAD_PROXY_OBJECT
  5
30
102
{ACAD_REACTORS
330
2A
102
}
330
2A
100
AcDbProxyObject
 90
      499
 91
      501
 93
      420
310
4255DA5C99599C985B595059028333333333333E33F0000000000000F90107901411070040501600405405064090740C02480A0340
1001
ACAD
1000
AcDbSavedByObjectVersion
1070
     0
  0
ACAD_PROXY_OBJECT
  5
40
102
{ACAD_REACTORS
330
2A
102
}
330
2A
100
AcDbProxyObject
 90
      499
 91
      501
 93
      404
310
41560B54985E51940902404000000000000E03F0000000000000F9010740501907004050150841D405064090740C02480A1B40
1001
ACAD
1000
AcDbSavedByObjectVersion
1070
     0
  0
XRECORD
  5
3AA
102
{ACAD_REACTORS
330
3A0
102
}
330
3A0
100
AcDbXrecord
340
0
  0
XRECORD
  5
3A9
102
{ACAD_REACTORS
330
3A0
102
}
330
3A0
100
AcDbXrecord
 90
        0
  0
XRECORD
  5
3C0
102
{ACAD_REACTORS
330
3A0
102
}
330
3A0
100
AcDbXrecord
1000
DSTYLE
1002
{
1070
   171
 70
     2
1070
   143
 40
25.4
1070
   274
 70
     2
1070
    41
 40
0.18
1070
   141
 40
0.09
1070
   271
 70
     4
1070
    43
 40
0.38
1070
   278
 70
    46
1070
    44
 40
0.18
1070
    42
 40
0.0625
1070
   147
 40
0.09
1070
    77
 70
     0
1070
   272
 70
     4
1070
    73
 70
     1
1070
   172
 70
     0
1070
    74
 70
     1
1070
   283
 70
     1
1070
   340
340
11
1070
   140
 40
0.18
1070
   284
 70
     0
1070
    78
 70
     0
1002
}
  0
XRECORD
  5
3AB
102
{ACAD_REACTORS
330
3A0
102
}
330
3A0
100
AcDbXrecord
  1
{88504DA8-33C5-46F8-8C7C-1C07E915A38E}
  0
XRECORD
  5
3A3
102
{ACAD_REACTORS
330
3A0
102
}
330
3A0
100
AcDbXrecord
  1

  0
XRECORD
  5
3A8
102
{ACAD_REACTORS
330
3A0
102
}
330
3A0
100
AcDbXrecord
 90
        4
  0
XRECORD
  5
3A5
102
{ACAD_REACTORS
330
3A0
102
}
330
3A0
100
AcDbXrecord
340
1A
  0
XRECORD
  5
3A7
102
{ACAD_REACTORS
330
3A0
102
}
330
3A0
100
AcDbXrecord
 90
    10781
  0
XRECORD
  5
3A6
102
{ACAD_REACTORS
330
3A0
102
}
330
3A0
100
AcDbXrecord
340
19
  0
XRECORD
  5
3AD
102
{ACAD_REACTORS
330
3A0
102
}
330
3A0
100
AcDbXrecord
 40
0.0
  0
XRECORD
  5
3B0
102
{ACAD_REACTORS
330
3A0
102
}
330
3A0
100
AcDbXrecord
340
0
  0
XRECORD
  5
3B6
102
{ACAD_REACTORS
330
3A0
102
}
330
3A0
100
AcDbXrecord
 10
0.0
 20
0.0
 30
0.0
  0
XRECORD
  5
3B2
102
{ACAD_REACTORS
330
3A0
102
}
330
3A0
100
AcDbXrecord
 10
0.0
 20
0.0
 30
0.0
  0
XRECORD
  5
3B5
102
{ACAD_REACTORS
330
3A0
102
}
330
3A0
100
AcDbXrecord
 10
0.0
 20
0.0
 30
0.0
  0
XRECORD
  5
3B3
102
{ACAD_REACTORS
330
3A0
102
}
330
3A0
100
AcDbXrecord
 10
0.0
 20
0.0
 30
0.0
  0
XRECORD
  5
3B4
102
{ACAD_REACTORS
330
3A0
102
}
330
3A0
100
AcDbXrecord
 10
0.0
 20
0.0
 30
0.0
  0
XRECORD
  5
3B1
102
{ACAD_REACTORS
330
3A0
102
}
330
3A0
100
AcDbXrecord
 10
0.0
 20
0.0
 30
0.0
  0
XRECORD
  5
3AE
102
{ACAD_REACTORS
330
3A0
102
}
330
3A0
100
AcDbXrecord
340
0
  0
XRECORD
  5
3AF
102
{ACAD_REACTORS
330
3A0
102
}
330
3A0
100
AcDbXrecord
 70
     0
  0
XRECORD
  5
3A4
102
{ACAD_REACTORS
330
3A0
102
}
330
3A0
100
AcDbXrecord
  1

  0
XRECORD
  5
3A1
102
{ACAD_REACTORS
330
3A0
102
}
330
3A0
100
AcDbXrecord
 90
        1
  0
XRECORD
  5
3A2
102
{ACAD_REACTORS
330
3A0
102
}
330
3A0
100
AcDbXrecord
 90
       70
  0
XRECORD
  5
3B9
102
{ACAD_REACTORS
330
3A0
102
}
330
3A0
100
AcDbXrecord
340
0
  0
XRECORD
  5
3BF
102
{ACAD_REACTORS
330
3A0
102
}
330
3A0
100
AcDbXrecord
 10
0.0
 20
0.0
 30
0.0
  0
XRECORD
  5
3BB
102
{ACAD_REACTORS
330
3A0
102
}
330
3A0
100
AcDbXrecord
 10
0.0
 20
0.0
 30
0.0
  0
XRECORD
  5
3BE
102
{ACAD_REACTORS
330
3A0
102
}
330
3A0
100
AcDbXrecord
 10
0.0
 20
0.0
 30
0.0
  0
XRECORD
  5
3BC
102
{ACAD_REACTORS
330
3A0
102
}
330
3A0
100
AcDbXrecord
 10
0.0
 20
0.0
 30
0.0
  0
XRECORD
  5
3BD
102
{ACAD_REACTORS
330
3A0
102
}
330
3A0
100
AcDbXrecord
 10
0.0
 20
0.0
 30
0.0
  0
XRECORD
  5
3BA
102
{ACAD_REACTORS
330
3A0
102
}
330
3A0
100
AcDbXrecord
 10
0.0
 20
0.0
 30
0.0
  0
XRECORD
  5
3B7
102
{ACAD_REACTORS
330
3A0
102
}
330
3A0
100
AcDbXrecord
340
0
  0
XRECORD
  5
3B8
102
{ACAD_REACTORS
330
3A0
102
}
330
3A0
100
AcDbXrecord
 70
     0
  0
XRECORD
  5
3AC
102
{ACAD_REACTORS
330
3A0
102
}
330
3A0
100
AcDbXrecord
  1
{FAEB1C32-E019-11D5-929B-00C0DF256EC4}
  0
DICTIONARYVAR
  5
3CA
102
{ACAD_REACTORS
330
3C1
102
}
330
3C1
100
DictionaryVariables
280
     0
  1
1:1
  0
DICTIONARYVAR
  5
3C3
102
{ACAD_REACTORS
330
3C1
102
}
330
3C1
100
DictionaryVariables
280
     0
  1
Standard
  0
DICTIONARYVAR
  5
3C2
102
{ACAD_REACTORS
330
3C1
102
}
330
3C1
100
DictionaryVariables
280
     0
  1
Standard
  0
DICTIONARYVAR
  5
3C6
102
{ACAD_REACTORS
330
3C1
102
}
330
3C1
100
DictionaryVariables
280
     0
  1
2
  0
DICTIONARYVAR
  5
3C7
102
{ACAD_REACTORS
330
3C1
102
}
330
3C1
100
DictionaryVariables
280
     0
  1
1
  0
DICTIONARYVAR
  5
3CB
102
{ACAD_REACTORS
330
3C1
102
}
330
3C1
100
DictionaryVariables
280
     0
  1
1
  0
DICTIONARY
  5
3CE
330
45
100
AcDbDictionary
280
     1
  3
ACAD_XREC_ROUNDTRIP
360
3CF
  0
DICTIONARY
  5
3CC
330
44
100
AcDbDictionary
280
     1
  3
ACAD_XREC_ROUNDTRIP
360
3CD
  0
DICTIONARY
  5
3D0
330
46
100
AcDbDictionary
280
     1
  3
ACAD_XREC_ROUNDTRIP
360
3D1
  0
XRECORD
  5
3CF
102
{ACAD_REACTORS
330
3CE
102
}
330
3CE
100
AcDbXrecord
102
MATERIAL
148
0.0
149
0.0
149
0.0
 93
        0
 94
      127
282
     0
 72
     1
 77
     1
171
     1
175
     1
179
     1
273
     0
  0
XRECORD
  5
3CD
102
{ACAD_REACTORS
330
3CC
102
}
330
3CC
100
AcDbXrecord
102
MATERIAL
148
0.0
149
0.0
149
0.0
 93
        0
 94
      127
282
     0
 72
     1
 77
     1
171
     1
175
     1
179
     1
273
     0
  0
XRECORD
  5
3D1
102
{ACAD_REACTORS
330
3D0
102
}
330
3D0
100
AcDbXrecord
102
MATERIAL
148
0.0
149
0.0
149
0.0
 93
        0
 94
      127
282
     0
 72
     1
 77
     1
171
     1
175
     1
179
     1
273
     0
  0
ENDSEC
  0
EOF
