  0
SECTION
  2
HEADER
  9
$ACADVER
  1
AC1014
  9
$ACADMAINTVER
 70
     9
  9
$DWGCODEPAGE
  3
ANSI_1252
  9
$INSBASE
 10
0.0
 20
0.0
 30
0.0
  9
$EXTMIN
 10
1.000000000000000E+20
 20
1.000000000000000E+20
 30
1.000000000000000E+20
  9
$EXTMAX
 10
-1.000000000000000E+20
 20
-1.000000000000000E+20
 30
-1.000000000000000E+20
  9
$LIMMIN
 10
0.0
 20
0.0
  9
$LIMMAX
 10
12.0
 20
9.0
  9
$ORTHOMODE
 70
     0
  9
$REGENMODE
 70
     1
  9
$FILLMODE
 70
     1
  9
$QTEXTMODE
 70
     0
  9
$MIRRTEXT
 70
     1
  9
$DRAGMODE
 70
     2
  9
$LTSCALE
 40
1.0
  9
$OSMODE
 70
    37
  9
$ATTMODE
 70
     1
  9
$TEXTSIZE
 40
0.2
  9
$TRACEWID
 40
0.05
  9
$TEXTSTYLE
  7
STANDARD
  9
$CLAYER
  8
0
  9
$CELTYPE
  6
BYLAYER
  9
$CECOLOR
 62
   256
  9
$CELTSCALE
 40
1.0
  9
$DELOBJ
 70
     1
  9
$DISPSILH
 70
     0
  9
$DIMSCALE
 40
1.0
  9
$DIMASZ
 40
0.18
  9
$DIMEXO
 40
0.0625
  9
$DIMDLI
 40
0.38
  9
$DIMRND
 40
0.0
  9
$DIMDLE
 40
0.0
  9
$DIMEXE
 40
0.18
  9
$DIMTP
 40
0.0
  9
$DIMTM
 40
0.0
  9
$DIMTXT
 40
0.18
  9
$DIMCEN
 40
0.09
  9
$DIMTSZ
 40
0.0
  9
$DIMTOL
 70
     0
  9
$DIMLIM
 70
     0
  9
$DIMTIH
 70
     1
  9
$DIMTOH
 70
     1
  9
$DIMSE1
 70
     0
  9
$DIMSE2
 70
     0
  9
$DIMTAD
 70
     0
  9
$DIMZIN
 70
     0
  9
$DIMBLK
  1

  9
$DIMASO
 70
     1
  9
$DIMSHO
 70
     1
  9
$DIMPOST
  1

  9
$DIMAPOST
  1

  9
$DIMALT
 70
     0
  9
$DIMALTD
 70
     2
  9
$DIMALTF
 40
25.4
  9
$DIMLFAC
 40
1.0
  9
$DIMTOFL
 70
     0
  9
$DIMTVP
 40
0.0
  9
$DIMTIX
 70
     0
  9
$DIMSOXD
 70
     0
  9
$DIMSAH
 70
     0
  9
$DIMBLK1
  1

  9
$DIMBLK2
  1

  9
$DIMSTYLE
  2
STANDARD
  9
$DIMCLRD
 70
     0
  9
$DIMCLRE
 70
     0
  9
$DIMCLRT
 70
     0
  9
$DIMTFAC
 40
1.0
  9
$DIMGAP
 40
0.09
  9
$DIMJUST
 70
     0
  9
$DIMSD1
 70
     0
  9
$DIMSD2
 70
     0
  9
$DIMTOLJ
 70
     1
  9
$DIMTZIN
 70
     0
  9
$DIMALTZ
 70
     0
  9
$DIMALTTZ
 70
     0
  9
$DIMFIT
 70
     3
  9
$DIMUPT
 70
     0
  9
$DIMUNIT
 70
     2
  9
$DIMDEC
 70
     4
  9
$DIMTDEC
 70
     4
  9
$DIMALTU
 70
     2
  9
$DIMALTTD
 70
     2
  9
$DIMTXSTY
  7
STANDARD
  9
$DIMAUNIT
 70
     0
  9
$LUNITS
 70
     2
  9
$LUPREC
 70
     4
  9
$SKETCHINC
 40
0.1
  9
$FILLETRAD
 40
0.5
  9
$AUNITS
 70
     0
  9
$AUPREC
 70
     0
  9
$MENU
  1
.
  9
$ELEVATION
 40
0.0
  9
$PELEVATION
 40
0.0
  9
$THICKNESS
 40
0.0
  9
$LIMCHECK
 70
     0
  9
$CHAMFERA
 40
0.0
  9
$CHAMFERB
 40
0.0
  9
$CHAMFERC
 40
0.0
  9
$CHAMFERD
 40
0.0
  9
$SKPOLY
 70
     0
  9
$TDCREATE
 40
2458239.884088125
  9
$TDUPDATE
 40
2458239.884088194
  9
$TDINDWG
 40
0.0000000116
  9
$TDUSRTIMER
 40
0.0000000116
  9
$USRTIMER
 70
     1
  9
$ANGBASE
 50
0.0
  9
$ANGDIR
 70
     0
  9
$PDMODE
 70
     0
  9
$PDSIZE
 40
0.0
  9
$PLINEWID
 40
0.0
  9
$COORDS
 70
     1
  9
$SPLFRAME
 70
     0
  9
$SPLINETYPE
 70
     6
  9
$SPLINESEGS
 70
     8
  9
$ATTDIA
 70
     0
  9
$ATTREQ
 70
     1
  9
$HANDLING
 70
     1
  9
$HANDSEED
  5
3A9
  9
$SURFTAB1
 70
     6
  9
$SURFTAB2
 70
     6
  9
$SURFTYPE
 70
     6
  9
$SURFU
 70
     6
  9
$SURFV
 70
     6
  9
$UCSNAME
  2

  9
$UCSORG
 10
0.0
 20
0.0
 30
0.0
  9
$UCSXDIR
 10
1.0
 20
0.0
 30
0.0
  9
$UCSYDIR
 10
0.0
 20
1.0
 30
0.0
  9
$PUCSNAME
  2

  9
$PUCSORG
 10
0.0
 20
0.0
 30
0.0
  9
$PUCSXDIR
 10
1.0
 20
0.0
 30
0.0
  9
$PUCSYDIR
 10
0.0
 20
1.0
 30
0.0
  9
$USERI1
 70
     0
  9
$USERI2
 70
     0
  9
$USERI3
 70
     0
  9
$USERI4
 70
     0
  9
$USERI5
 70
     0
  9
$USERR1
 40
0.0
  9
$USERR2
 40
0.0
  9
$USERR3
 40
0.0
  9
$USERR4
 40
0.0
  9
$USERR5
 40
0.0
  9
$WORLDVIEW
 70
     1
  9
$SHADEDGE
 70
     3
  9
$SHADEDIF
 70
    70
  9
$TILEMODE
 70
     1
  9
$MAXACTVP
 70
    64
  9
$PINSBASE
 10
0.0
 20
0.0
 30
0.0
  9
$PLIMCHECK
 70
     0
  9
$PEXTMIN
 10
1.000000000000000E+20
 20
1.000000000000000E+20
 30
1.000000000000000E+20
  9
$PEXTMAX
 10
-1.000000000000000E+20
 20
-1.000000000000000E+20
 30
-1.000000000000000E+20
  9
$PLIMMIN
 10
0.0
 20
0.0
  9
$PLIMMAX
 10
12.0
 20
9.0
  9
$UNITMODE
 70
     0
  9
$VISRETAIN
 70
     1
  9
$PLINEGEN
 70
     0
  9
$PSLTSCALE
 70
     1
  9
$TREEDEPTH
 70
  3020
  9
$PICKSTYLE
 70
     1
  9
$CMLSTYLE
  2
STANDARD
  9
$CMLJUST
 70
     0
  9
$CMLSCALE
 40
1.0
  9
$PROXYGRAPHICS
 70
     1
  9
$MEASUREMENT
 70
     1
  0
ENDSEC
  0
SECTION
  2
CLASSES
  0
CLASS
  1
ACDBDICTIONARYWDFLT
  2
AcDbDictionaryWithDefault
  3
ObjectDBX Classes
 90
        0
280
     0
281
     0
  0
CLASS
  1
VISUALSTYLE
  2
AcDbVisualStyle
  3
ObjectDBX Classes
 90
     4095
280
     0
281
     0
  0
CLASS
  1
MATERIAL
  2
AcDbMaterial
  3
ObjectDBX Classes
 90
     1153
280
     0
281
     0
  0
CLASS
  1
SCALE
  2
AcDbScale
  3
ObjectDBX Classes
 90
     1153
280
     0
281
     0
  0
CLASS
  1
TABLESTYLE
  2
AcDbTableStyle
  3
ObjectDBX Classes
 90
     4095
280
     0
281
     0
  0
CLASS
  1
MLEADERSTYLE
  2
AcDbMLeaderStyle
  3
ACDB_MLEADERSTYLE_CLASS
 90
     4095
280
     0
281
     0
  0
CLASS
  1
SUN
  2
AcDbSun
  3
SCENEOE
 90
     1153
280
     0
281
     0
  0
CLASS
  1
DICTIONARYVAR
  2
AcDbDictionaryVar
  3
ObjectDBX Classes
 90
        0
280
     0
281
     0
  0
CLASS
  1
XRECORD
  2
AcDbXrecord
  3
ObjectDBX Classes
 90
        0
280
     0
281
     0
  0
CLASS
  1
LWPOLYLINE
  2
AcDbPolyline
  3
ObjectDBX Classes
 90
        0
280
     0
281
     1
  0
CLASS
  1
HATCH
  2
AcDbHatch
  3
ObjectDBX Classes
 90
        0
280
     0
281
     1
  0
CLASS
  1
ACDBPLACEHOLDER
  2
AcDbPlaceHolder
  3
ObjectDBX Classes
 90
        0
280
     0
281
     0
  0
CLASS
  1
LAYOUT
  2
AcDbLayout
  3
ObjectDBX Classes
 90
        0
280
     0
281
     0
  0
ENDSEC
  0
SECTION
  2
TABLES
  0
TABLE
  2
VPORT
  5
8
102
{ACAD_XDICTIONARY
360
39E
102
}
330
0
100
AcDbSymbolTable
 70
     1
  0
VPORT
  5
29
330
8
100
AcDbSymbolTableRecord
100
AcDbViewportTableRecord
  2
*ACTIVE
 70
     0
 10
0.0
 20
0.0
 11
1.0
 21
1.0
 12
0.0
 22
0.0
 13
0.0
 23
0.0
 14
0.5
 24
0.5
 15
0.5
 25
0.5
 16
-62.34459420529626
 26
14.0311958009591
 36
13.53085134018757
 17
26.56676632923925
 27
37.0807708090008
 37
6.866425070846089
 40
3378.2
 41
1.3333
 42
50.0
 43
-39.92079929255434
 44
25334.67920070745
 50
0.0
 51
0.0000000000000017
 71
     0
 72
   100
 73
     1
 74
     3
 75
     0
 76
     0
 77
     0
 78
     0
  0
ENDTAB
  0
TABLE
  2
LTYPE
  5
5
330
0
100
AcDbSymbolTable
 70
     1
  0
LTYPE
  5
14
330
5
100
AcDbSymbolTableRecord
100
AcDbLinetypeTableRecord
  2
BYBLOCK
 70
     0
  3

 72
    65
 73
     0
 40
0.0
  0
LTYPE
  5
15
330
5
100
AcDbSymbolTableRecord
100
AcDbLinetypeTableRecord
  2
BYLAYER
 70
     0
  3

 72
    65
 73
     0
 40
0.0
  0
LTYPE
  5
16
330
5
100
AcDbSymbolTableRecord
100
AcDbLinetypeTableRecord
  2
CONTINUOUS
 70
     0
  3
Solid line
 72
    65
 73
     0
 40
0.0
  0
ENDTAB
  0
TABLE
  2
LAYER
  5
2
330
0
100
AcDbSymbolTable
 70
     1
  0
LAYER
  5
10
330
2
100
AcDbSymbolTableRecord
100
AcDbLayerTableRecord
  2
0
 70
     0
 62
    13
  6
CONTINUOUS
  0
ENDTAB
  0
TABLE
  2
STYLE
  5
3
330
0
100
AcDbSymbolTable
 70
     2
  0
STYLE
  5
11
330
3
100
AcDbSymbolTableRecord
100
AcDbTextStyleTableRecord
  2
STANDARD
 70
     0
 40
0.0
 41
1.0
 50
0.0
 71
     0
 42
0.2
  3
txt
  4

  0
STYLE
  5
6E
330
3
100
AcDbSymbolTableRecord
100
AcDbTextStyleTableRecord
  2
TAHOMA
 70
     0
 40
0.0
 41
1.0
 50
0.0
 71
     0
 42
0.2
  3
Tahoma
  4

1001
ACAD
1000
Tahoma
1071
       34
  0
ENDTAB
  0
TABLE
  2
VIEW
  5
6
330
0
100
AcDbSymbolTable
 70
     0
  0
ENDTAB
  0
TABLE
  2
UCS
  5
7
330
0
100
AcDbSymbolTable
 70
     0
  0
ENDTAB
  0
TABLE
  2
APPID
  5
9
330
0
100
AcDbSymbolTable
 70
     2
  0
APPID
  5
12
330
9
100
AcDbSymbolTableRecord
100
AcDbRegAppTableRecord
  2
ACAD
 70
     0
  0
APPID
  5
3A8
330
9
100
AcDbSymbolTableRecord
100
AcDbRegAppTableRecord
  2
ACAD_MLEADERVER
 70
     0
  0
ENDTAB
  0
TABLE
  2
DIMSTYLE
  5
A
330
0
100
AcDbSymbolTable
 70
     1
  0
DIMSTYLE
105
27
330
A
100
AcDbSymbolTableRecord
100
AcDbDimStyleTableRecord
  2
STANDARD
 70
     0
  3

  4

  5

  6

  7

 40
1.0
 41
0.18
 42
0.0625
 43
0.38
 44
0.18
 45
0.0
 46
0.0
 47
0.0
 48
0.0
140
0.18
141
0.09
142
0.0
143
25.4
144
1.0
145
0.0
146
1.0
147
0.09
 71
     0
 72
     0
 73
     1
 74
     1
 75
     0
 76
     0
 77
     0
 78
     0
170
     0
171
     2
172
     0
173
     0
174
     0
175
     0
176
     0
177
     0
178
     0
270
     2
271
     4
272
     4
273
     2
274
     2
340
11
275
     0
280
     0
281
     0
282
     0
283
     1
284
     0
285
     0
286
     0
287
     3
288
     0
  0
ENDTAB
  0
TABLE
  2
BLOCK_RECORD
  5
1
330
0
100
AcDbSymbolTable
 70
     1
  0
BLOCK_RECORD
  5
1F
330
1
100
AcDbSymbolTableRecord
100
AcDbBlockTableRecord
  2
*MODEL_SPACE
  0
BLOCK_RECORD
  5
1B
330
1
100
AcDbSymbolTableRecord
100
AcDbBlockTableRecord
  2
*PAPER_SPACE
  0
ENDTAB
  0
ENDSEC
  0
SECTION
  2
BLOCKS
  0
BLOCK
  5
20
330
1F
100
AcDbEntity
  8
0
100
AcDbBlockBegin
  2
*MODEL_SPACE
 70
     0
 10
0.0
 20
0.0
 30
0.0
  3
*MODEL_SPACE
  1

  0
ENDBLK
  5
21
330
1F
100
AcDbEntity
  8
0
100
AcDbBlockEnd
  0
BLOCK
  5
1C
330
1B
100
AcDbEntity
 67
     1
  8
0
100
AcDbBlockBegin
  2
*PAPER_SPACE
 70
     0
 10
0.0
 20
0.0
 30
0.0
  3
*PAPER_SPACE
  1

  0
ENDBLK
  5
1D
330
1B
100
AcDbEntity
 67
     1
  8
0
100
AcDbBlockEnd
  0
ENDSEC
  0
SECTION
  2
ENTITIES
  0
LINE
  5
6F
330
1F
100
AcDbEntity
  8
0
100
AcDbLine
 10
22.13705097513528
 20
46.15827606382022
 30
-0.0000000000007219
 11
22.13705097513528
 21
26.15827606382026
 31
-0.0000000000007219
  0
LINE
  5
70
330
1F
100
AcDbEntity
  8
0
100
AcDbLine
 10
22.13705097513528
 20
26.15827606382026
 30
-0.0000000000007219
 11
32.13705097513525
 21
26.15827606382026
 31
-0.0000000000007219
  0
LINE
  5
71
330
1F
100
AcDbEntity
  8
0
100
AcDbLine
 10
32.13705097513525
 20
26.15827606382026
 30
-0.0000000000007219
 11
32.13705097513525
 21
46.15827606382022
 31
-0.0000000000007219
  0
LINE
  5
72
330
1F
100
AcDbEntity
  8
0
100
AcDbLine
 10
32.13705097513525
 20
46.15827606382022
 30
-0.0000000000007219
 11
22.13705097513528
 21
46.15827606382022
 31
-0.0000000000007219
  0
LINE
  5
73
330
1F
100
AcDbEntity
  8
0
100
AcDbLine
 10
22.13705097513528
 20
23.48190888793095
 30
1.882395994608106
 11
32.13705097513525
 21
23.48190888793095
 31
1.882395994608106
  0
LINE
  5
74
330
1F
100
AcDbEntity
  8
0
100
AcDbLine
 10
32.13705097513525
 20
51.15827606382022
 30
5.499999999999278
 11
22.13705097513528
 21
51.15827606382022
 31
5.499999999999278
  0
LINE
  5
75
330
1F
100
AcDbEntity
  8
0
100
AcDbLine
 10
32.13705097513525
 20
26.15827606382026
 30
-0.0000000000007219
 11
32.13705097513525
 21
23.48190888793095
 31
1.882395994608106
  0
LINE
  5
76
330
1F
100
AcDbEntity
  8
0
100
AcDbLine
 10
32.13705097513525
 20
46.15827606382022
 30
-0.0000000000007219
 11
32.13705097513525
 21
51.15827606382022
 31
5.499999999999278
  0
LINE
  5
77
330
1F
100
AcDbEntity
  8
0
100
AcDbLine
 10
22.13705097513528
 20
26.15827606382026
 30
-0.0000000000007219
 11
22.13705097513528
 21
23.48190888793095
 31
1.882395994608106
  0
LINE
  5
78
330
1F
100
AcDbEntity
  8
0
100
AcDbLine
 10
22.13705097513528
 20
46.15827606382022
 30
-0.0000000000007219
 11
22.13705097513528
 21
51.15827606382022
 31
5.499999999999278
  0
LINE
  5
79
330
1F
100
AcDbEntity
  8
0
100
AcDbLine
 10
23.13705097513528
 20
32.40599618520054
 30
3.048871845498957
 11
31.13705097513525
 21
32.40599618520054
 31
3.048871845498958
  0
LINE
  5
7A
330
1F
100
AcDbEntity
  8
0
100
AcDbLine
 10
23.13705097513528
 20
41.24262351129845
 30
4.203915721231675
 11
23.13705097513525
 21
36.32198459277958
 31
4.143911866322966
  0
LINE
  5
7B
330
1F
100
AcDbEntity
  8
0
100
AcDbLine
 10
23.13705097513528
 20
31.45348937492605
 30
4.084543868485043
 11
31.13705097513525
 21
31.45348937492605
 31
4.084543868485045
  0
LINE
  5
7C
330
1F
100
AcDbEntity
  8
0
100
AcDbLine
 10
31.13705097513525
 20
31.45348937492605
 30
4.084543868485045
 11
31.13705097513525
 21
36.34805644311226
 31
4.14422979485836
  0
LINE
  5
7D
330
1F
100
AcDbEntity
  8
0
100
AcDbLine
 10
31.13705097513525
 20
41.24262351129845
 30
4.203915721231675
 11
23.13705097513528
 21
41.24262351129845
 31
4.203915721231675
  0
LINE
  5
7E
330
1F
100
AcDbEntity
  8
0
100
AcDbLine
 10
23.13705097513528
 20
32.40599618520054
 30
3.048871845498957
 11
23.13705097513528
 21
31.45348937492605
 31
4.084543868485043
  0
LINE
  5
7F
330
1F
100
AcDbEntity
  8
0
100
AcDbLine
 10
31.13705097513525
 20
32.40599618520054
 30
3.048871845498958
 11
31.13705097513525
 21
31.45348937492605
 31
4.084543868485045
  0
ARC
  5
80
330
1F
100
AcDbEntity
  8
0
100
AcDbCircle
 10
-27.13705097513525
 20
36.38284966025716
 30
-3.70071475361561
 40
4.000021245020402
210
5.174299903987593E-17
220
0.01219341534067516
230
-0.9999256575477649
100
AcDbArc
 50
179.8132609050012
 51
359.8132609050012
  0
ARC
  5
81
330
1F
100
AcDbEntity
  8
0
100
AcDbCircle
 10
-27.13705097513525
 20
36.38284966025716
 30
-3.70071475361561
 40
4.000021245020402
210
5.174299903987593E-17
220
0.01219341534067516
230
-0.9999256575477649
100
AcDbArc
 50
359.8132609050012
 51
179.8132609050012
  0
LINE
  5
82
330
1F
100
AcDbEntity
  8
0
100
AcDbLine
 10
23.13705097513525
 20
36.32198459277958
 30
4.143911866322966
 11
23.13705097513528
 21
31.45348937492605
 31
4.084543868485043
  0
LINE
  5
83
330
1F
100
AcDbEntity
  8
0
100
AcDbLine
 10
31.13705097513525
 20
36.34805644311226
 30
4.14422979485836
 11
31.13705097513525
 21
41.24262351129845
 31
4.203915721231675
  0
LINE
  5
84
330
1F
100
AcDbEntity
  8
0
100
AcDbLine
 10
32.13705097513525
 20
23.48190888793095
 30
1.882395994608106
 11
32.13705097513525
 21
51.15827606382022
 31
5.499999999999278
  0
LINE
  5
85
330
1F
100
AcDbEntity
  8
0
100
AcDbLine
 10
22.13705097513528
 20
51.15827606382022
 30
5.499999999999278
 11
22.13705097513528
 21
23.48190888793095
 31
1.882395994608106
  0
LINE
  5
86
330
1F
100
AcDbEntity
  8
0
100
AcDbLine
 10
23.13705097513528
 20
41.24262351129845
 30
4.203915721231675
 11
23.13705097513528
 21
32.40599618520054
 31
3.048871845498957
  0
LINE
  5
87
330
1F
100
AcDbEntity
  8
0
100
AcDbLine
 10
31.13705097513525
 20
32.40599618520054
 30
3.048871845498958
 11
31.13705097513525
 21
41.24262351129845
 31
4.203915721231675
  0
ARC
  5
88
330
1F
100
AcDbEntity
  8
0
100
AcDbCircle
 10
-27.13705097513525
 20
36.38284966025716
 30
-18.00071475361561
 40
4.000021245020402
210
5.174299903987593E-17
220
0.01219341534067516
230
-0.9999256575477649
100
AcDbArc
 50
359.8132609050012
 51
179.8132609050012
  0
ARC
  5
89
330
1F
100
AcDbEntity
  8
0
100
AcDbCircle
 10
-27.13705097513525
 20
36.38284966025716
 30
-18.00071475361561
 40
4.000021245020402
210
5.174299903987593E-17
220
0.01219341534067516
230
-0.9999256575477649
100
AcDbArc
 50
179.8132609050012
 51
359.8132609050012
  0
LINE
  5
8A
330
1F
100
AcDbEntity
  8
0
100
AcDbLine
 10
23.13705097513525
 20
36.32198459277958
 30
4.143911866322966
 11
23.13705097513525
 21
36.14761875340793
 31
18.44284876925601
  0
LINE
  5
8B
330
1F
100
AcDbEntity
  8
0
100
AcDbLine
 10
23.26997347342935
 20
37.35762799659827
 30
4.156540835359086
 11
23.26997347342935
 21
37.18326215722661
 31
18.45547773829213
  0
LINE
  5
8C
330
1F
100
AcDbEntity
  8
0
100
AcDbLine
 10
23.2767218665286
 20
35.28722956571809
 30
4.13129373043899
 11
23.2767218665286
 21
35.11286372634643
 31
18.43023063337203
  0
LINE
  5
8D
330
1F
100
AcDbEntity
  8
0
100
AcDbLine
 10
23.67946780717801
 20
34.32387976049451
 30
4.119546332815193
 11
23.67946780717801
 21
34.14951392112285
 31
18.41848323574823
  0
LINE
  5
8E
330
1F
100
AcDbEntity
  8
0
100
AcDbLine
 10
24.31784232679736
 20
33.497585874324
 30
4.109470239186146
 11
24.31784232679736
 21
33.32322003495234
 31
18.40840714211918
  0
LINE
  5
8F
330
1F
100
AcDbEntity
  8
0
100
AcDbLine
 10
25.14834125683836
 20
32.86465847003385
 30
4.101752118681136
 11
25.14834125683836
 21
32.6902926306622
 31
18.40068902161418
  0
LINE
  5
90
330
1F
100
AcDbEntity
  8
0
100
AcDbLine
 10
26.11436746768309
 20
32.46823050426448
 30
4.096917948457783
 11
26.11436746768309
 21
32.29386466489282
 31
18.39585485139082
  0
LINE
  5
91
330
1F
100
AcDbEntity
  8
0
100
AcDbLine
 10
27.15008786949628
 20
32.33531788775486
 30
4.095297169227963
 11
27.15008786949628
 21
32.16095204838321
 31
18.394234072161
  0
LINE
  5
92
330
1F
100
AcDbEntity
  8
0
100
AcDbLine
 10
28.18491982850325
 20
32.47497839567164
 30
4.097000234417724
 11
28.18491982850325
 21
32.30061255629999
 31
18.39593713735076
  0
LINE
  5
93
330
1F
100
AcDbEntity
  8
0
100
AcDbLine
 10
29.14834125683836
 20
32.87769439520019
 30
4.101911082948833
 11
29.14834125683836
 21
32.70332855582854
 31
18.40084798588187
  0
LINE
  5
94
330
1F
100
AcDbEntity
  8
0
100
AcDbLine
 10
29.97469657628974
 20
33.51602145649231
 30
4.109695048609456
 11
29.97469657628974
 21
33.34165561712066
 31
18.4086319515425
  0
LINE
  5
95
330
1F
100
AcDbEntity
  8
0
100
AcDbLine
 10
30.60767103745352
 20
34.34645864520627
 30
4.119821667003432
 11
30.60767103745352
 21
34.17209280583462
 31
18.41875856993647
  0
LINE
  5
96
330
1F
100
AcDbEntity
  8
0
100
AcDbLine
 10
31.00412847684115
 20
35.31241303929357
 30
4.131600825822241
 11
31.00412847684115
 21
35.13804719992191
 31
18.43053772875528
  0
LINE
  5
97
330
1F
100
AcDbEntity
  8
0
100
AcDbLine
 10
31.13705097513525
 20
36.34805644311226
 30
4.14422979485836
 11
31.13705097513525
 21
36.1736906037406
 31
18.4431666977914
  0
LINE
  5
98
330
1F
100
AcDbEntity
  8
0
100
AcDbLine
 10
30.99738008374189
 20
37.38281147017375
 30
4.156847930742336
 11
30.99738008374189
 21
37.2084456308021
 31
18.45578483367538
  0
LINE
  5
99
330
1F
100
AcDbEntity
  8
0
100
AcDbLine
 10
30.59463414309248
 20
38.34616127539733
 30
4.168595328366133
 11
30.59463414309248
 21
38.17179543602568
 31
18.46753223129917
  0
LINE
  5
9A
330
1F
100
AcDbEntity
  8
0
100
AcDbLine
 10
29.95625962347313
 20
39.17245516156784
 30
4.17867142199518
 11
29.95625962347313
 21
38.99808932219619
 31
18.47760832492822
  0
LINE
  5
9B
330
1F
100
AcDbEntity
  8
0
100
AcDbLine
 10
29.12576069343213
 20
39.80538256585798
 30
4.18638954250019
 11
29.12576069343213
 21
39.63101672648633
 31
18.48532644543323
  0
LINE
  5
9C
330
1F
100
AcDbEntity
  8
0
100
AcDbLine
 10
28.1597344825874
 20
40.20181053162736
 30
4.191223712723543
 11
28.1597344825874
 21
40.0274446922557
 31
18.49016061565658
  0
LINE
  5
9D
330
1F
100
AcDbEntity
  8
0
100
AcDbLine
 10
27.12401408077421
 20
40.33472314813697
 30
4.192844491953363
 11
27.12401408077421
 21
40.16035730876532
 31
18.4917813948864
  0
LINE
  5
9E
330
1F
100
AcDbEntity
  8
0
100
AcDbLine
 10
26.08918212176723
 20
40.19506264022019
 30
4.191141426763602
 11
26.08918212176723
 21
40.02069680084854
 31
18.49007832969664
  0
LINE
  5
9F
330
1F
100
AcDbEntity
  8
0
100
AcDbLine
 10
25.12576069343213
 20
39.79234664069164
 30
4.186230578232492
 11
25.12576069343213
 21
39.61798080131999
 31
18.48516748116553
  0
LINE
  5
A0
330
1F
100
AcDbEntity
  8
0
100
AcDbLine
 10
24.29940537398075
 20
39.15401957939952
 30
4.17844661257187
 11
24.29940537398075
 21
38.97965374002787
 31
18.47738351550491
  0
LINE
  5
A1
330
1F
100
AcDbEntity
  8
0
100
AcDbLine
 10
23.66643091281697
 20
38.32358239068557
 30
4.168319994177893
 11
23.66643091281697
 21
38.14921655131391
 31
18.46725689711093
  0
CIRCLE
  5
A2
330
1F
100
AcDbEntity
  8
0
100
AcDbCircle
 10
-27.13705097513524
 20
36.38284966025716
 30
-18.00071475361561
 40
1.199999999999998
210
-1.819050311614576E-16
220
0.01219341534067542
230
-0.9999256575477647
  0
POLYLINE
  5
A3
330
1F
100
AcDbEntity
  8
0
100
AcDb3dPolyline
 66
     1
 10
0.0
 20
0.0
 30
0.0
 70
     9
  0
VERTEX
  5
A4
330
A3
100
AcDbEntity
  8
0
100
AcDbVertex
100
AcDb3dPolylineVertex
 10
26.04315139304088
 20
35.75880262978485
 30
10.93754981044016
 70
    32
  0
VERTEX
  5
A5
330
A3
100
AcDbEntity
  8
0
100
AcDbVertex
100
AcDb3dPolylineVertex
 10
25.95273950055884
 20
36.05871250773333
 30
10.94120700803179
 70
    32
  0
VERTEX
  5
A6
330
A3
100
AcDbEntity
  8
0
100
AcDbVertex
100
AcDb3dPolylineVertex
 10
25.94303647790194
 20
36.37180178444394
 30
10.94502491945434
 70
    32
  0
VERTEX
  5
A7
330
A3
100
AcDbEntity
  8
0
100
AcDbVertex
100
AcDb3dPolylineVertex
 10
26.01470357002924
 20
36.67673394311334
 30
10.94874336035374
 70
    32
  0
VERTEX
  5
A8
330
A3
100
AcDbEntity
  8
0
100
AcDbVertex
100
AcDb3dPolylineVertex
 10
26.16285678304772
 20
36.95272836105242
 30
10.95210892512771
 70
    32
  0
VERTEX
  5
A9
330
A3
100
AcDbEntity
  8
0
100
AcDbVertex
100
AcDb3dPolylineVertex
 10
26.37739972032496
 20
37.18097647478098
 30
10.95489225609878
 70
    32
  0
VERTEX
  5
AA
330
A3
100
AcDbEntity
  8
0
100
AcDbVertex
100
AcDb3dPolylineVertex
 10
26.64371163523445
 20
37.34592355254627
 30
10.95690367386093
 70
    32
  0
VERTEX
  5
AB
330
A3
100
AcDbEntity
  8
0
100
AcDbVertex
100
AcDb3dPolylineVertex
 10
26.94364381087638
 20
37.43632872358651
 30
10.9580061036177
 70
    32
  0
VERTEX
  5
AC
330
A3
100
AcDbEntity
  8
0
100
AcDbVertex
100
AcDb3dPolylineVertex
 10
27.25675636514209
 20
37.4460310248969
 30
10.95812441660302
 70
    32
  0
VERTEX
  5
AD
330
A3
100
AcDbEntity
  8
0
100
AcDbVertex
100
AcDb3dPolylineVertex
 10
27.56171119490136
 20
37.37436926067698
 30
10.95725054998245
 70
    32
  0
VERTEX
  5
AE
330
A3
100
AcDbEntity
  8
0
100
AcDbVertex
100
AcDb3dPolylineVertex
 10
27.83772613246775
 20
37.22622706173166
 30
10.95544405632206
 70
    32
  0
VERTEX
  5
AF
330
A3
100
AcDbEntity
  8
0
100
AcDbVertex
100
AcDb3dPolylineVertex
 10
28.06599121598239
 20
37.01170007410249
 30
10.95282804517943
 70
    32
  0
VERTEX
  5
B0
330
A3
100
AcDbEntity
  8
0
100
AcDbVertex
100
AcDb3dPolylineVertex
 10
28.23095055722962
 20
36.74540795747382
 30
10.94958079339077
 70
    32
  0
VERTEX
  5
B1
330
A3
100
AcDbEntity
  8
0
100
AcDbVertex
100
AcDb3dPolylineVertex
 10
28.32136244971165
 20
36.44549807952533
 30
10.94592359579914
 70
    32
  0
VERTEX
  5
B2
330
A3
100
AcDbEntity
  8
0
100
AcDbVertex
100
AcDb3dPolylineVertex
 10
28.33106547236855
 20
36.13240880281472
 30
10.94210568437659
 70
    32
  0
VERTEX
  5
B3
330
A3
100
AcDbEntity
  8
0
100
AcDbVertex
100
AcDb3dPolylineVertex
 10
28.25939838024125
 20
35.82747664414532
 30
10.93838724347719
 70
    32
  0
VERTEX
  5
B4
330
A3
100
AcDbEntity
  8
0
100
AcDbVertex
100
AcDb3dPolylineVertex
 10
28.11124516722277
 20
35.55148222620624
 30
10.93502167870322
 70
    32
  0
VERTEX
  5
B5
330
A3
100
AcDbEntity
  8
0
100
AcDbVertex
100
AcDb3dPolylineVertex
 10
27.89670222994554
 20
35.32323411247768
 30
10.93223834773215
 70
    32
  0
VERTEX
  5
B6
330
A3
100
AcDbEntity
  8
0
100
AcDbVertex
100
AcDb3dPolylineVertex
 10
27.63039031503604
 20
35.15828703471239
 30
10.93022692997
 70
    32
  0
VERTEX
  5
B7
330
A3
100
AcDbEntity
  8
0
100
AcDbVertex
100
AcDb3dPolylineVertex
 10
27.33045813939411
 20
35.06788186367216
 30
10.92912450021323
 70
    32
  0
VERTEX
  5
B8
330
A3
100
AcDbEntity
  8
0
100
AcDbVertex
100
AcDb3dPolylineVertex
 10
27.0173455851284
 20
35.05817956236175
 30
10.92900618722791
 70
    32
  0
VERTEX
  5
B9
330
A3
100
AcDbEntity
  8
0
100
AcDbVertex
100
AcDb3dPolylineVertex
 10
26.71239075536914
 20
35.12984132658168
 30
10.92988005384848
 70
    32
  0
VERTEX
  5
BA
330
A3
100
AcDbEntity
  8
0
100
AcDbVertex
100
AcDb3dPolylineVertex
 10
26.43637581780274
 20
35.277983525527
 30
10.93168654750887
 70
    32
  0
VERTEX
  5
BB
330
A3
100
AcDbEntity
  8
0
100
AcDbVertex
100
AcDb3dPolylineVertex
 10
26.20811073428811
 20
35.49251051315616
 30
10.9343025586515
 70
    32
  0
VERTEX
  5
BC
330
A3
100
AcDbEntity
  8
0
100
AcDbVertex
100
AcDb3dPolylineVertex
 10
26.04315139304088
 20
35.75880262978485
 30
10.93754981044016
 70
    32
  0
SEQEND
  5
BD
330
A3
100
AcDbEntity
  8
0
  0
LINE
  5
BE
330
1F
100
AcDbEntity
  8
0
100
AcDbLine
 10
26.04315139304088
 20
35.66735201472978
 30
18.4369922420484
 11
26.04315139304088
 21
35.75880262978485
 31
10.93754981044016
  0
LINE
  5
BF
330
1F
100
AcDbEntity
  8
0
100
AcDbLine
 10
25.95273950055884
 20
35.96726189267827
 30
18.44064943964003
 11
25.95273950055884
 21
36.05871250773333
 31
10.94120700803179
  0
LINE
  5
C0
330
1F
100
AcDbEntity
  8
0
100
AcDbLine
 10
26.20811073428811
 20
35.4010598981011
 30
18.43374499025974
 11
26.20811073428811
 21
35.49251051315616
 31
10.9343025586515
  0
LINE
  5
C1
330
1F
100
AcDbEntity
  8
0
100
AcDbLine
 10
26.43637581780274
 20
35.18653291047193
 30
18.43112897911711
 11
26.43637581780274
 21
35.277983525527
 31
10.93168654750887
  0
LINE
  5
C2
330
1F
100
AcDbEntity
  8
0
100
AcDbLine
 10
26.71239075536914
 20
35.03839071152661
 30
18.42932248545672
 11
26.71239075536914
 21
35.12984132658168
 31
10.92988005384848
  0
LINE
  5
C3
330
1F
100
AcDbEntity
  8
0
100
AcDbLine
 10
27.0173455851284
 20
34.96672894730669
 30
18.42844861883615
 11
27.0173455851284
 21
35.05817956236175
 31
10.92900618722791
  0
LINE
  5
C4
330
1F
100
AcDbEntity
  8
0
100
AcDbLine
 10
27.33045813939411
 20
34.97643124861709
 30
18.42856693182146
 11
27.33045813939411
 21
35.06788186367216
 31
10.92912450021323
  0
LINE
  5
C5
330
1F
100
AcDbEntity
  8
0
100
AcDbLine
 10
27.63039031503604
 20
35.06683641965732
 30
18.42966936157823
 11
27.63039031503604
 21
35.15828703471239
 31
10.93022692997
  0
LINE
  5
C6
330
1F
100
AcDbEntity
  8
0
100
AcDbLine
 10
27.89670222994554
 20
35.23178349742261
 30
18.43168077934039
 11
27.89670222994554
 21
35.32323411247768
 31
10.93223834773215
  0
LINE
  5
C7
330
1F
100
AcDbEntity
  8
0
100
AcDbLine
 10
28.11124516722277
 20
35.46003161115117
 30
18.43446411031146
 11
28.11124516722277
 21
35.55148222620624
 31
10.93502167870322
  0
LINE
  5
C8
330
1F
100
AcDbEntity
  8
0
100
AcDbLine
 10
28.25939838024125
 20
35.73602602909025
 30
18.43782967508543
 11
28.25939838024125
 21
35.82747664414532
 31
10.93838724347719
  0
LINE
  5
C9
330
1F
100
AcDbEntity
  8
0
100
AcDbLine
 10
28.33106547236855
 20
36.04095818775966
 30
18.44154811598483
 11
28.33106547236855
 21
36.13240880281472
 31
10.94210568437659
  0
LINE
  5
CA
330
1F
100
AcDbEntity
  8
0
100
AcDbLine
 10
28.32136244971165
 20
36.35404746447026
 30
18.44536602740737
 11
28.32136244971165
 21
36.44549807952533
 31
10.94592359579914
  0
LINE
  5
CB
330
1F
100
AcDbEntity
  8
0
100
AcDbLine
 10
28.23095055722962
 20
36.65395734241875
 30
18.44902322499901
 11
28.23095055722962
 21
36.74540795747382
 31
10.94958079339077
  0
LINE
  5
CC
330
1F
100
AcDbEntity
  8
0
100
AcDbLine
 10
28.06599121598239
 20
36.92024945904743
 30
18.45227047678767
 11
28.06599121598239
 21
37.01170007410249
 31
10.95282804517943
  0
LINE
  5
CD
330
1F
100
AcDbEntity
  8
0
100
AcDbLine
 10
27.83772613246775
 20
37.1347764466766
 30
18.4548864879303
 11
27.83772613246775
 21
37.22622706173166
 31
10.95544405632206
  0
LINE
  5
CE
330
1F
100
AcDbEntity
  8
0
100
AcDbLine
 10
27.56171119490136
 20
37.28291864562192
 30
18.45669298159069
 11
27.56171119490136
 21
37.37436926067698
 31
10.95725054998245
  0
LINE
  5
CF
330
1F
100
AcDbEntity
  8
0
100
AcDbLine
 10
27.25675636514209
 20
37.35458040984184
 30
18.45756684821126
 11
27.25675636514209
 21
37.4460310248969
 31
10.95812441660302
  0
LINE
  5
D0
330
1F
100
AcDbEntity
  8
0
100
AcDbLine
 10
26.94364381087638
 20
37.34487810853144
 30
18.45744853522594
 11
26.94364381087638
 21
37.43632872358651
 31
10.9580061036177
  0
LINE
  5
D1
330
1F
100
AcDbEntity
  8
0
100
AcDbLine
 10
26.64371163523445
 20
37.25447293749121
 30
18.45634610546917
 11
26.64371163523445
 21
37.34592355254627
 31
10.95690367386093
  0
LINE
  5
D2
330
1F
100
AcDbEntity
  8
0
100
AcDbLine
 10
26.37739972032496
 20
37.08952585972592
 30
18.45433468770702
 11
26.37739972032496
 21
37.18097647478098
 31
10.95489225609878
  0
LINE
  5
D3
330
1F
100
AcDbEntity
  8
0
100
AcDbLine
 10
26.16285678304772
 20
36.86127774599736
 30
18.45155135673595
 11
26.16285678304772
 21
36.95272836105242
 31
10.95210892512771
  0
LINE
  5
D4
330
1F
100
AcDbEntity
  8
0
100
AcDbLine
 10
26.01470357002924
 20
36.58528332805827
 30
18.44818579196198
 11
26.01470357002924
 21
36.67673394311334
 31
10.94874336035374
  0
LINE
  5
D5
330
1F
100
AcDbEntity
  8
0
100
AcDbLine
 10
25.94303647790194
 20
36.28035116938887
 30
18.44446735106257
 11
25.94303647790194
 21
36.37180178444394
 31
10.94502491945434
  0
POLYLINE
  5
D6
330
1F
100
AcDbEntity
  8
0
100
AcDbPolyFaceMesh
 66
     1
 10
0.0
 20
0.0
 30
0.0
 70
    64
 71
     4
 72
     2
  0
VERTEX
  5
D7
330
D6
100
AcDbEntity
  8
0
100
AcDbVertex
100
AcDbPolyFaceMeshVertex
 10
32.13705097513525
 20
46.15827606382022
 30
-0.0000000000007219
 70
   192
  0
VERTEX
  5
D8
330
D6
100
AcDbEntity
  8
0
100
AcDbVertex
100
AcDbPolyFaceMeshVertex
 10
22.13705097513528
 20
26.15827606382026
 30
-0.0000000000007219
 70
   192
  0
VERTEX
  5
D9
330
D6
100
AcDbEntity
  8
0
100
AcDbVertex
100
AcDbPolyFaceMeshVertex
 10
22.13705097513528
 20
46.15827606382022
 30
-0.0000000000007219
 70
   192
  0
VERTEX
  5
DA
330
D6
100
AcDbEntity
  8
0
100
AcDbVertex
100
AcDbPolyFaceMeshVertex
 10
32.13705097513525
 20
26.15827606382026
 30
-0.0000000000007219
 70
   192
  0
VERTEX
  5
DB
330
D6
100
AcDbEntity
  8
0
100
AcDbFaceRecord
 10
0.0
 20
0.0
 30
0.0
 70
   128
 71
    -1
 72
     2
 73
     3
  0
VERTEX
  5
DC
330
D6
100
AcDbEntity
  8
0
100
AcDbFaceRecord
 10
0.0
 20
0.0
 30
0.0
 70
   128
 71
    -2
 72
     1
 73
     4
  0
SEQEND
  5
DD
330
D6
100
AcDbEntity
  8
0
  0
POLYLINE
  5
DE
330
1F
100
AcDbEntity
  8
0
100
AcDbPolyFaceMesh
 66
     1
 10
0.0
 20
0.0
 30
0.0
 70
    64
 71
     4
 72
     2
  0
VERTEX
  5
DF
330
DE
100
AcDbEntity
  8
0
100
AcDbVertex
100
AcDbPolyFaceMeshVertex
 10
32.13705097513525
 20
26.15827606382026
 30
-0.0000000000007219
 70
   192
  0
VERTEX
  5
E0
330
DE
100
AcDbEntity
  8
0
100
AcDbVertex
100
AcDbPolyFaceMeshVertex
 10
32.13705097513525
 20
51.15827606382022
 30
5.499999999999278
 70
   192
  0
VERTEX
  5
E1
330
DE
100
AcDbEntity
  8
0
100
AcDbVertex
100
AcDbPolyFaceMeshVertex
 10
32.13705097513525
 20
23.48190888793095
 30
1.882395994608106
 70
   192
  0
VERTEX
  5
E2
330
DE
100
AcDbEntity
  8
0
100
AcDbVertex
100
AcDbPolyFaceMeshVertex
 10
32.13705097513525
 20
46.15827606382022
 30
-0.0000000000007219
 70
   192
  0
VERTEX
  5
E3
330
DE
100
AcDbEntity
  8
0
100
AcDbFaceRecord
 10
0.0
 20
0.0
 30
0.0
 70
   128
 71
    -1
 72
     2
 73
     3
  0
VERTEX
  5
E4
330
DE
100
AcDbEntity
  8
0
100
AcDbFaceRecord
 10
0.0
 20
0.0
 30
0.0
 70
   128
 71
    -2
 72
     1
 73
     4
  0
SEQEND
  5
E5
330
DE
100
AcDbEntity
  8
0
  0
POLYLINE
  5
E6
330
1F
100
AcDbEntity
  8
0
100
AcDbPolyFaceMesh
 66
     1
 10
0.0
 20
0.0
 30
0.0
 70
    64
 71
     4
 72
     2
  0
VERTEX
  5
E7
330
E6
100
AcDbEntity
  8
0
100
AcDbVertex
100
AcDbPolyFaceMeshVertex
 10
32.13705097513525
 20
26.15827606382026
 30
-0.0000000000007219
 70
   192
  0
VERTEX
  5
E8
330
E6
100
AcDbEntity
  8
0
100
AcDbVertex
100
AcDbPolyFaceMeshVertex
 10
22.13705097513528
 20
23.48190888793095
 30
1.882395994608106
 70
   192
  0
VERTEX
  5
E9
330
E6
100
AcDbEntity
  8
0
100
AcDbVertex
100
AcDbPolyFaceMeshVertex
 10
22.13705097513528
 20
26.15827606382026
 30
-0.0000000000007219
 70
   192
  0
VERTEX
  5
EA
330
E6
100
AcDbEntity
  8
0
100
AcDbVertex
100
AcDbPolyFaceMeshVertex
 10
32.13705097513525
 20
23.48190888793095
 30
1.882395994608106
 70
   192
  0
VERTEX
  5
EB
330
E6
100
AcDbEntity
  8
0
100
AcDbFaceRecord
 10
0.0
 20
0.0
 30
0.0
 70
   128
 71
    -1
 72
     2
 73
     3
  0
VERTEX
  5
EC
330
E6
100
AcDbEntity
  8
0
100
AcDbFaceRecord
 10
0.0
 20
0.0
 30
0.0
 70
   128
 71
    -2
 72
     1
 73
     4
  0
SEQEND
  5
ED
330
E6
100
AcDbEntity
  8
0
  0
POLYLINE
  5
EE
330
1F
100
AcDbEntity
  8
0
100
AcDbPolyFaceMesh
 66
     1
 10
0.0
 20
0.0
 30
0.0
 70
    64
 71
     4
 72
     2
  0
VERTEX
  5
EF
330
EE
100
AcDbEntity
  8
0
100
AcDbVertex
100
AcDbPolyFaceMeshVertex
 10
22.13705097513528
 20
51.15827606382022
 30
5.499999999999278
 70
   192
  0
VERTEX
  5
F0
330
EE
100
AcDbEntity
  8
0
100
AcDbVertex
100
AcDbPolyFaceMeshVertex
 10
22.13705097513528
 20
26.15827606382026
 30
-0.0000000000007219
 70
   192
  0
VERTEX
  5
F1
330
EE
100
AcDbEntity
  8
0
100
AcDbVertex
100
AcDbPolyFaceMeshVertex
 10
22.13705097513528
 20
23.48190888793095
 30
1.882395994608106
 70
   192
  0
VERTEX
  5
F2
330
EE
100
AcDbEntity
  8
0
100
AcDbVertex
100
AcDbPolyFaceMeshVertex
 10
22.13705097513528
 20
46.15827606382022
 30
-0.0000000000007219
 70
   192
  0
VERTEX
  5
F3
330
EE
100
AcDbEntity
  8
0
100
AcDbFaceRecord
 10
0.0
 20
0.0
 30
0.0
 70
   128
 71
    -1
 72
     2
 73
     3
  0
VERTEX
  5
F4
330
EE
100
AcDbEntity
  8
0
100
AcDbFaceRecord
 10
0.0
 20
0.0
 30
0.0
 70
   128
 71
    -2
 72
     1
 73
     4
  0
SEQEND
  5
F5
330
EE
100
AcDbEntity
  8
0
  0
POLYLINE
  5
F6
330
1F
100
AcDbEntity
  8
0
100
AcDbPolyFaceMesh
 66
     1
 10
0.0
 20
0.0
 30
0.0
 70
    64
 71
     4
 72
     2
  0
VERTEX
  5
F7
330
F6
100
AcDbEntity
  8
0
100
AcDbVertex
100
AcDbPolyFaceMeshVertex
 10
22.13705097513528
 20
51.15827606382022
 30
5.499999999999278
 70
   192
  0
VERTEX
  5
F8
330
F6
100
AcDbEntity
  8
0
100
AcDbVertex
100
AcDbPolyFaceMeshVertex
 10
32.13705097513525
 20
46.15827606382022
 30
-0.0000000000007219
 70
   192
  0
VERTEX
  5
F9
330
F6
100
AcDbEntity
  8
0
100
AcDbVertex
100
AcDbPolyFaceMeshVertex
 10
22.13705097513528
 20
46.15827606382022
 30
-0.0000000000007219
 70
   192
  0
VERTEX
  5
FA
330
F6
100
AcDbEntity
  8
0
100
AcDbVertex
100
AcDbPolyFaceMeshVertex
 10
32.13705097513525
 20
51.15827606382022
 30
5.499999999999278
 70
   192
  0
VERTEX
  5
FB
330
F6
100
AcDbEntity
  8
0
100
AcDbFaceRecord
 10
0.0
 20
0.0
 30
0.0
 70
   128
 71
    -1
 72
     2
 73
     3
  0
VERTEX
  5
FC
330
F6
100
AcDbEntity
  8
0
100
AcDbFaceRecord
 10
0.0
 20
0.0
 30
0.0
 70
   128
 71
    -2
 72
     1
 73
     4
  0
SEQEND
  5
FD
330
F6
100
AcDbEntity
  8
0
  0
POLYLINE
  5
FE
330
1F
100
AcDbEntity
  8
0
100
AcDbPolyFaceMesh
 66
     1
 10
0.0
 20
0.0
 30
0.0
 70
    64
 71
    15
 72
    13
  0
VERTEX
  5
FF
330
FE
100
AcDbEntity
  8
0
100
AcDbVertex
100
AcDbPolyFaceMeshVertex
 10
23.26997347342935
 20
37.35762799659827
 30
4.156540835359086
 70
   192
  0
VERTEX
  5
100
330
FE
100
AcDbEntity
  8
0
100
AcDbVertex
100
AcDbPolyFaceMeshVertex
 10
23.13705097513528
 20
41.24262351129845
 30
4.203915721231675
 70
   192
  0
VERTEX
  5
101
330
FE
100
AcDbEntity
  8
0
100
AcDbVertex
100
AcDbPolyFaceMeshVertex
 10
23.13705097513525
 20
36.32198459277958
 30
4.143911866322966
 70
   192
  0
VERTEX
  5
102
330
FE
100
AcDbEntity
  8
0
100
AcDbVertex
100
AcDbPolyFaceMeshVertex
 10
23.66643091281697
 20
38.32358239068557
 30
4.168319994177893
 70
   192
  0
VERTEX
  5
103
330
FE
100
AcDbEntity
  8
0
100
AcDbVertex
100
AcDbPolyFaceMeshVertex
 10
24.29940537398075
 20
39.15401957939952
 30
4.17844661257187
 70
   192
  0
VERTEX
  5
104
330
FE
100
AcDbEntity
  8
0
100
AcDbVertex
100
AcDbPolyFaceMeshVertex
 10
25.12576069343213
 20
39.79234664069164
 30
4.186230578232492
 70
   192
  0
VERTEX
  5
105
330
FE
100
AcDbEntity
  8
0
100
AcDbVertex
100
AcDbPolyFaceMeshVertex
 10
26.08918212176723
 20
40.19506264022019
 30
4.191141426763602
 70
   192
  0
VERTEX
  5
106
330
FE
100
AcDbEntity
  8
0
100
AcDbVertex
100
AcDbPolyFaceMeshVertex
 10
31.13705097513525
 20
41.24262351129845
 30
4.203915721231675
 70
   192
  0
VERTEX
  5
107
330
FE
100
AcDbEntity
  8
0
100
AcDbVertex
100
AcDbPolyFaceMeshVertex
 10
27.12401408077421
 20
40.33472314813697
 30
4.192844491953363
 70
   192
  0
VERTEX
  5
108
330
FE
100
AcDbEntity
  8
0
100
AcDbVertex
100
AcDbPolyFaceMeshVertex
 10
28.1597344825874
 20
40.20181053162736
 30
4.191223712723543
 70
   192
  0
VERTEX
  5
109
330
FE
100
AcDbEntity
  8
0
100
AcDbVertex
100
AcDbPolyFaceMeshVertex
 10
29.12576069343213
 20
39.80538256585798
 30
4.18638954250019
 70
   192
  0
VERTEX
  5
10A
330
FE
100
AcDbEntity
  8
0
100
AcDbVertex
100
AcDbPolyFaceMeshVertex
 10
29.95625962347313
 20
39.17245516156784
 30
4.17867142199518
 70
   192
  0
VERTEX
  5
10B
330
FE
100
AcDbEntity
  8
0
100
AcDbVertex
100
AcDbPolyFaceMeshVertex
 10
30.59463414309248
 20
38.34616127539733
 30
4.168595328366133
 70
   192
  0
VERTEX
  5
10C
330
FE
100
AcDbEntity
  8
0
100
AcDbVertex
100
AcDbPolyFaceMeshVertex
 10
30.99738008374189
 20
37.38281147017375
 30
4.156847930742336
 70
   192
  0
VERTEX
  5
10D
330
FE
100
AcDbEntity
  8
0
100
AcDbVertex
100
AcDbPolyFaceMeshVertex
 10
31.13705097513525
 20
36.34805644311226
 30
4.14422979485836
 70
   192
  0
VERTEX
  5
10E
330
FE
100
AcDbEntity
  8
0
100
AcDbFaceRecord
 10
0.0
 20
0.0
 30
0.0
 70
   128
 71
    -1
 72
     2
 73
     3
  0
VERTEX
  5
10F
330
FE
100
AcDbEntity
  8
0
100
AcDbFaceRecord
 10
0.0
 20
0.0
 30
0.0
 70
   128
 71
    -2
 72
     1
 73
    -4
  0
VERTEX
  5
110
330
FE
100
AcDbEntity
  8
0
100
AcDbFaceRecord
 10
0.0
 20
0.0
 30
0.0
 70
   128
 71
    -2
 72
     4
 73
    -5
  0
VERTEX
  5
111
330
FE
100
AcDbEntity
  8
0
100
AcDbFaceRecord
 10
0.0
 20
0.0
 30
0.0
 70
   128
 71
    -2
 72
     5
 73
    -6
  0
VERTEX
  5
112
330
FE
100
AcDbEntity
  8
0
100
AcDbFaceRecord
 10
0.0
 20
0.0
 30
0.0
 70
   128
 71
    -2
 72
     6
 73
    -7
  0
VERTEX
  5
113
330
FE
100
AcDbEntity
  8
0
100
AcDbFaceRecord
 10
0.0
 20
0.0
 30
0.0
 70
   128
 71
    -2
 72
    -7
 73
     8
  0
VERTEX
  5
114
330
FE
100
AcDbEntity
  8
0
100
AcDbFaceRecord
 10
0.0
 20
0.0
 30
0.0
 70
   128
 71
    -8
 72
     7
 73
    -9
  0
VERTEX
  5
115
330
FE
100
AcDbEntity
  8
0
100
AcDbFaceRecord
 10
0.0
 20
0.0
 30
0.0
 70
   128
 71
    -8
 72
     9
 73
   -10
  0
VERTEX
  5
116
330
FE
100
AcDbEntity
  8
0
100
AcDbFaceRecord
 10
0.0
 20
0.0
 30
0.0
 70
   128
 71
    -8
 72
    10
 73
   -11
  0
VERTEX
  5
117
330
FE
100
AcDbEntity
  8
0
100
AcDbFaceRecord
 10
0.0
 20
0.0
 30
0.0
 70
   128
 71
    -8
 72
    11
 73
   -12
  0
VERTEX
  5
118
330
FE
100
AcDbEntity
  8
0
100
AcDbFaceRecord
 10
0.0
 20
0.0
 30
0.0
 70
   128
 71
    -8
 72
    12
 73
   -13
  0
VERTEX
  5
119
330
FE
100
AcDbEntity
  8
0
100
AcDbFaceRecord
 10
0.0
 20
0.0
 30
0.0
 70
   128
 71
    -8
 72
    13
 73
   -14
  0
VERTEX
  5
11A
330
FE
100
AcDbEntity
  8
0
100
AcDbFaceRecord
 10
0.0
 20
0.0
 30
0.0
 70
   128
 71
    -8
 72
    14
 73
    15
  0
SEQEND
  5
11B
330
FE
100
AcDbEntity
  8
0
  0
POLYLINE
  5
11C
330
1F
100
AcDbEntity
  8
0
100
AcDbPolyFaceMesh
 66
     1
 10
0.0
 20
0.0
 30
0.0
 70
    64
 71
     4
 72
     2
  0
VERTEX
  5
11D
330
11C
100
AcDbEntity
  8
0
100
AcDbVertex
100
AcDbPolyFaceMeshVertex
 10
23.13705097513525
 20
36.32198459277958
 30
4.143911866322966
 70
   192
  0
VERTEX
  5
11E
330
11C
100
AcDbEntity
  8
0
100
AcDbVertex
100
AcDbPolyFaceMeshVertex
 10
23.13705097513528
 20
32.40599618520054
 30
3.048871845498957
 70
   192
  0
VERTEX
  5
11F
330
11C
100
AcDbEntity
  8
0
100
AcDbVertex
100
AcDbPolyFaceMeshVertex
 10
23.13705097513528
 20
31.45348937492605
 30
4.084543868485043
 70
   192
  0
VERTEX
  5
120
330
11C
100
AcDbEntity
  8
0
100
AcDbVertex
100
AcDbPolyFaceMeshVertex
 10
23.13705097513528
 20
41.24262351129845
 30
4.203915721231675
 70
   192
  0
VERTEX
  5
121
330
11C
100
AcDbEntity
  8
0
100
AcDbFaceRecord
 10
0.0
 20
0.0
 30
0.0
 70
   128
 71
    -1
 72
     2
 73
     3
  0
VERTEX
  5
122
330
11C
100
AcDbEntity
  8
0
100
AcDbFaceRecord
 10
0.0
 20
0.0
 30
0.0
 70
   128
 71
    -2
 72
     1
 73
     4
  0
SEQEND
  5
123
330
11C
100
AcDbEntity
  8
0
  0
POLYLINE
  5
124
330
1F
100
AcDbEntity
  8
0
100
AcDbPolyFaceMesh
 66
     1
 10
0.0
 20
0.0
 30
0.0
 70
    64
 71
     4
 72
     2
  0
VERTEX
  5
125
330
124
100
AcDbEntity
  8
0
100
AcDbVertex
100
AcDbPolyFaceMeshVertex
 10
31.13705097513525
 20
32.40599618520054
 30
3.048871845498958
 70
   192
  0
VERTEX
  5
126
330
124
100
AcDbEntity
  8
0
100
AcDbVertex
100
AcDbPolyFaceMeshVertex
 10
23.13705097513528
 20
31.45348937492605
 30
4.084543868485043
 70
   192
  0
VERTEX
  5
127
330
124
100
AcDbEntity
  8
0
100
AcDbVertex
100
AcDbPolyFaceMeshVertex
 10
23.13705097513528
 20
32.40599618520054
 30
3.048871845498957
 70
   192
  0
VERTEX
  5
128
330
124
100
AcDbEntity
  8
0
100
AcDbVertex
100
AcDbPolyFaceMeshVertex
 10
31.13705097513525
 20
31.45348937492605
 30
4.084543868485045
 70
   192
  0
VERTEX
  5
129
330
124
100
AcDbEntity
  8
0
100
AcDbFaceRecord
 10
0.0
 20
0.0
 30
0.0
 70
   128
 71
    -1
 72
     2
 73
     3
  0
VERTEX
  5
12A
330
124
100
AcDbEntity
  8
0
100
AcDbFaceRecord
 10
0.0
 20
0.0
 30
0.0
 70
   128
 71
    -2
 72
     1
 73
     4
  0
SEQEND
  5
12B
330
124
100
AcDbEntity
  8
0
  0
POLYLINE
  5
12C
330
1F
100
AcDbEntity
  8
0
100
AcDbPolyFaceMesh
 66
     1
 10
0.0
 20
0.0
 30
0.0
 70
    64
 71
     4
 72
     2
  0
VERTEX
  5
12D
330
12C
100
AcDbEntity
  8
0
100
AcDbVertex
100
AcDbPolyFaceMeshVertex
 10
31.13705097513525
 20
32.40599618520054
 30
3.048871845498958
 70
   192
  0
VERTEX
  5
12E
330
12C
100
AcDbEntity
  8
0
100
AcDbVertex
100
AcDbPolyFaceMeshVertex
 10
31.13705097513525
 20
36.34805644311226
 30
4.14422979485836
 70
   192
  0
VERTEX
  5
12F
330
12C
100
AcDbEntity
  8
0
100
AcDbVertex
100
AcDbPolyFaceMeshVertex
 10
31.13705097513525
 20
31.45348937492605
 30
4.084543868485045
 70
   192
  0
VERTEX
  5
130
330
12C
100
AcDbEntity
  8
0
100
AcDbVertex
100
AcDbPolyFaceMeshVertex
 10
31.13705097513525
 20
41.24262351129845
 30
4.203915721231675
 70
   192
  0
VERTEX
  5
131
330
12C
100
AcDbEntity
  8
0
100
AcDbFaceRecord
 10
0.0
 20
0.0
 30
0.0
 70
   128
 71
    -1
 72
     2
 73
     3
  0
VERTEX
  5
132
330
12C
100
AcDbEntity
  8
0
100
AcDbFaceRecord
 10
0.0
 20
0.0
 30
0.0
 70
   128
 71
    -2
 72
     1
 73
     4
  0
SEQEND
  5
133
330
12C
100
AcDbEntity
  8
0
  0
POLYLINE
  5
134
330
1F
100
AcDbEntity
  8
0
100
AcDbPolyFaceMesh
 66
     1
 10
0.0
 20
0.0
 30
0.0
 70
    64
 71
    15
 72
    13
  0
VERTEX
  5
135
330
134
100
AcDbEntity
  8
0
100
AcDbVertex
100
AcDbPolyFaceMeshVertex
 10
23.13705097513528
 20
31.45348937492605
 30
4.084543868485043
 70
   192
  0
VERTEX
  5
136
330
134
100
AcDbEntity
  8
0
100
AcDbVertex
100
AcDbPolyFaceMeshVertex
 10
23.2767218665286
 20
35.28722956571809
 30
4.13129373043899
 70
   192
  0
VERTEX
  5
137
330
134
100
AcDbEntity
  8
0
100
AcDbVertex
100
AcDbPolyFaceMeshVertex
 10
23.13705097513525
 20
36.32198459277958
 30
4.143911866322966
 70
   192
  0
VERTEX
  5
138
330
134
100
AcDbEntity
  8
0
100
AcDbVertex
100
AcDbPolyFaceMeshVertex
 10
23.67946780717801
 20
34.32387976049451
 30
4.119546332815193
 70
   192
  0
VERTEX
  5
139
330
134
100
AcDbEntity
  8
0
100
AcDbVertex
100
AcDbPolyFaceMeshVertex
 10
24.31784232679736
 20
33.497585874324
 30
4.109470239186146
 70
   192
  0
VERTEX
  5
13A
330
134
100
AcDbEntity
  8
0
100
AcDbVertex
100
AcDbPolyFaceMeshVertex
 10
25.14834125683836
 20
32.86465847003385
 30
4.101752118681136
 70
   192
  0
VERTEX
  5
13B
330
134
100
AcDbEntity
  8
0
100
AcDbVertex
100
AcDbPolyFaceMeshVertex
 10
26.11436746768309
 20
32.46823050426448
 30
4.096917948457783
 70
   192
  0
VERTEX
  5
13C
330
134
100
AcDbEntity
  8
0
100
AcDbVertex
100
AcDbPolyFaceMeshVertex
 10
31.13705097513525
 20
31.45348937492605
 30
4.084543868485045
 70
   192
  0
VERTEX
  5
13D
330
134
100
AcDbEntity
  8
0
100
AcDbVertex
100
AcDbPolyFaceMeshVertex
 10
27.15008786949628
 20
32.33531788775486
 30
4.095297169227963
 70
   192
  0
VERTEX
  5
13E
330
134
100
AcDbEntity
  8
0
100
AcDbVertex
100
AcDbPolyFaceMeshVertex
 10
28.18491982850325
 20
32.47497839567164
 30
4.097000234417724
 70
   192
  0
VERTEX
  5
13F
330
134
100
AcDbEntity
  8
0
100
AcDbVertex
100
AcDbPolyFaceMeshVertex
 10
29.14834125683836
 20
32.87769439520019
 30
4.101911082948833
 70
   192
  0
VERTEX
  5
140
330
134
100
AcDbEntity
  8
0
100
AcDbVertex
100
AcDbPolyFaceMeshVertex
 10
29.97469657628974
 20
33.51602145649231
 30
4.109695048609456
 70
   192
  0
VERTEX
  5
141
330
134
100
AcDbEntity
  8
0
100
AcDbVertex
100
AcDbPolyFaceMeshVertex
 10
30.60767103745352
 20
34.34645864520627
 30
4.119821667003432
 70
   192
  0
VERTEX
  5
142
330
134
100
AcDbEntity
  8
0
100
AcDbVertex
100
AcDbPolyFaceMeshVertex
 10
31.00412847684115
 20
35.31241303929357
 30
4.131600825822241
 70
   192
  0
VERTEX
  5
143
330
134
100
AcDbEntity
  8
0
100
AcDbVertex
100
AcDbPolyFaceMeshVertex
 10
31.13705097513525
 20
36.34805644311226
 30
4.14422979485836
 70
   192
  0
VERTEX
  5
144
330
134
100
AcDbEntity
  8
0
100
AcDbFaceRecord
 10
0.0
 20
0.0
 30
0.0
 70
   128
 71
    -1
 72
     2
 73
     3
  0
VERTEX
  5
145
330
134
100
AcDbEntity
  8
0
100
AcDbFaceRecord
 10
0.0
 20
0.0
 30
0.0
 70
   128
 71
    -2
 72
    -1
 73
     4
  0
VERTEX
  5
146
330
134
100
AcDbEntity
  8
0
100
AcDbFaceRecord
 10
0.0
 20
0.0
 30
0.0
 70
   128
 71
    -4
 72
    -1
 73
     5
  0
VERTEX
  5
147
330
134
100
AcDbEntity
  8
0
100
AcDbFaceRecord
 10
0.0
 20
0.0
 30
0.0
 70
   128
 71
    -5
 72
    -1
 73
     6
  0
VERTEX
  5
148
330
134
100
AcDbEntity
  8
0
100
AcDbFaceRecord
 10
0.0
 20
0.0
 30
0.0
 70
   128
 71
    -6
 72
    -1
 73
     7
  0
VERTEX
  5
149
330
134
100
AcDbEntity
  8
0
100
AcDbFaceRecord
 10
0.0
 20
0.0
 30
0.0
 70
   128
 71
    -7
 72
     1
 73
    -8
  0
VERTEX
  5
14A
330
134
100
AcDbEntity
  8
0
100
AcDbFaceRecord
 10
0.0
 20
0.0
 30
0.0
 70
   128
 71
    -7
 72
    -8
 73
     9
  0
VERTEX
  5
14B
330
134
100
AcDbEntity
  8
0
100
AcDbFaceRecord
 10
0.0
 20
0.0
 30
0.0
 70
   128
 71
    -9
 72
    -8
 73
    10
  0
VERTEX
  5
14C
330
134
100
AcDbEntity
  8
0
100
AcDbFaceRecord
 10
0.0
 20
0.0
 30
0.0
 70
   128
 71
   -10
 72
    -8
 73
    11
  0
VERTEX
  5
14D
330
134
100
AcDbEntity
  8
0
100
AcDbFaceRecord
 10
0.0
 20
0.0
 30
0.0
 70
   128
 71
   -11
 72
    -8
 73
    12
  0
VERTEX
  5
14E
330
134
100
AcDbEntity
  8
0
100
AcDbFaceRecord
 10
0.0
 20
0.0
 30
0.0
 70
   128
 71
   -12
 72
    -8
 73
    13
  0
VERTEX
  5
14F
330
134
100
AcDbEntity
  8
0
100
AcDbFaceRecord
 10
0.0
 20
0.0
 30
0.0
 70
   128
 71
   -13
 72
    -8
 73
    14
  0
VERTEX
  5
150
330
134
100
AcDbEntity
  8
0
100
AcDbFaceRecord
 10
0.0
 20
0.0
 30
0.0
 70
   128
 71
   -14
 72
     8
 73
    15
  0
SEQEND
  5
151
330
134
100
AcDbEntity
  8
0
  0
POLYLINE
  5
152
330
1F
100
AcDbEntity
  8
0
100
AcDbPolyFaceMesh
 66
     1
 10
0.0
 20
0.0
 30
0.0
 70
    64
 71
     8
 72
     8
  0
VERTEX
  5
153
330
152
100
AcDbEntity
  8
0
100
AcDbVertex
100
AcDbPolyFaceMeshVertex
 10
22.13705097513528
 20
23.48190888793095
 30
1.882395994608106
 70
   192
  0
VERTEX
  5
154
330
152
100
AcDbEntity
  8
0
100
AcDbVertex
100
AcDbPolyFaceMeshVertex
 10
23.13705097513528
 20
32.40599618520054
 30
3.048871845498957
 70
   192
  0
VERTEX
  5
155
330
152
100
AcDbEntity
  8
0
100
AcDbVertex
100
AcDbPolyFaceMeshVertex
 10
22.13705097513528
 20
51.15827606382022
 30
5.499999999999278
 70
   192
  0
VERTEX
  5
156
330
152
100
AcDbEntity
  8
0
100
AcDbVertex
100
AcDbPolyFaceMeshVertex
 10
32.13705097513525
 20
23.48190888793095
 30
1.882395994608106
 70
   192
  0
VERTEX
  5
157
330
152
100
AcDbEntity
  8
0
100
AcDbVertex
100
AcDbPolyFaceMeshVertex
 10
31.13705097513525
 20
32.40599618520054
 30
3.048871845498958
 70
   192
  0
VERTEX
  5
158
330
152
100
AcDbEntity
  8
0
100
AcDbVertex
100
AcDbPolyFaceMeshVertex
 10
31.13705097513525
 20
41.24262351129845
 30
4.203915721231675
 70
   192
  0
VERTEX
  5
159
330
152
100
AcDbEntity
  8
0
100
AcDbVertex
100
AcDbPolyFaceMeshVertex
 10
23.13705097513528
 20
41.24262351129845
 30
4.203915721231675
 70
   192
  0
VERTEX
  5
15A
330
152
100
AcDbEntity
  8
0
100
AcDbVertex
100
AcDbPolyFaceMeshVertex
 10
32.13705097513525
 20
51.15827606382022
 30
5.499999999999278
 70
   192
  0
VERTEX
  5
15B
330
152
100
AcDbEntity
  8
0
100
AcDbFaceRecord
 10
0.0
 20
0.0
 30
0.0
 70
   128
 71
    -1
 72
    -2
 73
     3
  0
VERTEX
  5
15C
330
152
100
AcDbEntity
  8
0
100
AcDbFaceRecord
 10
0.0
 20
0.0
 30
0.0
 70
   128
 71
    -2
 72
     1
 73
    -4
  0
VERTEX
  5
15D
330
152
100
AcDbEntity
  8
0
100
AcDbFaceRecord
 10
0.0
 20
0.0
 30
0.0
 70
   128
 71
    -2
 72
    -4
 73
     5
  0
VERTEX
  5
15E
330
152
100
AcDbEntity
  8
0
100
AcDbFaceRecord
 10
0.0
 20
0.0
 30
0.0
 70
   128
 71
    -5
 72
    -4
 73
     6
  0
VERTEX
  5
15F
330
152
100
AcDbEntity
  8
0
100
AcDbFaceRecord
 10
0.0
 20
0.0
 30
0.0
 70
   128
 71
    -3
 72
    -7
 73
     8
  0
VERTEX
  5
160
330
152
100
AcDbEntity
  8
0
100
AcDbFaceRecord
 10
0.0
 20
0.0
 30
0.0
 70
   128
 71
    -7
 72
    -3
 73
     2
  0
VERTEX
  5
161
330
152
100
AcDbEntity
  8
0
100
AcDbFaceRecord
 10
0.0
 20
0.0
 30
0.0
 70
   128
 71
    -8
 72
     7
 73
    -6
  0
VERTEX
  5
162
330
152
100
AcDbEntity
  8
0
100
AcDbFaceRecord
 10
0.0
 20
0.0
 30
0.0
 70
   128
 71
    -8
 72
    -6
 73
     4
  0
SEQEND
  5
163
330
152
100
AcDbEntity
  8
0
  0
POLYLINE
  5
164
330
1F
100
AcDbEntity
  8
0
100
AcDbPolyFaceMesh
 66
     1
 10
0.0
 20
0.0
 30
0.0
 70
    64
 71
    48
 72
    48
  0
VERTEX
  5
165
330
164
100
AcDbEntity
  8
0
100
AcDbVertex
100
AcDbPolyFaceMeshVertex
 10
25.14834125683836
 20
32.6902926306622
 30
18.40068902161418
 70
   192
  0
VERTEX
  5
166
330
164
100
AcDbEntity
  8
0
100
AcDbVertex
100
AcDbPolyFaceMeshVertex
 10
25.95273950055884
 20
35.96726189267827
 30
18.44064943964003
 70
   192
  0
VERTEX
  5
167
330
164
100
AcDbEntity
  8
0
100
AcDbVertex
100
AcDbPolyFaceMeshVertex
 10
25.94303647790194
 20
36.28035116938887
 30
18.44446735106257
 70
   192
  0
VERTEX
  5
168
330
164
100
AcDbEntity
  8
0
100
AcDbVertex
100
AcDbPolyFaceMeshVertex
 10
26.11436746768309
 20
32.29386466489282
 30
18.39585485139082
 70
   192
  0
VERTEX
  5
169
330
164
100
AcDbEntity
  8
0
100
AcDbVertex
100
AcDbPolyFaceMeshVertex
 10
26.04315139304088
 20
35.66735201472978
 30
18.4369922420484
 70
   192
  0
VERTEX
  5
16A
330
164
100
AcDbEntity
  8
0
100
AcDbVertex
100
AcDbPolyFaceMeshVertex
 10
26.20811073428811
 20
35.4010598981011
 30
18.43374499025974
 70
   192
  0
VERTEX
  5
16B
330
164
100
AcDbEntity
  8
0
100
AcDbVertex
100
AcDbPolyFaceMeshVertex
 10
27.15008786949628
 20
32.16095204838321
 30
18.394234072161
 70
   192
  0
VERTEX
  5
16C
330
164
100
AcDbEntity
  8
0
100
AcDbVertex
100
AcDbPolyFaceMeshVertex
 10
26.43637581780274
 20
35.18653291047193
 30
18.43112897911711
 70
   192
  0
VERTEX
  5
16D
330
164
100
AcDbEntity
  8
0
100
AcDbVertex
100
AcDbPolyFaceMeshVertex
 10
26.71239075536914
 20
35.03839071152661
 30
18.42932248545672
 70
   192
  0
VERTEX
  5
16E
330
164
100
AcDbEntity
  8
0
100
AcDbVertex
100
AcDbPolyFaceMeshVertex
 10
27.0173455851284
 20
34.96672894730669
 30
18.42844861883615
 70
   192
  0
VERTEX
  5
16F
330
164
100
AcDbEntity
  8
0
100
AcDbVertex
100
AcDbPolyFaceMeshVertex
 10
27.33045813939411
 20
34.97643124861709
 30
18.42856693182146
 70
   192
  0
VERTEX
  5
170
330
164
100
AcDbEntity
  8
0
100
AcDbVertex
100
AcDbPolyFaceMeshVertex
 10
28.18491982850325
 20
32.30061255629999
 30
18.39593713735076
 70
   192
  0
VERTEX
  5
171
330
164
100
AcDbEntity
  8
0
100
AcDbVertex
100
AcDbPolyFaceMeshVertex
 10
27.63039031503604
 20
35.06683641965732
 30
18.42966936157823
 70
   192
  0
VERTEX
  5
172
330
164
100
AcDbEntity
  8
0
100
AcDbVertex
100
AcDbPolyFaceMeshVertex
 10
27.89670222994554
 20
35.23178349742261
 30
18.43168077934039
 70
   192
  0
VERTEX
  5
173
330
164
100
AcDbEntity
  8
0
100
AcDbVertex
100
AcDbPolyFaceMeshVertex
 10
28.11124516722277
 20
35.46003161115117
 30
18.43446411031146
 70
   192
  0
VERTEX
  5
174
330
164
100
AcDbEntity
  8
0
100
AcDbVertex
100
AcDbPolyFaceMeshVertex
 10
28.25939838024125
 20
35.73602602909025
 30
18.43782967508543
 70
   192
  0
VERTEX
  5
175
330
164
100
AcDbEntity
  8
0
100
AcDbVertex
100
AcDbPolyFaceMeshVertex
 10
29.14834125683836
 20
32.70332855582854
 30
18.40084798588187
 70
   192
  0
VERTEX
  5
176
330
164
100
AcDbEntity
  8
0
100
AcDbVertex
100
AcDbPolyFaceMeshVertex
 10
28.33106547236855
 20
36.04095818775966
 30
18.44154811598483
 70
   192
  0
VERTEX
  5
177
330
164
100
AcDbEntity
  8
0
100
AcDbVertex
100
AcDbPolyFaceMeshVertex
 10
29.12576069343213
 20
39.63101672648633
 30
18.48532644543323
 70
   192
  0
VERTEX
  5
178
330
164
100
AcDbEntity
  8
0
100
AcDbVertex
100
AcDbPolyFaceMeshVertex
 10
29.95625962347313
 20
38.99808932219619
 30
18.47760832492822
 70
   192
  0
VERTEX
  5
179
330
164
100
AcDbEntity
  8
0
100
AcDbVertex
100
AcDbPolyFaceMeshVertex
 10
29.97469657628974
 20
33.34165561712066
 30
18.4086319515425
 70
   192
  0
VERTEX
  5
17A
330
164
100
AcDbEntity
  8
0
100
AcDbVertex
100
AcDbPolyFaceMeshVertex
 10
30.59463414309248
 20
38.17179543602568
 30
18.46753223129917
 70
   192
  0
VERTEX
  5
17B
330
164
100
AcDbEntity
  8
0
100
AcDbVertex
100
AcDbPolyFaceMeshVertex
 10
30.60767103745352
 20
34.17209280583462
 30
18.41875856993647
 70
   192
  0
VERTEX
  5
17C
330
164
100
AcDbEntity
  8
0
100
AcDbVertex
100
AcDbPolyFaceMeshVertex
 10
30.99738008374189
 20
37.2084456308021
 30
18.45578483367538
 70
   192
  0
VERTEX
  5
17D
330
164
100
AcDbEntity
  8
0
100
AcDbVertex
100
AcDbPolyFaceMeshVertex
 10
31.00412847684115
 20
35.13804719992191
 30
18.43053772875528
 70
   192
  0
VERTEX
  5
17E
330
164
100
AcDbEntity
  8
0
100
AcDbVertex
100
AcDbPolyFaceMeshVertex
 10
31.13705097513525
 20
36.1736906037406
 30
18.4431666977914
 70
   192
  0
VERTEX
  5
17F
330
164
100
AcDbEntity
  8
0
100
AcDbVertex
100
AcDbPolyFaceMeshVertex
 10
23.2767218665286
 20
35.11286372634643
 30
18.43023063337203
 70
   192
  0
VERTEX
  5
180
330
164
100
AcDbEntity
  8
0
100
AcDbVertex
100
AcDbPolyFaceMeshVertex
 10
23.26997347342935
 20
37.18326215722661
 30
18.45547773829213
 70
   192
  0
VERTEX
  5
181
330
164
100
AcDbEntity
  8
0
100
AcDbVertex
100
AcDbPolyFaceMeshVertex
 10
23.13705097513525
 20
36.14761875340793
 30
18.44284876925601
 70
   192
  0
VERTEX
  5
182
330
164
100
AcDbEntity
  8
0
100
AcDbVertex
100
AcDbPolyFaceMeshVertex
 10
23.66643091281697
 20
38.14921655131391
 30
18.46725689711093
 70
   192
  0
VERTEX
  5
183
330
164
100
AcDbEntity
  8
0
100
AcDbVertex
100
AcDbPolyFaceMeshVertex
 10
23.67946780717801
 20
34.14951392112285
 30
18.41848323574823
 70
   192
  0
VERTEX
  5
184
330
164
100
AcDbEntity
  8
0
100
AcDbVertex
100
AcDbPolyFaceMeshVertex
 10
24.29940537398075
 20
38.97965374002787
 30
18.47738351550491
 70
   192
  0
VERTEX
  5
185
330
164
100
AcDbEntity
  8
0
100
AcDbVertex
100
AcDbPolyFaceMeshVertex
 10
24.31784232679736
 20
33.32322003495234
 30
18.40840714211918
 70
   192
  0
VERTEX
  5
186
330
164
100
AcDbEntity
  8
0
100
AcDbVertex
100
AcDbPolyFaceMeshVertex
 10
25.12576069343213
 20
39.61798080131999
 30
18.48516748116553
 70
   192
  0
VERTEX
  5
187
330
164
100
AcDbEntity
  8
0
100
AcDbVertex
100
AcDbPolyFaceMeshVertex
 10
26.08918212176723
 20
40.02069680084854
 30
18.49007832969664
 70
   192
  0
VERTEX
  5
188
330
164
100
AcDbEntity
  8
0
100
AcDbVertex
100
AcDbPolyFaceMeshVertex
 10
26.01470357002924
 20
36.58528332805827
 30
18.44818579196198
 70
   192
  0
VERTEX
  5
189
330
164
100
AcDbEntity
  8
0
100
AcDbVertex
100
AcDbPolyFaceMeshVertex
 10
26.16285678304772
 20
36.86127774599736
 30
18.45155135673595
 70
   192
  0
VERTEX
  5
18A
330
164
100
AcDbEntity
  8
0
100
AcDbVertex
100
AcDbPolyFaceMeshVertex
 10
27.12401408077421
 20
40.16035730876532
 30
18.4917813948864
 70
   192
  0
VERTEX
  5
18B
330
164
100
AcDbEntity
  8
0
100
AcDbVertex
100
AcDbPolyFaceMeshVertex
 10
26.37739972032496
 20
37.08952585972592
 30
18.45433468770702
 70
   192
  0
VERTEX
  5
18C
330
164
100
AcDbEntity
  8
0
100
AcDbVertex
100
AcDbPolyFaceMeshVertex
 10
26.64371163523445
 20
37.25447293749121
 30
18.45634610546917
 70
   192
  0
VERTEX
  5
18D
330
164
100
AcDbEntity
  8
0
100
AcDbVertex
100
AcDbPolyFaceMeshVertex
 10
26.94364381087638
 20
37.34487810853144
 30
18.45744853522594
 70
   192
  0
VERTEX
  5
18E
330
164
100
AcDbEntity
  8
0
100
AcDbVertex
100
AcDbPolyFaceMeshVertex
 10
27.25675636514209
 20
37.35458040984184
 30
18.45756684821126
 70
   192
  0
VERTEX
  5
18F
330
164
100
AcDbEntity
  8
0
100
AcDbVertex
100
AcDbPolyFaceMeshVertex
 10
28.1597344825874
 20
40.0274446922557
 30
18.49016061565658
 70
   192
  0
VERTEX
  5
190
330
164
100
AcDbEntity
  8
0
100
AcDbVertex
100
AcDbPolyFaceMeshVertex
 10
27.56171119490136
 20
37.28291864562192
 30
18.45669298159069
 70
   192
  0
VERTEX
  5
191
330
164
100
AcDbEntity
  8
0
100
AcDbVertex
100
AcDbPolyFaceMeshVertex
 10
27.83772613246775
 20
37.1347764466766
 30
18.4548864879303
 70
   192
  0
VERTEX
  5
192
330
164
100
AcDbEntity
  8
0
100
AcDbVertex
100
AcDbPolyFaceMeshVertex
 10
28.06599121598239
 20
36.92024945904743
 30
18.45227047678767
 70
   192
  0
VERTEX
  5
193
330
164
100
AcDbEntity
  8
0
100
AcDbVertex
100
AcDbPolyFaceMeshVertex
 10
28.23095055722962
 20
36.65395734241875
 30
18.44902322499901
 70
   192
  0
VERTEX
  5
194
330
164
100
AcDbEntity
  8
0
100
AcDbVertex
100
AcDbPolyFaceMeshVertex
 10
28.32136244971165
 20
36.35404746447026
 30
18.44536602740737
 70
   192
  0
VERTEX
  5
195
330
164
100
AcDbEntity
  8
0
100
AcDbFaceRecord
 10
0.0
 20
0.0
 30
0.0
 70
   128
 71
    -1
 72
     2
 73
    -3
  0
VERTEX
  5
196
330
164
100
AcDbEntity
  8
0
100
AcDbFaceRecord
 10
0.0
 20
0.0
 30
0.0
 70
   128
 71
    -2
 72
     1
 73
    -4
  0
VERTEX
  5
197
330
164
100
AcDbEntity
  8
0
100
AcDbFaceRecord
 10
0.0
 20
0.0
 30
0.0
 70
   128
 71
    -2
 72
    -4
 73
     5
  0
VERTEX
  5
198
330
164
100
AcDbEntity
  8
0
100
AcDbFaceRecord
 10
0.0
 20
0.0
 30
0.0
 70
   128
 71
    -5
 72
    -4
 73
     6
  0
VERTEX
  5
199
330
164
100
AcDbEntity
  8
0
100
AcDbFaceRecord
 10
0.0
 20
0.0
 30
0.0
 70
   128
 71
    -6
 72
     4
 73
    -7
  0
VERTEX
  5
19A
330
164
100
AcDbEntity
  8
0
100
AcDbFaceRecord
 10
0.0
 20
0.0
 30
0.0
 70
   128
 71
    -6
 72
    -7
 73
     8
  0
VERTEX
  5
19B
330
164
100
AcDbEntity
  8
0
100
AcDbFaceRecord
 10
0.0
 20
0.0
 30
0.0
 70
   128
 71
    -8
 72
    -7
 73
     9
  0
VERTEX
  5
19C
330
164
100
AcDbEntity
  8
0
100
AcDbFaceRecord
 10
0.0
 20
0.0
 30
0.0
 70
   128
 71
    -9
 72
    -7
 73
    10
  0
VERTEX
  5
19D
330
164
100
AcDbEntity
  8
0
100
AcDbFaceRecord
 10
0.0
 20
0.0
 30
0.0
 70
   128
 71
   -10
 72
    -7
 73
    11
  0
VERTEX
  5
19E
330
164
100
AcDbEntity
  8
0
100
AcDbFaceRecord
 10
0.0
 20
0.0
 30
0.0
 70
   128
 71
   -11
 72
     7
 73
   -12
  0
VERTEX
  5
19F
330
164
100
AcDbEntity
  8
0
100
AcDbFaceRecord
 10
0.0
 20
0.0
 30
0.0
 70
   128
 71
   -11
 72
   -12
 73
    13
  0
VERTEX
  5
1A0
330
164
100
AcDbEntity
  8
0
100
AcDbFaceRecord
 10
0.0
 20
0.0
 30
0.0
 70
   128
 71
   -13
 72
   -12
 73
    14
  0
VERTEX
  5
1A1
330
164
100
AcDbEntity
  8
0
100
AcDbFaceRecord
 10
0.0
 20
0.0
 30
0.0
 70
   128
 71
   -14
 72
   -12
 73
    15
  0
VERTEX
  5
1A2
330
164
100
AcDbEntity
  8
0
100
AcDbFaceRecord
 10
0.0
 20
0.0
 30
0.0
 70
   128
 71
   -15
 72
   -12
 73
    16
  0
VERTEX
  5
1A3
330
164
100
AcDbEntity
  8
0
100
AcDbFaceRecord
 10
0.0
 20
0.0
 30
0.0
 70
   128
 71
   -16
 72
    12
 73
   -17
  0
VERTEX
  5
1A4
330
164
100
AcDbEntity
  8
0
100
AcDbFaceRecord
 10
0.0
 20
0.0
 30
0.0
 70
   128
 71
   -16
 72
   -17
 73
    18
  0
VERTEX
  5
1A5
330
164
100
AcDbEntity
  8
0
100
AcDbFaceRecord
 10
0.0
 20
0.0
 30
0.0
 70
   128
 71
   -18
 72
   -17
 73
   -19
  0
VERTEX
  5
1A6
330
164
100
AcDbEntity
  8
0
100
AcDbFaceRecord
 10
0.0
 20
0.0
 30
0.0
 70
   128
 71
   -19
 72
   -17
 73
    20
  0
VERTEX
  5
1A7
330
164
100
AcDbEntity
  8
0
100
AcDbFaceRecord
 10
0.0
 20
0.0
 30
0.0
 70
   128
 71
   -20
 72
    17
 73
   -21
  0
VERTEX
  5
1A8
330
164
100
AcDbEntity
  8
0
100
AcDbFaceRecord
 10
0.0
 20
0.0
 30
0.0
 70
   128
 71
   -20
 72
   -21
 73
    22
  0
VERTEX
  5
1A9
330
164
100
AcDbEntity
  8
0
100
AcDbFaceRecord
 10
0.0
 20
0.0
 30
0.0
 70
   128
 71
   -22
 72
    21
 73
   -23
  0
VERTEX
  5
1AA
330
164
100
AcDbEntity
  8
0
100
AcDbFaceRecord
 10
0.0
 20
0.0
 30
0.0
 70
   128
 71
   -22
 72
   -23
 73
    24
  0
VERTEX
  5
1AB
330
164
100
AcDbEntity
  8
0
100
AcDbFaceRecord
 10
0.0
 20
0.0
 30
0.0
 70
   128
 71
   -24
 72
    23
 73
   -25
  0
VERTEX
  5
1AC
330
164
100
AcDbEntity
  8
0
100
AcDbFaceRecord
 10
0.0
 20
0.0
 30
0.0
 70
   128
 71
   -24
 72
    25
 73
    26
  0
VERTEX
  5
1AD
330
164
100
AcDbEntity
  8
0
100
AcDbFaceRecord
 10
0.0
 20
0.0
 30
0.0
 70
   128
 71
   -27
 72
    28
 73
    29
  0
VERTEX
  5
1AE
330
164
100
AcDbEntity
  8
0
100
AcDbFaceRecord
 10
0.0
 20
0.0
 30
0.0
 70
   128
 71
   -28
 72
   -27
 73
    30
  0
VERTEX
  5
1AF
330
164
100
AcDbEntity
  8
0
100
AcDbFaceRecord
 10
0.0
 20
0.0
 30
0.0
 70
   128
 71
   -30
 72
    27
 73
   -31
  0
VERTEX
  5
1B0
330
164
100
AcDbEntity
  8
0
100
AcDbFaceRecord
 10
0.0
 20
0.0
 30
0.0
 70
   128
 71
   -30
 72
   -31
 73
    32
  0
VERTEX
  5
1B1
330
164
100
AcDbEntity
  8
0
100
AcDbFaceRecord
 10
0.0
 20
0.0
 30
0.0
 70
   128
 71
   -32
 72
    31
 73
   -33
  0
VERTEX
  5
1B2
330
164
100
AcDbEntity
  8
0
100
AcDbFaceRecord
 10
0.0
 20
0.0
 30
0.0
 70
   128
 71
   -32
 72
   -33
 73
    34
  0
VERTEX
  5
1B3
330
164
100
AcDbEntity
  8
0
100
AcDbFaceRecord
 10
0.0
 20
0.0
 30
0.0
 70
   128
 71
   -34
 72
    33
 73
    -1
  0
VERTEX
  5
1B4
330
164
100
AcDbEntity
  8
0
100
AcDbFaceRecord
 10
0.0
 20
0.0
 30
0.0
 70
   128
 71
   -34
 72
    -1
 73
    35
  0
VERTEX
  5
1B5
330
164
100
AcDbEntity
  8
0
100
AcDbFaceRecord
 10
0.0
 20
0.0
 30
0.0
 70
   128
 71
   -35
 72
    -1
 73
    -3
  0
VERTEX
  5
1B6
330
164
100
AcDbEntity
  8
0
100
AcDbFaceRecord
 10
0.0
 20
0.0
 30
0.0
 70
   128
 71
   -35
 72
     3
 73
   -36
  0
VERTEX
  5
1B7
330
164
100
AcDbEntity
  8
0
100
AcDbFaceRecord
 10
0.0
 20
0.0
 30
0.0
 70
   128
 71
   -35
 72
    36
 73
   -37
  0
VERTEX
  5
1B8
330
164
100
AcDbEntity
  8
0
100
AcDbFaceRecord
 10
0.0
 20
0.0
 30
0.0
 70
   128
 71
   -35
 72
   -37
 73
    38
  0
VERTEX
  5
1B9
330
164
100
AcDbEntity
  8
0
100
AcDbFaceRecord
 10
0.0
 20
0.0
 30
0.0
 70
   128
 71
   -38
 72
    37
 73
   -39
  0
VERTEX
  5
1BA
330
164
100
AcDbEntity
  8
0
100
AcDbFaceRecord
 10
0.0
 20
0.0
 30
0.0
 70
   128
 71
   -38
 72
    39
 73
   -40
  0
VERTEX
  5
1BB
330
164
100
AcDbEntity
  8
0
100
AcDbFaceRecord
 10
0.0
 20
0.0
 30
0.0
 70
   128
 71
   -38
 72
    40
 73
   -41
  0
VERTEX
  5
1BC
330
164
100
AcDbEntity
  8
0
100
AcDbFaceRecord
 10
0.0
 20
0.0
 30
0.0
 70
   128
 71
   -38
 72
    41
 73
   -42
  0
VERTEX
  5
1BD
330
164
100
AcDbEntity
  8
0
100
AcDbFaceRecord
 10
0.0
 20
0.0
 30
0.0
 70
   128
 71
   -38
 72
   -42
 73
    43
  0
VERTEX
  5
1BE
330
164
100
AcDbEntity
  8
0
100
AcDbFaceRecord
 10
0.0
 20
0.0
 30
0.0
 70
   128
 71
   -43
 72
    42
 73
   -44
  0
VERTEX
  5
1BF
330
164
100
AcDbEntity
  8
0
100
AcDbFaceRecord
 10
0.0
 20
0.0
 30
0.0
 70
   128
 71
   -43
 72
    44
 73
   -45
  0
VERTEX
  5
1C0
330
164
100
AcDbEntity
  8
0
100
AcDbFaceRecord
 10
0.0
 20
0.0
 30
0.0
 70
   128
 71
   -43
 72
    45
 73
   -46
  0
VERTEX
  5
1C1
330
164
100
AcDbEntity
  8
0
100
AcDbFaceRecord
 10
0.0
 20
0.0
 30
0.0
 70
   128
 71
   -43
 72
    46
 73
   -47
  0
VERTEX
  5
1C2
330
164
100
AcDbEntity
  8
0
100
AcDbFaceRecord
 10
0.0
 20
0.0
 30
0.0
 70
   128
 71
   -43
 72
   -47
 73
    19
  0
VERTEX
  5
1C3
330
164
100
AcDbEntity
  8
0
100
AcDbFaceRecord
 10
0.0
 20
0.0
 30
0.0
 70
   128
 71
   -19
 72
    47
 73
   -48
  0
VERTEX
  5
1C4
330
164
100
AcDbEntity
  8
0
100
AcDbFaceRecord
 10
0.0
 20
0.0
 30
0.0
 70
   128
 71
   -19
 72
    48
 73
   -18
  0
SEQEND
  5
1C5
330
164
100
AcDbEntity
  8
0
  0
POLYLINE
  5
1C6
330
1F
100
AcDbEntity
  8
0
100
AcDbPolyFaceMesh
 66
     1
 10
0.0
 20
0.0
 30
0.0
 70
    64
 71
     4
 72
     2
  0
VERTEX
  5
1C7
330
1C6
100
AcDbEntity
  8
0
100
AcDbVertex
100
AcDbPolyFaceMeshVertex
 10
23.26997347342935
 20
37.18326215722661
 30
18.45547773829213
 70
   192
  0
VERTEX
  5
1C8
330
1C6
100
AcDbEntity
  8
0
100
AcDbVertex
100
AcDbPolyFaceMeshVertex
 10
23.13705097513525
 20
36.32198459277958
 30
4.143911866322966
 70
   192
  0
VERTEX
  5
1C9
330
1C6
100
AcDbEntity
  8
0
100
AcDbVertex
100
AcDbPolyFaceMeshVertex
 10
23.13705097513525
 20
36.14761875340793
 30
18.44284876925601
 70
   192
  0
VERTEX
  5
1CA
330
1C6
100
AcDbEntity
  8
0
100
AcDbVertex
100
AcDbPolyFaceMeshVertex
 10
23.26997347342935
 20
37.35762799659827
 30
4.156540835359086
 70
   192
  0
VERTEX
  5
1CB
330
1C6
100
AcDbEntity
  8
0
100
AcDbFaceRecord
 10
0.0
 20
0.0
 30
0.0
 70
   128
 71
    -1
 72
     2
 73
     3
  0
VERTEX
  5
1CC
330
1C6
100
AcDbEntity
  8
0
100
AcDbFaceRecord
 10
0.0
 20
0.0
 30
0.0
 70
   128
 71
    -2
 72
     1
 73
     4
  0
SEQEND
  5
1CD
330
1C6
100
AcDbEntity
  8
0
  0
POLYLINE
  5
1CE
330
1F
100
AcDbEntity
  8
0
100
AcDbPolyFaceMesh
 66
     1
 10
0.0
 20
0.0
 30
0.0
 70
    64
 71
     4
 72
     2
  0
VERTEX
  5
1CF
330
1CE
100
AcDbEntity
  8
0
100
AcDbVertex
100
AcDbPolyFaceMeshVertex
 10
23.13705097513525
 20
36.14761875340793
 30
18.44284876925601
 70
   192
  0
VERTEX
  5
1D0
330
1CE
100
AcDbEntity
  8
0
100
AcDbVertex
100
AcDbPolyFaceMeshVertex
 10
23.2767218665286
 20
35.28722956571809
 30
4.13129373043899
 70
   192
  0
VERTEX
  5
1D1
330
1CE
100
AcDbEntity
  8
0
100
AcDbVertex
100
AcDbPolyFaceMeshVertex
 10
23.2767218665286
 20
35.11286372634643
 30
18.43023063337203
 70
   192
  0
VERTEX
  5
1D2
330
1CE
100
AcDbEntity
  8
0
100
AcDbVertex
100
AcDbPolyFaceMeshVertex
 10
23.13705097513525
 20
36.32198459277958
 30
4.143911866322966
 70
   192
  0
VERTEX
  5
1D3
330
1CE
100
AcDbEntity
  8
0
100
AcDbFaceRecord
 10
0.0
 20
0.0
 30
0.0
 70
   128
 71
    -1
 72
     2
 73
     3
  0
VERTEX
  5
1D4
330
1CE
100
AcDbEntity
  8
0
100
AcDbFaceRecord
 10
0.0
 20
0.0
 30
0.0
 70
   128
 71
    -2
 72
     1
 73
     4
  0
SEQEND
  5
1D5
330
1CE
100
AcDbEntity
  8
0
  0
POLYLINE
  5
1D6
330
1F
100
AcDbEntity
  8
0
100
AcDbPolyFaceMesh
 66
     1
 10
0.0
 20
0.0
 30
0.0
 70
    64
 71
     4
 72
     2
  0
VERTEX
  5
1D7
330
1D6
100
AcDbEntity
  8
0
100
AcDbVertex
100
AcDbPolyFaceMeshVertex
 10
23.2767218665286
 20
35.11286372634643
 30
18.43023063337203
 70
   192
  0
VERTEX
  5
1D8
330
1D6
100
AcDbEntity
  8
0
100
AcDbVertex
100
AcDbPolyFaceMeshVertex
 10
23.67946780717801
 20
34.32387976049451
 30
4.119546332815193
 70
   192
  0
VERTEX
  5
1D9
330
1D6
100
AcDbEntity
  8
0
100
AcDbVertex
100
AcDbPolyFaceMeshVertex
 10
23.67946780717801
 20
34.14951392112285
 30
18.41848323574823
 70
   192
  0
VERTEX
  5
1DA
330
1D6
100
AcDbEntity
  8
0
100
AcDbVertex
100
AcDbPolyFaceMeshVertex
 10
23.2767218665286
 20
35.28722956571809
 30
4.13129373043899
 70
   192
  0
VERTEX
  5
1DB
330
1D6
100
AcDbEntity
  8
0
100
AcDbFaceRecord
 10
0.0
 20
0.0
 30
0.0
 70
   128
 71
    -1
 72
     2
 73
     3
  0
VERTEX
  5
1DC
330
1D6
100
AcDbEntity
  8
0
100
AcDbFaceRecord
 10
0.0
 20
0.0
 30
0.0
 70
   128
 71
    -2
 72
     1
 73
     4
  0
SEQEND
  5
1DD
330
1D6
100
AcDbEntity
  8
0
  0
POLYLINE
  5
1DE
330
1F
100
AcDbEntity
  8
0
100
AcDbPolyFaceMesh
 66
     1
 10
0.0
 20
0.0
 30
0.0
 70
    64
 71
     4
 72
     2
  0
VERTEX
  5
1DF
330
1DE
100
AcDbEntity
  8
0
100
AcDbVertex
100
AcDbPolyFaceMeshVertex
 10
23.67946780717801
 20
34.14951392112285
 30
18.41848323574823
 70
   192
  0
VERTEX
  5
1E0
330
1DE
100
AcDbEntity
  8
0
100
AcDbVertex
100
AcDbPolyFaceMeshVertex
 10
24.31784232679736
 20
33.497585874324
 30
4.109470239186146
 70
   192
  0
VERTEX
  5
1E1
330
1DE
100
AcDbEntity
  8
0
100
AcDbVertex
100
AcDbPolyFaceMeshVertex
 10
24.31784232679736
 20
33.32322003495234
 30
18.40840714211918
 70
   192
  0
VERTEX
  5
1E2
330
1DE
100
AcDbEntity
  8
0
100
AcDbVertex
100
AcDbPolyFaceMeshVertex
 10
23.67946780717801
 20
34.32387976049451
 30
4.119546332815193
 70
   192
  0
VERTEX
  5
1E3
330
1DE
100
AcDbEntity
  8
0
100
AcDbFaceRecord
 10
0.0
 20
0.0
 30
0.0
 70
   128
 71
    -1
 72
     2
 73
     3
  0
VERTEX
  5
1E4
330
1DE
100
AcDbEntity
  8
0
100
AcDbFaceRecord
 10
0.0
 20
0.0
 30
0.0
 70
   128
 71
    -2
 72
     1
 73
     4
  0
SEQEND
  5
1E5
330
1DE
100
AcDbEntity
  8
0
  0
POLYLINE
  5
1E6
330
1F
100
AcDbEntity
  8
0
100
AcDbPolyFaceMesh
 66
     1
 10
0.0
 20
0.0
 30
0.0
 70
    64
 71
     4
 72
     2
  0
VERTEX
  5
1E7
330
1E6
100
AcDbEntity
  8
0
100
AcDbVertex
100
AcDbPolyFaceMeshVertex
 10
25.14834125683836
 20
32.6902926306622
 30
18.40068902161418
 70
   192
  0
VERTEX
  5
1E8
330
1E6
100
AcDbEntity
  8
0
100
AcDbVertex
100
AcDbPolyFaceMeshVertex
 10
24.31784232679736
 20
33.497585874324
 30
4.109470239186146
 70
   192
  0
VERTEX
  5
1E9
330
1E6
100
AcDbEntity
  8
0
100
AcDbVertex
100
AcDbPolyFaceMeshVertex
 10
25.14834125683836
 20
32.86465847003385
 30
4.101752118681136
 70
   192
  0
VERTEX
  5
1EA
330
1E6
100
AcDbEntity
  8
0
100
AcDbVertex
100
AcDbPolyFaceMeshVertex
 10
24.31784232679736
 20
33.32322003495234
 30
18.40840714211918
 70
   192
  0
VERTEX
  5
1EB
330
1E6
100
AcDbEntity
  8
0
100
AcDbFaceRecord
 10
0.0
 20
0.0
 30
0.0
 70
   128
 71
    -1
 72
     2
 73
     3
  0
VERTEX
  5
1EC
330
1E6
100
AcDbEntity
  8
0
100
AcDbFaceRecord
 10
0.0
 20
0.0
 30
0.0
 70
   128
 71
    -2
 72
     1
 73
     4
  0
SEQEND
  5
1ED
330
1E6
100
AcDbEntity
  8
0
  0
POLYLINE
  5
1EE
330
1F
100
AcDbEntity
  8
0
100
AcDbPolyFaceMesh
 66
     1
 10
0.0
 20
0.0
 30
0.0
 70
    64
 71
     4
 72
     2
  0
VERTEX
  5
1EF
330
1EE
100
AcDbEntity
  8
0
100
AcDbVertex
100
AcDbPolyFaceMeshVertex
 10
26.11436746768309
 20
32.29386466489282
 30
18.39585485139082
 70
   192
  0
VERTEX
  5
1F0
330
1EE
100
AcDbEntity
  8
0
100
AcDbVertex
100
AcDbPolyFaceMeshVertex
 10
25.14834125683836
 20
32.86465847003385
 30
4.101752118681136
 70
   192
  0
VERTEX
  5
1F1
330
1EE
100
AcDbEntity
  8
0
100
AcDbVertex
100
AcDbPolyFaceMeshVertex
 10
26.11436746768309
 20
32.46823050426448
 30
4.096917948457783
 70
   192
  0
VERTEX
  5
1F2
330
1EE
100
AcDbEntity
  8
0
100
AcDbVertex
100
AcDbPolyFaceMeshVertex
 10
25.14834125683836
 20
32.6902926306622
 30
18.40068902161418
 70
   192
  0
VERTEX
  5
1F3
330
1EE
100
AcDbEntity
  8
0
100
AcDbFaceRecord
 10
0.0
 20
0.0
 30
0.0
 70
   128
 71
    -1
 72
     2
 73
     3
  0
VERTEX
  5
1F4
330
1EE
100
AcDbEntity
  8
0
100
AcDbFaceRecord
 10
0.0
 20
0.0
 30
0.0
 70
   128
 71
    -2
 72
     1
 73
     4
  0
SEQEND
  5
1F5
330
1EE
100
AcDbEntity
  8
0
  0
POLYLINE
  5
1F6
330
1F
100
AcDbEntity
  8
0
100
AcDbPolyFaceMesh
 66
     1
 10
0.0
 20
0.0
 30
0.0
 70
    64
 71
     4
 72
     2
  0
VERTEX
  5
1F7
330
1F6
100
AcDbEntity
  8
0
100
AcDbVertex
100
AcDbPolyFaceMeshVertex
 10
27.15008786949628
 20
32.16095204838321
 30
18.394234072161
 70
   192
  0
VERTEX
  5
1F8
330
1F6
100
AcDbEntity
  8
0
100
AcDbVertex
100
AcDbPolyFaceMeshVertex
 10
26.11436746768309
 20
32.46823050426448
 30
4.096917948457783
 70
   192
  0
VERTEX
  5
1F9
330
1F6
100
AcDbEntity
  8
0
100
AcDbVertex
100
AcDbPolyFaceMeshVertex
 10
27.15008786949628
 20
32.33531788775486
 30
4.095297169227963
 70
   192
  0
VERTEX
  5
1FA
330
1F6
100
AcDbEntity
  8
0
100
AcDbVertex
100
AcDbPolyFaceMeshVertex
 10
26.11436746768309
 20
32.29386466489282
 30
18.39585485139082
 70
   192
  0
VERTEX
  5
1FB
330
1F6
100
AcDbEntity
  8
0
100
AcDbFaceRecord
 10
0.0
 20
0.0
 30
0.0
 70
   128
 71
    -1
 72
     2
 73
     3
  0
VERTEX
  5
1FC
330
1F6
100
AcDbEntity
  8
0
100
AcDbFaceRecord
 10
0.0
 20
0.0
 30
0.0
 70
   128
 71
    -2
 72
     1
 73
     4
  0
SEQEND
  5
1FD
330
1F6
100
AcDbEntity
  8
0
  0
POLYLINE
  5
1FE
330
1F
100
AcDbEntity
  8
0
100
AcDbPolyFaceMesh
 66
     1
 10
0.0
 20
0.0
 30
0.0
 70
    64
 71
     4
 72
     2
  0
VERTEX
  5
1FF
330
1FE
100
AcDbEntity
  8
0
100
AcDbVertex
100
AcDbPolyFaceMeshVertex
 10
28.18491982850325
 20
32.47497839567164
 30
4.097000234417724
 70
   192
  0
VERTEX
  5
200
330
1FE
100
AcDbEntity
  8
0
100
AcDbVertex
100
AcDbPolyFaceMeshVertex
 10
27.15008786949628
 20
32.16095204838321
 30
18.394234072161
 70
   192
  0
VERTEX
  5
201
330
1FE
100
AcDbEntity
  8
0
100
AcDbVertex
100
AcDbPolyFaceMeshVertex
 10
27.15008786949628
 20
32.33531788775486
 30
4.095297169227963
 70
   192
  0
VERTEX
  5
202
330
1FE
100
AcDbEntity
  8
0
100
AcDbVertex
100
AcDbPolyFaceMeshVertex
 10
28.18491982850325
 20
32.30061255629999
 30
18.39593713735076
 70
   192
  0
VERTEX
  5
203
330
1FE
100
AcDbEntity
  8
0
100
AcDbFaceRecord
 10
0.0
 20
0.0
 30
0.0
 70
   128
 71
    -1
 72
     2
 73
     3
  0
VERTEX
  5
204
330
1FE
100
AcDbEntity
  8
0
100
AcDbFaceRecord
 10
0.0
 20
0.0
 30
0.0
 70
   128
 71
    -2
 72
     1
 73
     4
  0
SEQEND
  5
205
330
1FE
100
AcDbEntity
  8
0
  0
POLYLINE
  5
206
330
1F
100
AcDbEntity
  8
0
100
AcDbPolyFaceMesh
 66
     1
 10
0.0
 20
0.0
 30
0.0
 70
    64
 71
     4
 72
     2
  0
VERTEX
  5
207
330
206
100
AcDbEntity
  8
0
100
AcDbVertex
100
AcDbPolyFaceMeshVertex
 10
29.14834125683836
 20
32.87769439520019
 30
4.101911082948833
 70
   192
  0
VERTEX
  5
208
330
206
100
AcDbEntity
  8
0
100
AcDbVertex
100
AcDbPolyFaceMeshVertex
 10
28.18491982850325
 20
32.30061255629999
 30
18.39593713735076
 70
   192
  0
VERTEX
  5
209
330
206
100
AcDbEntity
  8
0
100
AcDbVertex
100
AcDbPolyFaceMeshVertex
 10
28.18491982850325
 20
32.47497839567164
 30
4.097000234417724
 70
   192
  0
VERTEX
  5
20A
330
206
100
AcDbEntity
  8
0
100
AcDbVertex
100
AcDbPolyFaceMeshVertex
 10
29.14834125683836
 20
32.70332855582854
 30
18.40084798588187
 70
   192
  0
VERTEX
  5
20B
330
206
100
AcDbEntity
  8
0
100
AcDbFaceRecord
 10
0.0
 20
0.0
 30
0.0
 70
   128
 71
    -1
 72
     2
 73
     3
  0
VERTEX
  5
20C
330
206
100
AcDbEntity
  8
0
100
AcDbFaceRecord
 10
0.0
 20
0.0
 30
0.0
 70
   128
 71
    -2
 72
     1
 73
     4
  0
SEQEND
  5
20D
330
206
100
AcDbEntity
  8
0
  0
POLYLINE
  5
20E
330
1F
100
AcDbEntity
  8
0
100
AcDbPolyFaceMesh
 66
     1
 10
0.0
 20
0.0
 30
0.0
 70
    64
 71
     4
 72
     2
  0
VERTEX
  5
20F
330
20E
100
AcDbEntity
  8
0
100
AcDbVertex
100
AcDbPolyFaceMeshVertex
 10
29.97469657628974
 20
33.51602145649231
 30
4.109695048609456
 70
   192
  0
VERTEX
  5
210
330
20E
100
AcDbEntity
  8
0
100
AcDbVertex
100
AcDbPolyFaceMeshVertex
 10
29.14834125683836
 20
32.70332855582854
 30
18.40084798588187
 70
   192
  0
VERTEX
  5
211
330
20E
100
AcDbEntity
  8
0
100
AcDbVertex
100
AcDbPolyFaceMeshVertex
 10
29.14834125683836
 20
32.87769439520019
 30
4.101911082948833
 70
   192
  0
VERTEX
  5
212
330
20E
100
AcDbEntity
  8
0
100
AcDbVertex
100
AcDbPolyFaceMeshVertex
 10
29.97469657628974
 20
33.34165561712066
 30
18.4086319515425
 70
   192
  0
VERTEX
  5
213
330
20E
100
AcDbEntity
  8
0
100
AcDbFaceRecord
 10
0.0
 20
0.0
 30
0.0
 70
   128
 71
    -1
 72
     2
 73
     3
  0
VERTEX
  5
214
330
20E
100
AcDbEntity
  8
0
100
AcDbFaceRecord
 10
0.0
 20
0.0
 30
0.0
 70
   128
 71
    -2
 72
     1
 73
     4
  0
SEQEND
  5
215
330
20E
100
AcDbEntity
  8
0
  0
POLYLINE
  5
216
330
1F
100
AcDbEntity
  8
0
100
AcDbPolyFaceMesh
 66
     1
 10
0.0
 20
0.0
 30
0.0
 70
    64
 71
     4
 72
     2
  0
VERTEX
  5
217
330
216
100
AcDbEntity
  8
0
100
AcDbVertex
100
AcDbPolyFaceMeshVertex
 10
29.97469657628974
 20
33.51602145649231
 30
4.109695048609456
 70
   192
  0
VERTEX
  5
218
330
216
100
AcDbEntity
  8
0
100
AcDbVertex
100
AcDbPolyFaceMeshVertex
 10
30.60767103745352
 20
34.17209280583462
 30
18.41875856993647
 70
   192
  0
VERTEX
  5
219
330
216
100
AcDbEntity
  8
0
100
AcDbVertex
100
AcDbPolyFaceMeshVertex
 10
29.97469657628974
 20
33.34165561712066
 30
18.4086319515425
 70
   192
  0
VERTEX
  5
21A
330
216
100
AcDbEntity
  8
0
100
AcDbVertex
100
AcDbPolyFaceMeshVertex
 10
30.60767103745352
 20
34.34645864520627
 30
4.119821667003432
 70
   192
  0
VERTEX
  5
21B
330
216
100
AcDbEntity
  8
0
100
AcDbFaceRecord
 10
0.0
 20
0.0
 30
0.0
 70
   128
 71
    -1
 72
     2
 73
     3
  0
VERTEX
  5
21C
330
216
100
AcDbEntity
  8
0
100
AcDbFaceRecord
 10
0.0
 20
0.0
 30
0.0
 70
   128
 71
    -2
 72
     1
 73
     4
  0
SEQEND
  5
21D
330
216
100
AcDbEntity
  8
0
  0
POLYLINE
  5
21E
330
1F
100
AcDbEntity
  8
0
100
AcDbPolyFaceMesh
 66
     1
 10
0.0
 20
0.0
 30
0.0
 70
    64
 71
     4
 72
     2
  0
VERTEX
  5
21F
330
21E
100
AcDbEntity
  8
0
100
AcDbVertex
100
AcDbPolyFaceMeshVertex
 10
30.60767103745352
 20
34.34645864520627
 30
4.119821667003432
 70
   192
  0
VERTEX
  5
220
330
21E
100
AcDbEntity
  8
0
100
AcDbVertex
100
AcDbPolyFaceMeshVertex
 10
31.00412847684115
 20
35.13804719992191
 30
18.43053772875528
 70
   192
  0
VERTEX
  5
221
330
21E
100
AcDbEntity
  8
0
100
AcDbVertex
100
AcDbPolyFaceMeshVertex
 10
30.60767103745352
 20
34.17209280583462
 30
18.41875856993647
 70
   192
  0
VERTEX
  5
222
330
21E
100
AcDbEntity
  8
0
100
AcDbVertex
100
AcDbPolyFaceMeshVertex
 10
31.00412847684115
 20
35.31241303929357
 30
4.131600825822241
 70
   192
  0
VERTEX
  5
223
330
21E
100
AcDbEntity
  8
0
100
AcDbFaceRecord
 10
0.0
 20
0.0
 30
0.0
 70
   128
 71
    -1
 72
     2
 73
     3
  0
VERTEX
  5
224
330
21E
100
AcDbEntity
  8
0
100
AcDbFaceRecord
 10
0.0
 20
0.0
 30
0.0
 70
   128
 71
    -2
 72
     1
 73
     4
  0
SEQEND
  5
225
330
21E
100
AcDbEntity
  8
0
  0
POLYLINE
  5
226
330
1F
100
AcDbEntity
  8
0
100
AcDbPolyFaceMesh
 66
     1
 10
0.0
 20
0.0
 30
0.0
 70
    64
 71
     4
 72
     2
  0
VERTEX
  5
227
330
226
100
AcDbEntity
  8
0
100
AcDbVertex
100
AcDbPolyFaceMeshVertex
 10
31.00412847684115
 20
35.31241303929357
 30
4.131600825822241
 70
   192
  0
VERTEX
  5
228
330
226
100
AcDbEntity
  8
0
100
AcDbVertex
100
AcDbPolyFaceMeshVertex
 10
31.13705097513525
 20
36.1736906037406
 30
18.4431666977914
 70
   192
  0
VERTEX
  5
229
330
226
100
AcDbEntity
  8
0
100
AcDbVertex
100
AcDbPolyFaceMeshVertex
 10
31.00412847684115
 20
35.13804719992191
 30
18.43053772875528
 70
   192
  0
VERTEX
  5
22A
330
226
100
AcDbEntity
  8
0
100
AcDbVertex
100
AcDbPolyFaceMeshVertex
 10
31.13705097513525
 20
36.34805644311226
 30
4.14422979485836
 70
   192
  0
VERTEX
  5
22B
330
226
100
AcDbEntity
  8
0
100
AcDbFaceRecord
 10
0.0
 20
0.0
 30
0.0
 70
   128
 71
    -1
 72
     2
 73
     3
  0
VERTEX
  5
22C
330
226
100
AcDbEntity
  8
0
100
AcDbFaceRecord
 10
0.0
 20
0.0
 30
0.0
 70
   128
 71
    -2
 72
     1
 73
     4
  0
SEQEND
  5
22D
330
226
100
AcDbEntity
  8
0
  0
POLYLINE
  5
22E
330
1F
100
AcDbEntity
  8
0
100
AcDbPolyFaceMesh
 66
     1
 10
0.0
 20
0.0
 30
0.0
 70
    64
 71
     4
 72
     2
  0
VERTEX
  5
22F
330
22E
100
AcDbEntity
  8
0
100
AcDbVertex
100
AcDbPolyFaceMeshVertex
 10
31.13705097513525
 20
36.34805644311226
 30
4.14422979485836
 70
   192
  0
VERTEX
  5
230
330
22E
100
AcDbEntity
  8
0
100
AcDbVertex
100
AcDbPolyFaceMeshVertex
 10
30.99738008374189
 20
37.2084456308021
 30
18.45578483367538
 70
   192
  0
VERTEX
  5
231
330
22E
100
AcDbEntity
  8
0
100
AcDbVertex
100
AcDbPolyFaceMeshVertex
 10
31.13705097513525
 20
36.1736906037406
 30
18.4431666977914
 70
   192
  0
VERTEX
  5
232
330
22E
100
AcDbEntity
  8
0
100
AcDbVertex
100
AcDbPolyFaceMeshVertex
 10
30.99738008374189
 20
37.38281147017375
 30
4.156847930742336
 70
   192
  0
VERTEX
  5
233
330
22E
100
AcDbEntity
  8
0
100
AcDbFaceRecord
 10
0.0
 20
0.0
 30
0.0
 70
   128
 71
    -1
 72
     2
 73
     3
  0
VERTEX
  5
234
330
22E
100
AcDbEntity
  8
0
100
AcDbFaceRecord
 10
0.0
 20
0.0
 30
0.0
 70
   128
 71
    -2
 72
     1
 73
     4
  0
SEQEND
  5
235
330
22E
100
AcDbEntity
  8
0
  0
POLYLINE
  5
236
330
1F
100
AcDbEntity
  8
0
100
AcDbPolyFaceMesh
 66
     1
 10
0.0
 20
0.0
 30
0.0
 70
    64
 71
     4
 72
     2
  0
VERTEX
  5
237
330
236
100
AcDbEntity
  8
0
100
AcDbVertex
100
AcDbPolyFaceMeshVertex
 10
30.99738008374189
 20
37.38281147017375
 30
4.156847930742336
 70
   192
  0
VERTEX
  5
238
330
236
100
AcDbEntity
  8
0
100
AcDbVertex
100
AcDbPolyFaceMeshVertex
 10
30.59463414309248
 20
38.17179543602568
 30
18.46753223129917
 70
   192
  0
VERTEX
  5
239
330
236
100
AcDbEntity
  8
0
100
AcDbVertex
100
AcDbPolyFaceMeshVertex
 10
30.99738008374189
 20
37.2084456308021
 30
18.45578483367538
 70
   192
  0
VERTEX
  5
23A
330
236
100
AcDbEntity
  8
0
100
AcDbVertex
100
AcDbPolyFaceMeshVertex
 10
30.59463414309248
 20
38.34616127539733
 30
4.168595328366133
 70
   192
  0
VERTEX
  5
23B
330
236
100
AcDbEntity
  8
0
100
AcDbFaceRecord
 10
0.0
 20
0.0
 30
0.0
 70
   128
 71
    -1
 72
     2
 73
     3
  0
VERTEX
  5
23C
330
236
100
AcDbEntity
  8
0
100
AcDbFaceRecord
 10
0.0
 20
0.0
 30
0.0
 70
   128
 71
    -2
 72
     1
 73
     4
  0
SEQEND
  5
23D
330
236
100
AcDbEntity
  8
0
  0
POLYLINE
  5
23E
330
1F
100
AcDbEntity
  8
0
100
AcDbPolyFaceMesh
 66
     1
 10
0.0
 20
0.0
 30
0.0
 70
    64
 71
     4
 72
     2
  0
VERTEX
  5
23F
330
23E
100
AcDbEntity
  8
0
100
AcDbVertex
100
AcDbPolyFaceMeshVertex
 10
30.59463414309248
 20
38.34616127539733
 30
4.168595328366133
 70
   192
  0
VERTEX
  5
240
330
23E
100
AcDbEntity
  8
0
100
AcDbVertex
100
AcDbPolyFaceMeshVertex
 10
29.95625962347313
 20
38.99808932219619
 30
18.47760832492822
 70
   192
  0
VERTEX
  5
241
330
23E
100
AcDbEntity
  8
0
100
AcDbVertex
100
AcDbPolyFaceMeshVertex
 10
30.59463414309248
 20
38.17179543602568
 30
18.46753223129917
 70
   192
  0
VERTEX
  5
242
330
23E
100
AcDbEntity
  8
0
100
AcDbVertex
100
AcDbPolyFaceMeshVertex
 10
29.95625962347313
 20
39.17245516156784
 30
4.17867142199518
 70
   192
  0
VERTEX
  5
243
330
23E
100
AcDbEntity
  8
0
100
AcDbFaceRecord
 10
0.0
 20
0.0
 30
0.0
 70
   128
 71
    -1
 72
     2
 73
     3
  0
VERTEX
  5
244
330
23E
100
AcDbEntity
  8
0
100
AcDbFaceRecord
 10
0.0
 20
0.0
 30
0.0
 70
   128
 71
    -2
 72
     1
 73
     4
  0
SEQEND
  5
245
330
23E
100
AcDbEntity
  8
0
  0
POLYLINE
  5
246
330
1F
100
AcDbEntity
  8
0
100
AcDbPolyFaceMesh
 66
     1
 10
0.0
 20
0.0
 30
0.0
 70
    64
 71
     4
 72
     2
  0
VERTEX
  5
247
330
246
100
AcDbEntity
  8
0
100
AcDbVertex
100
AcDbPolyFaceMeshVertex
 10
29.12576069343213
 20
39.80538256585798
 30
4.18638954250019
 70
   192
  0
VERTEX
  5
248
330
246
100
AcDbEntity
  8
0
100
AcDbVertex
100
AcDbPolyFaceMeshVertex
 10
29.95625962347313
 20
38.99808932219619
 30
18.47760832492822
 70
   192
  0
VERTEX
  5
249
330
246
100
AcDbEntity
  8
0
100
AcDbVertex
100
AcDbPolyFaceMeshVertex
 10
29.95625962347313
 20
39.17245516156784
 30
4.17867142199518
 70
   192
  0
VERTEX
  5
24A
330
246
100
AcDbEntity
  8
0
100
AcDbVertex
100
AcDbPolyFaceMeshVertex
 10
29.12576069343213
 20
39.63101672648633
 30
18.48532644543323
 70
   192
  0
VERTEX
  5
24B
330
246
100
AcDbEntity
  8
0
100
AcDbFaceRecord
 10
0.0
 20
0.0
 30
0.0
 70
   128
 71
    -1
 72
     2
 73
     3
  0
VERTEX
  5
24C
330
246
100
AcDbEntity
  8
0
100
AcDbFaceRecord
 10
0.0
 20
0.0
 30
0.0
 70
   128
 71
    -2
 72
     1
 73
     4
  0
SEQEND
  5
24D
330
246
100
AcDbEntity
  8
0
  0
POLYLINE
  5
24E
330
1F
100
AcDbEntity
  8
0
100
AcDbPolyFaceMesh
 66
     1
 10
0.0
 20
0.0
 30
0.0
 70
    64
 71
     4
 72
     2
  0
VERTEX
  5
24F
330
24E
100
AcDbEntity
  8
0
100
AcDbVertex
100
AcDbPolyFaceMeshVertex
 10
28.1597344825874
 20
40.20181053162736
 30
4.191223712723543
 70
   192
  0
VERTEX
  5
250
330
24E
100
AcDbEntity
  8
0
100
AcDbVertex
100
AcDbPolyFaceMeshVertex
 10
29.12576069343213
 20
39.63101672648633
 30
18.48532644543323
 70
   192
  0
VERTEX
  5
251
330
24E
100
AcDbEntity
  8
0
100
AcDbVertex
100
AcDbPolyFaceMeshVertex
 10
29.12576069343213
 20
39.80538256585798
 30
4.18638954250019
 70
   192
  0
VERTEX
  5
252
330
24E
100
AcDbEntity
  8
0
100
AcDbVertex
100
AcDbPolyFaceMeshVertex
 10
28.1597344825874
 20
40.0274446922557
 30
18.49016061565658
 70
   192
  0
VERTEX
  5
253
330
24E
100
AcDbEntity
  8
0
100
AcDbFaceRecord
 10
0.0
 20
0.0
 30
0.0
 70
   128
 71
    -1
 72
     2
 73
     3
  0
VERTEX
  5
254
330
24E
100
AcDbEntity
  8
0
100
AcDbFaceRecord
 10
0.0
 20
0.0
 30
0.0
 70
   128
 71
    -2
 72
     1
 73
     4
  0
SEQEND
  5
255
330
24E
100
AcDbEntity
  8
0
  0
POLYLINE
  5
256
330
1F
100
AcDbEntity
  8
0
100
AcDbPolyFaceMesh
 66
     1
 10
0.0
 20
0.0
 30
0.0
 70
    64
 71
     4
 72
     2
  0
VERTEX
  5
257
330
256
100
AcDbEntity
  8
0
100
AcDbVertex
100
AcDbPolyFaceMeshVertex
 10
27.12401408077421
 20
40.33472314813697
 30
4.192844491953363
 70
   192
  0
VERTEX
  5
258
330
256
100
AcDbEntity
  8
0
100
AcDbVertex
100
AcDbPolyFaceMeshVertex
 10
28.1597344825874
 20
40.0274446922557
 30
18.49016061565658
 70
   192
  0
VERTEX
  5
259
330
256
100
AcDbEntity
  8
0
100
AcDbVertex
100
AcDbPolyFaceMeshVertex
 10
28.1597344825874
 20
40.20181053162736
 30
4.191223712723543
 70
   192
  0
VERTEX
  5
25A
330
256
100
AcDbEntity
  8
0
100
AcDbVertex
100
AcDbPolyFaceMeshVertex
 10
27.12401408077421
 20
40.16035730876532
 30
18.4917813948864
 70
   192
  0
VERTEX
  5
25B
330
256
100
AcDbEntity
  8
0
100
AcDbFaceRecord
 10
0.0
 20
0.0
 30
0.0
 70
   128
 71
    -1
 72
     2
 73
     3
  0
VERTEX
  5
25C
330
256
100
AcDbEntity
  8
0
100
AcDbFaceRecord
 10
0.0
 20
0.0
 30
0.0
 70
   128
 71
    -2
 72
     1
 73
     4
  0
SEQEND
  5
25D
330
256
100
AcDbEntity
  8
0
  0
POLYLINE
  5
25E
330
1F
100
AcDbEntity
  8
0
100
AcDbPolyFaceMesh
 66
     1
 10
0.0
 20
0.0
 30
0.0
 70
    64
 71
     4
 72
     2
  0
VERTEX
  5
25F
330
25E
100
AcDbEntity
  8
0
100
AcDbVertex
100
AcDbPolyFaceMeshVertex
 10
26.08918212176723
 20
40.02069680084854
 30
18.49007832969664
 70
   192
  0
VERTEX
  5
260
330
25E
100
AcDbEntity
  8
0
100
AcDbVertex
100
AcDbPolyFaceMeshVertex
 10
27.12401408077421
 20
40.33472314813697
 30
4.192844491953363
 70
   192
  0
VERTEX
  5
261
330
25E
100
AcDbEntity
  8
0
100
AcDbVertex
100
AcDbPolyFaceMeshVertex
 10
26.08918212176723
 20
40.19506264022019
 30
4.191141426763602
 70
   192
  0
VERTEX
  5
262
330
25E
100
AcDbEntity
  8
0
100
AcDbVertex
100
AcDbPolyFaceMeshVertex
 10
27.12401408077421
 20
40.16035730876532
 30
18.4917813948864
 70
   192
  0
VERTEX
  5
263
330
25E
100
AcDbEntity
  8
0
100
AcDbFaceRecord
 10
0.0
 20
0.0
 30
0.0
 70
   128
 71
    -1
 72
     2
 73
     3
  0
VERTEX
  5
264
330
25E
100
AcDbEntity
  8
0
100
AcDbFaceRecord
 10
0.0
 20
0.0
 30
0.0
 70
   128
 71
    -2
 72
     1
 73
     4
  0
SEQEND
  5
265
330
25E
100
AcDbEntity
  8
0
  0
POLYLINE
  5
266
330
1F
100
AcDbEntity
  8
0
100
AcDbPolyFaceMesh
 66
     1
 10
0.0
 20
0.0
 30
0.0
 70
    64
 71
     4
 72
     2
  0
VERTEX
  5
267
330
266
100
AcDbEntity
  8
0
100
AcDbVertex
100
AcDbPolyFaceMeshVertex
 10
25.12576069343213
 20
39.61798080131999
 30
18.48516748116553
 70
   192
  0
VERTEX
  5
268
330
266
100
AcDbEntity
  8
0
100
AcDbVertex
100
AcDbPolyFaceMeshVertex
 10
26.08918212176723
 20
40.19506264022019
 30
4.191141426763602
 70
   192
  0
VERTEX
  5
269
330
266
100
AcDbEntity
  8
0
100
AcDbVertex
100
AcDbPolyFaceMeshVertex
 10
25.12576069343213
 20
39.79234664069164
 30
4.186230578232492
 70
   192
  0
VERTEX
  5
26A
330
266
100
AcDbEntity
  8
0
100
AcDbVertex
100
AcDbPolyFaceMeshVertex
 10
26.08918212176723
 20
40.02069680084854
 30
18.49007832969664
 70
   192
  0
VERTEX
  5
26B
330
266
100
AcDbEntity
  8
0
100
AcDbFaceRecord
 10
0.0
 20
0.0
 30
0.0
 70
   128
 71
    -1
 72
     2
 73
     3
  0
VERTEX
  5
26C
330
266
100
AcDbEntity
  8
0
100
AcDbFaceRecord
 10
0.0
 20
0.0
 30
0.0
 70
   128
 71
    -2
 72
     1
 73
     4
  0
SEQEND
  5
26D
330
266
100
AcDbEntity
  8
0
  0
POLYLINE
  5
26E
330
1F
100
AcDbEntity
  8
0
100
AcDbPolyFaceMesh
 66
     1
 10
0.0
 20
0.0
 30
0.0
 70
    64
 71
     4
 72
     2
  0
VERTEX
  5
26F
330
26E
100
AcDbEntity
  8
0
100
AcDbVertex
100
AcDbPolyFaceMeshVertex
 10
24.29940537398075
 20
38.97965374002787
 30
18.47738351550491
 70
   192
  0
VERTEX
  5
270
330
26E
100
AcDbEntity
  8
0
100
AcDbVertex
100
AcDbPolyFaceMeshVertex
 10
25.12576069343213
 20
39.79234664069164
 30
4.186230578232492
 70
   192
  0
VERTEX
  5
271
330
26E
100
AcDbEntity
  8
0
100
AcDbVertex
100
AcDbPolyFaceMeshVertex
 10
24.29940537398075
 20
39.15401957939952
 30
4.17844661257187
 70
   192
  0
VERTEX
  5
272
330
26E
100
AcDbEntity
  8
0
100
AcDbVertex
100
AcDbPolyFaceMeshVertex
 10
25.12576069343213
 20
39.61798080131999
 30
18.48516748116553
 70
   192
  0
VERTEX
  5
273
330
26E
100
AcDbEntity
  8
0
100
AcDbFaceRecord
 10
0.0
 20
0.0
 30
0.0
 70
   128
 71
    -1
 72
     2
 73
     3
  0
VERTEX
  5
274
330
26E
100
AcDbEntity
  8
0
100
AcDbFaceRecord
 10
0.0
 20
0.0
 30
0.0
 70
   128
 71
    -2
 72
     1
 73
     4
  0
SEQEND
  5
275
330
26E
100
AcDbEntity
  8
0
  0
POLYLINE
  5
276
330
1F
100
AcDbEntity
  8
0
100
AcDbPolyFaceMesh
 66
     1
 10
0.0
 20
0.0
 30
0.0
 70
    64
 71
     4
 72
     2
  0
VERTEX
  5
277
330
276
100
AcDbEntity
  8
0
100
AcDbVertex
100
AcDbPolyFaceMeshVertex
 10
24.29940537398075
 20
38.97965374002787
 30
18.47738351550491
 70
   192
  0
VERTEX
  5
278
330
276
100
AcDbEntity
  8
0
100
AcDbVertex
100
AcDbPolyFaceMeshVertex
 10
23.66643091281697
 20
38.32358239068557
 30
4.168319994177893
 70
   192
  0
VERTEX
  5
279
330
276
100
AcDbEntity
  8
0
100
AcDbVertex
100
AcDbPolyFaceMeshVertex
 10
23.66643091281697
 20
38.14921655131391
 30
18.46725689711093
 70
   192
  0
VERTEX
  5
27A
330
276
100
AcDbEntity
  8
0
100
AcDbVertex
100
AcDbPolyFaceMeshVertex
 10
24.29940537398075
 20
39.15401957939952
 30
4.17844661257187
 70
   192
  0
VERTEX
  5
27B
330
276
100
AcDbEntity
  8
0
100
AcDbFaceRecord
 10
0.0
 20
0.0
 30
0.0
 70
   128
 71
    -1
 72
     2
 73
     3
  0
VERTEX
  5
27C
330
276
100
AcDbEntity
  8
0
100
AcDbFaceRecord
 10
0.0
 20
0.0
 30
0.0
 70
   128
 71
    -2
 72
     1
 73
     4
  0
SEQEND
  5
27D
330
276
100
AcDbEntity
  8
0
  0
POLYLINE
  5
27E
330
1F
100
AcDbEntity
  8
0
100
AcDbPolyFaceMesh
 66
     1
 10
0.0
 20
0.0
 30
0.0
 70
    64
 71
     4
 72
     2
  0
VERTEX
  5
27F
330
27E
100
AcDbEntity
  8
0
100
AcDbVertex
100
AcDbPolyFaceMeshVertex
 10
23.66643091281697
 20
38.14921655131391
 30
18.46725689711093
 70
   192
  0
VERTEX
  5
280
330
27E
100
AcDbEntity
  8
0
100
AcDbVertex
100
AcDbPolyFaceMeshVertex
 10
23.26997347342935
 20
37.35762799659827
 30
4.156540835359086
 70
   192
  0
VERTEX
  5
281
330
27E
100
AcDbEntity
  8
0
100
AcDbVertex
100
AcDbPolyFaceMeshVertex
 10
23.26997347342935
 20
37.18326215722661
 30
18.45547773829213
 70
   192
  0
VERTEX
  5
282
330
27E
100
AcDbEntity
  8
0
100
AcDbVertex
100
AcDbPolyFaceMeshVertex
 10
23.66643091281697
 20
38.32358239068557
 30
4.168319994177893
 70
   192
  0
VERTEX
  5
283
330
27E
100
AcDbEntity
  8
0
100
AcDbFaceRecord
 10
0.0
 20
0.0
 30
0.0
 70
   128
 71
    -1
 72
     2
 73
     3
  0
VERTEX
  5
284
330
27E
100
AcDbEntity
  8
0
100
AcDbFaceRecord
 10
0.0
 20
0.0
 30
0.0
 70
   128
 71
    -2
 72
     1
 73
     4
  0
SEQEND
  5
285
330
27E
100
AcDbEntity
  8
0
  0
POLYLINE
  5
286
330
1F
100
AcDbEntity
  8
0
100
AcDbPolyFaceMesh
 66
     1
 10
0.0
 20
0.0
 30
0.0
 70
    64
 71
    24
 72
    22
  0
VERTEX
  5
287
330
286
100
AcDbEntity
  8
0
100
AcDbVertex
100
AcDbPolyFaceMeshVertex
 10
25.95273950055884
 20
36.05871250773333
 30
10.94120700803179
 70
   192
  0
VERTEX
  5
288
330
286
100
AcDbEntity
  8
0
100
AcDbVertex
100
AcDbPolyFaceMeshVertex
 10
26.01470357002924
 20
36.67673394311334
 30
10.94874336035374
 70
   192
  0
VERTEX
  5
289
330
286
100
AcDbEntity
  8
0
100
AcDbVertex
100
AcDbPolyFaceMeshVertex
 10
25.94303647790194
 20
36.37180178444394
 30
10.94502491945434
 70
   192
  0
VERTEX
  5
28A
330
286
100
AcDbEntity
  8
0
100
AcDbVertex
100
AcDbPolyFaceMeshVertex
 10
26.04315139304088
 20
35.75880262978485
 30
10.93754981044016
 70
   192
  0
VERTEX
  5
28B
330
286
100
AcDbEntity
  8
0
100
AcDbVertex
100
AcDbPolyFaceMeshVertex
 10
26.16285678304772
 20
36.95272836105242
 30
10.95210892512771
 70
   192
  0
VERTEX
  5
28C
330
286
100
AcDbEntity
  8
0
100
AcDbVertex
100
AcDbPolyFaceMeshVertex
 10
26.20811073428811
 20
35.49251051315616
 30
10.9343025586515
 70
   192
  0
VERTEX
  5
28D
330
286
100
AcDbEntity
  8
0
100
AcDbVertex
100
AcDbPolyFaceMeshVertex
 10
26.37739972032496
 20
37.18097647478098
 30
10.95489225609878
 70
   192
  0
VERTEX
  5
28E
330
286
100
AcDbEntity
  8
0
100
AcDbVertex
100
AcDbPolyFaceMeshVertex
 10
26.43637581780274
 20
35.277983525527
 30
10.93168654750887
 70
   192
  0
VERTEX
  5
28F
330
286
100
AcDbEntity
  8
0
100
AcDbVertex
100
AcDbPolyFaceMeshVertex
 10
26.64371163523445
 20
37.34592355254627
 30
10.95690367386093
 70
   192
  0
VERTEX
  5
290
330
286
100
AcDbEntity
  8
0
100
AcDbVertex
100
AcDbPolyFaceMeshVertex
 10
26.71239075536914
 20
35.12984132658168
 30
10.92988005384848
 70
   192
  0
VERTEX
  5
291
330
286
100
AcDbEntity
  8
0
100
AcDbVertex
100
AcDbPolyFaceMeshVertex
 10
26.94364381087638
 20
37.43632872358651
 30
10.9580061036177
 70
   192
  0
VERTEX
  5
292
330
286
100
AcDbEntity
  8
0
100
AcDbVertex
100
AcDbPolyFaceMeshVertex
 10
27.0173455851284
 20
35.05817956236175
 30
10.92900618722791
 70
   192
  0
VERTEX
  5
293
330
286
100
AcDbEntity
  8
0
100
AcDbVertex
100
AcDbPolyFaceMeshVertex
 10
27.25675636514209
 20
37.4460310248969
 30
10.95812441660302
 70
   192
  0
VERTEX
  5
294
330
286
100
AcDbEntity
  8
0
100
AcDbVertex
100
AcDbPolyFaceMeshVertex
 10
27.33045813939411
 20
35.06788186367216
 30
10.92912450021323
 70
   192
  0
VERTEX
  5
295
330
286
100
AcDbEntity
  8
0
100
AcDbVertex
100
AcDbPolyFaceMeshVertex
 10
27.56171119490136
 20
37.37436926067698
 30
10.95725054998245
 70
   192
  0
VERTEX
  5
296
330
286
100
AcDbEntity
  8
0
100
AcDbVertex
100
AcDbPolyFaceMeshVertex
 10
27.63039031503604
 20
35.15828703471239
 30
10.93022692997
 70
   192
  0
VERTEX
  5
297
330
286
100
AcDbEntity
  8
0
100
AcDbVertex
100
AcDbPolyFaceMeshVertex
 10
27.83772613246775
 20
37.22622706173166
 30
10.95544405632206
 70
   192
  0
VERTEX
  5
298
330
286
100
AcDbEntity
  8
0
100
AcDbVertex
100
AcDbPolyFaceMeshVertex
 10
27.89670222994554
 20
35.32323411247768
 30
10.93223834773215
 70
   192
  0
VERTEX
  5
299
330
286
100
AcDbEntity
  8
0
100
AcDbVertex
100
AcDbPolyFaceMeshVertex
 10
28.06599121598239
 20
37.01170007410249
 30
10.95282804517943
 70
   192
  0
VERTEX
  5
29A
330
286
100
AcDbEntity
  8
0
100
AcDbVertex
100
AcDbPolyFaceMeshVertex
 10
28.11124516722277
 20
35.55148222620624
 30
10.93502167870322
 70
   192
  0
VERTEX
  5
29B
330
286
100
AcDbEntity
  8
0
100
AcDbVertex
100
AcDbPolyFaceMeshVertex
 10
28.23095055722962
 20
36.74540795747382
 30
10.94958079339077
 70
   192
  0
VERTEX
  5
29C
330
286
100
AcDbEntity
  8
0
100
AcDbVertex
100
AcDbPolyFaceMeshVertex
 10
28.25939838024125
 20
35.82747664414532
 30
10.93838724347719
 70
   192
  0
VERTEX
  5
29D
330
286
100
AcDbEntity
  8
0
100
AcDbVertex
100
AcDbPolyFaceMeshVertex
 10
28.32136244971165
 20
36.44549807952533
 30
10.94592359579914
 70
   192
  0
VERTEX
  5
29E
330
286
100
AcDbEntity
  8
0
100
AcDbVertex
100
AcDbPolyFaceMeshVertex
 10
28.33106547236855
 20
36.13240880281472
 30
10.94210568437659
 70
   192
  0
VERTEX
  5
29F
330
286
100
AcDbEntity
  8
0
100
AcDbFaceRecord
 10
0.0
 20
0.0
 30
0.0
 70
   128
 71
    -1
 72
     2
 73
     3
  0
VERTEX
  5
2A0
330
286
100
AcDbEntity
  8
0
100
AcDbFaceRecord
 10
0.0
 20
0.0
 30
0.0
 70
   128
 71
    -2
 72
     1
 73
    -4
  0
VERTEX
  5
2A1
330
286
100
AcDbEntity
  8
0
100
AcDbFaceRecord
 10
0.0
 20
0.0
 30
0.0
 70
   128
 71
    -2
 72
    -4
 73
     5
  0
VERTEX
  5
2A2
330
286
100
AcDbEntity
  8
0
100
AcDbFaceRecord
 10
0.0
 20
0.0
 30
0.0
 70
   128
 71
    -5
 72
     4
 73
    -6
  0
VERTEX
  5
2A3
330
286
100
AcDbEntity
  8
0
100
AcDbFaceRecord
 10
0.0
 20
0.0
 30
0.0
 70
   128
 71
    -5
 72
    -6
 73
     7
  0
VERTEX
  5
2A4
330
286
100
AcDbEntity
  8
0
100
AcDbFaceRecord
 10
0.0
 20
0.0
 30
0.0
 70
   128
 71
    -7
 72
     6
 73
    -8
  0
VERTEX
  5
2A5
330
286
100
AcDbEntity
  8
0
100
AcDbFaceRecord
 10
0.0
 20
0.0
 30
0.0
 70
   128
 71
    -7
 72
    -8
 73
     9
  0
VERTEX
  5
2A6
330
286
100
AcDbEntity
  8
0
100
AcDbFaceRecord
 10
0.0
 20
0.0
 30
0.0
 70
   128
 71
    -9
 72
     8
 73
   -10
  0
VERTEX
  5
2A7
330
286
100
AcDbEntity
  8
0
100
AcDbFaceRecord
 10
0.0
 20
0.0
 30
0.0
 70
   128
 71
    -9
 72
   -10
 73
    11
  0
VERTEX
  5
2A8
330
286
100
AcDbEntity
  8
0
100
AcDbFaceRecord
 10
0.0
 20
0.0
 30
0.0
 70
   128
 71
   -11
 72
    10
 73
   -12
  0
VERTEX
  5
2A9
330
286
100
AcDbEntity
  8
0
100
AcDbFaceRecord
 10
0.0
 20
0.0
 30
0.0
 70
   128
 71
   -11
 72
   -12
 73
    13
  0
VERTEX
  5
2AA
330
286
100
AcDbEntity
  8
0
100
AcDbFaceRecord
 10
0.0
 20
0.0
 30
0.0
 70
   128
 71
   -13
 72
    12
 73
   -14
  0
VERTEX
  5
2AB
330
286
100
AcDbEntity
  8
0
100
AcDbFaceRecord
 10
0.0
 20
0.0
 30
0.0
 70
   128
 71
   -13
 72
   -14
 73
    15
  0
VERTEX
  5
2AC
330
286
100
AcDbEntity
  8
0
100
AcDbFaceRecord
 10
0.0
 20
0.0
 30
0.0
 70
   128
 71
   -15
 72
    14
 73
   -16
  0
VERTEX
  5
2AD
330
286
100
AcDbEntity
  8
0
100
AcDbFaceRecord
 10
0.0
 20
0.0
 30
0.0
 70
   128
 71
   -15
 72
   -16
 73
    17
  0
VERTEX
  5
2AE
330
286
100
AcDbEntity
  8
0
100
AcDbFaceRecord
 10
0.0
 20
0.0
 30
0.0
 70
   128
 71
   -17
 72
    16
 73
   -18
  0
VERTEX
  5
2AF
330
286
100
AcDbEntity
  8
0
100
AcDbFaceRecord
 10
0.0
 20
0.0
 30
0.0
 70
   128
 71
   -17
 72
   -18
 73
    19
  0
VERTEX
  5
2B0
330
286
100
AcDbEntity
  8
0
100
AcDbFaceRecord
 10
0.0
 20
0.0
 30
0.0
 70
   128
 71
   -19
 72
    18
 73
   -20
  0
VERTEX
  5
2B1
330
286
100
AcDbEntity
  8
0
100
AcDbFaceRecord
 10
0.0
 20
0.0
 30
0.0
 70
   128
 71
   -19
 72
   -20
 73
    21
  0
VERTEX
  5
2B2
330
286
100
AcDbEntity
  8
0
100
AcDbFaceRecord
 10
0.0
 20
0.0
 30
0.0
 70
   128
 71
   -21
 72
    20
 73
   -22
  0
VERTEX
  5
2B3
330
286
100
AcDbEntity
  8
0
100
AcDbFaceRecord
 10
0.0
 20
0.0
 30
0.0
 70
   128
 71
   -21
 72
   -22
 73
    23
  0
VERTEX
  5
2B4
330
286
100
AcDbEntity
  8
0
100
AcDbFaceRecord
 10
0.0
 20
0.0
 30
0.0
 70
   128
 71
   -23
 72
    22
 73
    24
  0
SEQEND
  5
2B5
330
286
100
AcDbEntity
  8
0
  0
POLYLINE
  5
2B6
330
1F
100
AcDbEntity
  8
0
100
AcDbPolyFaceMesh
 66
     1
 10
0.0
 20
0.0
 30
0.0
 70
    64
 71
     4
 72
     2
  0
VERTEX
  5
2B7
330
2B6
100
AcDbEntity
  8
0
100
AcDbVertex
100
AcDbPolyFaceMeshVertex
 10
26.04315139304088
 20
35.75880262978485
 30
10.93754981044016
 70
   192
  0
VERTEX
  5
2B8
330
2B6
100
AcDbEntity
  8
0
100
AcDbVertex
100
AcDbPolyFaceMeshVertex
 10
25.95273950055884
 20
35.96726189267827
 30
18.44064943964003
 70
   192
  0
VERTEX
  5
2B9
330
2B6
100
AcDbEntity
  8
0
100
AcDbVertex
100
AcDbPolyFaceMeshVertex
 10
26.04315139304088
 20
35.66735201472978
 30
18.4369922420484
 70
   192
  0
VERTEX
  5
2BA
330
2B6
100
AcDbEntity
  8
0
100
AcDbVertex
100
AcDbPolyFaceMeshVertex
 10
25.95273950055884
 20
36.05871250773333
 30
10.94120700803179
 70
   192
  0
VERTEX
  5
2BB
330
2B6
100
AcDbEntity
  8
0
100
AcDbFaceRecord
 10
0.0
 20
0.0
 30
0.0
 70
   128
 71
    -1
 72
     2
 73
     3
  0
VERTEX
  5
2BC
330
2B6
100
AcDbEntity
  8
0
100
AcDbFaceRecord
 10
0.0
 20
0.0
 30
0.0
 70
   128
 71
    -2
 72
     1
 73
     4
  0
SEQEND
  5
2BD
330
2B6
100
AcDbEntity
  8
0
  0
POLYLINE
  5
2BE
330
1F
100
AcDbEntity
  8
0
100
AcDbPolyFaceMesh
 66
     1
 10
0.0
 20
0.0
 30
0.0
 70
    64
 71
     4
 72
     2
  0
VERTEX
  5
2BF
330
2BE
100
AcDbEntity
  8
0
100
AcDbVertex
100
AcDbPolyFaceMeshVertex
 10
26.20811073428811
 20
35.49251051315616
 30
10.9343025586515
 70
   192
  0
VERTEX
  5
2C0
330
2BE
100
AcDbEntity
  8
0
100
AcDbVertex
100
AcDbPolyFaceMeshVertex
 10
26.04315139304088
 20
35.66735201472978
 30
18.4369922420484
 70
   192
  0
VERTEX
  5
2C1
330
2BE
100
AcDbEntity
  8
0
100
AcDbVertex
100
AcDbPolyFaceMeshVertex
 10
26.20811073428811
 20
35.4010598981011
 30
18.43374499025974
 70
   192
  0
VERTEX
  5
2C2
330
2BE
100
AcDbEntity
  8
0
100
AcDbVertex
100
AcDbPolyFaceMeshVertex
 10
26.04315139304088
 20
35.75880262978485
 30
10.93754981044016
 70
   192
  0
VERTEX
  5
2C3
330
2BE
100
AcDbEntity
  8
0
100
AcDbFaceRecord
 10
0.0
 20
0.0
 30
0.0
 70
   128
 71
    -1
 72
     2
 73
     3
  0
VERTEX
  5
2C4
330
2BE
100
AcDbEntity
  8
0
100
AcDbFaceRecord
 10
0.0
 20
0.0
 30
0.0
 70
   128
 71
    -2
 72
     1
 73
     4
  0
SEQEND
  5
2C5
330
2BE
100
AcDbEntity
  8
0
  0
POLYLINE
  5
2C6
330
1F
100
AcDbEntity
  8
0
100
AcDbPolyFaceMesh
 66
     1
 10
0.0
 20
0.0
 30
0.0
 70
    64
 71
     4
 72
     2
  0
VERTEX
  5
2C7
330
2C6
100
AcDbEntity
  8
0
100
AcDbVertex
100
AcDbPolyFaceMeshVertex
 10
26.20811073428811
 20
35.49251051315616
 30
10.9343025586515
 70
   192
  0
VERTEX
  5
2C8
330
2C6
100
AcDbEntity
  8
0
100
AcDbVertex
100
AcDbPolyFaceMeshVertex
 10
26.43637581780274
 20
35.18653291047193
 30
18.43112897911711
 70
   192
  0
VERTEX
  5
2C9
330
2C6
100
AcDbEntity
  8
0
100
AcDbVertex
100
AcDbPolyFaceMeshVertex
 10
26.43637581780274
 20
35.277983525527
 30
10.93168654750887
 70
   192
  0
VERTEX
  5
2CA
330
2C6
100
AcDbEntity
  8
0
100
AcDbVertex
100
AcDbPolyFaceMeshVertex
 10
26.20811073428811
 20
35.4010598981011
 30
18.43374499025974
 70
   192
  0
VERTEX
  5
2CB
330
2C6
100
AcDbEntity
  8
0
100
AcDbFaceRecord
 10
0.0
 20
0.0
 30
0.0
 70
   128
 71
    -1
 72
     2
 73
     3
  0
VERTEX
  5
2CC
330
2C6
100
AcDbEntity
  8
0
100
AcDbFaceRecord
 10
0.0
 20
0.0
 30
0.0
 70
   128
 71
    -2
 72
     1
 73
     4
  0
SEQEND
  5
2CD
330
2C6
100
AcDbEntity
  8
0
  0
POLYLINE
  5
2CE
330
1F
100
AcDbEntity
  8
0
100
AcDbPolyFaceMesh
 66
     1
 10
0.0
 20
0.0
 30
0.0
 70
    64
 71
     4
 72
     2
  0
VERTEX
  5
2CF
330
2CE
100
AcDbEntity
  8
0
100
AcDbVertex
100
AcDbPolyFaceMeshVertex
 10
26.43637581780274
 20
35.277983525527
 30
10.93168654750887
 70
   192
  0
VERTEX
  5
2D0
330
2CE
100
AcDbEntity
  8
0
100
AcDbVertex
100
AcDbPolyFaceMeshVertex
 10
26.71239075536914
 20
35.03839071152661
 30
18.42932248545672
 70
   192
  0
VERTEX
  5
2D1
330
2CE
100
AcDbEntity
  8
0
100
AcDbVertex
100
AcDbPolyFaceMeshVertex
 10
26.71239075536914
 20
35.12984132658168
 30
10.92988005384848
 70
   192
  0
VERTEX
  5
2D2
330
2CE
100
AcDbEntity
  8
0
100
AcDbVertex
100
AcDbPolyFaceMeshVertex
 10
26.43637581780274
 20
35.18653291047193
 30
18.43112897911711
 70
   192
  0
VERTEX
  5
2D3
330
2CE
100
AcDbEntity
  8
0
100
AcDbFaceRecord
 10
0.0
 20
0.0
 30
0.0
 70
   128
 71
    -1
 72
     2
 73
     3
  0
VERTEX
  5
2D4
330
2CE
100
AcDbEntity
  8
0
100
AcDbFaceRecord
 10
0.0
 20
0.0
 30
0.0
 70
   128
 71
    -2
 72
     1
 73
     4
  0
SEQEND
  5
2D5
330
2CE
100
AcDbEntity
  8
0
  0
POLYLINE
  5
2D6
330
1F
100
AcDbEntity
  8
0
100
AcDbPolyFaceMesh
 66
     1
 10
0.0
 20
0.0
 30
0.0
 70
    64
 71
     4
 72
     2
  0
VERTEX
  5
2D7
330
2D6
100
AcDbEntity
  8
0
100
AcDbVertex
100
AcDbPolyFaceMeshVertex
 10
26.71239075536914
 20
35.12984132658168
 30
10.92988005384848
 70
   192
  0
VERTEX
  5
2D8
330
2D6
100
AcDbEntity
  8
0
100
AcDbVertex
100
AcDbPolyFaceMeshVertex
 10
27.0173455851284
 20
34.96672894730669
 30
18.42844861883615
 70
   192
  0
VERTEX
  5
2D9
330
2D6
100
AcDbEntity
  8
0
100
AcDbVertex
100
AcDbPolyFaceMeshVertex
 10
27.0173455851284
 20
35.05817956236175
 30
10.92900618722791
 70
   192
  0
VERTEX
  5
2DA
330
2D6
100
AcDbEntity
  8
0
100
AcDbVertex
100
AcDbPolyFaceMeshVertex
 10
26.71239075536914
 20
35.03839071152661
 30
18.42932248545672
 70
   192
  0
VERTEX
  5
2DB
330
2D6
100
AcDbEntity
  8
0
100
AcDbFaceRecord
 10
0.0
 20
0.0
 30
0.0
 70
   128
 71
    -1
 72
     2
 73
     3
  0
VERTEX
  5
2DC
330
2D6
100
AcDbEntity
  8
0
100
AcDbFaceRecord
 10
0.0
 20
0.0
 30
0.0
 70
   128
 71
    -2
 72
     1
 73
     4
  0
SEQEND
  5
2DD
330
2D6
100
AcDbEntity
  8
0
  0
POLYLINE
  5
2DE
330
1F
100
AcDbEntity
  8
0
100
AcDbPolyFaceMesh
 66
     1
 10
0.0
 20
0.0
 30
0.0
 70
    64
 71
     4
 72
     2
  0
VERTEX
  5
2DF
330
2DE
100
AcDbEntity
  8
0
100
AcDbVertex
100
AcDbPolyFaceMeshVertex
 10
27.0173455851284
 20
34.96672894730669
 30
18.42844861883615
 70
   192
  0
VERTEX
  5
2E0
330
2DE
100
AcDbEntity
  8
0
100
AcDbVertex
100
AcDbPolyFaceMeshVertex
 10
27.33045813939411
 20
35.06788186367216
 30
10.92912450021323
 70
   192
  0
VERTEX
  5
2E1
330
2DE
100
AcDbEntity
  8
0
100
AcDbVertex
100
AcDbPolyFaceMeshVertex
 10
27.0173455851284
 20
35.05817956236175
 30
10.92900618722791
 70
   192
  0
VERTEX
  5
2E2
330
2DE
100
AcDbEntity
  8
0
100
AcDbVertex
100
AcDbPolyFaceMeshVertex
 10
27.33045813939411
 20
34.97643124861709
 30
18.42856693182146
 70
   192
  0
VERTEX
  5
2E3
330
2DE
100
AcDbEntity
  8
0
100
AcDbFaceRecord
 10
0.0
 20
0.0
 30
0.0
 70
   128
 71
    -1
 72
     2
 73
     3
  0
VERTEX
  5
2E4
330
2DE
100
AcDbEntity
  8
0
100
AcDbFaceRecord
 10
0.0
 20
0.0
 30
0.0
 70
   128
 71
    -2
 72
     1
 73
     4
  0
SEQEND
  5
2E5
330
2DE
100
AcDbEntity
  8
0
  0
POLYLINE
  5
2E6
330
1F
100
AcDbEntity
  8
0
100
AcDbPolyFaceMesh
 66
     1
 10
0.0
 20
0.0
 30
0.0
 70
    64
 71
     4
 72
     2
  0
VERTEX
  5
2E7
330
2E6
100
AcDbEntity
  8
0
100
AcDbVertex
100
AcDbPolyFaceMeshVertex
 10
27.33045813939411
 20
34.97643124861709
 30
18.42856693182146
 70
   192
  0
VERTEX
  5
2E8
330
2E6
100
AcDbEntity
  8
0
100
AcDbVertex
100
AcDbPolyFaceMeshVertex
 10
27.63039031503604
 20
35.15828703471239
 30
10.93022692997
 70
   192
  0
VERTEX
  5
2E9
330
2E6
100
AcDbEntity
  8
0
100
AcDbVertex
100
AcDbPolyFaceMeshVertex
 10
27.33045813939411
 20
35.06788186367216
 30
10.92912450021323
 70
   192
  0
VERTEX
  5
2EA
330
2E6
100
AcDbEntity
  8
0
100
AcDbVertex
100
AcDbPolyFaceMeshVertex
 10
27.63039031503604
 20
35.06683641965732
 30
18.42966936157823
 70
   192
  0
VERTEX
  5
2EB
330
2E6
100
AcDbEntity
  8
0
100
AcDbFaceRecord
 10
0.0
 20
0.0
 30
0.0
 70
   128
 71
    -1
 72
     2
 73
     3
  0
VERTEX
  5
2EC
330
2E6
100
AcDbEntity
  8
0
100
AcDbFaceRecord
 10
0.0
 20
0.0
 30
0.0
 70
   128
 71
    -2
 72
     1
 73
     4
  0
SEQEND
  5
2ED
330
2E6
100
AcDbEntity
  8
0
  0
POLYLINE
  5
2EE
330
1F
100
AcDbEntity
  8
0
100
AcDbPolyFaceMesh
 66
     1
 10
0.0
 20
0.0
 30
0.0
 70
    64
 71
     4
 72
     2
  0
VERTEX
  5
2EF
330
2EE
100
AcDbEntity
  8
0
100
AcDbVertex
100
AcDbPolyFaceMeshVertex
 10
27.63039031503604
 20
35.06683641965732
 30
18.42966936157823
 70
   192
  0
VERTEX
  5
2F0
330
2EE
100
AcDbEntity
  8
0
100
AcDbVertex
100
AcDbPolyFaceMeshVertex
 10
27.89670222994554
 20
35.32323411247768
 30
10.93223834773215
 70
   192
  0
VERTEX
  5
2F1
330
2EE
100
AcDbEntity
  8
0
100
AcDbVertex
100
AcDbPolyFaceMeshVertex
 10
27.63039031503604
 20
35.15828703471239
 30
10.93022692997
 70
   192
  0
VERTEX
  5
2F2
330
2EE
100
AcDbEntity
  8
0
100
AcDbVertex
100
AcDbPolyFaceMeshVertex
 10
27.89670222994554
 20
35.23178349742261
 30
18.43168077934039
 70
   192
  0
VERTEX
  5
2F3
330
2EE
100
AcDbEntity
  8
0
100
AcDbFaceRecord
 10
0.0
 20
0.0
 30
0.0
 70
   128
 71
    -1
 72
     2
 73
     3
  0
VERTEX
  5
2F4
330
2EE
100
AcDbEntity
  8
0
100
AcDbFaceRecord
 10
0.0
 20
0.0
 30
0.0
 70
   128
 71
    -2
 72
     1
 73
     4
  0
SEQEND
  5
2F5
330
2EE
100
AcDbEntity
  8
0
  0
POLYLINE
  5
2F6
330
1F
100
AcDbEntity
  8
0
100
AcDbPolyFaceMesh
 66
     1
 10
0.0
 20
0.0
 30
0.0
 70
    64
 71
     4
 72
     2
  0
VERTEX
  5
2F7
330
2F6
100
AcDbEntity
  8
0
100
AcDbVertex
100
AcDbPolyFaceMeshVertex
 10
28.11124516722277
 20
35.46003161115117
 30
18.43446411031146
 70
   192
  0
VERTEX
  5
2F8
330
2F6
100
AcDbEntity
  8
0
100
AcDbVertex
100
AcDbPolyFaceMeshVertex
 10
27.89670222994554
 20
35.32323411247768
 30
10.93223834773215
 70
   192
  0
VERTEX
  5
2F9
330
2F6
100
AcDbEntity
  8
0
100
AcDbVertex
100
AcDbPolyFaceMeshVertex
 10
27.89670222994554
 20
35.23178349742261
 30
18.43168077934039
 70
   192
  0
VERTEX
  5
2FA
330
2F6
100
AcDbEntity
  8
0
100
AcDbVertex
100
AcDbPolyFaceMeshVertex
 10
28.11124516722277
 20
35.55148222620624
 30
10.93502167870322
 70
   192
  0
VERTEX
  5
2FB
330
2F6
100
AcDbEntity
  8
0
100
AcDbFaceRecord
 10
0.0
 20
0.0
 30
0.0
 70
   128
 71
    -1
 72
     2
 73
     3
  0
VERTEX
  5
2FC
330
2F6
100
AcDbEntity
  8
0
100
AcDbFaceRecord
 10
0.0
 20
0.0
 30
0.0
 70
   128
 71
    -2
 72
     1
 73
     4
  0
SEQEND
  5
2FD
330
2F6
100
AcDbEntity
  8
0
  0
POLYLINE
  5
2FE
330
1F
100
AcDbEntity
  8
0
100
AcDbPolyFaceMesh
 66
     1
 10
0.0
 20
0.0
 30
0.0
 70
    64
 71
     4
 72
     2
  0
VERTEX
  5
2FF
330
2FE
100
AcDbEntity
  8
0
100
AcDbVertex
100
AcDbPolyFaceMeshVertex
 10
28.25939838024125
 20
35.73602602909025
 30
18.43782967508543
 70
   192
  0
VERTEX
  5
300
330
2FE
100
AcDbEntity
  8
0
100
AcDbVertex
100
AcDbPolyFaceMeshVertex
 10
28.11124516722277
 20
35.55148222620624
 30
10.93502167870322
 70
   192
  0
VERTEX
  5
301
330
2FE
100
AcDbEntity
  8
0
100
AcDbVertex
100
AcDbPolyFaceMeshVertex
 10
28.11124516722277
 20
35.46003161115117
 30
18.43446411031146
 70
   192
  0
VERTEX
  5
302
330
2FE
100
AcDbEntity
  8
0
100
AcDbVertex
100
AcDbPolyFaceMeshVertex
 10
28.25939838024125
 20
35.82747664414532
 30
10.93838724347719
 70
   192
  0
VERTEX
  5
303
330
2FE
100
AcDbEntity
  8
0
100
AcDbFaceRecord
 10
0.0
 20
0.0
 30
0.0
 70
   128
 71
    -1
 72
     2
 73
     3
  0
VERTEX
  5
304
330
2FE
100
AcDbEntity
  8
0
100
AcDbFaceRecord
 10
0.0
 20
0.0
 30
0.0
 70
   128
 71
    -2
 72
     1
 73
     4
  0
SEQEND
  5
305
330
2FE
100
AcDbEntity
  8
0
  0
POLYLINE
  5
306
330
1F
100
AcDbEntity
  8
0
100
AcDbPolyFaceMesh
 66
     1
 10
0.0
 20
0.0
 30
0.0
 70
    64
 71
     4
 72
     2
  0
VERTEX
  5
307
330
306
100
AcDbEntity
  8
0
100
AcDbVertex
100
AcDbPolyFaceMeshVertex
 10
28.33106547236855
 20
36.04095818775966
 30
18.44154811598483
 70
   192
  0
VERTEX
  5
308
330
306
100
AcDbEntity
  8
0
100
AcDbVertex
100
AcDbPolyFaceMeshVertex
 10
28.25939838024125
 20
35.82747664414532
 30
10.93838724347719
 70
   192
  0
VERTEX
  5
309
330
306
100
AcDbEntity
  8
0
100
AcDbVertex
100
AcDbPolyFaceMeshVertex
 10
28.25939838024125
 20
35.73602602909025
 30
18.43782967508543
 70
   192
  0
VERTEX
  5
30A
330
306
100
AcDbEntity
  8
0
100
AcDbVertex
100
AcDbPolyFaceMeshVertex
 10
28.33106547236855
 20
36.13240880281472
 30
10.94210568437659
 70
   192
  0
VERTEX
  5
30B
330
306
100
AcDbEntity
  8
0
100
AcDbFaceRecord
 10
0.0
 20
0.0
 30
0.0
 70
   128
 71
    -1
 72
     2
 73
     3
  0
VERTEX
  5
30C
330
306
100
AcDbEntity
  8
0
100
AcDbFaceRecord
 10
0.0
 20
0.0
 30
0.0
 70
   128
 71
    -2
 72
     1
 73
     4
  0
SEQEND
  5
30D
330
306
100
AcDbEntity
  8
0
  0
POLYLINE
  5
30E
330
1F
100
AcDbEntity
  8
0
100
AcDbPolyFaceMesh
 66
     1
 10
0.0
 20
0.0
 30
0.0
 70
    64
 71
     4
 72
     2
  0
VERTEX
  5
30F
330
30E
100
AcDbEntity
  8
0
100
AcDbVertex
100
AcDbPolyFaceMeshVertex
 10
28.32136244971165
 20
36.35404746447026
 30
18.44536602740737
 70
   192
  0
VERTEX
  5
310
330
30E
100
AcDbEntity
  8
0
100
AcDbVertex
100
AcDbPolyFaceMeshVertex
 10
28.33106547236855
 20
36.13240880281472
 30
10.94210568437659
 70
   192
  0
VERTEX
  5
311
330
30E
100
AcDbEntity
  8
0
100
AcDbVertex
100
AcDbPolyFaceMeshVertex
 10
28.33106547236855
 20
36.04095818775966
 30
18.44154811598483
 70
   192
  0
VERTEX
  5
312
330
30E
100
AcDbEntity
  8
0
100
AcDbVertex
100
AcDbPolyFaceMeshVertex
 10
28.32136244971165
 20
36.44549807952533
 30
10.94592359579914
 70
   192
  0
VERTEX
  5
313
330
30E
100
AcDbEntity
  8
0
100
AcDbFaceRecord
 10
0.0
 20
0.0
 30
0.0
 70
   128
 71
    -1
 72
     2
 73
     3
  0
VERTEX
  5
314
330
30E
100
AcDbEntity
  8
0
100
AcDbFaceRecord
 10
0.0
 20
0.0
 30
0.0
 70
   128
 71
    -2
 72
     1
 73
     4
  0
SEQEND
  5
315
330
30E
100
AcDbEntity
  8
0
  0
POLYLINE
  5
316
330
1F
100
AcDbEntity
  8
0
100
AcDbPolyFaceMesh
 66
     1
 10
0.0
 20
0.0
 30
0.0
 70
    64
 71
     4
 72
     2
  0
VERTEX
  5
317
330
316
100
AcDbEntity
  8
0
100
AcDbVertex
100
AcDbPolyFaceMeshVertex
 10
28.23095055722962
 20
36.65395734241875
 30
18.44902322499901
 70
   192
  0
VERTEX
  5
318
330
316
100
AcDbEntity
  8
0
100
AcDbVertex
100
AcDbPolyFaceMeshVertex
 10
28.32136244971165
 20
36.44549807952533
 30
10.94592359579914
 70
   192
  0
VERTEX
  5
319
330
316
100
AcDbEntity
  8
0
100
AcDbVertex
100
AcDbPolyFaceMeshVertex
 10
28.32136244971165
 20
36.35404746447026
 30
18.44536602740737
 70
   192
  0
VERTEX
  5
31A
330
316
100
AcDbEntity
  8
0
100
AcDbVertex
100
AcDbPolyFaceMeshVertex
 10
28.23095055722962
 20
36.74540795747382
 30
10.94958079339077
 70
   192
  0
VERTEX
  5
31B
330
316
100
AcDbEntity
  8
0
100
AcDbFaceRecord
 10
0.0
 20
0.0
 30
0.0
 70
   128
 71
    -1
 72
     2
 73
     3
  0
VERTEX
  5
31C
330
316
100
AcDbEntity
  8
0
100
AcDbFaceRecord
 10
0.0
 20
0.0
 30
0.0
 70
   128
 71
    -2
 72
     1
 73
     4
  0
SEQEND
  5
31D
330
316
100
AcDbEntity
  8
0
  0
POLYLINE
  5
31E
330
1F
100
AcDbEntity
  8
0
100
AcDbPolyFaceMesh
 66
     1
 10
0.0
 20
0.0
 30
0.0
 70
    64
 71
     4
 72
     2
  0
VERTEX
  5
31F
330
31E
100
AcDbEntity
  8
0
100
AcDbVertex
100
AcDbPolyFaceMeshVertex
 10
28.06599121598239
 20
36.92024945904743
 30
18.45227047678767
 70
   192
  0
VERTEX
  5
320
330
31E
100
AcDbEntity
  8
0
100
AcDbVertex
100
AcDbPolyFaceMeshVertex
 10
28.23095055722962
 20
36.74540795747382
 30
10.94958079339077
 70
   192
  0
VERTEX
  5
321
330
31E
100
AcDbEntity
  8
0
100
AcDbVertex
100
AcDbPolyFaceMeshVertex
 10
28.23095055722962
 20
36.65395734241875
 30
18.44902322499901
 70
   192
  0
VERTEX
  5
322
330
31E
100
AcDbEntity
  8
0
100
AcDbVertex
100
AcDbPolyFaceMeshVertex
 10
28.06599121598239
 20
37.01170007410249
 30
10.95282804517943
 70
   192
  0
VERTEX
  5
323
330
31E
100
AcDbEntity
  8
0
100
AcDbFaceRecord
 10
0.0
 20
0.0
 30
0.0
 70
   128
 71
    -1
 72
     2
 73
     3
  0
VERTEX
  5
324
330
31E
100
AcDbEntity
  8
0
100
AcDbFaceRecord
 10
0.0
 20
0.0
 30
0.0
 70
   128
 71
    -2
 72
     1
 73
     4
  0
SEQEND
  5
325
330
31E
100
AcDbEntity
  8
0
  0
POLYLINE
  5
326
330
1F
100
AcDbEntity
  8
0
100
AcDbPolyFaceMesh
 66
     1
 10
0.0
 20
0.0
 30
0.0
 70
    64
 71
     4
 72
     2
  0
VERTEX
  5
327
330
326
100
AcDbEntity
  8
0
100
AcDbVertex
100
AcDbPolyFaceMeshVertex
 10
28.06599121598239
 20
36.92024945904743
 30
18.45227047678767
 70
   192
  0
VERTEX
  5
328
330
326
100
AcDbEntity
  8
0
100
AcDbVertex
100
AcDbPolyFaceMeshVertex
 10
27.83772613246775
 20
37.22622706173166
 30
10.95544405632206
 70
   192
  0
VERTEX
  5
329
330
326
100
AcDbEntity
  8
0
100
AcDbVertex
100
AcDbPolyFaceMeshVertex
 10
28.06599121598239
 20
37.01170007410249
 30
10.95282804517943
 70
   192
  0
VERTEX
  5
32A
330
326
100
AcDbEntity
  8
0
100
AcDbVertex
100
AcDbPolyFaceMeshVertex
 10
27.83772613246775
 20
37.1347764466766
 30
18.4548864879303
 70
   192
  0
VERTEX
  5
32B
330
326
100
AcDbEntity
  8
0
100
AcDbFaceRecord
 10
0.0
 20
0.0
 30
0.0
 70
   128
 71
    -1
 72
     2
 73
     3
  0
VERTEX
  5
32C
330
326
100
AcDbEntity
  8
0
100
AcDbFaceRecord
 10
0.0
 20
0.0
 30
0.0
 70
   128
 71
    -2
 72
     1
 73
     4
  0
SEQEND
  5
32D
330
326
100
AcDbEntity
  8
0
  0
POLYLINE
  5
32E
330
1F
100
AcDbEntity
  8
0
100
AcDbPolyFaceMesh
 66
     1
 10
0.0
 20
0.0
 30
0.0
 70
    64
 71
     4
 72
     2
  0
VERTEX
  5
32F
330
32E
100
AcDbEntity
  8
0
100
AcDbVertex
100
AcDbPolyFaceMeshVertex
 10
27.83772613246775
 20
37.1347764466766
 30
18.4548864879303
 70
   192
  0
VERTEX
  5
330
330
32E
100
AcDbEntity
  8
0
100
AcDbVertex
100
AcDbPolyFaceMeshVertex
 10
27.56171119490136
 20
37.37436926067698
 30
10.95725054998245
 70
   192
  0
VERTEX
  5
331
330
32E
100
AcDbEntity
  8
0
100
AcDbVertex
100
AcDbPolyFaceMeshVertex
 10
27.83772613246775
 20
37.22622706173166
 30
10.95544405632206
 70
   192
  0
VERTEX
  5
332
330
32E
100
AcDbEntity
  8
0
100
AcDbVertex
100
AcDbPolyFaceMeshVertex
 10
27.56171119490136
 20
37.28291864562192
 30
18.45669298159069
 70
   192
  0
VERTEX
  5
333
330
32E
100
AcDbEntity
  8
0
100
AcDbFaceRecord
 10
0.0
 20
0.0
 30
0.0
 70
   128
 71
    -1
 72
     2
 73
     3
  0
VERTEX
  5
334
330
32E
100
AcDbEntity
  8
0
100
AcDbFaceRecord
 10
0.0
 20
0.0
 30
0.0
 70
   128
 71
    -2
 72
     1
 73
     4
  0
SEQEND
  5
335
330
32E
100
AcDbEntity
  8
0
  0
POLYLINE
  5
336
330
1F
100
AcDbEntity
  8
0
100
AcDbPolyFaceMesh
 66
     1
 10
0.0
 20
0.0
 30
0.0
 70
    64
 71
     4
 72
     2
  0
VERTEX
  5
337
330
336
100
AcDbEntity
  8
0
100
AcDbVertex
100
AcDbPolyFaceMeshVertex
 10
27.56171119490136
 20
37.28291864562192
 30
18.45669298159069
 70
   192
  0
VERTEX
  5
338
330
336
100
AcDbEntity
  8
0
100
AcDbVertex
100
AcDbPolyFaceMeshVertex
 10
27.25675636514209
 20
37.4460310248969
 30
10.95812441660302
 70
   192
  0
VERTEX
  5
339
330
336
100
AcDbEntity
  8
0
100
AcDbVertex
100
AcDbPolyFaceMeshVertex
 10
27.56171119490136
 20
37.37436926067698
 30
10.95725054998245
 70
   192
  0
VERTEX
  5
33A
330
336
100
AcDbEntity
  8
0
100
AcDbVertex
100
AcDbPolyFaceMeshVertex
 10
27.25675636514209
 20
37.35458040984184
 30
18.45756684821126
 70
   192
  0
VERTEX
  5
33B
330
336
100
AcDbEntity
  8
0
100
AcDbFaceRecord
 10
0.0
 20
0.0
 30
0.0
 70
   128
 71
    -1
 72
     2
 73
     3
  0
VERTEX
  5
33C
330
336
100
AcDbEntity
  8
0
100
AcDbFaceRecord
 10
0.0
 20
0.0
 30
0.0
 70
   128
 71
    -2
 72
     1
 73
     4
  0
SEQEND
  5
33D
330
336
100
AcDbEntity
  8
0
  0
POLYLINE
  5
33E
330
1F
100
AcDbEntity
  8
0
100
AcDbPolyFaceMesh
 66
     1
 10
0.0
 20
0.0
 30
0.0
 70
    64
 71
     4
 72
     2
  0
VERTEX
  5
33F
330
33E
100
AcDbEntity
  8
0
100
AcDbVertex
100
AcDbPolyFaceMeshVertex
 10
27.25675636514209
 20
37.4460310248969
 30
10.95812441660302
 70
   192
  0
VERTEX
  5
340
330
33E
100
AcDbEntity
  8
0
100
AcDbVertex
100
AcDbPolyFaceMeshVertex
 10
26.94364381087638
 20
37.34487810853144
 30
18.45744853522594
 70
   192
  0
VERTEX
  5
341
330
33E
100
AcDbEntity
  8
0
100
AcDbVertex
100
AcDbPolyFaceMeshVertex
 10
26.94364381087638
 20
37.43632872358651
 30
10.9580061036177
 70
   192
  0
VERTEX
  5
342
330
33E
100
AcDbEntity
  8
0
100
AcDbVertex
100
AcDbPolyFaceMeshVertex
 10
27.25675636514209
 20
37.35458040984184
 30
18.45756684821126
 70
   192
  0
VERTEX
  5
343
330
33E
100
AcDbEntity
  8
0
100
AcDbFaceRecord
 10
0.0
 20
0.0
 30
0.0
 70
   128
 71
    -1
 72
     2
 73
     3
  0
VERTEX
  5
344
330
33E
100
AcDbEntity
  8
0
100
AcDbFaceRecord
 10
0.0
 20
0.0
 30
0.0
 70
   128
 71
    -2
 72
     1
 73
     4
  0
SEQEND
  5
345
330
33E
100
AcDbEntity
  8
0
  0
POLYLINE
  5
346
330
1F
100
AcDbEntity
  8
0
100
AcDbPolyFaceMesh
 66
     1
 10
0.0
 20
0.0
 30
0.0
 70
    64
 71
     4
 72
     2
  0
VERTEX
  5
347
330
346
100
AcDbEntity
  8
0
100
AcDbVertex
100
AcDbPolyFaceMeshVertex
 10
26.94364381087638
 20
37.43632872358651
 30
10.9580061036177
 70
   192
  0
VERTEX
  5
348
330
346
100
AcDbEntity
  8
0
100
AcDbVertex
100
AcDbPolyFaceMeshVertex
 10
26.64371163523445
 20
37.25447293749121
 30
18.45634610546917
 70
   192
  0
VERTEX
  5
349
330
346
100
AcDbEntity
  8
0
100
AcDbVertex
100
AcDbPolyFaceMeshVertex
 10
26.64371163523445
 20
37.34592355254627
 30
10.95690367386093
 70
   192
  0
VERTEX
  5
34A
330
346
100
AcDbEntity
  8
0
100
AcDbVertex
100
AcDbPolyFaceMeshVertex
 10
26.94364381087638
 20
37.34487810853144
 30
18.45744853522594
 70
   192
  0
VERTEX
  5
34B
330
346
100
AcDbEntity
  8
0
100
AcDbFaceRecord
 10
0.0
 20
0.0
 30
0.0
 70
   128
 71
    -1
 72
     2
 73
     3
  0
VERTEX
  5
34C
330
346
100
AcDbEntity
  8
0
100
AcDbFaceRecord
 10
0.0
 20
0.0
 30
0.0
 70
   128
 71
    -2
 72
     1
 73
     4
  0
SEQEND
  5
34D
330
346
100
AcDbEntity
  8
0
  0
POLYLINE
  5
34E
330
1F
100
AcDbEntity
  8
0
100
AcDbPolyFaceMesh
 66
     1
 10
0.0
 20
0.0
 30
0.0
 70
    64
 71
     4
 72
     2
  0
VERTEX
  5
34F
330
34E
100
AcDbEntity
  8
0
100
AcDbVertex
100
AcDbPolyFaceMeshVertex
 10
26.64371163523445
 20
37.34592355254627
 30
10.95690367386093
 70
   192
  0
VERTEX
  5
350
330
34E
100
AcDbEntity
  8
0
100
AcDbVertex
100
AcDbPolyFaceMeshVertex
 10
26.37739972032496
 20
37.08952585972592
 30
18.45433468770702
 70
   192
  0
VERTEX
  5
351
330
34E
100
AcDbEntity
  8
0
100
AcDbVertex
100
AcDbPolyFaceMeshVertex
 10
26.37739972032496
 20
37.18097647478098
 30
10.95489225609878
 70
   192
  0
VERTEX
  5
352
330
34E
100
AcDbEntity
  8
0
100
AcDbVertex
100
AcDbPolyFaceMeshVertex
 10
26.64371163523445
 20
37.25447293749121
 30
18.45634610546917
 70
   192
  0
VERTEX
  5
353
330
34E
100
AcDbEntity
  8
0
100
AcDbFaceRecord
 10
0.0
 20
0.0
 30
0.0
 70
   128
 71
    -1
 72
     2
 73
     3
  0
VERTEX
  5
354
330
34E
100
AcDbEntity
  8
0
100
AcDbFaceRecord
 10
0.0
 20
0.0
 30
0.0
 70
   128
 71
    -2
 72
     1
 73
     4
  0
SEQEND
  5
355
330
34E
100
AcDbEntity
  8
0
  0
POLYLINE
  5
356
330
1F
100
AcDbEntity
  8
0
100
AcDbPolyFaceMesh
 66
     1
 10
0.0
 20
0.0
 30
0.0
 70
    64
 71
     4
 72
     2
  0
VERTEX
  5
357
330
356
100
AcDbEntity
  8
0
100
AcDbVertex
100
AcDbPolyFaceMeshVertex
 10
26.16285678304772
 20
36.95272836105242
 30
10.95210892512771
 70
   192
  0
VERTEX
  5
358
330
356
100
AcDbEntity
  8
0
100
AcDbVertex
100
AcDbPolyFaceMeshVertex
 10
26.37739972032496
 20
37.08952585972592
 30
18.45433468770702
 70
   192
  0
VERTEX
  5
359
330
356
100
AcDbEntity
  8
0
100
AcDbVertex
100
AcDbPolyFaceMeshVertex
 10
26.16285678304772
 20
36.86127774599736
 30
18.45155135673595
 70
   192
  0
VERTEX
  5
35A
330
356
100
AcDbEntity
  8
0
100
AcDbVertex
100
AcDbPolyFaceMeshVertex
 10
26.37739972032496
 20
37.18097647478098
 30
10.95489225609878
 70
   192
  0
VERTEX
  5
35B
330
356
100
AcDbEntity
  8
0
100
AcDbFaceRecord
 10
0.0
 20
0.0
 30
0.0
 70
   128
 71
    -1
 72
     2
 73
     3
  0
VERTEX
  5
35C
330
356
100
AcDbEntity
  8
0
100
AcDbFaceRecord
 10
0.0
 20
0.0
 30
0.0
 70
   128
 71
    -2
 72
     1
 73
     4
  0
SEQEND
  5
35D
330
356
100
AcDbEntity
  8
0
  0
POLYLINE
  5
35E
330
1F
100
AcDbEntity
  8
0
100
AcDbPolyFaceMesh
 66
     1
 10
0.0
 20
0.0
 30
0.0
 70
    64
 71
     4
 72
     2
  0
VERTEX
  5
35F
330
35E
100
AcDbEntity
  8
0
100
AcDbVertex
100
AcDbPolyFaceMeshVertex
 10
26.01470357002924
 20
36.67673394311334
 30
10.94874336035374
 70
   192
  0
VERTEX
  5
360
330
35E
100
AcDbEntity
  8
0
100
AcDbVertex
100
AcDbPolyFaceMeshVertex
 10
26.16285678304772
 20
36.86127774599736
 30
18.45155135673595
 70
   192
  0
VERTEX
  5
361
330
35E
100
AcDbEntity
  8
0
100
AcDbVertex
100
AcDbPolyFaceMeshVertex
 10
26.01470357002924
 20
36.58528332805827
 30
18.44818579196198
 70
   192
  0
VERTEX
  5
362
330
35E
100
AcDbEntity
  8
0
100
AcDbVertex
100
AcDbPolyFaceMeshVertex
 10
26.16285678304772
 20
36.95272836105242
 30
10.95210892512771
 70
   192
  0
VERTEX
  5
363
330
35E
100
AcDbEntity
  8
0
100
AcDbFaceRecord
 10
0.0
 20
0.0
 30
0.0
 70
   128
 71
    -1
 72
     2
 73
     3
  0
VERTEX
  5
364
330
35E
100
AcDbEntity
  8
0
100
AcDbFaceRecord
 10
0.0
 20
0.0
 30
0.0
 70
   128
 71
    -2
 72
     1
 73
     4
  0
SEQEND
  5
365
330
35E
100
AcDbEntity
  8
0
  0
POLYLINE
  5
366
330
1F
100
AcDbEntity
  8
0
100
AcDbPolyFaceMesh
 66
     1
 10
0.0
 20
0.0
 30
0.0
 70
    64
 71
     4
 72
     2
  0
VERTEX
  5
367
330
366
100
AcDbEntity
  8
0
100
AcDbVertex
100
AcDbPolyFaceMeshVertex
 10
25.94303647790194
 20
36.37180178444394
 30
10.94502491945434
 70
   192
  0
VERTEX
  5
368
330
366
100
AcDbEntity
  8
0
100
AcDbVertex
100
AcDbPolyFaceMeshVertex
 10
26.01470357002924
 20
36.58528332805827
 30
18.44818579196198
 70
   192
  0
VERTEX
  5
369
330
366
100
AcDbEntity
  8
0
100
AcDbVertex
100
AcDbPolyFaceMeshVertex
 10
25.94303647790194
 20
36.28035116938887
 30
18.44446735106257
 70
   192
  0
VERTEX
  5
36A
330
366
100
AcDbEntity
  8
0
100
AcDbVertex
100
AcDbPolyFaceMeshVertex
 10
26.01470357002924
 20
36.67673394311334
 30
10.94874336035374
 70
   192
  0
VERTEX
  5
36B
330
366
100
AcDbEntity
  8
0
100
AcDbFaceRecord
 10
0.0
 20
0.0
 30
0.0
 70
   128
 71
    -1
 72
     2
 73
     3
  0
VERTEX
  5
36C
330
366
100
AcDbEntity
  8
0
100
AcDbFaceRecord
 10
0.0
 20
0.0
 30
0.0
 70
   128
 71
    -2
 72
     1
 73
     4
  0
SEQEND
  5
36D
330
366
100
AcDbEntity
  8
0
  0
POLYLINE
  5
36E
330
1F
100
AcDbEntity
  8
0
100
AcDbPolyFaceMesh
 66
     1
 10
0.0
 20
0.0
 30
0.0
 70
    64
 71
     4
 72
     2
  0
VERTEX
  5
36F
330
36E
100
AcDbEntity
  8
0
100
AcDbVertex
100
AcDbPolyFaceMeshVertex
 10
25.95273950055884
 20
36.05871250773333
 30
10.94120700803179
 70
   192
  0
VERTEX
  5
370
330
36E
100
AcDbEntity
  8
0
100
AcDbVertex
100
AcDbPolyFaceMeshVertex
 10
25.94303647790194
 20
36.28035116938887
 30
18.44446735106257
 70
   192
  0
VERTEX
  5
371
330
36E
100
AcDbEntity
  8
0
100
AcDbVertex
100
AcDbPolyFaceMeshVertex
 10
25.95273950055884
 20
35.96726189267827
 30
18.44064943964003
 70
   192
  0
VERTEX
  5
372
330
36E
100
AcDbEntity
  8
0
100
AcDbVertex
100
AcDbPolyFaceMeshVertex
 10
25.94303647790194
 20
36.37180178444394
 30
10.94502491945434
 70
   192
  0
VERTEX
  5
373
330
36E
100
AcDbEntity
  8
0
100
AcDbFaceRecord
 10
0.0
 20
0.0
 30
0.0
 70
   128
 71
    -1
 72
     2
 73
     3
  0
VERTEX
  5
374
330
36E
100
AcDbEntity
  8
0
100
AcDbFaceRecord
 10
0.0
 20
0.0
 30
0.0
 70
   128
 71
    -2
 72
     1
 73
     4
  0
SEQEND
  5
375
330
36E
100
AcDbEntity
  8
0
  0
ENDSEC
  0
SECTION
  2
OBJECTS
  0
DICTIONARY
  5
C
330
0
100
AcDbDictionary
  3
ACAD_GROUP
350
D
  3
ACAD_LAYOUT
350
1A
  3
ACAD_MATERIAL
350
43
  3
ACAD_MLEADERSTYLE
350
6B
  3
ACAD_MLINESTYLE
350
17
  3
ACAD_PLOTSETTINGS
350
19
  3
ACAD_SCALELIST
350
47
  3
ACAD_VISUALSTYLE
350
2A
  3
ACDBHEADERROUNDTRIPXREC
350
376
  3
ACDBVARIABLEDICTIONARY
350
397
  0
DICTIONARY
  5
39E
330
8
100
AcDbDictionary
280
     1
  3
ACAD_XREC_ROUNDTRIP
360
39F
  0
DICTIONARY
  5
D
102
{ACAD_REACTORS
330
C
102
}
330
C
100
AcDbDictionary
  0
DICTIONARY
  5
1A
102
{ACAD_REACTORS
330
C
102
}
330
C
100
AcDbDictionary
  0
DICTIONARY
  5
43
102
{ACAD_REACTORS
330
C
102
}
330
C
100
AcDbDictionary
  3
BYBLOCK
350
45
  3
BYLAYER
350
44
  3
GLOBAL
350
46
  0
DICTIONARY
  5
6B
102
{ACAD_REACTORS
330
C
102
}
330
C
100
AcDbDictionary
  3
STANDARD
350
6C
  0
DICTIONARY
  5
17
102
{ACAD_REACTORS
330
C
102
}
330
C
100
AcDbDictionary
  3
STANDARD
350
18
  0
DICTIONARY
  5
19
102
{ACAD_REACTORS
330
C
102
}
330
C
100
AcDbDictionary
  0
DICTIONARY
  5
47
102
{ACAD_REACTORS
330
C
102
}
330
C
100
AcDbDictionary
  3
A0
350
48
  3
A1
350
49
  3
A2
350
4A
  3
A3
350
4B
  3
A4
350
4C
  3
A5
350
4D
  3
A6
350
4E
  3
A7
350
4F
  3
A8
350
50
  3
A9
350
51
  3
B0
350
52
  3
B1
350
53
  3
B2
350
54
  3
B3
350
55
  3
B4
350
56
  3
B5
350
57
  3
B6
350
58
  3
B7
350
59
  3
B8
350
5A
  3
B9
350
5B
  3
C0
350
5C
  3
C1
350
5D
  3
C2
350
5E
  3
C3
350
5F
  3
C4
350
60
  3
C5
350
61
  3
C6
350
62
  3
C7
350
63
  3
C8
350
64
  3
C9
350
65
  3
D0
350
66
  3
D1
350
67
  3
D2
350
68
  0
DICTIONARY
  5
2A
102
{ACAD_REACTORS
330
C
102
}
330
C
100
AcDbDictionary
  3
2DWIREFRAME
350
2F
  3
BASIC
350
32
  3
BRIGHTEN
350
36
  3
COLORCHANGE
350
3A
  3
CONCEPTUAL
350
34
  3
DIM
350
35
  3
EDGECOLOROFF
350
3D
  3
FACEPATTERN
350
39
  3
FLAT
350
2B
  3
FLATWITHEDGES
350
2C
  3
GOURAUD
350
2D
  3
GOURAUDWITHEDGES
350
2E
  3
HIDDEN
350
31
  3
JITTEROFF
350
3B
  3
LINEPATTERN
350
38
  3
OVERHANGOFF
350
3C
  3
REALISTIC
350
33
  3
SHADED
350
42
  3
SHADED_WITH_EDGES
350
41
  3
SHADES_OF_GRAY
350
3E
  3
SKETCHY
350
3F
  3
THICKEN
350
37
  3
WIREFRAME
350
30
  3
X-RAY
350
40
  0
DICTIONARY
  5
376
102
{ACAD_REACTORS
330
C
102
}
330
C
100
AcDbDictionary
  3
CEPSNID
350
380
  3
CEPSNTYPE
350
37F
  3
DIMSTYLEDATA
350
396
  3
FINGERPRINTGUID
350
381
  3
HYPERLINKBASE
350
379
  3
INSUNITS
350
37E
  3
LAYOUTDICT
350
37B
  3
LWETCUNION
350
37D
  3
PLOTSETDICT
350
37C
  3
PSVPSCALE
350
383
  3
PUCSBASE
350
386
  3
PUCSORGBACK
350
38C
  3
PUCSORGBOTTOM
350
388
  3
PUCSORGFRONT
350
38B
  3
PUCSORGLEFT
350
389
  3
PUCSORGRIGHT
350
38A
  3
PUCSORGTOP
350
387
  3
PUCSORTHOREF
350
384
  3
PUCSORTHOVIEW
350
385
  3
STYLESHEET
350
37A
  3
TSTACKALIGN
350
377
  3
TSTACKSIZE
350
378
  3
UCSBASE
350
38F
  3
UCSORGBACK
350
395
  3
UCSORGBOTTOM
350
391
  3
UCSORGFRONT
350
394
  3
UCSORGLEFT
350
392
  3
UCSORGRIGHT
350
393
  3
UCSORGTOP
350
390
  3
UCSORTHOREF
350
38D
  3
UCSORTHOVIEW
350
38E
  3
VERSIONGUID
350
382
  0
DICTIONARY
  5
397
102
{ACAD_REACTORS
330
C
102
}
330
C
100
AcDbDictionary
  3
CANNOSCALE
350
3A0
  3
CMLEADERSTYLE
350
399
  3
CTABLESTYLE
350
398
  3
DIMASSOC
350
39C
  3
HIDETEXT
350
39D
  3
MSLTSCALE
350
3A1
  0
XRECORD
  5
39F
102
{ACAD_REACTORS
330
39E
102
}
330
39E
100
AcDbXrecord
102
VTR_0.000_0.000_1.000_1.000_VISUALSTYLE
340
2F
102
VTR_0.000_0.000_1.000_1.000_GRIDDISPLAY
 70
     3
102
VTR_0.000_0.000_1.000_1.000_GRIDMAJOR
 70
     5
102
VTR_0.000_0.000_1.000_1.000_DEFAULTLIGHTING
280
     1
102
VTR_0.000_0.000_1.000_1.000_DEFAULTLIGHTINGTYPE
 70
     1
102
VTR_0.000_0.000_1.000_1.000_BRIGHTNESS
141
0.0
102
VTR_0.000_0.000_1.000_1.000_CONTRAST
142
0.0
  0
MATERIAL
  5
45
102
{ACAD_REACTORS
330
43
102
}
102
{ACAD_XDICTIONARY
360
3A4
102
}
330
43
100
AcDbMaterial
  1
BYBLOCK
  0
MATERIAL
  5
44
102
{ACAD_REACTORS
330
43
102
}
102
{ACAD_XDICTIONARY
360
3A2
102
}
330
43
100
AcDbMaterial
  1
BYLAYER
  0
MATERIAL
  5
46
102
{ACAD_REACTORS
330
43
102
}
102
{ACAD_XDICTIONARY
360
3A6
102
}
330
43
100
AcDbMaterial
  1
GLOBAL
  0
ACAD_PROXY_OBJECT
  5
6C
102
{ACAD_REACTORS
330
6B
102
}
330
6B
100
AcDbProxyObject
 90
      499
 91
      505
 93
      610
310
40901902A4063FBFFFFFE056BD1B81E855B9FC0AD7A3703D0AD73F4214DD185B99185C9900AD7A3703D0AC73F90141901A02B5E8DC0F42B1CFC02B5E8DC0F42B1CFE5764000000000000300FC0
340
14
340
0
340
11
340
0
 94
        0
1001
ACAD_MLEADERVER
1070
     2
  0
MLINESTYLE
  5
18
102
{ACAD_REACTORS
330
17
102
}
330
17
100
AcDbMlineStyle
  2
Standard
 70
     0
  3

 62
   256
 51
90.0
 52
90.0
 71
     2
 49
0.5
 62
   256
  6
BYLAYER
 49
-0.5
 62
   256
  6
BYLAYER
  0
ACAD_PROXY_OBJECT
  5
48
102
{ACAD_REACTORS
330
47
102
}
330
47
100
AcDbProxyObject
 90
      499
 91
      503
 93
       41
310
903313A31580
  0
ACAD_PROXY_OBJECT
  5
49
102
{ACAD_REACTORS
330
47
102
}
330
47
100
AcDbProxyObject
 90
      499
 91
      503
 93
      105
310
903313A324000000000000004000
  0
ACAD_PROXY_OBJECT
  5
4A
102
{ACAD_REACTORS
330
47
102
}
330
47
100
AcDbProxyObject
 90
      499
 91
      503
 93
      105
310
903313A344000000000000104000
  0
ACAD_PROXY_OBJECT
  5
4B
102
{ACAD_REACTORS
330
47
102
}
330
47
100
AcDbProxyObject
 90
      499
 91
      503
 93
      105
310
903313A354000000000000144000
  0
ACAD_PROXY_OBJECT
  5
4C
102
{ACAD_REACTORS
330
47
102
}
330
47
100
AcDbProxyObject
 90
      499
 91
      503
 93
      105
310
903313A384000000000000204000
  0
ACAD_PROXY_OBJECT
  5
4D
102
{ACAD_REACTORS
330
47
102
}
330
47
100
AcDbProxyObject
 90
      499
 91
      503
 93
      113
310
904313A31304000000000000244000
  0
ACAD_PROXY_OBJECT
  5
4E
102
{ACAD_REACTORS
330
47
102
}
330
47
100
AcDbProxyObject
 90
      499
 91
      503
 93
      113
310
904313A31364000000000000304000
  0
ACAD_PROXY_OBJECT
  5
4F
102
{ACAD_REACTORS
330
47
102
}
330
47
100
AcDbProxyObject
 90
      499
 91
      503
 93
      113
310
904313A32304000000000000344000
  0
ACAD_PROXY_OBJECT
  5
50
102
{ACAD_REACTORS
330
47
102
}
330
47
100
AcDbProxyObject
 90
      499
 91
      503
 93
      113
310
904313A333040000000000003E4000
  0
ACAD_PROXY_OBJECT
  5
51
102
{ACAD_REACTORS
330
47
102
}
330
47
100
AcDbProxyObject
 90
      499
 91
      503
 93
      113
310
904313A34304000000000000444000
  0
ACAD_PROXY_OBJECT
  5
52
102
{ACAD_REACTORS
330
47
102
}
330
47
100
AcDbProxyObject
 90
      499
 91
      503
 93
      113
310
904313A35304000000000000494000
  0
ACAD_PROXY_OBJECT
  5
53
102
{ACAD_REACTORS
330
47
102
}
330
47
100
AcDbProxyObject
 90
      499
 91
      503
 93
      121
310
905313A3130304000000000000594000
  0
ACAD_PROXY_OBJECT
  5
54
102
{ACAD_REACTORS
330
47
102
}
330
47
100
AcDbProxyObject
 90
      499
 91
      503
 93
      105
310
903323A310000000000000010100
  0
ACAD_PROXY_OBJECT
  5
55
102
{ACAD_REACTORS
330
47
102
}
330
47
100
AcDbProxyObject
 90
      499
 91
      503
 93
      105
310
903343A310000000000000410100
  0
ACAD_PROXY_OBJECT
  5
56
102
{ACAD_REACTORS
330
47
102
}
330
47
100
AcDbProxyObject
 90
      499
 91
      503
 93
      105
310
903383A310000000000000810100
  0
ACAD_PROXY_OBJECT
  5
57
102
{ACAD_REACTORS
330
47
102
}
330
47
100
AcDbProxyObject
 90
      499
 91
      503
 93
      113
310
90431303A310000000000000910100
  0
ACAD_PROXY_OBJECT
  5
58
102
{ACAD_REACTORS
330
47
102
}
330
47
100
AcDbProxyObject
 90
      499
 91
      503
 93
      121
310
9053130303A310000000000001650100
  0
ACAD_PROXY_OBJECT
  5
59
102
{ACAD_REACTORS
330
47
102
}
330
47
100
AcDbProxyObject
 90
      499
 91
      503
 93
      257
310
90E312F31323822203D2031272D3022000000000000200FC000000000000284000
  0
ACAD_PROXY_OBJECT
  5
5A
102
{ACAD_REACTORS
330
47
102
}
330
47
100
AcDbProxyObject
 90
      499
 91
      503
 93
      249
310
90D312F363422203D2031272D3022000000000000240FC000000000000284000
  0
ACAD_PROXY_OBJECT
  5
5B
102
{ACAD_REACTORS
330
47
102
}
330
47
100
AcDbProxyObject
 90
      499
 91
      503
 93
      249
310
90D312F333222203D2031272D3022000000000000280FC000000000000284000
  0
ACAD_PROXY_OBJECT
  5
5C
102
{ACAD_REACTORS
330
47
102
}
330
47
100
AcDbProxyObject
 90
      499
 91
      503
 93
      249
310
90D312F313622203D2031272D30220000000000002C0FC000000000000284000
  0
ACAD_PROXY_OBJECT
  5
5D
102
{ACAD_REACTORS
330
47
102
}
330
47
100
AcDbProxyObject
 90
      499
 91
      503
 93
      249
310
90D332F333222203D2031272D30220000000000002E0FC000000000000284000
  0
ACAD_PROXY_OBJECT
  5
5E
102
{ACAD_REACTORS
330
47
102
}
330
47
100
AcDbProxyObject
 90
      499
 91
      503
 93
      241
310
90C312F3822203D2031272D3022000000000000300FC000000000000284000
  0
ACAD_PROXY_OBJECT
  5
5F
102
{ACAD_REACTORS
330
47
102
}
330
47
100
AcDbProxyObject
 90
      499
 91
      503
 93
      249
310
90D332F313622203D2031272D3022000000000000320FC000000000000284000
  0
ACAD_PROXY_OBJECT
  5
60
102
{ACAD_REACTORS
330
47
102
}
330
47
100
AcDbProxyObject
 90
      499
 91
      503
 93
      241
310
90C312F3422203D2031272D3022000000000000340FC000000000000284000
  0
ACAD_PROXY_OBJECT
  5
61
102
{ACAD_REACTORS
330
47
102
}
330
47
100
AcDbProxyObject
 90
      499
 91
      503
 93
      241
310
90C332F3822203D2031272D3022000000000000360FC000000000000284000
  0
ACAD_PROXY_OBJECT
  5
62
102
{ACAD_REACTORS
330
47
102
}
330
47
100
AcDbProxyObject
 90
      499
 91
      503
 93
      241
310
90C312F3222203D2031272D3022000000000000380FC000000000000284000
  0
ACAD_PROXY_OBJECT
  5
63
102
{ACAD_REACTORS
330
47
102
}
330
47
100
AcDbProxyObject
 90
      499
 91
      503
 93
      241
310
90C332F3422203D2031272D30220000000000003A0FC000000000000284000
  0
ACAD_PROXY_OBJECT
  5
64
102
{ACAD_REACTORS
330
47
102
}
330
47
100
AcDbProxyObject
 90
      499
 91
      503
 93
      161
310
90A3122203D2031272D30224000000000000284000
  0
ACAD_PROXY_OBJECT
  5
65
102
{ACAD_REACTORS
330
47
102
}
330
47
100
AcDbProxyObject
 90
      499
 91
      503
 93
      257
310
90E312D312F3222203D2031272D30220000000000003E0FC000000000000284000
  0
ACAD_PROXY_OBJECT
  5
66
102
{ACAD_REACTORS
330
47
102
}
330
47
100
AcDbProxyObject
 90
      499
 91
      503
 93
      225
310
90A3322203D2031272D302200000000000002100000000000000284000
  0
ACAD_PROXY_OBJECT
  5
67
102
{ACAD_REACTORS
330
47
102
}
330
47
100
AcDbProxyObject
 90
      499
 91
      503
 93
      225
310
90A3622203D2031272D302200000000000006100000000000000284000
  0
ACAD_PROXY_OBJECT
  5
68
102
{ACAD_REACTORS
330
47
102
}
330
47
100
AcDbProxyObject
 90
      499
 91
      503
 93
      249
310
90D31272D3022203D2031272D30220000000000000A100000000000000284000
  0
ACAD_PROXY_OBJECT
  5
2F
102
{ACAD_REACTORS
330
2A
102
}
330
2A
100
AcDbProxyObject
 90
      499
 91
      501
 93
      436
310
42CC9915DA5C99599C985B595049028333333333333E33F0000000000000F90107901411070040501600405405064090741402480A0340
1001
ACAD
1000
AcDbSavedByObjectVersion
1070
     0
  0
ACAD_PROXY_OBJECT
  5
32
102
{ACAD_REACTORS
330
2A
102
}
330
2A
100
AcDbProxyObject
 90
      499
 91
      501
 93
      388
310
4150985CDA58D07406404333333333333E33F0000000000000F90107A41107004050150841D405064090741402480A0350
1001
ACAD
1000
AcDbSavedByObjectVersion
1070
     0
  0
ACAD_PROXY_OBJECT
  5
36
102
{ACAD_REACTORS
330
2A
102
}
330
2A
100
AcDbProxyObject
 90
      499
 91
      501
 93
      428
310
42109C9A59DA1D195B90C409028333333333333E33F0000000000000F9010790141107004050150841D405064090741402480A029950
1001
ACAD
1000
AcDbSavedByObjectVersion
1070
     0
  0
ACAD_PROXY_OBJECT
  5
3A
102
{ACAD_REACTORS
330
2A
102
}
330
2A
100
AcDbProxyObject
 90
      499
 91
      501
 93
      452
310
42D0DBDB1BDC90DA185B99D95104090240C333333333333E33F0000000000000F90108901411070040501508421405064090741402480A0350
1001
ACAD
1000
AcDbSavedByObjectVersion
1070
     0
  0
ACAD_PROXY_OBJECT
  5
34
102
{ACAD_REACTORS
330
2A
102
}
330
2A
100
AcDbProxyObject
 90
      499
 91
      501
 93
      500
310
4290DBDB98D95C1D1D585B10940D028333333333333E33F0000000000000F90107902409070040501000000000018199010841D405064090740C02480A0340
1001
ACAD
1000
AcDbSavedByObjectVersion
1070
     0
  0
ACAD_PROXY_OBJECT
  5
35
102
{ACAD_REACTORS
330
2A
102
}
330
2A
100
AcDbProxyObject
 90
      499
 91
      501
 93
      412
310
40D11A5B50B409028333333333333E33F0000000000000F9010790141107004050150841D405064090741402480A02677FFFFFD0
1001
ACAD
1000
AcDbSavedByObjectVersion
1070
     0
  0
ACAD_PROXY_OBJECT
  5
3D
102
{ACAD_REACTORS
330
2A
102
}
330
2A
100
AcDbProxyObject
 90
      499
 91
      501
 93
      452
310
43115919D950DBDB1BDC93D999916409028333333333333E33F0000000000000F9010790141107004050150841D405064090741402480A0350
1001
ACAD
1000
AcDbSavedByObjectVersion
1070
     0
  0
ACAD_PROXY_OBJECT
  5
39
102
{ACAD_REACTORS
330
2A
102
}
330
2A
100
AcDbProxyObject
 90
      499
 91
      501
 93
      444
310
42D19858D95C185D1D195C9B90F409028333333333333E33F0000000000000F9010790141107004050150841D405064090741402480A0350
1001
ACAD
1000
AcDbSavedByObjectVersion
1070
     0
  0
ACAD_PROXY_OBJECT
  5
2B
102
{ACAD_REACTORS
330
2A
102
}
330
2A
100
AcDbProxyObject
 90
      499
 91
      501
 93
      380
310
41119B185D240901404333333333333E33F0000000000000F9010740A907004050150841D405064090741402480A1B50
1001
ACAD
1000
AcDbSavedByObjectVersion
1070
     0
  0
ACAD_PROXY_OBJECT
  5
2C
102
{ACAD_REACTORS
330
2A
102
}
330
2A
100
AcDbProxyObject
 90
      499
 91
      501
 93
      468
310
43519B185D15DA5D1A115919D95CD0140901404333333333333E33F0000000000000F90107409019070040501600405405064090741402480A1B50
1001
ACAD
1000
AcDbSavedByObjectVersion
1070
     0
  0
ACAD_PROXY_OBJECT
  5
2D
102
{ACAD_REACTORS
330
2A
102
}
330
2A
100
AcDbProxyObject
 90
      499
 91
      501
 93
      404
310
41D1DBDD5C985D5910240902404333333333333E33F0000000000000F9010740A9070040501641D405064090741402480A1B50
1001
ACAD
1000
AcDbSavedByObjectVersion
1070
     0
  0
ACAD_PROXY_OBJECT
  5
2E
102
{ACAD_REACTORS
330
2A
102
}
330
2A
100
AcDbProxyObject
 90
      499
 91
      501
 93
      492
310
4411DBDD5C985D5915DA5D1A115919D95CD0340902404333333333333E33F0000000000000F90107409019070040501600405405064090741402480A1B50
1001
ACAD
1000
AcDbSavedByObjectVersion
1070
     0
  0
ACAD_PROXY_OBJECT
  5
31
102
{ACAD_REACTORS
330
2A
102
}
330
2A
100
AcDbProxyObject
 90
      499
 91
      501
 93
      476
310
41921A5919195B90640502408333333333333E33F0000000000000F901079024090700405020000000000001110200405405064090740C02480A0340
1001
ACAD
1000
AcDbSavedByObjectVersion
1070
     0
  0
ACAD_PROXY_OBJECT
  5
3B
102
{ACAD_REACTORS
330
2A
102
}
330
2A
100
AcDbProxyObject
 90
      499
 91
      501
 93
      428
310
42529A5D1D195C93D999914409028333333333333E33F0000000000000F9010790141107004050150A41D405064090741402480A0350
1001
ACAD
1000
AcDbSavedByObjectVersion
1070
     0
  0
ACAD_PROXY_OBJECT
  5
38
102
{ACAD_REACTORS
330
2A
102
}
330
2A
100
AcDbProxyObject
 90
      499
 91
      501
 93
      444
310
42D31A5B995C185D1D195C9B90E409028333333333333E33F0000000000000F9010790141107004050750841D405064090741402483A0350
1001
ACAD
1000
AcDbSavedByObjectVersion
1070
     0
  0
ACAD_PROXY_OBJECT
  5
3C
102
{ACAD_REACTORS
330
2A
102
}
330
2A
100
AcDbProxyObject
 90
      499
 91
      501
 93
      444
310
42D3DD995C9A185B99D3D999915409028333333333333E33F0000000000000F9010790141107004050150941D405064090741402480A0350
1001
ACAD
1000
AcDbSavedByObjectVersion
1070
     0
  0
ACAD_PROXY_OBJECT
  5
33
102
{ACAD_REACTORS
330
2A
102
}
330
2A
100
AcDbProxyObject
 90
      499
 91
      501
 93
      428
310
425499585B1A5CDD1A58D08409038333333333333E33F0000000000000F9010740A907004050150800405405064090740C02480A1B40
1001
ACAD
1000
AcDbSavedByObjectVersion
1070
     0
  0
ACAD_PROXY_OBJECT
  5
42
102
{ACAD_REACTORS
330
2A
102
}
330
2A
100
AcDbProxyObject
 90
      499
 91
      501
 93
      420
310
4194DA1859195911B40902404333333333333E33F0000000000000F9010740A41107004050150800405405064090840C02480A0B40
1001
ACAD
1000
AcDbSavedByObjectVersion
1070
     0
  0
ACAD_PROXY_OBJECT
  5
41
102
{ACAD_REACTORS
330
2A
102
}
330
2A
100
AcDbProxyObject
 90
      499
 91
      501
 93
      516
310
4454DA18591959081DDA5D1A08195919D95CD1A40902404333333333333E33F0000000000000F901074090142907004050250800405405064090740C02480A0B40
1001
ACAD
1000
AcDbSavedByObjectVersion
1070
     0
  0
ACAD_PROXY_OBJECT
  5
3E
102
{ACAD_REACTORS
330
2A
102
}
330
2A
100
AcDbProxyObject
 90
      499
 91
      501
 93
      532
310
4394DA1859195CC81BD98811DC985E5174090240C333333333333E33F0000000000000F901079024090741D01000000000000111010841D405064090740C02480A0340
1001
ACAD
1000
AcDbSavedByObjectVersion
1070
     0
  0
ACAD_PROXY_OBJECT
  5
3F
102
{ACAD_REACTORS
330
2A
102
}
330
2A
100
AcDbProxyObject
 90
      499
 91
      501
 93
      476
310
41D4DAD95D18DA1E51840502408333333333333E33F0000000000000F901079024090741D01000000000000111010B41D405064090741802480A0340
1001
ACAD
1000
AcDbSavedByObjectVersion
1070
     0
  0
ACAD_PROXY_OBJECT
  5
37
102
{ACAD_REACTORS
330
2A
102
}
330
2A
100
AcDbProxyObject
 90
      499
 91
      501
 93
      412
310
41D51A1A58DAD95B90D409028333333333333E33F0000000000000F9010790141107004050150C41D405064090741402480A0350
1001
ACAD
1000
AcDbSavedByObjectVersion
1070
     0
  0
ACAD_PROXY_OBJECT
  5
30
102
{ACAD_REACTORS
330
2A
102
}
330
2A
100
AcDbProxyObject
 90
      499
 91
      501
 93
      420
310
4255DA5C99599C985B595059028333333333333E33F0000000000000F90107901411070040501600405405064090740C02480A0340
1001
ACAD
1000
AcDbSavedByObjectVersion
1070
     0
  0
ACAD_PROXY_OBJECT
  5
40
102
{ACAD_REACTORS
330
2A
102
}
330
2A
100
AcDbProxyObject
 90
      499
 91
      501
 93
      404
310
41560B54985E51940902404000000000000E03F0000000000000F9010740501907004050150841D405064090740C02480A1B40
1001
ACAD
1000
AcDbSavedByObjectVersion
1070
     0
  0
XRECORD
  5
380
102
{ACAD_REACTORS
330
376
102
}
330
376
100
AcDbXrecord
340
0
  0
XRECORD
  5
37F
102
{ACAD_REACTORS
330
376
102
}
330
376
100
AcDbXrecord
 90
        0
  0
XRECORD
  5
396
102
{ACAD_REACTORS
330
376
102
}
330
376
100
AcDbXrecord
1000
DSTYLE
1002
{
1070
   171
 70
     2
1070
   143
 40
25.4
1070
   274
 70
     2
1070
    41
 40
0.18
1070
   141
 40
0.09
1070
   271
 70
     4
1070
    43
 40
0.38
1070
   278
 70
    46
1070
    44
 40
0.18
1070
    42
 40
0.0625
1070
   147
 40
0.09
1070
    77
 70
     0
1070
   272
 70
     4
1070
    73
 70
     1
1070
   172
 70
     0
1070
    74
 70
     1
1070
   283
 70
     1
1070
   340
340
11
1070
   140
 40
0.18
1070
   284
 70
     0
1070
    78
 70
     0
1002
}
  0
XRECORD
  5
381
102
{ACAD_REACTORS
330
376
102
}
330
376
100
AcDbXrecord
  1
{9191E21C-5CAF-4661-A438-7B4CF627728A}
  0
XRECORD
  5
379
102
{ACAD_REACTORS
330
376
102
}
330
376
100
AcDbXrecord
  1

  0
XRECORD
  5
37E
102
{ACAD_REACTORS
330
376
102
}
330
376
100
AcDbXrecord
 90
        4
  0
XRECORD
  5
37B
102
{ACAD_REACTORS
330
376
102
}
330
376
100
AcDbXrecord
340
1A
  0
XRECORD
  5
37D
102
{ACAD_REACTORS
330
376
102
}
330
376
100
AcDbXrecord
 90
    10781
  0
XRECORD
  5
37C
102
{ACAD_REACTORS
330
376
102
}
330
376
100
AcDbXrecord
340
19
  0
XRECORD
  5
383
102
{ACAD_REACTORS
330
376
102
}
330
376
100
AcDbXrecord
 40
0.0
  0
XRECORD
  5
386
102
{ACAD_REACTORS
330
376
102
}
330
376
100
AcDbXrecord
340
0
  0
XRECORD
  5
38C
102
{ACAD_REACTORS
330
376
102
}
330
376
100
AcDbXrecord
 10
0.0
 20
0.0
 30
0.0
  0
XRECORD
  5
388
102
{ACAD_REACTORS
330
376
102
}
330
376
100
AcDbXrecord
 10
0.0
 20
0.0
 30
0.0
  0
XRECORD
  5
38B
102
{ACAD_REACTORS
330
376
102
}
330
376
100
AcDbXrecord
 10
0.0
 20
0.0
 30
0.0
  0
XRECORD
  5
389
102
{ACAD_REACTORS
330
376
102
}
330
376
100
AcDbXrecord
 10
0.0
 20
0.0
 30
0.0
  0
XRECORD
  5
38A
102
{ACAD_REACTORS
330
376
102
}
330
376
100
AcDbXrecord
 10
0.0
 20
0.0
 30
0.0
  0
XRECORD
  5
387
102
{ACAD_REACTORS
330
376
102
}
330
376
100
AcDbXrecord
 10
0.0
 20
0.0
 30
0.0
  0
XRECORD
  5
384
102
{ACAD_REACTORS
330
376
102
}
330
376
100
AcDbXrecord
340
0
  0
XRECORD
  5
385
102
{ACAD_REACTORS
330
376
102
}
330
376
100
AcDbXrecord
 70
     0
  0
XRECORD
  5
37A
102
{ACAD_REACTORS
330
376
102
}
330
376
100
AcDbXrecord
  1

  0
XRECORD
  5
377
102
{ACAD_REACTORS
330
376
102
}
330
376
100
AcDbXrecord
 90
        1
  0
XRECORD
  5
378
102
{ACAD_REACTORS
330
376
102
}
330
376
100
AcDbXrecord
 90
       70
  0
XRECORD
  5
38F
102
{ACAD_REACTORS
330
376
102
}
330
376
100
AcDbXrecord
340
0
  0
XRECORD
  5
395
102
{ACAD_REACTORS
330
376
102
}
330
376
100
AcDbXrecord
 10
0.0
 20
0.0
 30
0.0
  0
XRECORD
  5
391
102
{ACAD_REACTORS
330
376
102
}
330
376
100
AcDbXrecord
 10
0.0
 20
0.0
 30
0.0
  0
XRECORD
  5
394
102
{ACAD_REACTORS
330
376
102
}
330
376
100
AcDbXrecord
 10
0.0
 20
0.0
 30
0.0
  0
XRECORD
  5
392
102
{ACAD_REACTORS
330
376
102
}
330
376
100
AcDbXrecord
 10
0.0
 20
0.0
 30
0.0
  0
XRECORD
  5
393
102
{ACAD_REACTORS
330
376
102
}
330
376
100
AcDbXrecord
 10
0.0
 20
0.0
 30
0.0
  0
XRECORD
  5
390
102
{ACAD_REACTORS
330
376
102
}
330
376
100
AcDbXrecord
 10
0.0
 20
0.0
 30
0.0
  0
XRECORD
  5
38D
102
{ACAD_REACTORS
330
376
102
}
330
376
100
AcDbXrecord
340
0
  0
XRECORD
  5
38E
102
{ACAD_REACTORS
330
376
102
}
330
376
100
AcDbXrecord
 70
     0
  0
XRECORD
  5
382
102
{ACAD_REACTORS
330
376
102
}
330
376
100
AcDbXrecord
  1
{FAEB1C32-E019-11D5-929B-00C0DF256EC4}
  0
DICTIONARYVAR
  5
3A0
102
{ACAD_REACTORS
330
397
102
}
330
397
100
DictionaryVariables
280
     0
  1
1:1
  0
DICTIONARYVAR
  5
399
102
{ACAD_REACTORS
330
397
102
}
330
397
100
DictionaryVariables
280
     0
  1
Standard
  0
DICTIONARYVAR
  5
398
102
{ACAD_REACTORS
330
397
102
}
330
397
100
DictionaryVariables
280
     0
  1
Standard
  0
DICTIONARYVAR
  5
39C
102
{ACAD_REACTORS
330
397
102
}
330
397
100
DictionaryVariables
280
     0
  1
2
  0
DICTIONARYVAR
  5
39D
102
{ACAD_REACTORS
330
397
102
}
330
397
100
DictionaryVariables
280
     0
  1
1
  0
DICTIONARYVAR
  5
3A1
102
{ACAD_REACTORS
330
397
102
}
330
397
100
DictionaryVariables
280
     0
  1
1
  0
DICTIONARY
  5
3A4
330
45
100
AcDbDictionary
280
     1
  3
ACAD_XREC_ROUNDTRIP
360
3A5
  0
DICTIONARY
  5
3A2
330
44
100
AcDbDictionary
280
     1
  3
ACAD_XREC_ROUNDTRIP
360
3A3
  0
DICTIONARY
  5
3A6
330
46
100
AcDbDictionary
280
     1
  3
ACAD_XREC_ROUNDTRIP
360
3A7
  0
XRECORD
  5
3A5
102
{ACAD_REACTORS
330
3A4
102
}
330
3A4
100
AcDbXrecord
102
MATERIAL
148
0.0
149
0.0
149
0.0
 93
        0
 94
      127
282
     0
 72
     1
 77
     1
171
     1
175
     1
179
     1
273
     0
  0
XRECORD
  5
3A3
102
{ACAD_REACTORS
330
3A2
102
}
330
3A2
100
AcDbXrecord
102
MATERIAL
148
0.0
149
0.0
149
0.0
 93
        0
 94
      127
282
     0
 72
     1
 77
     1
171
     1
175
     1
179
     1
273
     0
  0
XRECORD
  5
3A7
102
{ACAD_REACTORS
330
3A6
102
}
330
3A6
100
AcDbXrecord
102
MATERIAL
148
0.0
149
0.0
149
0.0
 93
        0
 94
      127
282
     0
 72
     1
 77
     1
171
     1
175
     1
179
     1
273
     0
  0
ENDSEC
  0
EOF
